<svg width="257" height="257" viewBox="0 0 257 257" fill="none" xmlns="http://www.w3.org/2000/svg">
<circle cx="116.247" cy="144.037" r="112.298" fill="black"/>
<path d="M18.759 110.623C28.4863 50.1605 85.3836 9.03252 145.843 18.7601C206.302 28.4878 247.429 85.3878 237.702 145.85C227.974 206.312 171.076 247.44 110.617 237.712C50.1581 227.984 9.03178 171.084 18.759 110.623Z" fill="#EBEEEE" stroke="black" stroke-width="2"/>
<path d="M128.217 209.254C172.968 209.254 209.245 172.975 209.245 128.222C209.245 83.4694 172.968 47.1902 128.217 47.1902C83.4666 47.1902 47.189 83.4694 47.189 128.222C47.189 172.975 83.4666 209.254 128.217 209.254Z" fill="#E5E8E8"/>
<path opacity="0.1" d="M201.861 86.1834C197.124 85.4867 193.004 85.4867 189.561 85.8251C189.76 78.6594 189.003 68.7071 184.306 60.8845C177.957 50.2753 165.179 52.5843 158.093 54.9131C152.898 55.2913 147.703 57.5406 142.428 60.367C141.991 55.4506 141.254 49.8374 140.08 45.4186C139.662 43.8461 138.05 42.9305 136.477 43.3286C134.905 43.7466 133.969 45.3589 134.387 46.9314C135.681 51.7483 136.378 58.3367 136.776 63.5319C135.86 64.0494 134.965 64.5868 134.049 65.1043C134.049 65.1043 137.194 38.1534 110.861 40.2036C106.064 40.5818 101.088 44.1049 95.9134 49.2005C85.2052 52.4051 68.267 57.9585 60.425 63.074C59.0715 63.9698 58.6933 65.7811 59.5691 67.1346C60.1264 67.9905 61.0818 68.4682 62.0372 68.4682C62.5945 68.4682 63.1518 68.309 63.6494 67.9905C68.8642 64.5868 78.8758 60.8447 87.9718 57.859C86.6581 59.3917 85.3047 60.9841 83.9711 62.5963C79.8709 64.6266 75.4722 66.8758 71.0138 69.2246C56.6233 76.8481 43.8053 90.7614 41.1979 101.57C40.7998 103.222 40.7003 104.655 40.7799 105.889C36.5205 109.85 32.5796 113.313 28.2605 116.558C18.4877 123.903 15.0245 150.794 30.5494 162.976C32.7786 164.727 35.2666 166.081 37.7944 167.136C38.0332 170.161 38.491 173.585 39.3071 177.367C40.2425 181.726 42.2727 185.11 44.9 187.717C45.0991 192.633 45.736 197.49 47.1093 201.551C47.5273 202.765 48.6618 203.541 49.8959 203.541C50.2143 203.541 50.5328 203.482 50.8512 203.382C52.3838 202.864 53.1999 201.192 52.6824 199.66C51.926 197.43 51.4285 194.863 51.11 192.156C53.0606 193.131 55.1306 193.887 57.1806 194.445C58.7132 201.073 61.9376 207.741 68.2471 212.478C85.862 225.695 97.1076 212.936 109.846 209.99C122.584 207.044 131.86 214.927 131.86 214.927C131.86 214.927 137.731 224.222 155.346 223.247C163.745 222.789 170.015 219.604 175.469 213.653C188.645 207.383 197.263 198.943 203.195 179.357C205.762 170.838 209.106 162.398 212.132 155.392C219.934 147.311 226.761 140.702 227.776 132.223C229.726 116.08 220.252 88.9302 201.841 86.2232L201.861 86.1834ZM179.27 63.8901C183.47 70.8966 183.928 80.3712 183.629 86.8203C179.589 87.8155 177.419 89.0695 177.419 89.0695C177.419 89.0695 184.983 69.1649 172.264 59.3917C172.125 59.2922 171.986 59.2125 171.866 59.113C174.812 59.6106 177.519 60.9642 179.27 63.91V63.8901ZM73.8003 74.3998C73.8003 74.3998 73.9197 74.3401 73.9595 74.3202C70.9142 77.7239 67.7894 80.9683 64.6048 83.7749C58.2953 89.3482 53.1999 94.1651 48.7016 98.4247C52.6824 90.6619 62.077 80.6101 73.7804 74.4197L73.8003 74.3998ZM45.7758 169.624C45.5369 171.634 45.318 173.923 45.1389 176.351C45.1389 176.272 45.0792 176.212 45.0792 176.133C44.5417 173.664 44.1835 171.335 43.9247 169.186C44.5417 169.345 45.1787 169.504 45.7758 169.624ZM50.7318 185.05C50.692 179.855 51.1299 174.66 51.6076 170.539C54.8917 170.898 57.0811 170.858 57.0811 170.858C57.0811 170.858 55.3097 178.66 56.1656 187.996C54.2548 187.299 52.3838 186.344 50.7119 185.05H50.7318ZM197.582 177.625C194.039 189.349 189.7 196.455 183.709 201.61C186.476 196.515 189.182 190.543 192.069 183.577C194.417 177.944 197.343 173.127 200.488 168.808C199.453 171.694 198.478 174.64 197.562 177.625H197.582Z" fill="black"/>
<path d="M108.751 52.9229C108.751 52.9229 92.1516 60.3075 74.6164 69.603C55.9069 79.5155 41.8349 99.4002 46.9701 106.745" stroke="#FFD6A0" stroke-width="9.10463" stroke-miterlimit="10" stroke-linecap="round"/>
<path d="M108.373 47.1106C108.373 47.1106 75.6912 55.8487 64.2664 63.313" stroke="#FFD6A0" stroke-width="9.10463" stroke-miterlimit="10" stroke-linecap="round"/>
<path d="M52.1052 159.612C52.1052 159.612 47.3283 184.453 52.1052 198.386" stroke="#FFD6A0" stroke-width="9.10463" stroke-miterlimit="10" stroke-linecap="round"/>
<path d="M43.049 152.745C43.049 152.745 41.6358 161.722 44.4024 174.52C48.224 192.315 71.8099 190.524 71.8099 190.524" stroke="#FFD6A0" stroke-width="9.10463" stroke-miterlimit="10" stroke-linecap="round"/>
<path d="M219.715 134.831C219.715 134.831 208.947 155.293 202.578 176.292C196.208 197.291 187.172 204.636 170.771 211.245" stroke="#FFD6A0" stroke-width="9.10463" stroke-miterlimit="10" stroke-linecap="round"/>
<path d="M188.028 92.314C188.028 92.314 191.591 72.8472 184.008 60.1879C176.424 47.5285 156.62 57.3216 156.62 57.3216" stroke="#FFD6A0" stroke-width="9.10463" stroke-miterlimit="10" stroke-linecap="round"/>
<path d="M142.369 69.603C142.369 69.603 142.03 53.5997 139.463 43.9658" stroke="#FFD6A0" stroke-width="9.10463" stroke-miterlimit="10" stroke-linecap="round"/>
<path d="M136.278 62.8951C136.278 62.8951 139.423 35.9442 113.09 37.9944C99.2772 39.0692 83.9512 66.3983 66.8141 81.5657C49.677 96.733 41.2975 106.208 30.4698 114.329C20.6971 121.674 17.2338 148.565 32.7588 160.746C43.2878 169.007 59.2706 168.649 59.2706 168.649C59.2706 168.649 52.8417 197.033 70.4565 210.249C88.0713 223.466 99.317 210.707 112.055 207.761C124.794 204.815 134.069 212.698 134.069 212.698C134.069 212.698 139.941 221.993 157.555 221.018C175.17 220.042 183.49 207.323 194.258 181.368C205.026 155.432 228.015 146.136 229.985 129.974C231.936 113.831 222.462 86.6812 204.051 83.9741C188.565 81.6851 179.629 86.8603 179.629 86.8603C179.629 86.8603 187.192 66.9556 174.474 57.1825C161.755 47.3894 149.295 55.3711 136.278 62.8951Z" fill="#FFD6A0"/>
<path d="M67.1525 156.547C67.1525 156.547 37.7944 163.513 30.4698 145.539C24.5186 130.909 43.2878 111.781 43.2878 111.781" stroke="#D9B34F" stroke-width="9.10463" stroke-miterlimit="10" stroke-linecap="round"/>
<path d="M57.6186 111.761C57.6186 111.761 34.6297 128.083 41.8349 141.498C48.3434 153.62 76.7063 141.498 76.7063 141.498" stroke="#D9B34F" stroke-width="9.10463" stroke-miterlimit="10" stroke-linecap="round"/>
<path d="M67.1525 170.121C67.1525 170.121 62.0173 196.555 74.4969 203.88C86.9766 211.224 107.895 199.481 118.544 198.366C129.192 197.271 139.463 201.67 139.463 201.67" stroke="#D9B34F" stroke-width="9.10463" stroke-miterlimit="10" stroke-linecap="round"/>
<path d="M76.7062 175.635C76.7062 175.635 76.348 189.21 83.3143 193.251C90.2806 197.292 109.01 186.643 121.112 184.433" stroke="#D9B34F" stroke-width="9.10463" stroke-miterlimit="10" stroke-linecap="round"/>
<path d="M126.187 65.4031C126.187 65.4031 127.72 46.8121 118.425 44.3638C109.129 41.9156 104.731 51.211 94.9381 65.4031C85.1454 79.5951 67.1723 95.2601 67.1723 95.2601" stroke="#D9B34F" stroke-width="9.10463" stroke-miterlimit="10" stroke-linecap="round"/>
<path d="M118.902 81.3069C118.902 81.3069 135.084 74.3403 143.702 66.9954C152.301 59.6506 163.686 58.1777 169.199 62.9548C174.712 67.7319 176.544 79.8339 172.861 88.2735" stroke="#D9B34F" stroke-width="9.10463" stroke-miterlimit="10" stroke-linecap="round"/>
<path d="M136.895 85.7057C136.895 85.7057 151.942 69.7422 159.287 74.2407C166.631 78.7391 161.496 88.2735 161.496 88.2735" stroke="#D9B34F" stroke-width="9.10463" stroke-miterlimit="10" stroke-linecap="round"/>
<path d="M112.294 63.313C112.294 63.313 101.646 81.3068 89.9025 92.3141" stroke="#D9B34F" stroke-width="9.10463" stroke-miterlimit="10" stroke-linecap="round"/>
<path d="M146.847 206.288C146.847 206.288 156.361 213.454 166.253 206.288C176.165 199.123 176.165 186.264 176.165 171.594" stroke="#D9B34F" stroke-width="9.10463" stroke-miterlimit="10" stroke-linecap="round"/>
<path d="M164.78 156.188C164.78 156.188 169.557 192.156 157.814 195.838C146.071 199.501 144.598 184.095 133.591 183.358" stroke="#D9B34F" stroke-width="9.10463" stroke-miterlimit="10" stroke-linecap="round"/>
<path d="M178.375 95.2402C178.375 95.2402 204.25 84.5912 214.898 96.7131C225.547 108.835 225.368 126.63 216.55 136.363C207.733 146.097 191.77 161.503 188.466 170.122" stroke="#D9B34F" stroke-width="9.10463" stroke-miterlimit="10" stroke-linecap="round"/>
<path d="M179.648 111.224C179.648 111.224 200.01 97.8278 207.175 108.656C214.341 119.484 193.402 132.88 186.257 140.583C179.091 148.286 177.081 157.462 177.081 157.462" stroke="#D9B34F" stroke-width="9.10463" stroke-miterlimit="10" stroke-linecap="round"/>
<path d="M84.409 100.873C84.409 100.873 71.6905 113.592 64.1072 121.674C56.5238 129.755 57.0015 133.278 60.1861 134.811" stroke="#D9B34F" stroke-width="9.10463" stroke-miterlimit="10" stroke-linecap="round"/>
<path d="M74.6164 154.954C74.6164 154.954 82.2395 153.481 84.7872 160.826C87.3349 168.171 85.3843 177.466 91.9924 179.914C98.6004 182.363 114.265 173.804 114.265 173.804" stroke="#D9B34F" stroke-width="9.10463" stroke-miterlimit="10" stroke-linecap="round"/>
<path d="M196.726 117.852C196.726 117.852 161.496 136.841 157.336 148.605C153.176 160.348 151.704 177.725 151.704 177.725" stroke="#D9B34F" stroke-width="9.10463" stroke-miterlimit="10" stroke-linecap="round"/>
<path d="M152.938 83.3174C152.938 83.3174 148.519 72.2903 137.234 74.4201C125.948 76.5698 126.983 80.3516 118.166 81.0483C109.348 81.745 100.272 75.1764 88.8476 83.2975C75.3528 92.8916 73.8202 108.855 75.3727 118.21C76.9252 127.546 78.9753 139.886 73.4022 150.535C67.8292 161.184 77.3034 180.392 96.9484 175.197C116.613 170.002 115.32 186.563 131.661 191.519C148.002 196.475 159.426 187.658 160.72 171.037C162.014 154.417 176.623 165.006 183.172 156.109C193.303 142.355 182.176 129.019 188.764 113.931C196.009 97.39 176.544 77.0674 152.918 83.2975L152.938 83.3174Z" fill="#E84C3D"/>
<path d="M108.751 116.18C108.751 121.375 104.532 125.595 99.3369 125.595C94.142 125.595 89.9224 121.375 89.9224 116.18C89.9224 110.985 94.142 106.765 99.3369 106.765C104.532 106.765 108.751 110.985 108.751 116.18Z" fill="#A64429"/>
<path d="M119.28 97.3302C119.28 100.097 117.031 102.346 114.265 102.346C111.498 102.346 109.249 100.097 109.249 97.3302C109.249 94.5634 111.498 92.3142 114.265 92.3142C117.031 92.3142 119.28 94.5634 119.28 97.3302Z" fill="#A64429"/>
<path d="M93.087 134.831C93.087 137.597 90.8379 139.847 88.0713 139.847C85.3047 139.847 83.0555 137.597 83.0555 134.831C83.0555 132.064 85.3047 129.815 88.0713 129.815C90.8379 129.815 93.087 132.064 93.087 134.831Z" fill="#A64429"/>
<path d="M170.831 146.435C170.831 148.465 169.179 150.097 167.169 150.097C165.159 150.097 163.507 148.445 163.507 146.435C163.507 144.425 165.159 142.772 167.169 142.772C169.179 142.772 170.831 144.425 170.831 146.435Z" fill="#A64429"/>
<path d="M159.088 109.671C161.111 109.671 162.75 108.031 162.75 106.008C162.75 103.986 161.111 102.346 159.088 102.346C157.065 102.346 155.426 103.986 155.426 106.008C155.426 108.031 157.065 109.671 159.088 109.671Z" fill="#A64429"/>
<path d="M132.317 151.451C132.317 153.481 130.665 155.113 128.655 155.113C126.645 155.113 124.993 153.461 124.993 151.451C124.993 149.44 126.645 147.788 128.655 147.788C130.665 147.788 132.317 149.44 132.317 151.451Z" fill="#A64429"/>
<path d="M152.42 162.18C152.42 167.375 148.201 171.594 143.006 171.594C137.811 171.594 133.591 167.375 133.591 162.18C133.591 156.984 137.811 152.765 143.006 152.765C148.201 152.765 152.42 156.984 152.42 162.18Z" fill="#A64429"/>
<path d="M118.166 152.745C118.166 157.94 113.946 162.16 108.751 162.16C103.556 162.16 99.3369 157.94 99.3369 152.745C99.3369 147.55 103.556 143.33 108.751 143.33C113.946 143.33 118.166 147.55 118.166 152.745Z" fill="#A64429"/>
<path d="M146.31 97.6883C146.31 102.883 142.09 107.103 136.895 107.103C131.7 107.103 127.481 102.883 127.481 97.6883C127.481 92.4932 131.7 88.2734 136.895 88.2734C142.09 88.2734 146.31 92.4932 146.31 97.6883Z" fill="#A64429"/>
<path d="M168.502 127.267C168.502 132.462 164.283 136.682 159.088 136.682C153.893 136.682 149.674 132.462 149.674 127.267C149.674 122.072 153.893 117.852 159.088 117.852C164.283 117.852 168.502 122.072 168.502 127.267Z" fill="#A64429"/>
<path d="M68.287 131.666C69.5608 129.018 73.661 130.053 73.4221 132.999C73.3226 134.293 73.1236 135.527 72.8449 136.682C70.8346 144.783 70.0982 155.412 67.1524 160.766C64.4256 165.723 51.3688 165.285 56.1457 152.745C59.171 144.783 64.6844 139.13 68.287 131.666Z" fill="#E84C3D"/>
<path d="M186.436 156.188C186.436 156.188 184.784 162.976 177.081 165.723C169.378 168.469 163.327 173.286 163.686 180.352C164.044 187.419 172.304 188.673 174.215 183.895C176.126 179.118 172.861 176.551 181.32 170.121C189.78 163.692 192.506 157.462 191.79 151.948C191.053 146.435 187.749 149.938 186.476 156.168L186.436 156.188Z" fill="#E84C3D"/>
<path d="M126.565 75.7736C122.863 76.6096 119.002 76.2513 115.359 75.1963C111.18 74.002 103.039 72.549 95.4357 76.1518C84.6081 81.2872 84.0508 75.9726 87.1756 70.8372C90.3005 65.7018 103.576 69.006 114.265 70.8372C124.973 72.6684 127.182 64.6469 132.317 68.0904C136.019 70.5784 132.835 74.3603 126.585 75.7736H126.565Z" fill="#E84C3D"/>
<path d="M134.686 114.229C131.78 114.687 129.153 116.18 127.142 118.349C124.634 114.349 120.475 111.88 115.956 111.383C113.289 115.045 112.314 119.783 113.548 124.301C110.622 124.341 107.796 125.276 105.527 127.088C106.223 131.546 109.169 135.527 113.667 137.279C118.166 139.03 123.002 138.075 126.545 135.268C130.984 134.552 134.965 131.626 136.716 127.127C138.468 122.629 137.512 117.772 134.686 114.249V114.229Z" fill="#0C764A"/>
<path d="M156.6 137.219C155.266 134.612 153.037 132.562 150.35 131.327C153.376 127.705 154.411 122.968 153.495 118.529C149.196 117.135 144.379 117.673 140.458 120.26C139.503 117.494 137.731 115.085 135.303 113.493C131.282 115.543 128.416 119.584 128.157 124.401C127.899 129.218 130.307 133.517 134.069 136.005C136.119 140.006 140.14 142.872 144.976 143.131C149.813 143.39 154.112 140.961 156.6 137.199V137.219Z" fill="#00814C"/>
<path d="M122.584 85.248C122.584 85.248 119.639 85.9845 111.398 84.6111" stroke="#ED7064" stroke-width="9.10463" stroke-miterlimit="10" stroke-linecap="round"/>
<path d="M85.5037 94.2649C85.5037 94.2649 79.9904 99.3406 80.2491 111.363" stroke="#ED7064" stroke-width="9.10463" stroke-miterlimit="10" stroke-linecap="round"/>
<path d="M78.7762 159.612C78.7762 159.612 81.9609 169.405 88.0713 170.141" stroke="#ED7064" stroke-width="9.10463" stroke-miterlimit="10" stroke-linecap="round"/>
<path d="M146.847 184.891C146.847 184.891 150.848 183.358 153.594 176.272" stroke="#ED7064" stroke-width="9.10463" stroke-miterlimit="10" stroke-linecap="round"/>
<path d="M180.942 127.267C180.942 127.267 182.953 139.468 180.942 145.539" stroke="#ED7064" stroke-width="9.10463" stroke-miterlimit="10" stroke-linecap="round"/>
<path d="M164.661 88.2734C164.661 88.2734 177.38 89.1293 180.942 97.6883" stroke="#ED7064" stroke-width="9.10463" stroke-miterlimit="10" stroke-linecap="round"/>
<path d="M102.024 70.7775C102.024 70.7775 89.4248 67.971 88.0714 75.5546" stroke="#ED7064" stroke-width="4.56774" stroke-miterlimit="10" stroke-linecap="round"/>
<path d="M177.778 167.594C177.778 167.594 166.532 172.231 165.756 180.352" stroke="#ED7064" stroke-width="4.56774" stroke-miterlimit="10" stroke-linecap="round"/>
<path d="M61.2808 148.346C61.2808 148.346 53.4586 156.546 60.4249 162.179" stroke="#ED7064" stroke-width="4.56774" stroke-miterlimit="10" stroke-linecap="round"/>
<path d="M130.745 70.2598C130.745 70.2598 129.093 74.599 121.211 74.2208" stroke="#ED7064" stroke-width="4.56774" stroke-miterlimit="10" stroke-linecap="round"/>
<path d="M58.7929 97.3899C58.7929 98.1463 58.1759 98.7434 57.4395 98.7434C56.703 98.7434 56.086 98.1264 56.086 97.3899C56.086 96.6534 56.703 96.0364 57.4395 96.0364C58.1759 96.0364 58.7929 96.6534 58.7929 97.3899Z" fill="#D9B34F"/>
<path d="M64.0276 107.999C65.1598 107.999 66.0777 107.081 66.0777 105.949C66.0777 104.817 65.1598 103.899 64.0276 103.899C62.8953 103.899 61.9775 104.817 61.9775 105.949C61.9775 107.081 62.8953 107.999 64.0276 107.999Z" fill="#D9B34F"/>
<path d="M50.8313 166.578C51.6228 166.578 52.2644 165.937 52.2644 165.145C52.2644 164.354 51.6228 163.712 50.8313 163.712C50.0399 163.712 49.3983 164.354 49.3983 165.145C49.3983 165.937 50.0399 166.578 50.8313 166.578Z" fill="#D9B34F"/>
<path d="M89.8228 185.309C89.8228 186.105 89.1859 186.742 88.3897 186.742C87.5936 186.742 86.9567 186.105 86.9567 185.309C86.9567 184.512 87.5936 183.875 88.3897 183.875C89.1859 183.875 89.8228 184.512 89.8228 185.309Z" fill="#D9B34F"/>
<path d="M138.627 208.418C138.627 209.592 137.672 210.548 136.497 210.548C135.323 210.548 134.368 209.592 134.368 208.418C134.368 207.244 135.323 206.288 136.497 206.288C137.672 206.288 138.627 207.244 138.627 208.418Z" fill="#D9B34F"/>
<path d="M184.505 181.009C185.231 181.009 185.819 180.421 185.819 179.696C185.819 178.97 185.231 178.382 184.505 178.382C183.78 178.382 183.192 178.97 183.192 179.696C183.192 180.421 183.78 181.009 184.505 181.009Z" fill="#D9B34F"/>
<path d="M185.421 187.677C186.652 187.677 187.65 186.679 187.65 185.448C187.65 184.217 186.652 183.219 185.421 183.219C184.19 183.219 183.192 184.217 183.192 185.448C183.192 186.679 184.19 187.677 185.421 187.677Z" fill="#D9B34F"/>
<path d="M207.534 158.278C207.534 159.114 206.857 159.791 206.021 159.791C205.185 159.791 204.508 159.114 204.508 158.278C204.508 157.442 205.185 156.766 206.021 156.766C206.857 156.766 207.534 157.442 207.534 158.278Z" fill="#D9B34F"/>
<path d="M207.454 130.969C207.454 131.785 206.797 132.442 205.981 132.442C205.165 132.442 204.508 131.785 204.508 130.969C204.508 130.153 205.165 129.496 205.981 129.496C206.797 129.496 207.454 130.153 207.454 130.969Z" fill="#D9B34F"/>
<path d="M199.751 97.7083C199.751 98.5443 199.075 99.2211 198.239 99.2211C197.403 99.2211 196.726 98.5443 196.726 97.7083C196.726 96.8723 197.403 96.1956 198.239 96.1956C199.075 96.1956 199.751 96.8723 199.751 97.7083Z" fill="#D9B34F"/>
<path d="M163.009 67.4532C163.009 68.3489 162.273 69.0854 161.377 69.0854C160.481 69.0854 159.745 68.3489 159.745 67.4532C159.745 66.5575 160.481 65.821 161.377 65.821C162.273 65.821 163.009 66.5575 163.009 67.4532Z" fill="#D9B34F"/>
<path d="M118.763 59.0334C118.763 59.6703 118.245 60.1878 117.609 60.1878C116.972 60.1878 116.454 59.6703 116.454 59.0334C116.454 58.3964 116.972 57.8789 117.609 57.8789C118.245 57.8789 118.763 58.3964 118.763 59.0334Z" fill="#D9B34F"/>
<path d="M111.239 57.2621C112.097 57.2621 112.792 56.567 112.792 55.7095C112.792 54.8521 112.097 54.157 111.239 54.157C110.382 54.157 109.687 54.8521 109.687 55.7095C109.687 56.567 110.382 57.2621 111.239 57.2621Z" fill="#D9B34F"/>
<path d="M74.1984 79.834C74.759 79.834 75.2135 79.3795 75.2135 78.8188C75.2135 78.2582 74.759 77.8037 74.1984 77.8037C73.6378 77.8037 73.1833 78.2582 73.1833 78.8188C73.1833 79.3795 73.6378 79.834 74.1984 79.834Z" fill="#D9B34F"/>
<path d="M83.4735 68.1497C83.4735 69.3241 82.5181 70.2596 81.3637 70.2596C80.2093 70.2596 79.2539 69.3042 79.2539 68.1497C79.2539 66.9952 80.2093 66.0398 81.3637 66.0398C82.5181 66.0398 83.4735 66.9952 83.4735 68.1497Z" fill="#D9B34F"/>
</svg>
