<svg width="264" height="262" viewBox="0 0 264 262" fill="none" xmlns="http://www.w3.org/2000/svg">
<circle cx="120.234" cy="146.664" r="112.298" fill="black"/>
<path d="M22.0447 110.092C33.5723 49.9399 91.9543 10.4623 152.453 21.9284C212.951 33.3947 252.64 91.4591 241.113 151.611C229.585 211.763 171.204 251.242 110.705 239.776C50.2064 228.31 10.5172 170.244 22.0447 110.092Z" fill="#EBEEEE" stroke="black" stroke-width="2"/>
<path d="M131.577 211.881C176.579 211.881 213.059 175.602 213.059 130.85C213.059 86.0968 176.579 49.8176 131.577 49.8176C86.576 49.8176 50.0952 86.0968 50.0952 130.85C50.0952 175.602 86.576 211.881 131.577 211.881Z" fill="#E5E8E8"/>
<g opacity="0.1">
<path d="M209.417 90.8013C209.417 90.5425 209.457 90.2639 209.417 90.0051C209.377 89.7065 209.277 89.408 209.196 89.1094C209.156 88.9502 209.136 88.7909 209.076 88.6516C208.936 88.2535 208.736 87.8753 208.496 87.517C208.496 87.4971 208.476 87.4573 208.456 87.4374C207.956 86.681 207.275 86.0242 206.454 85.5465C208.636 81.2073 209.837 76.4301 208.276 72.0312C203.872 59.7301 189.461 68.7867 189.461 68.7867C189.461 68.7867 177.612 66.5176 174.11 73.6236C173.93 73.4444 173.729 73.2454 173.569 73.0862C171.308 70.9165 167.905 70.4985 165.183 72.0909C161.76 74.0814 157.117 77.2462 153.674 81.1874C151.973 80.6101 150.132 80.4509 148.43 80.4907L148.911 75.8131C148.971 75.2956 148.951 74.798 148.891 74.3202C148.851 74.1013 148.77 73.9022 148.73 73.7032C148.67 73.4444 148.63 73.1857 148.53 72.9468C148.41 72.6483 148.23 72.3696 148.05 72.0909C147.97 71.9715 147.93 71.8521 147.85 71.7326C147.59 71.3744 147.289 71.0559 146.949 70.7573C146.949 70.7573 146.929 70.7374 146.909 70.7175C146.229 70.1204 145.388 69.6626 144.487 69.4237C145.428 64.6665 145.308 59.7301 142.626 55.9283C135.08 45.2196 123.631 57.7596 123.631 57.7596C123.631 57.7596 111.582 58.6951 110.121 66.4778C109.901 66.3584 109.661 66.219 109.441 66.0996C106.678 64.5869 103.276 65.1044 101.094 67.3536C98.3321 70.1801 94.6893 74.4397 92.4276 79.177C87.1636 78.8585 81.5793 82.3418 81.5793 82.3418C81.5793 82.3418 64.8666 79.0576 65.2068 92.115C65.3069 96.0561 67.3685 99.5395 70.1906 102.505C69.1098 104.317 68.8096 106.546 69.5501 108.616L100.814 196.973C101.474 198.824 103.076 200.177 105.017 200.496L129.756 204.696C131.858 205.054 133.839 204.138 135.02 202.566C135.08 202.486 135.16 202.387 135.22 202.307L156.156 212.061C156.877 212.399 157.617 212.558 158.338 212.578C158.818 212.578 159.278 212.518 159.719 212.399C160.379 212.24 161.02 211.961 161.58 211.563C162.421 210.966 163.101 210.17 163.502 209.135L209.056 92.8515C209.237 92.3738 209.357 91.8961 209.417 91.4184C209.437 91.1994 209.417 91.0004 209.417 90.7814V90.8013Z" fill="black"/>
<path d="M43.9506 101.39C44.3509 101.908 44.7913 102.386 45.2917 102.824C45.3517 102.863 45.4117 102.923 45.4718 102.963C45.9321 103.361 46.4525 103.719 46.993 104.018C47.073 104.058 47.1531 104.097 47.2131 104.137C47.7535 104.436 48.334 104.675 48.9344 104.854C48.9745 104.854 49.0145 104.894 49.0545 104.914C49.0545 104.914 49.0946 104.914 49.1146 104.914C49.9952 105.172 50.8959 105.351 51.8567 105.351C57.3208 105.351 61.7442 100.953 61.7442 95.5186C61.7442 94.6428 61.6041 93.8267 61.3839 93.0305C61.3839 93.0305 61.3839 93.0106 61.3839 92.9907C61.3839 92.9509 61.3439 92.9111 61.3239 92.8514C61.1437 92.2542 60.9436 91.677 60.6634 91.1396C60.6033 91.04 60.5433 90.9405 60.5032 90.8211C60.243 90.3434 59.9428 89.8657 59.5825 89.4477C59.4825 89.3282 59.3824 89.2088 59.2823 89.0894C58.9421 88.6913 58.5818 88.3529 58.1815 88.0145C58.0414 87.8951 57.9213 87.7956 57.7812 87.6761C57.3809 87.3776 56.9405 87.0989 56.4802 86.8601C56.3801 86.8003 56.28 86.7207 56.1599 86.661C56.1399 86.661 56.0999 86.661 56.0799 86.661C54.7989 86.044 53.3578 85.6658 51.8366 85.6658C46.3725 85.6658 41.9491 90.0647 41.9491 95.4987C41.9491 97.6882 42.6897 99.6787 43.9106 101.311C43.9106 101.331 43.9506 101.351 43.9506 101.371V101.39Z" fill="black"/>
<path d="M62.825 154.417C59.5225 148.047 52.6172 137.378 43.4102 137.219C30.2802 137 33.7428 153.581 33.7428 153.581C33.7428 153.581 24.796 168.012 37.2255 172.251C45.9321 175.217 56.0799 167.534 61.3639 162.677C63.6656 160.547 64.2661 157.184 62.825 154.397V154.417Z" fill="black"/>
<path d="M83.7809 170.32C83.7809 170.32 79.8579 153.819 68.0489 159.572C59.7826 163.592 58.0613 176.172 57.7811 183.318C57.661 186.443 59.6225 189.25 62.6248 190.205C69.49 192.375 81.9395 195.062 88.5645 188.712C98.0117 179.636 83.7609 170.34 83.7609 170.34L83.7809 170.32Z" fill="black"/>
<path d="M190.482 201.77C190.482 201.77 190.442 201.69 190.442 201.65C190.282 201.093 190.082 200.555 189.822 200.038C189.782 199.938 189.722 199.839 189.662 199.739C189.401 199.281 189.121 198.863 188.801 198.445C188.721 198.326 188.621 198.227 188.521 198.107C188.2 197.749 187.86 197.41 187.48 197.092C187.36 196.992 187.24 196.873 187.1 196.773C186.719 196.495 186.319 196.236 185.899 196.017C185.799 195.957 185.718 195.878 185.598 195.838C185.578 195.838 185.558 195.838 185.518 195.838C184.317 195.261 182.976 194.922 181.555 194.922C176.451 194.922 172.308 199.043 172.308 204.118C172.308 206.168 173.009 208.04 174.13 209.552C174.13 209.552 174.17 209.592 174.17 209.612C174.55 210.11 174.95 210.548 175.411 210.966C175.471 211.005 175.511 211.045 175.571 211.105C176.011 211.483 176.471 211.802 176.992 212.1C177.072 212.14 177.132 212.18 177.212 212.22C177.732 212.498 178.253 212.717 178.833 212.896C178.873 212.896 178.913 212.936 178.953 212.936H178.993C179.814 213.175 180.655 213.334 181.555 213.334C186.659 213.334 190.802 209.214 190.802 204.138C190.802 203.322 190.662 202.546 190.462 201.809C190.462 201.809 190.462 201.789 190.462 201.77H190.482Z" fill="black"/>
<path d="M202.531 181.865C202.531 181.865 202.491 181.785 202.491 181.745C202.331 181.188 202.131 180.651 201.871 180.133C201.831 180.034 201.771 179.934 201.711 179.835C201.451 179.377 201.17 178.959 200.85 178.541C200.77 178.421 200.67 178.322 200.57 178.202C200.25 177.844 199.909 177.506 199.529 177.187C199.409 177.088 199.289 176.968 199.149 176.869C198.769 176.59 198.368 176.331 197.948 176.112C197.848 176.053 197.768 175.973 197.648 175.933C197.628 175.933 197.608 175.933 197.568 175.933C196.367 175.356 195.026 175.018 193.605 175.018C188.501 175.018 184.358 179.138 184.358 184.214C184.358 186.264 185.058 188.135 186.179 189.648C186.179 189.648 186.219 189.687 186.219 189.707C186.599 190.205 187 190.643 187.46 191.061C187.52 191.101 187.56 191.14 187.62 191.2C188.06 191.578 188.521 191.897 189.041 192.195C189.121 192.235 189.181 192.275 189.261 192.315C189.782 192.593 190.302 192.812 190.862 192.991C190.903 192.991 190.943 193.031 190.983 193.051H191.023C191.843 193.29 192.684 193.449 193.585 193.449C198.688 193.449 202.832 189.329 202.832 184.253C202.832 183.437 202.692 182.661 202.491 181.924C202.491 181.924 202.491 181.905 202.491 181.885L202.531 181.865Z" fill="black"/>
<path d="M42.8298 128.779C43.2301 129.297 43.6704 129.775 44.1708 130.213C44.2308 130.272 44.2909 130.312 44.3509 130.352C44.8113 130.75 45.3317 131.108 45.8721 131.407C45.9522 131.447 46.0322 131.487 46.0923 131.526C46.6327 131.825 47.2131 132.064 47.8136 132.243C47.8536 132.243 47.8936 132.283 47.9337 132.303C47.9337 132.303 47.9737 132.303 47.9937 132.303C48.8744 132.561 49.7751 132.741 50.7358 132.741C56.2 132.741 60.6233 128.342 60.6233 122.908C60.6233 122.032 60.4832 121.216 60.263 120.42C60.263 120.42 60.263 120.4 60.263 120.38C60.263 120.34 60.223 120.3 60.203 120.24C60.0229 119.643 59.8227 119.066 59.5425 118.529C59.4825 118.429 59.4224 118.33 59.3624 118.21C59.1022 117.732 58.8019 117.275 58.4417 116.837C58.3416 116.717 58.2415 116.598 58.1414 116.478C57.8012 116.08 57.4409 115.742 57.0406 115.404C56.9005 115.284 56.7804 115.185 56.6403 115.065C56.24 114.767 55.7997 114.488 55.3593 114.249C55.2592 114.189 55.1592 114.11 55.0391 114.05C55.0191 114.05 54.979 114.05 54.959 114.05C53.678 113.433 52.2369 113.075 50.7158 113.075C45.2516 113.075 40.8282 117.474 40.8282 122.908C40.8282 125.097 41.5688 127.088 42.7897 128.72C42.7897 128.74 42.8298 128.76 42.8298 128.779Z" fill="black"/>
</g>
<path d="M151.953 87.776C152.433 100.833 168.926 96.4943 168.926 96.4943C168.926 96.4943 183.897 104.595 187.48 92.0157C189.982 83.198 181.715 73.5442 176.552 68.568C174.29 66.3984 170.867 65.9804 168.165 67.5728C161.96 71.1954 151.633 78.6398 151.973 87.7959L151.953 87.776Z" fill="#E84C3D"/>
<path d="M161.34 92.6127C157.397 92.135 156.556 90.3436 156.436 87.6166C156.176 80.5306 166.124 73.9222 170.427 71.4142C170.907 71.1356 171.448 71.0161 171.988 71.0957C172.528 71.1555 173.029 71.3943 173.429 71.7725C177.012 75.216 185.118 83.9741 183.177 90.8014C182.416 93.4487 181.175 94.9813 177.232 94.5036C174.07 94.1254 171.107 92.5729 171.087 92.553L169.526 91.717L167.805 92.1549C167.805 92.1549 164.522 92.9909 161.36 92.6127" fill="#F56462"/>
<path d="M169.506 91.7371C172.428 90.2641 174.65 87.159 175.11 83.3373C175.571 79.4957 174.13 75.9726 171.648 73.8428C168.726 75.3157 166.504 78.4208 166.043 82.2425C165.583 86.0841 167.024 89.6073 169.506 91.7371Z" fill="#F78381"/>
<path d="M169.746 89.647C171.468 88.5323 172.809 86.2831 173.149 83.5164C173.489 80.7496 172.709 78.2416 171.308 76.7488C169.586 77.8634 168.245 80.1127 167.905 82.8794C167.565 85.6462 168.345 88.1541 169.746 89.647Z" fill="#E84C3D"/>
<path d="M175.391 89.2888L179.013 91.1399C179.454 91.3588 179.634 91.9162 179.414 92.3541C179.194 92.792 178.633 92.9711 178.193 92.7522L174.57 90.901C174.13 90.6821 173.95 90.1248 174.17 89.6868C174.39 89.2489 174.95 89.0698 175.391 89.2888Z" fill="#F78381"/>
<path d="M176.792 84.0338L180.855 84.412C181.355 84.4518 181.735 84.9096 181.675 85.4072C181.635 85.9048 181.175 86.283 180.675 86.2233L176.612 85.8451C176.111 85.8053 175.731 85.3475 175.791 84.8499C175.831 84.3523 176.291 83.9741 176.792 84.0338Z" fill="#F78381"/>
<path d="M176.011 78.958L178.333 78.5201C178.833 78.4206 179.314 78.759 179.394 79.2367C179.494 79.7343 179.153 80.212 178.673 80.2916L176.351 80.7295C175.851 80.8291 175.371 80.4907 175.291 79.9931C175.19 79.4954 175.531 79.0177 176.011 78.9381V78.958Z" fill="#F78381"/>
<path d="M174.57 74.5194H174.63C175.09 74.3004 175.631 74.5194 175.831 74.9772C176.031 75.435 175.831 75.9724 175.351 76.1714H175.291C174.83 76.3904 174.29 76.1714 174.09 75.7136C173.889 75.2558 174.09 74.7184 174.57 74.5194Z" fill="#F78381"/>
<path d="M164.222 87.9549L160.259 88.8904C159.779 89.0098 159.459 89.4875 159.579 89.9851C159.699 90.4629 160.179 90.7813 160.68 90.6619L164.643 89.7264C165.123 89.607 165.443 89.1292 165.323 88.6316C165.203 88.1539 164.723 87.8354 164.222 87.9549Z" fill="#F78381"/>
<path d="M164.122 82.5411L160.099 81.944C159.599 81.8644 159.138 82.2226 159.058 82.7003C158.978 83.198 159.338 83.6558 159.819 83.7354L163.842 84.3325C164.342 84.4121 164.803 84.0539 164.883 83.5762C164.963 83.0785 164.602 82.6207 164.122 82.5411Z" fill="#F78381"/>
<path d="M166.084 77.7839L163.922 76.8284C163.462 76.6294 162.921 76.8284 162.721 77.2862C162.521 77.7441 162.721 78.2815 163.181 78.4805L165.343 79.436C165.803 79.635 166.344 79.436 166.544 78.9781C166.744 78.5203 166.544 77.9829 166.084 77.7839Z" fill="#F78381"/>
<path d="M168.525 73.803L168.465 73.7632C168.065 73.4646 167.485 73.5442 167.184 73.9423C166.884 74.3404 166.964 74.9176 167.365 75.2162L167.425 75.256C167.825 75.5546 168.405 75.475 168.706 75.0769C169.006 74.6788 168.926 74.1015 168.525 73.803Z" fill="#F78381"/>
<path d="M162.601 84.9693C161.66 71.9318 145.348 76.8482 145.348 76.8482C145.348 76.8482 130.096 69.2646 126.954 81.9438C124.752 90.8412 133.359 100.196 138.683 105.013C141.024 107.123 144.447 107.402 147.109 105.73C153.194 101.888 163.261 94.1056 162.601 84.9693Z" fill="#E84C3D"/>
<path d="M153.054 80.4508C156.997 80.7891 157.917 82.5407 158.117 85.2876C158.618 92.3737 148.91 99.3005 144.707 101.948C144.247 102.246 143.707 102.366 143.166 102.326C142.626 102.286 142.125 102.067 141.705 101.689C138.022 98.365 129.616 89.8856 131.317 82.9986C131.978 80.3313 133.178 78.7589 137.142 79.0773C140.324 79.356 143.326 80.809 143.346 80.809L144.947 81.5853L146.649 81.0877C146.649 81.0877 149.891 80.1522 153.074 80.411" fill="#F56462"/>
<path d="M144.927 81.6052C142.065 83.1777 139.944 86.3425 139.603 90.204C139.283 94.0456 140.824 97.529 143.386 99.5592C146.248 97.9868 148.37 94.8219 148.71 90.9604C149.031 87.1188 147.489 83.6355 144.927 81.6052Z" fill="#F78381"/>
<path d="M144.747 83.7153C143.066 84.8897 141.805 87.1986 141.565 89.9654C141.325 92.7321 142.185 95.2202 143.646 96.6534C145.328 95.479 146.589 93.17 146.829 90.4033C147.069 87.6366 146.208 85.1485 144.747 83.7153Z" fill="#E84C3D"/>
<path d="M139.123 84.253L135.44 82.5413C134.98 82.3223 134.78 81.7849 135 81.3271C135.22 80.8693 135.76 80.6702 136.221 80.8892L139.904 82.601C140.364 82.8199 140.564 83.3573 140.344 83.8152C140.124 84.273 139.583 84.472 139.123 84.253Z" fill="#F78381"/>
<path d="M137.922 89.5475L133.859 89.3087C133.359 89.2888 132.978 88.8509 132.998 88.3532C133.018 87.8556 133.459 87.4774 133.959 87.4973L138.022 87.7362C138.523 87.7561 138.903 88.194 138.883 88.6916C138.863 89.1892 138.423 89.5674 137.922 89.5475Z" fill="#F78381"/>
<path d="M138.863 94.6032L136.561 95.1207C136.061 95.2202 135.58 94.9217 135.48 94.4241C135.38 93.9264 135.68 93.4487 136.181 93.3492L138.483 92.8516C138.983 92.7521 139.463 93.0506 139.563 93.5483C139.663 94.0459 139.363 94.5236 138.863 94.6231V94.6032Z" fill="#F78381"/>
<path d="M140.444 99.0022H140.384C139.924 99.241 139.383 99.042 139.163 98.5842C138.943 98.1264 139.163 97.589 139.603 97.37H139.663C140.124 97.1311 140.664 97.3302 140.884 97.788C141.105 98.2458 140.884 98.7832 140.444 99.0022Z" fill="#F78381"/>
<path d="M150.332 85.2082L154.255 84.1334C154.735 83.9941 155.035 83.4964 154.895 83.0187C154.755 82.541 154.255 82.2425 153.774 82.3818L149.851 83.4566C149.371 83.596 149.071 84.0936 149.211 84.5713C149.351 85.049 149.851 85.3476 150.332 85.2082Z" fill="#F78381"/>
<path d="M150.612 90.6224L154.655 91.0802C155.155 91.1399 155.616 90.7816 155.656 90.284C155.716 89.7864 155.355 89.3286 154.855 89.2888L150.812 88.831C150.312 88.7713 149.851 89.1295 149.811 89.6272C149.751 90.1248 150.111 90.5826 150.612 90.6224Z" fill="#F78381"/>
<path d="M148.81 95.4392L150.992 96.3349C151.452 96.534 151.993 96.2951 152.173 95.8373C152.373 95.3795 152.133 94.8421 151.673 94.6629L149.491 93.7672C149.031 93.5682 148.49 93.807 148.31 94.2648C148.11 94.7226 148.35 95.2601 148.81 95.4392Z" fill="#F78381"/>
<path d="M146.509 99.4996L146.569 99.5394C146.989 99.8181 147.549 99.7185 147.83 99.3204C148.11 98.9024 148.01 98.3451 147.609 98.0665L147.549 98.0266C147.129 97.748 146.569 97.8475 146.288 98.2456C146.008 98.6636 146.108 99.2209 146.509 99.4996Z" fill="#F78381"/>
<path d="M211.258 67.5131C206.855 55.212 192.444 64.2686 192.444 64.2686C192.444 64.2686 175.711 61.0241 176.091 74.0816C176.351 83.2377 187.16 89.9854 193.604 93.1901C196.427 94.6033 199.789 93.9663 201.911 91.6375C206.735 86.323 214.34 76.1517 211.258 67.5131Z" fill="#E84C3D"/>
<path d="M200.85 65.7018C204.753 64.9654 206.114 66.4383 207.035 69.006C209.437 75.694 201.931 84.9496 198.588 88.632C198.208 89.0301 197.748 89.3088 197.207 89.4083C196.667 89.5078 196.126 89.4282 195.626 89.1893C191.183 86.96 180.795 81.0284 180.595 73.9424C180.515 71.1955 181.255 69.3444 185.138 68.6278C188.26 68.0506 191.563 68.6278 191.583 68.6477L193.324 68.9861L194.825 68.0506C194.825 68.0506 197.708 66.2791 200.83 65.7018" fill="#F56462"/>
<path d="M193.344 68.9661C191.002 71.2551 189.802 74.8578 190.522 78.6596C191.243 82.4614 193.664 85.3874 196.687 86.6812C199.029 84.3922 200.23 80.7894 199.509 76.9876C198.788 73.1859 196.367 70.2599 193.344 68.9661Z" fill="#F78381"/>
<path d="M193.725 71.0361C192.424 72.6086 191.823 75.1763 192.324 77.9032C192.844 80.6501 194.345 82.7998 196.126 83.795C197.427 82.2226 198.028 79.6549 197.528 76.9279C197.007 74.1811 195.506 72.0314 193.725 71.0361Z" fill="#E84C3D"/>
<path d="M188.44 73.0466L184.417 72.3699C183.917 72.2902 183.577 71.8125 183.677 71.3149C183.757 70.8173 184.237 70.4789 184.738 70.5784L188.761 71.2552C189.261 71.3348 189.601 71.8125 189.501 72.3101C189.421 72.8078 188.941 73.1461 188.44 73.0466Z" fill="#F78381"/>
<path d="M188.701 78.4808L184.718 79.3367C184.217 79.4362 183.737 79.1376 183.637 78.64C183.537 78.1424 183.837 77.6647 184.337 77.5652L188.32 76.7093C188.821 76.6097 189.301 76.9083 189.401 77.4059C189.501 77.9035 189.201 78.3812 188.701 78.4808Z" fill="#F78381"/>
<path d="M190.983 83.0983L188.901 84.1931C188.461 84.432 187.9 84.2528 187.66 83.8149C187.42 83.377 187.6 82.8197 188.04 82.5808L190.122 81.4861C190.562 81.2472 191.123 81.4263 191.363 81.8642C191.603 82.3022 191.423 82.8595 190.983 83.0983Z" fill="#F78381"/>
<path d="M193.685 86.9003L193.645 86.9401C193.264 87.2586 192.684 87.2187 192.364 86.8405C192.043 86.4624 192.083 85.8851 192.464 85.5666L192.504 85.5268C192.884 85.2084 193.464 85.2482 193.785 85.6264C194.105 86.0046 194.065 86.5818 193.685 86.9003Z" fill="#F78381"/>
<path d="M199.509 70.9965L203.012 68.9264C203.452 68.6676 203.592 68.1103 203.332 67.6724C203.072 67.2345 202.511 67.0951 202.071 67.3539L198.568 69.424C198.128 69.6828 197.988 70.2401 198.248 70.678C198.508 71.1159 199.069 71.2552 199.509 70.9965Z" fill="#F78381"/>
<path d="M201.23 76.1316L205.253 75.4947C205.754 75.4151 206.094 74.9573 206.014 74.4596C205.934 73.962 205.474 73.6236 204.973 73.7033L200.95 74.3402C200.45 74.4198 200.109 74.8776 200.19 75.3753C200.27 75.8729 200.73 76.2112 201.23 76.1316Z" fill="#F78381"/>
<path d="M200.79 81.267L203.132 81.5457C203.632 81.6054 204.093 81.2471 204.153 80.7495C204.213 80.2519 203.852 79.7941 203.352 79.7344L201.01 79.4557C200.51 79.396 200.049 79.7543 199.989 80.2519C199.929 80.7495 200.29 81.2073 200.79 81.267Z" fill="#F78381"/>
<path d="M199.669 85.7858H199.729C200.21 85.9649 200.73 85.7261 200.89 85.2484C201.05 84.7707 200.81 84.2531 200.33 84.0939H200.27C199.789 83.9148 199.269 84.1536 199.109 84.6313C198.949 85.109 199.189 85.6266 199.669 85.7858Z" fill="#F78381"/>
<path d="M126.734 99.0019L133.279 192.434C133.419 194.385 134.6 196.117 136.381 196.953L159.098 207.542C161.94 208.876 165.323 207.542 166.464 204.616L212.019 88.333C213.52 84.4914 210.758 80.3512 206.614 80.2119C191.743 79.6745 159.599 80.1522 131.297 91.7765C128.375 92.9708 126.513 95.8769 126.734 99.0218V99.0019Z" fill="#E8CB7D"/>
<path d="M146.729 155.79C145.128 174.421 149.551 192.176 158.358 207.184L159.118 207.542C161.96 208.876 165.343 207.522 166.484 204.616L212.039 88.3333C213.54 84.5116 210.798 80.3913 206.674 80.2122C174.33 90.901 149.811 119.882 146.749 155.79H146.729Z" fill="#FFD6A0"/>
<path d="M190.502 96.7728C190.442 97.3899 189.902 97.8676 189.261 97.8079C188.641 97.7482 188.16 97.2107 188.22 96.5738C188.281 95.9567 188.821 95.479 189.461 95.5387C190.082 95.5985 190.562 96.1359 190.502 96.7728Z" fill="#E8CB7D"/>
<path d="M195.526 113.552C195.366 115.304 193.825 116.618 192.043 116.458C190.282 116.299 188.961 114.766 189.101 112.995C189.261 111.243 190.802 109.93 192.584 110.069C194.345 110.228 195.666 111.761 195.506 113.532L195.526 113.552Z" fill="#E8CB7D"/>
<path d="M173.99 119.285C173.91 120.3 172.989 121.056 171.968 120.977C170.947 120.897 170.187 119.981 170.267 118.966C170.347 117.951 171.268 117.195 172.288 117.274C173.309 117.354 174.07 118.27 173.99 119.285Z" fill="#E8CB7D"/>
<path d="M180.234 136.383C180.154 137.299 179.354 137.976 178.433 137.896C177.512 137.817 176.852 137.02 176.912 136.105C176.992 135.189 177.793 134.512 178.713 134.592C179.634 134.672 180.294 135.468 180.234 136.383Z" fill="#E8CB7D"/>
<path d="M161.34 144.922C161.26 145.937 160.359 146.693 159.338 146.594C158.318 146.514 157.557 145.619 157.657 144.603C157.737 143.588 158.638 142.832 159.659 142.931C160.679 143.011 161.44 143.907 161.34 144.922Z" fill="#E8CB7D"/>
<path d="M169.886 169.584C169.786 170.659 168.846 171.455 167.745 171.375C166.664 171.276 165.863 170.34 165.943 169.245C166.043 168.171 166.984 167.374 168.085 167.454C169.166 167.553 169.966 168.489 169.886 169.584Z" fill="#E8CB7D"/>
<path d="M182.596 152.546C182.516 153.561 181.595 154.317 180.575 154.238C179.554 154.158 178.793 153.243 178.873 152.227C178.953 151.212 179.874 150.456 180.895 150.536C181.916 150.615 182.676 151.531 182.596 152.546Z" fill="#E8CB7D"/>
<path d="M153.934 171.037C153.894 171.495 153.494 171.834 153.034 171.794C152.573 171.754 152.233 171.356 152.273 170.898C152.313 170.44 152.713 170.102 153.174 170.142C153.634 170.181 153.974 170.58 153.934 171.037Z" fill="#E8CB7D"/>
<path d="M164.122 194.903C164.042 195.818 163.241 196.495 162.321 196.415C161.4 196.336 160.74 195.539 160.8 194.624C160.86 193.708 161.68 193.031 162.601 193.111C163.522 193.191 164.182 193.987 164.122 194.903Z" fill="#E8CB7D"/>
<path d="M171.448 182.98C171.388 183.716 170.727 184.274 169.987 184.194C169.246 184.134 168.686 183.478 168.766 182.741C168.826 182.005 169.486 181.447 170.227 181.527C170.967 181.587 171.528 182.243 171.448 182.98Z" fill="#E8CB7D"/>
<path d="M191.883 129.198C191.803 130.053 191.063 130.69 190.202 130.611C189.341 130.531 188.701 129.795 188.781 128.939C188.861 128.083 189.602 127.446 190.462 127.526C191.323 127.605 191.963 128.342 191.883 129.198Z" fill="#E8CB7D"/>
<path d="M207.835 91.2989C207.775 92.0951 207.055 92.6923 206.274 92.6127C205.474 92.5529 204.873 91.8364 204.953 91.0601C205.013 90.2639 205.734 89.6668 206.514 89.7464C207.295 89.826 207.915 90.5227 207.835 91.2989Z" fill="#E8CB7D"/>
<path d="M138.503 98.2658C138.403 99.4004 137.402 100.236 136.261 100.157C135.12 100.057 134.279 99.062 134.359 97.9274C134.46 96.7929 135.46 95.9569 136.601 96.0365C137.742 96.136 138.583 97.1312 138.503 98.2658Z" fill="#FFD6A0"/>
<path d="M156.376 96.3549C156.316 97.0914 155.656 97.6487 154.915 97.5691C154.175 97.5094 153.614 96.8525 153.694 96.116C153.754 95.3796 154.415 94.8222 155.155 94.9019C155.896 94.9616 156.456 95.6184 156.376 96.3549Z" fill="#FFD6A0"/>
<path d="M173.109 92.3937C173.029 93.369 172.168 94.0657 171.208 93.9861C170.247 93.9065 169.526 93.0506 169.606 92.0952C169.686 91.1198 170.547 90.4232 171.508 90.5028C172.489 90.5824 173.189 91.4383 173.109 92.3937Z" fill="#FFD6A0"/>
<path d="M151.152 116.12C151.012 117.832 149.491 119.086 147.79 118.946C146.068 118.807 144.807 117.294 144.947 115.603C145.088 113.911 146.609 112.637 148.31 112.776C150.031 112.915 151.292 114.428 151.152 116.12Z" fill="#FFD6A0"/>
<path d="M160.539 112.199C160.459 113.075 159.679 113.732 158.798 113.652C157.917 113.572 157.257 112.796 157.337 111.92C157.417 111.044 158.198 110.388 159.078 110.467C159.959 110.547 160.619 111.323 160.539 112.199Z" fill="#FFD6A0"/>
<path d="M137.302 124.58C137.222 125.435 136.481 126.072 135.62 125.993C134.76 125.913 134.119 125.177 134.199 124.321C134.279 123.465 135.02 122.828 135.881 122.908C136.741 122.987 137.382 123.724 137.302 124.58Z" fill="#FFD6A0"/>
<path d="M139.604 143.827C139.503 144.902 138.563 145.698 137.462 145.619C136.381 145.519 135.58 144.584 135.661 143.489C135.761 142.414 136.701 141.618 137.802 141.697C138.883 141.797 139.684 142.732 139.604 143.827Z" fill="#FFD6A0"/>
<path d="M147.73 134.154C147.63 135.348 146.569 136.224 145.368 136.124C144.167 136.025 143.286 134.97 143.386 133.775C143.486 132.581 144.547 131.705 145.748 131.805C146.949 131.904 147.83 132.959 147.73 134.154Z" fill="#FFD6A0"/>
<path d="M138.462 157.044C138.422 157.582 137.942 157.98 137.402 157.94C136.861 157.9 136.461 157.422 136.501 156.885C136.541 156.348 137.021 155.95 137.562 155.989C138.102 156.029 138.503 156.507 138.462 157.044Z" fill="#FFD6A0"/>
<path d="M144.447 167.434C144.347 168.509 143.406 169.305 142.305 169.226C141.225 169.126 140.424 168.191 140.504 167.096C140.604 166.021 141.545 165.225 142.646 165.305C143.727 165.404 144.527 166.34 144.447 167.434Z" fill="#FFD6A0"/>
<path d="M139.263 181.706C139.203 182.502 138.482 183.099 137.702 183.02C136.901 182.96 136.301 182.244 136.381 181.467C136.441 180.671 137.161 180.074 137.942 180.154C138.743 180.213 139.343 180.93 139.263 181.706Z" fill="#FFD6A0"/>
<path d="M147.629 191.519C147.529 192.594 146.589 193.39 145.488 193.31C144.407 193.211 143.606 192.275 143.686 191.18C143.787 190.106 144.727 189.309 145.828 189.389C146.909 189.489 147.71 190.424 147.629 191.519Z" fill="#FFD6A0"/>
<path d="M133.679 106.028C133.679 106.028 193.965 85.7058 197.708 100.734C201.451 115.762 132.498 120.678 134.7 136.622C136.901 152.546 182.476 133.198 183.597 145.599C184.718 158 134.179 151.172 135.66 166.698C136.701 177.665 172.609 165.524 171.728 176.491C170.847 187.458 144.887 187.518 137.202 188.693" stroke="#67463A" stroke-width="10.2466" stroke-miterlimit="10" stroke-linecap="round"/>
<path d="M166.604 171.873C169.867 172.451 171.948 173.744 171.728 176.491" stroke="#805749" stroke-width="10.2466" stroke-miterlimit="10" stroke-linecap="round"/>
<path d="M152.934 156.009C146.849 157.084 141.385 158.497 138.303 160.965" stroke="#805749" stroke-width="10.2466" stroke-miterlimit="10" stroke-linecap="round"/>
<path d="M147.81 143.25C151.272 143.25 155.135 142.892 158.998 142.474" stroke="#805749" stroke-width="10.2466" stroke-miterlimit="10" stroke-linecap="round"/>
<path d="M146.289 125.416C138.983 128.6 134.099 132.183 134.7 136.602" stroke="#805749" stroke-width="10.2466" stroke-miterlimit="10" stroke-linecap="round"/>
<path d="M178.573 114.567C175.271 115.682 171.748 116.777 168.205 117.891" stroke="#805749" stroke-width="10.2466" stroke-miterlimit="10" stroke-linecap="round"/>
<path d="M192.364 108.696C191.123 109.452 189.702 110.169 188.141 110.885" stroke="#805749" stroke-width="10.2466" stroke-miterlimit="10" stroke-linecap="round"/>
<path d="M165.403 97.5095C171.088 96.3749 176.792 95.519 181.776 95.2603" stroke="#805749" stroke-width="10.2466" stroke-miterlimit="10" stroke-linecap="round"/>
<path d="M145.808 102.307C148.15 101.65 150.712 100.953 153.414 100.256" stroke="#805749" stroke-width="10.2466" stroke-miterlimit="10" stroke-linecap="round"/>
<path d="M93.8284 86.6016C97.7914 99.0619 112.503 90.5228 112.503 90.5228C112.503 90.5228 129.095 94.3644 129.195 81.307C129.255 72.1508 118.707 65.0249 112.383 61.5814C109.62 60.0687 106.218 60.5862 104.036 62.8354C99.0124 67.9708 91.0463 77.8635 93.8284 86.6016Z" fill="#E84C3D"/>
<path d="M104.176 88.7911C100.253 89.3882 98.9524 87.8755 98.1117 85.268C95.9701 78.5004 103.796 69.5035 107.259 65.9604C107.639 65.5623 108.139 65.3235 108.66 65.2439C109.2 65.1642 109.741 65.2439 110.221 65.5225C114.584 67.8912 124.732 74.201 124.692 81.287C124.692 84.0339 123.871 85.8452 119.948 86.4423C116.806 86.92 113.523 86.2035 113.503 86.1836L111.762 85.7855L110.221 86.6613C110.221 86.6613 107.279 88.3333 104.136 88.7911" fill="#F56462"/>
<path d="M111.802 85.7857C114.224 83.5962 115.545 80.0134 114.964 76.1917C114.384 72.37 112.062 69.3445 109.1 67.9512C106.678 70.1407 105.357 73.7235 105.938 77.5452C106.518 81.3669 108.84 84.3924 111.802 85.7857Z" fill="#F78381"/>
<path d="M111.482 83.7155C112.843 82.1828 113.543 79.6549 113.123 76.9081C112.703 74.1612 111.282 71.9319 109.54 70.877C108.179 72.4096 107.479 74.9375 107.899 77.6843C108.319 80.4312 109.741 82.6605 111.482 83.7155Z" fill="#E84C3D"/>
<path d="M116.826 81.884L120.809 82.7001C121.309 82.7996 121.63 83.2773 121.509 83.775C121.409 84.2726 120.929 84.591 120.429 84.4716L116.446 83.6555C115.945 83.556 115.625 83.0783 115.745 82.5807C115.845 82.0831 116.326 81.7646 116.826 81.884Z" fill="#F78381"/>
<path d="M116.766 76.4504L120.769 75.7339C121.269 75.6542 121.73 75.9727 121.83 76.4703C121.91 76.9679 121.59 77.4257 121.089 77.5253L117.086 78.2418C116.586 78.3215 116.125 78.003 116.025 77.5054C115.945 77.0077 116.266 76.5499 116.766 76.4504Z" fill="#F78381"/>
<path d="M114.664 71.7528L116.786 70.7177C117.246 70.4988 117.787 70.6779 118.007 71.1357C118.227 71.5935 118.047 72.131 117.586 72.3499L115.465 73.385C115.005 73.6039 114.464 73.4248 114.244 72.967C114.024 72.5091 114.204 71.9717 114.664 71.7528Z" fill="#F78381"/>
<path d="M112.102 67.8516L112.142 67.8118C112.543 67.4933 113.103 67.5729 113.423 67.9511C113.744 68.3492 113.664 68.9065 113.283 69.225L113.243 69.2648C112.843 69.5833 112.282 69.5037 111.962 69.1255C111.642 68.7274 111.722 68.17 112.102 67.8516Z" fill="#F78381"/>
<path d="M105.717 83.5365L102.155 85.4871C101.714 85.726 101.554 86.2833 101.794 86.7212C102.035 87.1591 102.595 87.3184 103.035 87.0795L106.598 85.1289C107.038 84.89 107.199 84.3327 106.958 83.8948C106.718 83.4569 106.158 83.2976 105.717 83.5365Z" fill="#F78381"/>
<path d="M104.156 78.3412L100.113 78.8388C99.6128 78.8986 99.2525 79.3564 99.3126 79.854C99.3726 80.3516 99.833 80.7099 100.333 80.6502L104.376 80.1525C104.877 80.0928 105.237 79.635 105.177 79.1374C105.117 78.6398 104.657 78.2815 104.156 78.3412Z" fill="#F78381"/>
<path d="M104.797 73.2256L102.455 72.8673C101.955 72.7877 101.494 73.1261 101.414 73.6237C101.334 74.1213 101.674 74.5791 102.175 74.6587L104.517 75.017C105.017 75.0966 105.477 74.7583 105.557 74.2606C105.637 73.763 105.297 73.3052 104.797 73.2256Z" fill="#F78381"/>
<path d="M106.078 68.7472H106.018C105.557 68.5482 105.017 68.7671 104.837 69.2448C104.657 69.7027 104.877 70.2401 105.357 70.4192H105.417C105.878 70.6183 106.418 70.3993 106.598 69.9216C106.778 69.4638 106.558 68.9264 106.078 68.7472Z" fill="#F78381"/>
<path d="M103.336 81.1079C98.9524 68.7869 84.5214 77.8237 84.5214 77.8237C84.5214 77.8237 67.7887 74.5394 68.149 87.5969C68.4092 96.753 79.1974 103.521 85.6223 106.725C88.4244 108.138 91.807 107.502 93.9286 105.193C98.7723 99.878 106.398 89.7267 103.316 81.088L103.336 81.1079Z" fill="#E84C3D"/>
<path d="M92.9278 79.2769C96.8308 78.5604 98.1718 80.0134 99.0925 82.601C101.474 89.289 93.9486 98.5447 90.606 102.207C90.2257 102.605 89.7654 102.884 89.225 102.983C88.6846 103.083 88.1442 103.003 87.6438 102.764C83.2004 100.535 72.8325 94.5836 72.6323 87.4976C72.5523 84.7507 73.2928 82.9195 77.1958 82.183C80.3382 81.6058 83.6207 82.2228 83.6407 82.2228L85.382 82.5612L86.8832 81.6257C86.8832 81.6257 89.7654 79.8542 92.8878 79.2769" fill="#F56462"/>
<path d="M85.4221 82.5212C83.0804 84.7904 81.8794 88.413 82.58 92.2148C83.2805 96.0166 85.7224 98.9625 88.7246 100.236C91.0664 97.9673 92.2673 94.3446 91.5668 90.5428C90.8663 86.741 88.4244 83.7951 85.4221 82.5212Z" fill="#F78381"/>
<path d="M85.8025 84.5911C84.5015 86.1635 83.881 88.7312 84.4014 91.4582C84.9218 94.205 86.4029 96.3746 88.2043 97.3699C89.5053 95.7974 90.1258 93.2297 89.6054 90.5027C89.085 87.7559 87.6038 85.5863 85.8025 84.5911Z" fill="#E84C3D"/>
<path d="M80.5184 86.6017L76.5153 85.9249C76.0149 85.8453 75.6947 85.3676 75.7747 84.87C75.8548 84.3724 76.3352 84.0539 76.8355 84.1335L80.8386 84.8103C81.339 84.8899 81.6592 85.3676 81.5792 85.8652C81.4991 86.3628 81.0187 86.6813 80.5184 86.6017Z" fill="#F78381"/>
<path d="M80.7586 92.0157L76.7755 92.8716C76.2752 92.9711 75.7948 92.6725 75.6947 92.1749C75.5946 91.6773 75.8949 91.1996 76.3952 91.1001L80.3783 90.2442C80.8787 90.1446 81.359 90.4432 81.4591 90.9408C81.5592 91.4384 81.2589 91.9162 80.7586 92.0157Z" fill="#F78381"/>
<path d="M83.0402 96.6535L80.9587 97.7483C80.5183 97.9871 79.9579 97.808 79.7177 97.3701C79.4775 96.9322 79.6577 96.3748 80.098 96.136L82.1796 95.0412C82.6199 94.8024 83.1804 94.9815 83.4205 95.4194C83.6607 95.8573 83.4806 96.4147 83.0402 96.6535Z" fill="#F78381"/>
<path d="M85.7424 100.475L85.7023 100.515C85.3221 100.834 84.7416 100.794 84.4214 100.415C84.1011 100.037 84.1412 99.4601 84.5214 99.1416L84.5615 99.1018C84.9418 98.7833 85.5222 98.8231 85.8425 99.2013C86.1627 99.5795 86.1227 100.157 85.7424 100.475Z" fill="#F78381"/>
<path d="M91.5667 84.5514L95.0694 82.4813C95.5097 82.2225 95.6498 81.6652 95.3896 81.2273C95.1294 80.7894 94.569 80.6501 94.1487 80.9088L90.646 82.9789C90.2057 83.2377 90.0656 83.795 90.3258 84.213C90.586 84.6509 91.1464 84.7902 91.5867 84.5315L91.5667 84.5514Z" fill="#F78381"/>
<path d="M93.3082 89.7068L97.3312 89.0699C97.8316 88.9903 98.1719 88.5324 98.0918 88.0348C98.0117 87.5372 97.5514 87.1988 97.051 87.2785L93.0279 87.9154C92.5276 87.995 92.1873 88.4528 92.2674 88.9504C92.3474 89.4481 92.8078 89.7864 93.3082 89.7068Z" fill="#F78381"/>
<path d="M92.8477 94.8422L95.1895 95.1209C95.6898 95.1806 96.1502 94.8223 96.2102 94.3247C96.2703 93.8271 95.91 93.3693 95.4096 93.3096L93.0678 93.0309C92.5675 92.9712 92.1071 93.3295 92.0471 93.8271C91.987 94.3247 92.3473 94.7825 92.8477 94.8422Z" fill="#F78381"/>
<path d="M91.7269 99.3605H91.787C92.2673 99.5396 92.7877 99.3008 92.9479 98.8231C93.108 98.3454 92.8678 97.8278 92.3874 97.6686H92.3274C91.847 97.4895 91.3266 97.7283 91.1665 98.206C91.0064 98.6837 91.2466 99.2013 91.7269 99.3605Z" fill="#F78381"/>
<path d="M145.588 51.41C138.042 40.7013 126.593 53.2413 126.593 53.2413C126.593 53.2413 109.601 54.5152 113.443 67.0153C116.146 75.7733 128.355 79.4159 135.42 80.8092C138.503 81.4263 141.605 79.9135 143.006 77.1268C146.248 70.7374 150.852 58.9141 145.568 51.41H145.588Z" fill="#E84C3D"/>
<path d="M135.08 52.4055C138.643 50.6738 140.344 51.7287 141.925 53.958C146.008 59.7702 141.265 70.6779 139.023 75.1167C138.783 75.6143 138.382 75.9925 137.902 76.2314C137.422 76.4702 136.861 76.5299 136.321 76.4304C131.437 75.475 119.848 72.4893 117.767 65.7018C116.966 63.0744 117.166 61.1038 120.729 59.3721C123.591 57.9788 126.934 57.7001 126.954 57.7001L128.735 57.5608L129.936 56.267C129.936 56.267 132.238 53.7988 135.1 52.4055" fill="#F56462"/>
<path d="M128.715 57.5408C127.074 60.3473 126.874 64.169 128.595 67.6324C130.296 71.0959 133.439 73.2854 136.681 73.7432C138.322 70.9366 138.523 67.1149 136.801 63.6515C135.1 60.1881 131.958 57.9986 128.715 57.5408Z" fill="#F78381"/>
<path d="M129.636 59.4316C128.795 61.3027 128.895 63.9301 130.136 66.4182C131.357 68.9262 133.379 70.6181 135.38 71.0958C136.221 69.2247 136.121 66.5973 134.88 64.1092C133.659 61.6012 131.617 59.9094 129.636 59.4316Z" fill="#E84C3D"/>
<path d="M125.072 62.7758L121.029 63.1739C120.529 63.2336 120.088 62.8554 120.028 62.3578C119.968 61.8602 120.349 61.4223 120.849 61.3626L124.892 60.9645C125.393 60.9047 125.833 61.2829 125.893 61.7806C125.953 62.2782 125.573 62.7161 125.072 62.7758Z" fill="#F78381"/>
<path d="M126.774 67.9309L123.171 69.8019C122.731 70.0408 122.17 69.8616 121.93 69.4237C121.69 68.9858 121.87 68.4285 122.31 68.1896L125.913 66.3186C126.353 66.0797 126.914 66.2589 127.154 66.6968C127.394 67.1347 127.214 67.692 126.774 67.9309Z" fill="#F78381"/>
<path d="M130.216 71.7924L128.495 73.4046C128.135 73.743 127.554 73.7231 127.214 73.3648C126.874 73.0065 126.894 72.4293 127.254 72.0909L128.975 70.4786C129.336 70.1403 129.916 70.1602 130.256 70.5184C130.597 70.8767 130.577 71.454 130.216 71.7924Z" fill="#F78381"/>
<path d="M133.839 74.7383L133.799 74.798C133.519 75.216 132.958 75.3155 132.538 75.0368C132.118 74.7582 132.018 74.2008 132.298 73.7828L132.338 73.7231C132.618 73.3051 133.178 73.2056 133.599 73.4843C134.019 73.7629 134.119 74.3203 133.839 74.7383Z" fill="#F78381"/>
<path d="M135.18 57.8792L138.002 54.9532C138.342 54.5949 138.342 54.0177 137.982 53.6793C137.622 53.3409 137.041 53.3409 136.701 53.6992L133.879 56.6252C133.539 56.9835 133.539 57.5607 133.899 57.8991C134.259 58.2375 134.84 58.2375 135.18 57.8792Z" fill="#F78381"/>
<path d="M138.242 62.3776L141.945 60.7056C142.406 60.5066 142.606 59.9692 142.406 59.5113C142.205 59.0535 141.665 58.8545 141.205 59.0535L137.502 60.7255C137.041 60.9246 136.841 61.462 137.041 61.9198C137.242 62.3776 137.782 62.5767 138.242 62.3776Z" fill="#F78381"/>
<path d="M139.183 67.4333L141.525 67.075C142.025 66.9954 142.365 66.5376 142.285 66.04C142.205 65.5423 141.745 65.204 141.245 65.2836L138.903 65.6419C138.402 65.7215 138.062 66.1793 138.142 66.6769C138.222 67.1745 138.683 67.5129 139.183 67.4333Z" fill="#F78381"/>
<path d="M139.303 72.0911H139.363C139.864 72.1309 140.304 71.7527 140.344 71.2551C140.384 70.7574 140.004 70.3195 139.503 70.2797H139.443C138.943 70.2399 138.503 70.6181 138.463 71.1157C138.423 71.6133 138.803 72.0512 139.303 72.0911Z" fill="#F78381"/>
<path d="M72.5123 104.098L103.776 192.455C104.437 194.306 106.038 195.659 107.979 195.978L132.718 200.178C135.82 200.695 138.703 198.506 139.023 195.401L151.873 71.2751C152.293 67.1747 148.53 63.9103 144.507 64.8658C130.016 68.2695 99.1726 77.2266 74.9942 95.917C72.4923 97.8478 71.4715 101.132 72.5323 104.098H72.5123Z" fill="#E8CB7D"/>
<path d="M106.959 153.561C110.401 171.953 119.408 187.896 131.898 200.038L132.718 200.178C135.821 200.695 138.703 198.506 139.023 195.4L151.873 71.2749C152.293 67.1945 148.55 63.95 144.547 64.8656C116.206 83.7153 100.333 118.13 106.959 153.561Z" fill="#FFD6A0"/>
<path d="M133.399 85.0888C133.519 85.7059 133.098 86.303 132.478 86.4026C131.857 86.5021 131.257 86.104 131.157 85.4869C131.037 84.8699 131.457 84.2728 132.078 84.1732C132.698 84.0538 133.299 84.4718 133.399 85.0888Z" fill="#E8CB7D"/>
<path d="M142.726 99.9574C143.046 101.689 141.905 103.361 140.144 103.68C138.402 103.998 136.721 102.863 136.401 101.112C136.081 99.3802 137.222 97.7082 138.983 97.3897C140.724 97.0712 142.406 98.2058 142.726 99.9574Z" fill="#E8CB7D"/>
<path d="M123.491 111.164C123.671 112.179 123.011 113.134 121.99 113.333C120.969 113.513 120.008 112.856 119.808 111.841C119.628 110.825 120.289 109.87 121.309 109.671C122.33 109.492 123.291 110.149 123.491 111.164Z" fill="#E8CB7D"/>
<path d="M134.079 126.013C134.239 126.908 133.659 127.764 132.758 127.943C131.857 128.103 130.997 127.525 130.817 126.63C130.657 125.734 131.237 124.878 132.138 124.699C133.038 124.54 133.899 125.117 134.079 126.013Z" fill="#E8CB7D"/>
<path d="M118.147 139.23C118.327 140.225 117.667 141.2 116.666 141.379C115.665 141.559 114.684 140.902 114.504 139.906C114.324 138.911 114.985 137.936 115.985 137.757C116.986 137.578 117.967 138.234 118.147 139.23Z" fill="#E8CB7D"/>
<path d="M132.978 160.746C133.178 161.801 132.478 162.836 131.397 163.035C130.336 163.234 129.296 162.538 129.095 161.463C128.895 160.408 129.596 159.373 130.677 159.174C131.757 158.975 132.778 159.671 132.978 160.746Z" fill="#E8CB7D"/>
<path d="M140.684 140.961C140.864 141.976 140.204 142.932 139.183 143.131C138.162 143.31 137.201 142.653 137.001 141.638C136.821 140.623 137.482 139.667 138.502 139.468C139.523 139.289 140.484 139.946 140.684 140.961Z" fill="#E8CB7D"/>
<path d="M117.987 166.36C118.067 166.818 117.767 167.236 117.326 167.315C116.866 167.395 116.446 167.096 116.366 166.658C116.286 166.201 116.586 165.783 117.026 165.703C117.487 165.623 117.907 165.922 117.987 166.36Z" fill="#E8CB7D"/>
<path d="M134.179 186.662C134.339 187.558 133.759 188.414 132.858 188.593C131.958 188.752 131.097 188.175 130.917 187.279C130.757 186.383 131.337 185.528 132.238 185.348C133.138 185.189 133.999 185.766 134.179 186.662Z" fill="#E8CB7D"/>
<path d="M138.062 173.246C138.202 173.983 137.722 174.679 136.981 174.819C136.241 174.958 135.54 174.48 135.4 173.744C135.26 173.007 135.74 172.311 136.481 172.171C137.222 172.032 137.922 172.51 138.062 173.246Z" fill="#E8CB7D"/>
<path d="M143.406 116.001C143.566 116.837 143.006 117.653 142.165 117.812C141.325 117.971 140.504 117.414 140.344 116.578C140.184 115.742 140.744 114.926 141.585 114.767C142.425 114.607 143.246 115.165 143.406 116.001Z" fill="#E8CB7D"/>
<path d="M148.65 75.236C148.79 76.0123 148.27 76.7686 147.489 76.9279C146.709 77.0871 145.948 76.5497 145.788 75.7734C145.648 74.9971 146.168 74.2407 146.949 74.0815C147.73 73.9422 148.49 74.4597 148.65 75.236Z" fill="#E8CB7D"/>
<path d="M83.6607 100.276C83.8609 101.391 83.1203 102.466 81.9995 102.685C80.8786 102.884 79.7978 102.147 79.5776 101.032C79.3775 99.9178 80.118 98.843 81.2389 98.624C82.3598 98.425 83.4406 99.1614 83.6607 100.276Z" fill="#FFD6A0"/>
<path d="M100.394 93.7074C100.534 94.4439 100.053 95.1405 99.3127 95.2799C98.5722 95.4192 97.8716 94.9415 97.7315 94.205C97.5914 93.4685 98.0718 92.7719 98.8124 92.6325C99.5529 92.4932 100.253 92.9709 100.394 93.7074Z" fill="#FFD6A0"/>
<path d="M115.465 85.4671C115.645 86.4225 115.005 87.3381 114.044 87.5173C113.083 87.6964 112.162 87.0595 111.982 86.104C111.802 85.1486 112.443 84.233 113.403 84.0539C114.364 83.8747 115.285 84.5117 115.465 85.4671Z" fill="#FFD6A0"/>
<path d="M100.614 114.149C100.934 115.821 99.8131 117.453 98.1318 117.752C96.4505 118.07 94.8093 116.956 94.509 115.284C94.1888 113.612 95.3096 111.98 96.9909 111.681C98.6722 111.363 100.313 112.477 100.614 114.149Z" fill="#FFD6A0"/>
<path d="M108.64 107.88C108.8 108.755 108.219 109.591 107.359 109.751C106.478 109.91 105.637 109.333 105.477 108.477C105.317 107.601 105.898 106.765 106.758 106.606C107.639 106.447 108.48 107.024 108.64 107.88Z" fill="#FFD6A0"/>
<path d="M89.5253 125.953C89.6854 126.789 89.125 127.605 88.2843 127.764C87.4437 127.923 86.6231 127.366 86.4629 126.53C86.3028 125.694 86.8632 124.878 87.7039 124.719C88.5445 124.56 89.3652 125.117 89.5253 125.953Z" fill="#FFD6A0"/>
<path d="M96.8908 143.907C97.091 144.962 96.3905 145.997 95.3096 146.196C94.2488 146.395 93.208 145.698 93.0079 144.623C92.8077 143.569 93.5083 142.534 94.5891 142.334C95.6499 142.135 96.6907 142.832 96.8908 143.907Z" fill="#FFD6A0"/>
<path d="M102.135 132.442C102.355 133.616 101.574 134.751 100.393 134.97C99.2125 135.189 98.0717 134.412 97.8515 133.238C97.6313 132.064 98.4119 130.929 99.5928 130.71C100.774 130.491 101.915 131.267 102.135 132.442Z" fill="#FFD6A0"/>
<path d="M99.3327 156.945C99.4328 157.482 99.0725 157.98 98.5521 158.079C98.0117 158.179 97.5113 157.82 97.4112 157.303C97.3111 156.765 97.6714 156.268 98.1918 156.168C98.7322 156.069 99.2326 156.427 99.3327 156.945Z" fill="#FFD6A0"/>
<path d="M107.879 165.384C108.079 166.439 107.379 167.474 106.298 167.673C105.237 167.872 104.196 167.176 103.996 166.101C103.796 165.046 104.497 164.011 105.577 163.812C106.638 163.613 107.679 164.309 107.879 165.384Z" fill="#FFD6A0"/>
<path d="M106.698 180.512C106.838 181.288 106.318 182.044 105.537 182.204C104.757 182.343 103.996 181.826 103.836 181.049C103.696 180.273 104.216 179.517 104.997 179.357C105.778 179.198 106.538 179.736 106.698 180.512Z" fill="#FFD6A0"/>
<path d="M117.366 187.777C117.567 188.832 116.866 189.867 115.785 190.066C114.724 190.265 113.684 189.568 113.483 188.493C113.283 187.438 113.984 186.403 115.065 186.204C116.125 186.005 117.166 186.702 117.366 187.777Z" fill="#FFD6A0"/>
<path d="M81.0789 109.034C81.0789 109.034 133.779 73.5242 141.385 87.0196C149.011 100.515 83.841 123.485 90.2258 138.254C96.6107 153.023 135.38 122.33 139.764 133.995C144.167 145.659 93.6084 152.426 99.1926 167.016C103.116 177.307 134.5 156.109 136.581 166.917C138.663 177.725 113.664 184.632 106.558 187.797" stroke="#67463A" stroke-width="10.2466" stroke-miterlimit="10" stroke-linecap="round"/>
<path d="M130.417 163.812C133.719 163.513 136.061 164.21 136.581 166.917" stroke="#805749" stroke-width="10.2466" stroke-miterlimit="10" stroke-linecap="round"/>
<path d="M113.003 152.127C107.419 154.775 102.535 157.581 100.214 160.786" stroke="#805749" stroke-width="10.2466" stroke-miterlimit="10" stroke-linecap="round"/>
<path d="M104.657 141.2C108 140.284 111.622 138.911 115.245 137.498" stroke="#805749" stroke-width="10.2466" stroke-miterlimit="10" stroke-linecap="round"/>
<path d="M98.4122 124.4C92.2274 129.396 88.4646 134.134 90.2459 138.254" stroke="#805749" stroke-width="10.2466" stroke-miterlimit="10" stroke-linecap="round"/>
<path d="M126.654 105.411C123.771 107.362 120.669 109.352 117.547 111.343" stroke="#805749" stroke-width="10.2466" stroke-miterlimit="10" stroke-linecap="round"/>
<path d="M138.383 96.0959C137.382 97.1509 136.201 98.2257 134.9 99.3205" stroke="#805749" stroke-width="10.2466" stroke-miterlimit="10" stroke-linecap="round"/>
<path d="M109.401 92.4335C114.585 89.8459 119.829 87.4971 124.592 85.9446" stroke="#805749" stroke-width="10.2466" stroke-miterlimit="10" stroke-linecap="round"/>
<path d="M91.787 102.247C93.8686 100.993 96.1504 99.639 98.5722 98.2656" stroke="#805749" stroke-width="10.2466" stroke-miterlimit="10" stroke-linecap="round"/>
<path d="M64.7064 90.9606C64.7064 96.3946 60.283 100.793 54.8189 100.793C49.3547 100.793 44.9313 96.3946 44.9313 90.9606C44.9313 85.5266 49.3547 81.1277 54.8189 81.1277C60.283 81.1277 64.7064 85.5266 64.7064 90.9606Z" fill="#6F47D3"/>
<path d="M56.6802 83.6559V83.7156C56.6802 84.3525 57.0405 84.9497 57.621 85.2483C59.2822 86.0444 60.5432 87.5373 61.0235 89.3486C61.2237 90.1448 61.9843 90.6623 62.8049 90.5827C62.8049 90.5827 62.8249 90.5827 62.8449 90.5827C63.9057 90.4832 64.6263 89.468 64.3461 88.433C63.6055 85.6663 61.684 83.3573 59.1421 82.1232C58.0012 81.5659 56.6802 82.4019 56.6802 83.6559Z" fill="#8C6CDC"/>
<path d="M54.1984 83.2776V83.1383C54.1984 82.0435 53.1576 81.2474 52.0968 81.5459C51.7165 81.6654 51.3562 81.7848 50.9959 81.944C50.1753 82.3023 49.755 83.2378 50.0953 84.0539C50.0953 84.0937 50.1153 84.1335 50.1353 84.1733C50.4755 85.0491 51.4763 85.4472 52.357 85.089C52.5771 84.9894 52.7973 84.9297 53.0175 84.8501C53.718 84.651 54.1784 83.9942 54.1784 83.2776H54.1984Z" fill="#8C6CDC"/>
<path d="M46.6927 92.7521C46.6927 92.7521 46.6727 92.7521 46.6527 92.7521C45.812 93.1303 45.4117 94.1255 45.792 94.9615C46.9529 97.5491 49.2346 99.5396 51.9967 100.356C53.0776 100.674 54.1784 99.8382 54.1784 98.7036C54.1784 97.9273 53.678 97.2505 52.9575 97.0515C51.1561 96.5141 49.715 95.2402 48.9544 93.5483C48.5741 92.6924 47.5333 92.354 46.6727 92.7322L46.6927 92.7521Z" fill="#5F3DB5"/>
<path d="M57.9812 92.2546C57.2607 92.2546 56.6803 91.6773 56.6803 90.9608C56.6803 90.2442 57.2607 89.667 57.9812 89.667H58.3815C58.0013 88.612 57.1606 87.7959 56.1198 87.4177V87.8158C56.1198 88.5324 55.5394 89.1096 54.8188 89.1096C54.0983 89.1096 53.5178 88.5324 53.5178 87.8158V87.4177C52.457 87.7959 51.6364 88.6319 51.2561 89.667H51.6564C52.377 89.667 52.9574 90.2442 52.9574 90.9608C52.9574 91.6773 52.377 92.2546 51.6564 92.2546H51.2561C51.6364 93.3095 52.4771 94.1256 53.5178 94.5038V94.1057C53.5178 93.3891 54.0983 92.8119 54.8188 92.8119C55.5394 92.8119 56.1198 93.3891 56.1198 94.1057V94.5038C57.1806 94.1256 58.0013 93.2896 58.3815 92.2546H57.9812Z" fill="#53359E"/>
<path d="M46.3924 132.681C33.2624 132.442 36.725 149.043 36.725 149.043C36.725 149.043 27.7782 163.474 40.2077 167.713C48.9143 170.679 59.062 162.996 64.3461 158.139C66.6478 156.009 67.2483 152.645 65.8072 149.859C62.5047 143.489 55.5994 132.82 46.3924 132.661V132.681Z" fill="#E84C3D"/>
<path d="M41.0283 141.737C41.7088 137.856 43.5702 137.1 46.3123 137.159C53.4378 137.279 59.5224 147.53 61.8041 151.929C62.0643 152.426 62.1444 152.964 62.0443 153.481C61.9442 154.019 61.684 154.496 61.2837 154.875C57.6209 158.238 48.3939 165.802 41.6488 163.493C39.0468 162.598 37.5657 161.264 38.2462 157.383C38.8066 154.258 40.5279 151.411 40.5279 151.391L41.4486 149.878L41.1084 148.147C41.1084 148.147 40.4479 144.843 41.0083 141.718" fill="#F56462"/>
<path d="M41.4486 149.879C42.7696 152.864 45.7519 155.253 49.5748 155.91C53.3977 156.586 57.0205 155.352 59.2822 153.004C57.9612 150.018 54.9789 147.629 51.156 146.973C47.3331 146.296 43.7103 147.53 41.4486 149.879Z" fill="#F78381"/>
<path d="M43.5503 150.237C44.5711 152.008 46.7728 153.461 49.5349 153.959C52.297 154.437 54.8589 153.8 56.4201 152.486C55.3993 150.715 53.1977 149.261 50.4356 148.764C47.6735 148.286 45.1115 148.923 43.5503 150.237Z" fill="#E84C3D"/>
<path d="M43.5903 155.87L41.5488 159.373C41.2886 159.811 40.7282 159.95 40.3078 159.692C39.8675 159.433 39.7274 158.876 39.9876 158.458L42.0292 154.954C42.2893 154.516 42.8498 154.377 43.2701 154.636C43.7104 154.895 43.8505 155.452 43.5903 155.87Z" fill="#F78381"/>
<path d="M48.7743 157.542L48.1738 161.543C48.0938 162.04 47.6334 162.379 47.133 162.299C46.6327 162.219 46.2924 161.762 46.3725 161.264L46.9729 157.263C47.053 156.765 47.5133 156.427 48.0137 156.507C48.5141 156.586 48.8544 157.044 48.7743 157.542Z" fill="#F78381"/>
<path d="M53.9181 157.045L54.2184 159.373C54.2784 159.871 53.9381 160.329 53.4378 160.389C52.9374 160.448 52.477 160.11 52.417 159.612L52.1168 157.283C52.0567 156.786 52.397 156.328 52.8974 156.268C53.3977 156.209 53.8581 156.547 53.9181 157.045Z" fill="#F78381"/>
<path d="M58.4615 155.87V155.929C58.6617 156.407 58.4015 156.925 57.9411 157.084C57.4608 157.263 56.9404 157.004 56.7803 156.547V156.487C56.5801 156.009 56.8403 155.492 57.3007 155.332C57.781 155.153 58.3014 155.412 58.4615 155.87Z" fill="#F78381"/>
<path d="M45.5318 144.863L44.8112 140.882C44.7112 140.384 44.2508 140.066 43.7504 140.145C43.25 140.245 42.9298 140.703 43.0099 141.2L43.7304 145.181C43.8105 145.679 44.2908 145.997 44.7912 145.918C45.2916 145.838 45.6118 145.36 45.5318 144.863Z" fill="#F78381"/>
<path d="M50.976 145.042L51.7966 141.081C51.8967 140.583 51.5764 140.106 51.0761 140.006C50.5757 139.906 50.0953 140.225 49.9952 140.723L49.1746 144.684C49.0745 145.181 49.3948 145.659 49.8952 145.758C50.3955 145.858 50.8759 145.539 50.976 145.042Z" fill="#F78381"/>
<path d="M55.6594 147.251L56.7403 145.161C56.9804 144.723 56.8003 144.166 56.34 143.947C55.8996 143.708 55.3392 143.887 55.119 144.345L54.0382 146.435C53.798 146.873 53.9782 147.43 54.4385 147.649C54.8788 147.888 55.4393 147.709 55.6594 147.251Z" fill="#F78381"/>
<path d="M59.5225 149.898L59.5625 149.859C59.8828 149.48 59.8427 148.903 59.4424 148.585C59.0621 148.266 58.4817 148.306 58.1615 148.704L58.1214 148.744C57.8012 149.122 57.8412 149.699 58.2415 150.018C58.6218 150.336 59.2022 150.296 59.5225 149.898Z" fill="#F78381"/>
<path d="M91.5468 184.154C100.994 175.077 86.7432 165.782 86.7432 165.782C86.7432 165.782 82.8202 149.281 71.0112 155.033C62.7449 159.054 61.0236 171.634 60.7434 178.78C60.6233 181.905 62.5848 184.711 65.587 185.667C72.4523 187.836 84.9017 190.523 91.5268 184.174L91.5468 184.154Z" fill="#E84C3D"/>
<path d="M88.9047 173.983C91.1865 177.207 90.4059 179.039 88.4244 180.95C83.3005 185.886 71.7117 182.9 66.968 181.407C66.4476 181.248 66.0073 180.91 65.6871 180.472C65.3668 180.034 65.2267 179.496 65.2467 178.959C65.4469 174.003 66.5878 162.16 72.9926 159.054C75.4745 157.84 77.456 157.741 79.7378 160.985C81.5592 163.573 82.3798 166.817 82.3798 166.837L82.8001 168.549L84.2812 169.524C84.2812 169.524 87.0834 171.395 88.9248 174.003" fill="#F56462"/>
<path d="M82.8201 168.529C79.7578 167.354 75.9549 167.772 72.7725 169.982C69.59 172.191 67.9087 175.615 67.9688 178.879C71.0311 180.053 74.834 179.635 78.0164 177.426C81.1989 175.217 82.8802 171.793 82.8201 168.529Z" fill="#F78381"/>
<path d="M81.0789 169.723C79.0974 169.186 76.4954 169.703 74.2136 171.296C71.9119 172.888 70.5509 175.137 70.3907 177.188C72.3722 177.725 74.9742 177.207 77.256 175.615C79.5577 174.023 80.9187 171.754 81.0789 169.723Z" fill="#E84C3D"/>
<path d="M77.0558 165.782L76.015 161.861C75.8949 161.383 76.1751 160.885 76.6555 160.746C77.1359 160.626 77.6363 160.905 77.7764 161.383L78.8172 165.304C78.9373 165.782 78.657 166.279 78.1767 166.419C77.6963 166.538 77.1959 166.259 77.0558 165.782Z" fill="#F78381"/>
<path d="M72.1921 168.25L69.7702 165.006C69.47 164.607 69.5501 164.03 69.9504 163.732C70.3507 163.433 70.9311 163.513 71.2314 163.911L73.6532 167.155C73.9534 167.553 73.8734 168.131 73.4731 168.429C73.0728 168.728 72.4923 168.648 72.1921 168.25Z" fill="#F78381"/>
<path d="M68.9095 172.231L67.0281 170.798C66.6278 170.499 66.5477 169.922 66.868 169.524C67.1682 169.126 67.7486 169.046 68.1489 169.365L70.0304 170.798C70.4307 171.096 70.5107 171.674 70.1905 172.072C69.8903 172.47 69.3098 172.549 68.9095 172.231Z" fill="#F78381"/>
<path d="M66.5278 176.252H66.4677C66.0074 176.013 65.8072 175.476 66.0274 175.018C66.2475 174.56 66.7879 174.361 67.2483 174.58H67.3083C67.7687 174.819 67.9688 175.356 67.7487 175.814C67.5285 176.272 66.9881 176.471 66.5278 176.252Z" fill="#F78381"/>
<path d="M83.5006 174.938L86.8432 177.247C87.2635 177.526 87.8239 177.426 88.1041 177.008C88.3843 176.59 88.2843 176.033 87.8639 175.754L84.5214 173.445C84.1011 173.167 83.5406 173.266 83.2604 173.684C82.9802 174.102 83.0803 174.66 83.5006 174.938Z" fill="#F78381"/>
<path d="M79.5177 178.64L81.7594 182.024C82.0396 182.442 82.6 182.561 83.0203 182.283C83.4406 182.004 83.5607 181.447 83.2805 181.029L81.0388 177.645C80.7586 177.227 80.1982 177.108 79.7779 177.386C79.3575 177.665 79.2374 178.222 79.5177 178.64Z" fill="#F78381"/>
<path d="M74.6339 180.352L75.3544 182.581C75.5145 183.059 76.0149 183.318 76.4953 183.179C76.9757 183.019 77.2359 182.522 77.0958 182.044L76.3752 179.815C76.2151 179.337 75.7147 179.078 75.2343 179.218C74.754 179.377 74.4938 179.874 74.6339 180.352Z" fill="#F78381"/>
<path d="M70.0303 181.208V181.268C70.0904 181.765 70.5307 182.144 71.0311 182.084C71.5315 182.044 71.9118 181.606 71.8517 181.109V181.049C71.8117 180.551 71.3513 180.173 70.851 180.233C70.3506 180.273 69.9703 180.71 70.0303 181.208Z" fill="#F78381"/>
<path d="M193.785 199.58C193.785 204.656 189.641 208.776 184.538 208.776C179.434 208.776 175.291 204.656 175.291 199.58C175.291 194.505 179.434 190.385 184.538 190.385C189.641 190.385 193.785 194.505 193.785 199.58Z" fill="#6F47D3"/>
<path d="M186.279 192.753V192.813C186.279 193.41 186.599 193.967 187.16 194.246C188.721 195.002 189.902 196.396 190.342 198.068C190.542 198.804 191.243 199.302 192.003 199.222C192.003 199.222 192.023 199.222 192.043 199.222C193.044 199.143 193.705 198.187 193.464 197.212C192.764 194.624 190.983 192.474 188.601 191.32C187.54 190.803 186.299 191.579 186.299 192.753H186.279Z" fill="#8C6CDC"/>
<path d="M183.977 192.395V192.275C183.977 191.26 182.997 190.504 182.016 190.782C181.676 190.882 181.315 191.001 180.995 191.141C180.214 191.459 179.834 192.335 180.134 193.111C180.134 193.151 180.154 193.191 180.174 193.211C180.495 194.047 181.435 194.405 182.256 194.067C182.456 193.987 182.676 193.907 182.876 193.848C183.517 193.669 183.957 193.052 183.957 192.375L183.977 192.395Z" fill="#8C6CDC"/>
<path d="M176.952 201.252H176.932C176.151 201.61 175.771 202.526 176.131 203.322C177.232 205.751 179.334 207.602 181.936 208.358C182.956 208.657 183.977 207.88 183.977 206.825C183.977 206.089 183.517 205.472 182.836 205.273C181.155 204.775 179.794 203.581 179.093 202.009C178.733 201.212 177.772 200.894 176.972 201.252H176.952Z" fill="#5F3DB5"/>
<path d="M187.52 200.795C186.859 200.795 186.299 200.257 186.299 199.58C186.299 198.924 186.839 198.366 187.52 198.366H187.88C187.52 197.391 186.739 196.615 185.759 196.256V196.615C185.759 197.291 185.218 197.829 184.538 197.829C183.877 197.829 183.317 197.291 183.317 196.615V196.256C182.336 196.615 181.555 197.391 181.195 198.366H181.555C182.216 198.366 182.776 198.904 182.776 199.58C182.776 200.257 182.236 200.795 181.555 200.795H181.195C181.555 201.77 182.336 202.546 183.317 202.905V202.546C183.317 201.889 183.857 201.332 184.538 201.332C185.198 201.332 185.759 201.869 185.759 202.546V202.905C186.739 202.546 187.52 201.77 187.88 200.795H187.52Z" fill="#53359E"/>
<path d="M205.854 179.676C205.854 184.752 201.711 188.872 196.607 188.872C191.503 188.872 187.36 184.752 187.36 179.676C187.36 174.6 191.503 170.48 196.607 170.48C201.711 170.48 205.854 174.6 205.854 179.676Z" fill="#6F47D3"/>
<path d="M198.348 172.848V172.908C198.348 173.505 198.668 174.063 199.229 174.341C200.79 175.098 201.971 176.491 202.411 178.163C202.611 178.899 203.312 179.397 204.072 179.317C204.072 179.317 204.092 179.317 204.112 179.317C205.113 179.238 205.774 178.282 205.534 177.307C204.833 174.719 203.052 172.57 200.67 171.415C199.609 170.898 198.368 171.674 198.368 172.848H198.348Z" fill="#8C6CDC"/>
<path d="M196.026 172.49V172.371C196.026 171.356 195.046 170.599 194.065 170.878C193.725 170.977 193.364 171.097 193.044 171.236C192.264 171.555 191.883 172.43 192.184 173.207C192.184 173.247 192.204 173.286 192.224 173.306C192.544 174.142 193.485 174.501 194.305 174.162C194.505 174.083 194.725 174.003 194.926 173.943C195.566 173.764 196.006 173.147 196.006 172.47L196.026 172.49Z" fill="#8C6CDC"/>
<path d="M189.021 181.348C189.021 181.348 189.001 181.348 188.981 181.348C188.201 181.706 187.82 182.622 188.18 183.418C189.281 185.846 191.383 187.697 193.985 188.454C195.006 188.752 196.026 187.976 196.026 186.921C196.026 186.185 195.566 185.568 194.886 185.369C193.204 184.871 191.843 183.677 191.143 182.104C190.782 181.308 189.822 180.99 189.021 181.348Z" fill="#5F3DB5"/>
<path d="M199.569 180.89C198.909 180.89 198.348 180.352 198.348 179.676C198.348 179.019 198.889 178.461 199.569 178.461H199.929C199.569 177.486 198.789 176.71 197.808 176.352V176.71C197.808 177.367 197.267 177.924 196.587 177.924C195.926 177.924 195.366 177.387 195.366 176.71V176.352C194.385 176.71 193.605 177.486 193.244 178.461H193.605C194.265 178.461 194.825 178.999 194.825 179.676C194.825 180.352 194.285 180.89 193.605 180.89H193.244C193.605 181.865 194.385 182.641 195.366 183V182.641C195.366 181.965 195.906 181.427 196.587 181.427C197.247 181.427 197.808 181.965 197.808 182.641V183C198.789 182.641 199.569 181.865 199.929 180.89H199.569Z" fill="#53359E"/>
<path d="M63.5856 118.35C63.5856 123.783 59.1622 128.182 53.6981 128.182C48.2339 128.182 43.8105 123.783 43.8105 118.35C43.8105 112.916 48.2339 108.517 53.6981 108.517C59.1622 108.517 63.5856 112.916 63.5856 118.35Z" fill="#6F47D3"/>
<path d="M55.5595 111.025V111.084C55.5595 111.721 55.9198 112.319 56.5002 112.617C58.1615 113.413 59.4224 114.906 59.9028 116.718C60.1029 117.514 60.8635 118.031 61.6841 117.952C61.6841 117.952 61.7042 117.952 61.7242 117.952C62.785 117.852 63.5055 116.837 63.2253 115.802C62.4848 113.015 60.5633 110.726 58.0214 109.492C56.8805 108.935 55.5595 109.771 55.5595 111.025Z" fill="#8C6CDC"/>
<path d="M53.0776 110.667V110.527C53.0776 109.432 52.0368 108.636 50.976 108.935C50.5957 109.054 50.2354 109.174 49.8751 109.333C49.0545 109.691 48.6342 110.627 48.9744 111.443C48.9744 111.483 48.9945 111.522 49.0145 111.562C49.3547 112.438 50.3555 112.836 51.2362 112.478C51.4563 112.378 51.6765 112.319 51.8967 112.239C52.5972 112.04 53.0575 111.383 53.0575 110.667H53.0776Z" fill="#8C6CDC"/>
<path d="M45.5919 120.141C45.5919 120.141 45.5719 120.141 45.5519 120.141C44.7113 120.519 44.311 121.514 44.6912 122.35C45.8521 124.938 48.1339 126.929 50.896 127.745C51.9768 128.063 53.0776 127.227 53.0776 126.093C53.0776 125.316 52.5773 124.639 51.8567 124.44C50.0553 123.903 48.5942 122.629 47.8537 120.937C47.4734 120.081 46.4326 119.743 45.5719 120.121L45.5919 120.141Z" fill="#5F3DB5"/>
<path d="M56.8604 119.624C56.1399 119.624 55.5594 119.046 55.5594 118.33C55.5594 117.613 56.1399 117.036 56.8604 117.036H57.2607C56.8804 115.981 56.0398 115.165 54.999 114.787V115.185C54.999 115.902 54.4186 116.479 53.698 116.479C52.9775 116.479 52.397 115.902 52.397 115.185V114.787C51.3362 115.165 50.5156 116.001 50.1353 117.036H50.5356C51.2562 117.036 51.8366 117.613 51.8366 118.33C51.8366 119.046 51.2562 119.624 50.5356 119.624H50.1353C50.5156 120.679 51.3562 121.495 52.397 121.873V121.475C52.397 120.758 52.9775 120.181 53.698 120.181C54.4186 120.181 54.999 120.758 54.999 121.475V121.873C56.0598 121.495 56.8804 120.659 57.2607 119.624H56.8604Z" fill="#53359E"/>
</svg>
