<svg width="271" height="261" viewBox="0 0 271 261" fill="none" xmlns="http://www.w3.org/2000/svg">
<circle cx="134.116" cy="140.298" r="112.298" fill="black"/>
<path d="M42.7258 122.559C42.7258 60.2831 93.4361 9.54025 156 9.2316C218.564 8.92305 269.274 59.1658 269.274 121.442C269.274 183.717 218.564 234.459 156 234.768C93.4362 235.076 42.726 184.834 42.7258 122.559Z" fill="#EBEEEE" stroke="black" stroke-width="2"/>
<path d="M260.139 137.358C268.681 80.2402 228.993 27.0581 171.494 18.5726C113.995 10.0872 60.4586 49.5118 51.9166 106.63C43.3747 163.748 83.0621 216.93 140.561 225.416C198.06 233.901 251.597 194.477 260.139 137.358Z" fill="#A64429"/>
<path d="M246.624 135.333C254.04 85.6209 219.484 39.3487 169.44 31.9813C119.397 24.6138 72.8162 58.941 65.3996 108.653C57.983 158.365 92.5391 204.638 142.583 212.005C192.626 219.372 239.207 185.045 246.624 135.333Z" fill="#7D331F"/>
<path d="M185.013 103.567C194.816 111.372 196.401 125.63 188.545 135.368C180.689 145.107 166.335 146.681 156.532 138.877C146.729 131.073 145.144 116.814 153 107.076C160.856 97.3377 175.21 95.7634 185.013 103.567Z" fill="#E84C3D"/>
<path d="M162.147 140.249C162.147 140.249 162.147 140.249 162.147 140.271C161.762 141.171 162.26 142.205 163.188 142.543C166.765 143.802 170.592 144.117 174.259 143.555C175.323 143.397 175.98 142.295 175.618 141.283C175.618 141.283 175.618 141.283 175.618 141.261C175.346 140.496 174.531 140.046 173.716 140.159C170.592 140.631 167.354 140.361 164.32 139.304C163.46 139.012 162.532 139.439 162.17 140.271L162.147 140.249Z" fill="#BD483C"/>
<path d="M182.681 136.313C182.229 136.673 181.753 136.988 181.278 137.303C180.553 137.775 180.304 138.697 180.734 139.439C180.78 139.507 180.802 139.574 180.847 139.642C181.3 140.451 182.342 140.744 183.111 140.226C183.7 139.844 184.289 139.439 184.855 138.989C185.557 138.45 185.67 137.415 185.104 136.74C185.036 136.65 184.968 136.583 184.9 136.493C184.334 135.841 183.361 135.773 182.681 136.313Z" fill="#BD483C"/>
<path d="M173.105 100.194C173.105 100.194 173.105 100.171 173.105 100.149C173.014 99.3166 172.312 98.6419 171.475 98.6194C165.747 98.462 160.019 100.419 155.581 104.399C154.925 104.984 154.834 105.996 155.378 106.693C155.378 106.693 155.378 106.693 155.378 106.716C155.989 107.503 157.143 107.638 157.868 106.963C161.626 103.59 166.494 101.925 171.361 102.06C172.403 102.083 173.241 101.206 173.127 100.171L173.105 100.194Z" fill="#ED7064"/>
<path d="M182.206 107.031C176.659 102.623 169.029 102.533 163.46 106.312C161.49 107.661 161.4 110.517 163.256 112.002L181.459 126.485C183.315 127.97 186.123 127.25 187.006 125.046C189.519 118.816 187.775 111.439 182.229 107.009L182.206 107.031Z" fill="#ED7064"/>
<path d="M159.317 135.413C153.77 131.005 152.027 123.606 154.54 117.376C155.423 115.172 158.207 114.453 160.086 115.937L178.289 130.421C180.146 131.905 180.055 134.761 178.085 136.111C172.516 139.911 164.886 139.822 159.339 135.391L159.317 135.413Z" fill="#ED7064"/>
<path d="M164.479 132.895C164.66 132.58 164.75 132.221 164.773 131.861L165.384 129.769C165.701 128.667 164.524 127.723 163.528 128.285L161.626 129.342C161.286 129.432 160.969 129.612 160.675 129.859C160.585 129.949 160.471 130.039 160.381 130.152C159.52 131.209 159.702 132.76 160.766 133.593C161.83 134.447 163.392 134.267 164.23 133.21C164.32 133.098 164.388 132.985 164.456 132.873L164.479 132.895Z" fill="#FFD800"/>
<path d="M176.071 132.22C175.889 131.905 175.618 131.635 175.323 131.455L173.807 129.881C173.014 129.049 171.611 129.589 171.588 130.736L171.543 132.917C171.452 133.254 171.452 133.614 171.543 133.997C171.565 134.132 171.611 134.267 171.656 134.401C172.154 135.661 173.58 136.291 174.848 135.796C176.116 135.301 176.75 133.884 176.252 132.625C176.206 132.49 176.139 132.377 176.071 132.265V132.22Z" fill="#FFD800"/>
<path d="M183.451 119.198C183.089 119.198 182.727 119.288 182.41 119.446L180.282 119.963C179.172 120.233 178.923 121.717 179.919 122.302L181.798 123.426C182.047 123.674 182.364 123.854 182.727 123.989C182.863 124.034 182.998 124.056 183.134 124.079C184.493 124.281 185.738 123.359 185.942 122.032C186.145 120.683 185.217 119.446 183.881 119.243C183.745 119.243 183.61 119.221 183.474 119.221L183.451 119.198Z" fill="#FFD800"/>
<path d="M177.067 109.55C176.886 109.865 176.795 110.225 176.772 110.584L176.161 112.676C175.844 113.778 177.021 114.723 178.018 114.16L179.919 113.103C180.259 113.013 180.576 112.833 180.87 112.586C180.961 112.496 181.074 112.406 181.165 112.294C182.025 111.237 181.844 109.685 180.78 108.853C179.716 108.021 178.153 108.178 177.316 109.235C177.225 109.348 177.157 109.46 177.089 109.572L177.067 109.55Z" fill="#FFD800"/>
<path d="M165.452 110.225C165.633 110.539 165.905 110.809 166.199 110.989L167.716 112.564C168.509 113.396 169.912 112.856 169.935 111.709L169.98 109.527C170.071 109.19 170.071 108.83 169.98 108.448C169.957 108.313 169.912 108.178 169.867 108.066C169.369 106.806 167.943 106.176 166.675 106.671C165.407 107.166 164.773 108.583 165.271 109.842C165.316 109.977 165.384 110.09 165.452 110.202V110.225Z" fill="#FFD800"/>
<path d="M158.072 123.246C158.434 123.246 158.796 123.156 159.113 122.999L161.241 122.481C162.35 122.212 162.6 120.727 161.603 120.142L159.724 119.018C159.475 118.771 159.158 118.591 158.796 118.456C158.66 118.411 158.524 118.388 158.388 118.366C157.03 118.163 155.785 119.085 155.581 120.412C155.377 121.762 156.306 122.999 157.641 123.201C157.777 123.201 157.913 123.224 158.049 123.224L158.072 123.246Z" fill="#FFD800"/>
<path d="M133.62 54.0442C141.476 44.3059 155.83 42.7316 165.633 50.5357C175.436 58.3398 177.021 72.5985 169.165 82.3367C161.309 92.075 146.955 93.6493 137.152 85.8452C127.349 78.0411 125.764 63.7824 133.62 54.0442Z" fill="#E84C3D"/>
<path d="M170.546 76.7591C170.546 76.7591 170.546 76.7591 170.569 76.7591C171.475 77.1415 172.516 76.6467 172.856 75.7246C174.123 72.1711 174.44 68.3703 173.874 64.7269C173.716 63.6699 172.607 63.0177 171.588 63.3775C171.588 63.3775 171.588 63.3775 171.565 63.3775C170.795 63.6474 170.343 64.457 170.456 65.2667C170.931 68.3703 170.66 71.5864 169.595 74.6001C169.301 75.4547 169.731 76.3768 170.569 76.7366L170.546 76.7591Z" fill="#BD483C"/>
<path d="M166.584 56.3384C166.947 56.7882 167.264 57.2605 167.581 57.7328C168.056 58.4524 168.984 58.6998 169.731 58.2725C169.799 58.2275 169.867 58.2051 169.935 58.1601C170.75 57.7103 171.044 56.6757 170.524 55.9111C170.139 55.3263 169.731 54.7416 169.279 54.1793C168.735 53.4821 167.694 53.3697 167.015 53.9319C166.924 53.9994 166.856 54.0669 166.765 54.1343C166.109 54.6966 166.041 55.6637 166.584 56.3384Z" fill="#BD483C"/>
<path d="M130.224 65.8737C130.224 65.8737 130.202 65.8737 130.179 65.8737C129.341 65.9637 128.662 66.6609 128.639 67.5155C128.481 73.2055 130.451 78.8955 134.458 83.3036C135.047 83.9558 136.065 84.0457 136.767 83.506C136.767 83.506 136.767 83.506 136.79 83.506C137.582 82.8987 137.718 81.7518 137.039 81.0321C133.643 77.2987 131.968 72.4633 132.103 67.628C132.126 66.5934 131.243 65.7613 130.202 65.8737H130.224Z" fill="#ED7064"/>
<path d="M137.107 56.8107C132.669 62.3208 132.579 69.9 136.382 75.4326C137.741 77.3892 140.616 77.4792 142.11 75.635L156.69 57.5529C158.185 55.7087 157.46 52.92 155.241 52.0428C148.97 49.5464 141.544 51.2782 137.084 56.7883L137.107 56.8107Z" fill="#ED7064"/>
<path d="M165.679 79.5709C161.241 85.081 153.793 86.8127 147.521 84.3163C145.303 83.4392 144.578 80.6729 146.072 78.8062L160.653 60.7242C162.147 58.88 165.022 58.9699 166.38 60.9266C170.207 66.4591 170.116 74.0383 165.656 79.5484L165.679 79.5709Z" fill="#ED7064"/>
<path d="M163.143 74.4426C162.826 74.2627 162.464 74.1727 162.102 74.1502L159.996 73.543C158.887 73.2281 157.936 74.3976 158.502 75.3872L159.566 77.2764C159.657 77.6137 159.838 77.9286 160.087 78.2209C160.177 78.3109 160.268 78.4234 160.381 78.5133C161.445 79.3679 163.007 79.188 163.845 78.131C164.705 77.074 164.524 75.5221 163.46 74.69C163.347 74.6 163.234 74.5326 163.12 74.4651L163.143 74.4426Z" fill="#FFD800"/>
<path d="M162.464 62.9055C162.147 63.0855 161.875 63.3553 161.694 63.6477L160.109 65.1545C159.272 65.9417 159.815 67.3361 160.97 67.3586L163.166 67.4036C163.505 67.4935 163.868 67.4935 164.252 67.4036C164.388 67.3811 164.524 67.3361 164.66 67.2911C165.928 66.7963 166.562 65.3794 166.064 64.12C165.566 62.8606 164.139 62.2308 162.871 62.7256C162.736 62.7706 162.622 62.8381 162.509 62.9055H162.464Z" fill="#FFD800"/>
<path d="M149.355 55.5958C149.355 55.9556 149.446 56.3155 149.604 56.6303L150.125 58.7444C150.397 59.8464 151.891 60.0938 152.48 59.1042L153.612 57.2376C153.861 56.9902 154.042 56.6753 154.178 56.3155C154.223 56.1805 154.246 56.0456 154.268 55.9106C154.472 54.5612 153.544 53.3243 152.208 53.1219C150.85 52.9195 149.604 53.8416 149.401 55.1685C149.401 55.3034 149.378 55.4384 149.378 55.5733L149.355 55.5958Z" fill="#FFD800"/>
<path d="M139.643 61.9383C139.96 62.1182 140.322 62.2082 140.684 62.2306L142.79 62.8379C143.899 63.1527 144.85 61.9833 144.284 60.9937L143.22 59.1045C143.129 58.7672 142.948 58.4523 142.699 58.1599C142.608 58.07 142.518 57.9575 142.405 57.8676C141.341 57.0129 139.778 57.1929 138.941 58.2499C138.08 59.3069 138.262 60.8587 139.326 61.6909C139.439 61.7808 139.552 61.8483 139.665 61.9158L139.643 61.9383Z" fill="#FFD800"/>
<path d="M140.322 73.4756C140.639 73.2957 140.911 73.0258 141.092 72.7335L142.677 71.2266C143.514 70.4395 142.971 69.0451 141.816 69.0226L139.643 68.9776C139.303 68.8877 138.941 68.8877 138.556 68.9776C138.42 69.0001 138.284 69.0451 138.171 69.0901C136.903 69.5849 136.269 71.0017 136.768 72.2612C137.266 73.5206 138.692 74.1504 139.96 73.6556C140.096 73.6106 140.209 73.5431 140.322 73.4756Z" fill="#FFD800"/>
<path d="M153.43 80.8073C153.43 80.4249 153.34 80.0876 153.181 79.7502L152.661 77.6362C152.389 76.5341 150.895 76.2868 150.306 77.2763L149.174 79.143C148.925 79.3904 148.744 79.7053 148.608 80.0651C148.563 80.2 148.54 80.335 148.518 80.4699C148.314 81.8193 149.242 83.0563 150.578 83.2587C151.936 83.4611 153.181 82.539 153.385 81.2121C153.385 81.0772 153.408 80.9422 153.408 80.8073H153.43Z" fill="#FFD800"/>
<path d="M184.334 175.567L198.422 189.562C202.595 193.707 209.361 193.707 213.534 189.562L224.148 179.018C228.321 174.873 228.321 168.151 224.148 164.006L210.06 150.011C205.887 145.866 199.121 145.866 194.948 150.011L184.334 160.555C180.161 164.7 180.161 171.422 184.334 175.567Z" fill="#A64429"/>
<path d="M213.721 184.128C213.721 184.128 203.624 179.562 196.967 181.924" stroke="#7D331F" stroke-width="4.18451" stroke-miterlimit="10" stroke-linecap="round"/>
<path d="M217.411 179.404C217.411 179.404 210.37 175.581 202.99 174.681C192.598 173.399 188.319 173.332 188.319 173.332" stroke="#7D331F" stroke-width="4.18451" stroke-miterlimit="10" stroke-linecap="round"/>
<path d="M186.349 166.271C186.576 166.495 192.009 169.914 198.982 168.475" stroke="#7D331F" stroke-width="4.18451" stroke-miterlimit="10" stroke-linecap="round"/>
<path d="M203.193 168.744C203.193 168.744 213.97 168.542 222.528 175.379" stroke="#7D331F" stroke-width="4.18451" stroke-miterlimit="10" stroke-linecap="round"/>
<path d="M210.099 187.748C210.099 187.748 204.552 185.657 200.115 186.579" stroke="#7D331F" stroke-width="4.18451" stroke-miterlimit="10" stroke-linecap="round"/>
<path d="M188.387 160.94C188.387 160.94 192.145 163.302 199.345 162.38C206.544 161.457 211.027 163.032 211.027 163.032" stroke="#7D331F" stroke-width="4.18451" stroke-miterlimit="10" stroke-linecap="round"/>
<path d="M214.649 164.359C214.649 164.359 219.857 165.888 224 170.296" stroke="#7D331F" stroke-width="4.18451" stroke-miterlimit="10" stroke-linecap="round"/>
<path d="M217.185 159.726C217.185 159.726 209.601 155.722 203.329 157.409" stroke="#7D331F" stroke-width="4.18451" stroke-miterlimit="10" stroke-linecap="round"/>
<path d="M199.73 157.139C199.73 157.139 194.794 157.094 192.032 156.262" stroke="#7D331F" stroke-width="4.18451" stroke-miterlimit="10" stroke-linecap="round"/>
<path d="M196.764 152.079C196.764 152.079 204.846 151.134 208.763 152.979" stroke="#7D331F" stroke-width="4.18451" stroke-miterlimit="10" stroke-linecap="round"/>
<path d="M134.413 51.5032C134.413 55.484 131.175 58.7001 127.168 58.7001C123.161 58.7001 119.923 55.484 119.923 51.5032C119.923 47.5225 123.161 44.3064 127.168 44.3064C131.175 44.3064 134.413 47.5225 134.413 51.5032Z" fill="#00814C"/>
<path d="M132.466 50.8733C133.53 50.8733 134.254 49.8163 133.87 48.8267C133.077 46.8701 131.447 45.3407 129.41 44.666C128.436 44.3512 127.417 45.0709 127.417 46.0829C127.417 46.7351 127.847 47.2974 128.459 47.4998C129.659 47.8821 130.609 48.7817 131.062 49.9512C131.289 50.5135 131.832 50.8733 132.443 50.8733H132.466Z" fill="#00AC65"/>
<path d="M127.168 55.7085C125.651 55.7085 124.315 54.9213 123.568 53.7293C123.025 52.8747 121.848 52.7398 121.191 53.4819C121.191 53.4819 121.191 53.4819 121.191 53.5044C120.761 53.9992 120.693 54.7189 121.033 55.2812C122.3 57.3278 124.587 58.6996 127.191 58.6996C128.345 58.6996 129.432 58.4298 130.406 57.9575C131.153 57.5976 131.424 56.653 131.017 55.9334C131.017 55.9334 131.017 55.9334 131.017 55.9109C130.632 55.2362 129.794 54.9663 129.092 55.3036C128.526 55.5735 127.892 55.731 127.236 55.731L127.168 55.7085Z" fill="#007343"/>
<path d="M125.968 46.4427C125.968 46.4427 125.968 46.3303 125.968 46.2628C125.923 45.2732 124.859 44.621 123.976 45.0483C123.364 45.3632 122.798 45.7455 122.278 46.1953C121.666 46.7576 121.598 47.6797 122.119 48.3319C122.119 48.3319 122.119 48.3319 122.119 48.3544C122.64 49.0291 123.613 49.0516 124.247 48.4443C124.542 48.152 124.904 47.9046 125.266 47.7247C125.742 47.4773 126.013 46.96 125.968 46.4202V46.4427Z" fill="#00AC65"/>
<path d="M212.657 63.9629C212.657 67.9437 209.419 71.1598 205.412 71.1598C201.405 71.1598 198.167 67.9437 198.167 63.9629C198.167 59.9822 201.405 56.7661 205.412 56.7661C209.419 56.7661 212.657 59.9822 212.657 63.9629Z" fill="#00814C"/>
<path d="M210.732 63.3328C211.797 63.3328 212.521 62.2757 212.136 61.2862C211.344 59.3295 209.714 57.8002 207.676 57.1255C206.703 56.8106 205.684 57.5303 205.684 58.5424C205.684 59.1946 206.114 59.7569 206.725 59.9593C207.925 60.3416 208.876 61.2412 209.329 62.4107C209.555 62.9729 210.099 63.3328 210.71 63.3328H210.732Z" fill="#00AC65"/>
<path d="M205.435 68.1911C203.918 68.1911 202.582 67.404 201.835 66.212C201.292 65.3574 200.114 65.2224 199.458 65.9646C199.458 65.9646 199.458 65.9646 199.435 65.9871C199.005 66.4819 198.937 67.2016 199.277 67.7638C200.544 69.8104 202.831 71.1823 205.435 71.1823C206.589 71.1823 207.676 70.9124 208.65 70.4401C209.397 70.0803 209.668 69.1357 209.261 68.416C209.261 68.416 209.261 68.416 209.261 68.3935C208.876 67.7188 208.038 67.449 207.336 67.7863C206.77 68.0562 206.136 68.2136 205.48 68.2136L205.435 68.1911Z" fill="#007343"/>
<path d="M204.235 58.9027C204.235 58.9027 204.235 58.7902 204.235 58.7228C204.189 57.7332 203.125 57.081 202.242 57.5083C201.631 57.8232 201.065 58.2055 200.544 58.6553C199.933 59.2175 199.865 60.1396 200.386 60.7918C200.386 60.7918 200.386 60.7919 200.386 60.8143C200.907 61.489 201.88 61.5115 202.514 60.9043C202.808 60.6119 203.171 60.3645 203.533 60.1846C204.008 59.9372 204.28 59.42 204.235 58.8802V58.9027Z" fill="#00AC65"/>
<path d="M164.728 203.131C164.728 207.112 161.49 210.328 157.483 210.328C153.476 210.328 150.238 207.112 150.238 203.131C150.238 199.151 153.476 195.935 157.483 195.935C161.49 195.935 164.728 199.151 164.728 203.131Z" fill="#00814C"/>
<path d="M162.803 202.479C163.868 202.479 164.592 201.422 164.207 200.432C163.415 198.476 161.785 196.946 159.747 196.272C158.774 195.957 157.755 196.676 157.755 197.688C157.755 198.341 158.185 198.903 158.796 199.105C159.996 199.488 160.947 200.387 161.4 201.557C161.626 202.119 162.17 202.479 162.781 202.479H162.803Z" fill="#00AC65"/>
<path d="M157.483 207.337C155.966 207.337 154.63 206.55 153.883 205.358C153.34 204.503 152.163 204.368 151.506 205.11C151.506 205.11 151.506 205.11 151.506 205.133C151.076 205.628 151.008 206.347 151.348 206.91C152.615 208.956 154.902 210.328 157.506 210.328C158.66 210.328 159.747 210.058 160.721 209.586C161.468 209.226 161.739 208.281 161.332 207.562C161.332 207.562 161.332 207.562 161.332 207.539C160.947 206.865 160.109 206.595 159.407 206.932C158.841 207.202 158.208 207.359 157.551 207.359L157.483 207.337Z" fill="#007343"/>
<path d="M156.306 198.071C156.306 198.071 156.306 197.958 156.306 197.891C156.26 196.901 155.196 196.249 154.313 196.677C153.702 196.991 153.136 197.374 152.615 197.824C152.004 198.386 151.936 199.308 152.457 199.96C152.457 199.96 152.457 199.96 152.457 199.983C152.978 200.657 153.951 200.68 154.585 200.073C154.879 199.78 155.242 199.533 155.604 199.353C156.079 199.105 156.351 198.588 156.306 198.048V198.071Z" fill="#00AC65"/>
<path d="M231.222 149.515C231.222 153.496 227.984 156.712 223.977 156.712C219.97 156.712 216.732 153.496 216.732 149.515C216.732 145.535 219.97 142.319 223.977 142.319C227.984 142.319 231.222 145.535 231.222 149.515Z" fill="#00814C"/>
<path d="M229.297 148.885C230.361 148.885 231.086 147.828 230.701 146.839C229.909 144.882 228.279 143.353 226.241 142.678C225.267 142.363 224.249 143.083 224.249 144.095C224.249 144.747 224.679 145.309 225.29 145.512C226.49 145.894 227.441 146.794 227.894 147.963C228.12 148.525 228.663 148.885 229.275 148.885H229.297Z" fill="#00AC65"/>
<path d="M223.977 153.721C222.46 153.721 221.124 152.934 220.377 151.742C219.834 150.887 218.657 150.752 218 151.495C218 151.495 218 151.495 218 151.517C217.57 152.012 217.502 152.732 217.842 153.294C219.109 155.34 221.396 156.712 224 156.712C225.154 156.712 226.241 156.442 227.214 155.97C227.962 155.61 228.233 154.666 227.826 153.946C227.826 153.946 227.826 153.946 227.826 153.924C227.441 153.249 226.603 152.979 225.901 153.316C225.335 153.586 224.701 153.744 224.045 153.744L223.977 153.721Z" fill="#007343"/>
<path d="M222.8 144.455C222.8 144.455 222.8 144.342 222.8 144.275C222.754 143.285 221.69 142.633 220.807 143.06C220.196 143.375 219.63 143.757 219.109 144.207C218.498 144.77 218.43 145.692 218.951 146.344C218.951 146.344 218.951 146.344 218.951 146.366C219.471 147.041 220.445 147.064 221.079 146.456C221.373 146.164 221.735 145.917 222.098 145.737C222.573 145.489 222.845 144.972 222.8 144.432V144.455Z" fill="#00AC65"/>
<path d="M102.4 82.5844C112.225 92.3451 127.213 93.8969 138.669 87.1949C142.065 85.2157 142.563 80.5153 139.778 77.749L107.267 45.4532C104.483 42.6869 99.7734 43.2042 97.7585 46.5552C91.0117 57.9352 92.5739 72.8012 102.4 82.5844Z" fill="#FFD800"/>
<path d="M190.22 83.5512C180.395 93.3119 178.833 108.2 185.579 119.58C187.572 122.954 192.303 123.449 195.088 120.682L227.599 88.3866C230.384 85.6203 229.863 80.9424 226.49 78.9407C215.034 72.2387 200.069 73.768 190.22 83.5512Z" fill="#FFD800"/>
<path d="M121.282 199.466C135.183 199.466 146.865 190.02 150.193 177.246C151.189 173.467 148.201 169.779 144.261 169.779H98.2792C94.3399 169.779 91.374 173.445 92.3475 177.246C95.6756 190.02 107.358 199.466 121.259 199.466H121.282Z" fill="#FFD800"/>
<path d="M203.895 161.435C213.721 151.674 215.283 136.786 208.536 125.406C206.544 122.032 201.812 121.537 199.028 124.304L166.516 156.599C163.732 159.366 164.252 164.044 167.626 166.045C179.082 172.747 194.047 171.218 203.895 161.435Z" fill="#FFD800"/>
<path d="M64.2061 89.5339C64.2061 89.5339 64.2966 89.5339 64.3419 89.5564C67.4889 90.3211 70.7038 88.7018 72.0169 85.7556C73.33 82.7644 74.8016 79.8632 76.4317 77.0519C78.2429 73.9033 77.2241 69.9001 74.0998 68.0109C74.0545 67.9884 74.0092 67.9659 73.9866 67.9434C70.749 65.9643 66.4701 67.0213 64.591 70.3049C62.7118 73.5659 61.0138 76.917 59.4969 80.3804C57.8216 84.2038 60.1535 88.5219 64.2287 89.5114L64.2061 89.5339Z" fill="#B86954"/>
<path d="M117.772 33.4211C117.772 33.4211 117.818 33.4886 117.84 33.5336C119.538 36.0974 122.753 37.177 125.674 36.1649C131.017 34.2982 136.586 32.9038 142.337 32.0492C145.642 31.5544 148.065 28.7432 148.065 25.4371V25.3247C148.065 21.2315 144.42 18.0379 140.345 18.6451C133.688 19.6347 127.236 21.254 121.055 23.413C116.957 24.8524 115.373 29.8227 117.772 33.4211Z" fill="#B86954"/>
<path d="M162.532 23.9528C162.532 23.9528 162.532 24.0428 162.509 24.0878C161.875 27.8436 164.501 31.3296 168.305 31.8244C187.979 34.4332 205.684 43.2719 219.336 56.2486C221.464 58.2728 224.701 58.5651 227.282 57.1483C227.328 57.1258 227.373 57.1033 227.395 57.0808C231.267 54.9217 231.991 49.5691 228.776 46.5104C213.087 31.577 192.756 21.434 170.116 18.4203C166.494 17.948 163.12 20.3994 162.532 23.9528Z" fill="#B86954"/>
<path d="M240.029 85.7331C243.425 93.4472 245.756 101.724 246.866 110.382C247.296 113.756 250.194 116.297 253.613 116.23C253.658 116.23 253.726 116.23 253.771 116.23C257.778 116.162 260.925 112.676 260.427 108.718C259.137 98.7099 256.443 89.1291 252.503 80.2231C251.145 77.1644 247.726 75.5226 244.489 76.4222C244.443 76.4222 244.398 76.4447 244.353 76.4672C240.346 77.5692 238.376 81.9548 240.029 85.7331Z" fill="#B86954"/>
<path d="M227.056 188.445C227.056 188.445 227.124 188.513 227.146 188.558C229.908 191.572 234.753 191.459 237.357 188.31C247.907 175.559 255.492 160.265 259.001 143.51C259.771 139.889 257.439 136.336 253.794 135.549C253.748 135.549 253.703 135.549 253.658 135.526C249.967 134.739 246.39 137.078 245.621 140.766C242.541 155.317 235.976 168.587 226.807 179.674C224.678 182.261 224.792 185.972 227.033 188.445H227.056Z" fill="#B86954"/>
<path d="M177.769 218.312C177.769 218.11 177.746 217.93 177.723 217.727C177.497 213.904 173.897 211.25 170.094 211.857C168.441 212.105 166.743 212.33 165.067 212.487C161.445 212.847 158.796 216.018 159.181 219.616C159.181 219.819 159.226 220.021 159.249 220.201C159.611 223.755 162.826 226.341 166.403 225.981C168.373 225.779 170.343 225.531 172.267 225.239C175.663 224.722 178.018 221.708 177.791 218.312H177.769Z" fill="#B86954"/>
<path d="M139.688 218.694C139.688 218.694 139.733 218.47 139.756 218.357C140.548 214.804 138.239 211.318 134.684 210.486C128.028 208.911 121.666 206.595 115.667 203.671C112.452 202.097 108.535 203.266 106.769 206.37C106.769 206.415 106.724 206.437 106.701 206.482C104.8 209.833 106.113 214.129 109.599 215.816C116.505 219.189 123.84 221.843 131.492 223.642C135.137 224.497 138.85 222.293 139.665 218.672L139.688 218.694Z" fill="#B86954"/>
<path d="M97.985 200.995C97.985 200.995 98.053 200.905 98.0756 200.882C100.34 198.049 99.9094 193.933 97.1021 191.594C87.231 183.34 79.1259 173.062 73.4432 161.39C71.7452 157.904 67.4889 156.509 64.0929 158.399C64.0476 158.399 64.0023 158.444 63.9797 158.466C60.8554 160.175 59.6101 164.044 61.1497 167.237C67.6474 180.641 76.9298 192.471 88.2725 201.962C91.193 204.391 95.5852 203.986 97.9624 201.017L97.985 200.995Z" fill="#B86954"/>
<path d="M211.955 202.659C211.955 202.659 211.91 202.592 211.887 202.547C209.963 199.376 205.842 198.408 202.605 200.298C199.707 202.007 196.696 203.536 193.594 204.931C190.311 206.392 188.749 210.126 190.017 213.454C190.017 213.499 190.039 213.544 190.062 213.589C191.443 217.188 195.609 218.897 199.141 217.323C202.763 215.703 206.272 213.904 209.646 211.925C212.861 210.036 213.879 205.853 211.932 202.682L211.955 202.659Z" fill="#B86954"/>
<path opacity="0.1" d="M156.011 17.4307C122.844 17.4307 93.2985 32.679 74.0092 56.496C92.0533 42.0573 114.965 33.4211 139.937 33.4211C198.054 33.4211 245.191 80.2231 245.191 137.978C245.191 162.784 236.474 185.544 221.962 203.469C245.938 184.307 261.288 154.935 261.288 122.01C261.288 64.2551 214.174 17.4532 156.034 17.4532L156.011 17.4307Z" fill="black"/>
<path d="M88.8836 166.855C100.95 166.855 110.731 157.138 110.731 145.152C110.731 133.165 100.95 123.449 88.8836 123.449C76.8175 123.449 67.0359 133.165 67.0359 145.152C67.0359 157.138 76.8175 166.855 88.8836 166.855Z" fill="#E9662C"/>
<path d="M88.8836 134.221C94.9511 134.221 99.8866 139.102 99.8866 145.151C99.8866 151.201 94.9737 156.082 88.8836 156.082C82.7934 156.082 77.8805 151.201 77.8805 145.151C77.8805 139.102 82.7934 134.221 88.8836 134.221Z" fill="#EBAF3C"/>
<path d="M88.8835 136.74C93.5473 136.74 97.3508 140.496 97.3508 145.151C97.3508 149.807 93.5699 153.563 88.8835 153.563C84.197 153.563 80.4161 149.807 80.4161 145.151C80.4161 140.496 84.197 136.74 88.8835 136.74Z" fill="#EFBF63"/>
<path d="M76.1372 145.152C76.1372 145.849 75.5712 146.389 74.892 146.389H70.3414C69.6396 146.389 69.0962 145.826 69.0962 145.152C69.0962 144.455 69.6622 143.915 70.3414 143.915H74.892C75.5939 143.915 76.1372 144.477 76.1372 145.152Z" fill="#C75726"/>
<path d="M79.8728 154.103C80.3709 154.598 80.3709 155.385 79.8728 155.857L76.6579 159.051C76.1598 159.546 75.3674 159.546 74.892 159.051C74.3939 158.556 74.3939 157.769 74.892 157.297L78.1069 154.103C78.605 153.608 79.3974 153.608 79.8728 154.103Z" fill="#C75726"/>
<path d="M88.8835 157.836C89.5853 157.836 90.1287 158.398 90.1287 159.073V163.594C90.1287 164.291 89.5627 164.831 88.8835 164.831C88.1816 164.831 87.6382 164.268 87.6382 163.594V159.073C87.6382 158.376 88.2042 157.836 88.8835 157.836Z" fill="#C75726"/>
<path d="M97.8944 154.103C98.3925 153.608 99.1849 153.608 99.6603 154.103L102.875 157.297C103.373 157.791 103.373 158.579 102.875 159.051C102.377 159.546 101.585 159.546 101.109 159.051L97.8944 155.857C97.3963 155.362 97.3963 154.575 97.8944 154.103Z" fill="#C75726"/>
<path d="M101.63 145.152C101.63 144.455 102.196 143.915 102.875 143.915H107.426C108.128 143.915 108.671 144.477 108.671 145.152C108.671 145.849 108.105 146.389 107.426 146.389H102.875C102.173 146.389 101.63 145.826 101.63 145.152Z" fill="#C75726"/>
<path d="M97.8944 136.2C97.3963 135.706 97.3963 134.919 97.8944 134.446L101.109 131.253C101.607 130.758 102.4 130.758 102.875 131.253C103.373 131.747 103.373 132.535 102.875 133.007L99.6603 136.2C99.1622 136.695 98.3698 136.695 97.8944 136.2Z" fill="#C75726"/>
<path d="M88.8835 132.489C88.1816 132.489 87.6382 131.927 87.6382 131.252V126.732C87.6382 126.035 88.2042 125.495 88.8835 125.495C89.5853 125.495 90.1287 126.057 90.1287 126.732V131.252C90.1287 131.95 89.5627 132.489 88.8835 132.489Z" fill="#C75726"/>
<path d="M79.8728 136.2C79.3747 136.695 78.5823 136.695 78.1069 136.2L74.892 133.007C74.3939 132.512 74.3939 131.725 74.892 131.253C75.3901 130.758 76.1825 130.758 76.6579 131.253L79.8728 134.446C80.3709 134.941 80.3709 135.728 79.8728 136.2Z" fill="#C75726"/>
<path d="M187.164 65.9646C194.749 65.9646 200.907 72.0819 200.907 79.6161C200.907 87.1503 194.749 93.2676 187.164 93.2676C179.58 93.2676 173.422 87.1503 173.422 79.6161C173.422 72.0819 179.58 65.9646 187.164 65.9646Z" fill="#E9662C"/>
<path d="M187.164 72.7566C190.99 72.7566 194.069 75.8377 194.069 79.6161C194.069 83.3944 190.968 86.4756 187.164 86.4756C183.361 86.4756 180.259 83.3944 180.259 79.6161C180.259 75.8377 183.361 72.7566 187.164 72.7566Z" fill="#EBAF3C"/>
<path d="M187.164 74.3308C190.107 74.3308 192.485 76.6923 192.485 79.616C192.485 82.5397 190.107 84.9012 187.164 84.9012C184.221 84.9012 181.844 82.5397 181.844 79.616C181.844 76.6923 184.221 74.3308 187.164 74.3308Z" fill="#EFBF63"/>
<path d="M179.15 79.6163C179.15 80.0436 178.788 80.4034 178.357 80.4034H175.505C175.075 80.4034 174.712 80.0436 174.712 79.6163C174.712 79.1889 175.075 78.8291 175.505 78.8291H178.357C178.788 78.8291 179.15 79.1889 179.15 79.6163Z" fill="#C75726"/>
<path d="M181.504 85.2388C181.821 85.5537 181.821 86.0485 181.504 86.3409L179.489 88.3425C179.172 88.6573 178.674 88.6573 178.38 88.3425C178.063 88.0276 178.063 87.5328 178.38 87.2405L180.395 85.2388C180.712 84.924 181.21 84.924 181.504 85.2388Z" fill="#C75726"/>
<path d="M187.164 87.5774C187.594 87.5774 187.956 87.9372 187.956 88.3646V91.1983C187.956 91.6256 187.594 91.9855 187.164 91.9855C186.734 91.9855 186.372 91.6256 186.372 91.1983V88.3646C186.372 87.9372 186.734 87.5774 187.164 87.5774Z" fill="#C75726"/>
<path d="M192.824 85.2388C193.141 84.924 193.639 84.924 193.933 85.2388L195.948 87.2405C196.265 87.5553 196.265 88.0501 195.948 88.3425C195.631 88.6573 195.133 88.6573 194.839 88.3425L192.824 86.3409C192.507 86.026 192.507 85.5312 192.824 85.2388Z" fill="#C75726"/>
<path d="M195.179 79.6163C195.179 79.1889 195.541 78.8291 195.971 78.8291H198.824C199.254 78.8291 199.616 79.1889 199.616 79.6163C199.616 80.0436 199.254 80.4034 198.824 80.4034H195.971C195.541 80.4034 195.179 80.0436 195.179 79.6163Z" fill="#C75726"/>
<path d="M192.824 73.9709C192.507 73.656 192.507 73.1612 192.824 72.8689L194.839 70.8672C195.156 70.5524 195.654 70.5524 195.948 70.8672C196.265 71.1821 196.265 71.6769 195.948 71.9693L193.933 73.9709C193.616 74.2857 193.118 74.2857 192.824 73.9709Z" fill="#C75726"/>
<path d="M187.164 71.6544C186.734 71.6544 186.372 71.2946 186.372 70.8672V68.0335C186.372 67.6062 186.734 67.2463 187.164 67.2463C187.594 67.2463 187.956 67.6062 187.956 68.0335V70.8672C187.956 71.2946 187.594 71.6544 187.164 71.6544Z" fill="#C75726"/>
<path d="M181.504 73.9709C181.187 74.2857 180.689 74.2857 180.395 73.9709L178.38 71.9693C178.063 71.6544 178.063 71.1596 178.38 70.8672C178.697 70.5524 179.195 70.5524 179.489 70.8672L181.504 72.8689C181.821 73.1837 181.821 73.6785 181.504 73.9709Z" fill="#C75726"/>
<path d="M126.602 94.1895C134.186 94.1895 140.344 100.307 140.344 107.841C140.344 115.375 134.186 121.492 126.602 121.492C119.017 121.492 112.859 115.375 112.859 107.841C112.859 100.307 119.017 94.1895 126.602 94.1895Z" fill="#E9662C"/>
<path d="M126.602 100.959C130.428 100.959 133.507 104.04 133.507 107.818C133.507 111.597 130.406 114.678 126.602 114.678C122.799 114.678 119.697 111.597 119.697 107.818C119.697 104.04 122.799 100.959 126.602 100.959Z" fill="#EBAF3C"/>
<path d="M126.602 102.533C129.545 102.533 131.922 104.894 131.922 107.818C131.922 110.742 129.545 113.103 126.602 113.103C123.659 113.103 121.281 110.742 121.281 107.818C121.281 104.894 123.659 102.533 126.602 102.533Z" fill="#EFBF63"/>
<path d="M118.587 107.818C118.587 108.245 118.225 108.605 117.795 108.605H114.942C114.512 108.605 114.15 108.245 114.15 107.818C114.15 107.391 114.512 107.031 114.942 107.031H117.795C118.225 107.031 118.587 107.391 118.587 107.818Z" fill="#C75726"/>
<path d="M120.942 113.44C121.259 113.755 121.259 114.25 120.942 114.543L118.927 116.544C118.61 116.859 118.112 116.859 117.818 116.544C117.501 116.229 117.501 115.734 117.818 115.442L119.833 113.44C120.149 113.126 120.648 113.126 120.942 113.44Z" fill="#C75726"/>
<path d="M126.602 115.78C127.032 115.78 127.394 116.14 127.394 116.567V119.401C127.394 119.828 127.032 120.188 126.602 120.188C126.172 120.188 125.809 119.828 125.809 119.401V116.567C125.809 116.14 126.172 115.78 126.602 115.78Z" fill="#C75726"/>
<path d="M132.284 113.44C132.601 113.126 133.1 113.126 133.394 113.44L135.409 115.442C135.726 115.757 135.726 116.252 135.409 116.544C135.092 116.859 134.594 116.859 134.299 116.544L132.284 114.543C131.968 114.228 131.968 113.733 132.284 113.44Z" fill="#C75726"/>
<path d="M134.617 107.818C134.617 107.391 134.979 107.031 135.409 107.031H138.262C138.692 107.031 139.054 107.391 139.054 107.818C139.054 108.245 138.692 108.605 138.262 108.605H135.409C134.979 108.605 134.617 108.245 134.617 107.818Z" fill="#C75726"/>
<path d="M132.284 102.195C131.968 101.88 131.968 101.386 132.284 101.093L134.299 99.0916C134.616 98.7768 135.114 98.7768 135.409 99.0916C135.726 99.4065 135.726 99.9013 135.409 100.194L133.394 102.195C133.077 102.51 132.579 102.51 132.284 102.195Z" fill="#C75726"/>
<path d="M126.602 99.8565C126.172 99.8565 125.809 99.4967 125.809 99.0694V96.2356C125.809 95.8083 126.172 95.4485 126.602 95.4485C127.032 95.4485 127.394 95.8083 127.394 96.2356V99.0694C127.394 99.4967 127.032 99.8565 126.602 99.8565Z" fill="#C75726"/>
<path d="M120.942 102.195C120.625 102.51 120.127 102.51 119.833 102.195L117.818 100.194C117.501 99.8788 117.501 99.384 117.818 99.0916C118.135 98.7768 118.633 98.7768 118.927 99.0916L120.942 101.093C121.259 101.408 121.259 101.903 120.942 102.195Z" fill="#C75726"/>
<path d="M223.32 115.555C230.905 115.555 237.063 121.672 237.063 129.206C237.063 136.74 230.905 142.858 223.32 142.858C215.736 142.858 209.578 136.74 209.578 129.206C209.578 121.672 215.736 115.555 223.32 115.555Z" fill="#E9662C"/>
<path d="M223.32 122.347C227.146 122.347 230.225 125.428 230.225 129.206C230.225 132.985 227.124 136.066 223.32 136.066C219.517 136.066 216.415 132.985 216.415 129.206C216.415 125.428 219.517 122.347 223.32 122.347Z" fill="#EBAF3C"/>
<path d="M223.32 123.921C226.264 123.921 228.641 126.283 228.641 129.206C228.641 132.13 226.264 134.491 223.32 134.491C220.377 134.491 218 132.13 218 129.206C218 126.283 220.377 123.921 223.32 123.921Z" fill="#EFBF63"/>
<path d="M215.306 129.206C215.306 129.633 214.943 129.993 214.513 129.993H211.661C211.23 129.993 210.868 129.633 210.868 129.206C210.868 128.779 211.23 128.419 211.661 128.419H214.513C214.943 128.419 215.306 128.779 215.306 129.206Z" fill="#C75726"/>
<path d="M217.66 134.829C217.977 135.144 217.977 135.639 217.66 135.931L215.645 137.933C215.328 138.247 214.83 138.247 214.536 137.933C214.219 137.618 214.219 137.123 214.536 136.831L216.551 134.829C216.868 134.514 217.366 134.514 217.66 134.829Z" fill="#C75726"/>
<path d="M223.32 137.168C223.75 137.168 224.113 137.528 224.113 137.956V140.789C224.113 141.217 223.75 141.577 223.32 141.577C222.89 141.577 222.528 141.217 222.528 140.789V137.956C222.528 137.528 222.89 137.168 223.32 137.168Z" fill="#C75726"/>
<path d="M228.98 134.829C229.297 134.514 229.795 134.514 230.09 134.829L232.105 136.831C232.422 137.145 232.422 137.64 232.105 137.933C231.788 138.247 231.29 138.247 230.995 137.933L228.98 135.931C228.663 135.616 228.663 135.121 228.98 134.829Z" fill="#C75726"/>
<path d="M231.335 129.206C231.335 128.779 231.697 128.419 232.127 128.419H234.98C235.41 128.419 235.772 128.779 235.772 129.206C235.772 129.633 235.41 129.993 234.98 129.993H232.127C231.697 129.993 231.335 129.633 231.335 129.206Z" fill="#C75726"/>
<path d="M228.98 123.561C228.663 123.246 228.663 122.752 228.98 122.459L230.995 120.458C231.312 120.143 231.81 120.143 232.105 120.458C232.422 120.772 232.422 121.267 232.105 121.56L230.09 123.561C229.773 123.876 229.275 123.876 228.98 123.561Z" fill="#C75726"/>
<path d="M223.32 121.245C222.89 121.245 222.528 120.885 222.528 120.458V117.624C222.528 117.197 222.89 116.837 223.32 116.837C223.75 116.837 224.113 117.197 224.113 117.624V120.458C224.113 120.885 223.75 121.245 223.32 121.245Z" fill="#C75726"/>
<path d="M217.66 123.561C217.343 123.876 216.845 123.876 216.551 123.561L214.536 121.56C214.219 121.245 214.219 120.75 214.536 120.458C214.853 120.143 215.351 120.143 215.645 120.458L217.66 122.459C217.977 122.774 217.977 123.269 217.66 123.561Z" fill="#C75726"/>
<path d="M180.259 191.819C192.325 191.819 202.107 182.103 202.107 170.116C202.107 158.13 192.325 148.413 180.259 148.413C168.193 148.413 158.411 158.13 158.411 170.116C158.411 182.103 168.193 191.819 180.259 191.819Z" fill="#E9662C"/>
<path d="M180.259 159.186C186.326 159.186 191.262 164.066 191.262 170.116C191.262 176.166 186.349 181.046 180.259 181.046C174.169 181.046 169.256 176.166 169.256 170.116C169.256 164.066 174.169 159.186 180.259 159.186Z" fill="#EBAF3C"/>
<path d="M180.259 161.704C184.923 161.704 188.726 165.46 188.726 170.116C188.726 174.771 184.945 178.527 180.259 178.527C175.572 178.527 171.792 174.771 171.792 170.116C171.792 165.46 175.572 161.704 180.259 161.704Z" fill="#EFBF63"/>
<path d="M167.49 170.116C167.49 170.814 166.924 171.353 166.245 171.353H161.694C160.992 171.353 160.449 170.791 160.449 170.116C160.449 169.419 161.015 168.879 161.694 168.879H166.245C166.946 168.879 167.49 169.442 167.49 170.116Z" fill="#C75726"/>
<path d="M171.225 179.068C171.723 179.562 171.723 180.35 171.225 180.822L168.01 184.015C167.512 184.51 166.72 184.51 166.245 184.015C165.746 183.521 165.746 182.734 166.245 182.261L169.459 179.068C169.957 178.573 170.75 178.573 171.225 179.068Z" fill="#C75726"/>
<path d="M180.259 182.778C180.96 182.778 181.504 183.34 181.504 184.015V188.536C181.504 189.233 180.938 189.773 180.259 189.773C179.557 189.773 179.013 189.21 179.013 188.536V184.015C179.013 183.318 179.579 182.778 180.259 182.778Z" fill="#C75726"/>
<path d="M189.27 179.068C189.768 178.573 190.56 178.573 191.036 179.068L194.251 182.261C194.749 182.756 194.749 183.543 194.251 184.015C193.753 184.51 192.96 184.51 192.485 184.015L189.27 180.822C188.772 180.327 188.772 179.54 189.27 179.068Z" fill="#C75726"/>
<path d="M193.005 170.116C193.005 169.419 193.571 168.879 194.25 168.879H198.801C199.503 168.879 200.046 169.442 200.046 170.116C200.046 170.814 199.48 171.353 198.801 171.353H194.25C193.549 171.353 193.005 170.791 193.005 170.116Z" fill="#C75726"/>
<path d="M189.27 161.143C188.772 160.648 188.772 159.861 189.27 159.388L192.485 156.195C192.983 155.7 193.775 155.7 194.251 156.195C194.749 156.69 194.749 157.477 194.251 157.949L191.036 161.143C190.538 161.637 189.745 161.637 189.27 161.143Z" fill="#C75726"/>
<path d="M180.259 157.431C179.557 157.431 179.013 156.869 179.013 156.194V151.674C179.013 150.977 179.579 150.437 180.259 150.437C180.96 150.437 181.504 150.999 181.504 151.674V156.194C181.504 156.892 180.938 157.431 180.259 157.431Z" fill="#C75726"/>
<path d="M171.225 161.143C170.727 161.637 169.935 161.637 169.459 161.143L166.245 157.949C165.746 157.454 165.746 156.667 166.245 156.195C166.743 155.7 167.535 155.7 168.01 156.195L171.225 159.388C171.723 159.883 171.723 160.67 171.225 161.143Z" fill="#C75726"/>
<path d="M108.172 143.821L122.26 157.815C126.433 161.961 133.2 161.961 137.373 157.815L147.987 147.272C152.16 143.126 152.16 136.405 147.987 132.259L133.899 118.265C129.726 114.119 122.96 114.119 118.786 118.265L108.172 128.808C103.999 132.954 103.999 139.675 108.172 143.821Z" fill="#A64429"/>
<path d="M137.56 152.394C137.56 152.394 127.462 147.828 120.806 150.189" stroke="#7D331F" stroke-width="4.18451" stroke-miterlimit="10" stroke-linecap="round"/>
<path d="M141.228 147.671C141.228 147.671 134.187 143.848 126.806 142.948C116.414 141.666 112.135 141.599 112.135 141.599" stroke="#7D331F" stroke-width="4.18451" stroke-miterlimit="10" stroke-linecap="round"/>
<path d="M110.188 134.537C110.415 134.762 115.848 138.181 122.821 136.741" stroke="#7D331F" stroke-width="4.18451" stroke-miterlimit="10" stroke-linecap="round"/>
<path d="M127.032 137.01C127.032 137.01 137.809 136.808 146.367 143.645" stroke="#7D331F" stroke-width="4.18451" stroke-miterlimit="10" stroke-linecap="round"/>
<path d="M133.937 156.015C133.937 156.015 128.391 153.923 123.953 154.845" stroke="#7D331F" stroke-width="4.18451" stroke-miterlimit="10" stroke-linecap="round"/>
<path d="M112.226 129.207C112.226 129.207 115.984 131.568 123.183 130.646C130.383 129.724 134.866 131.298 134.866 131.298" stroke="#7D331F" stroke-width="4.18451" stroke-miterlimit="10" stroke-linecap="round"/>
<path d="M138.488 132.625C138.488 132.625 143.695 134.154 147.816 138.562" stroke="#7D331F" stroke-width="4.18451" stroke-miterlimit="10" stroke-linecap="round"/>
<path d="M141.001 127.992C141.001 127.992 133.417 123.989 127.145 125.676" stroke="#7D331F" stroke-width="4.18451" stroke-miterlimit="10" stroke-linecap="round"/>
<path d="M123.546 125.406C123.546 125.406 118.61 125.361 115.848 124.529" stroke="#7D331F" stroke-width="4.18451" stroke-miterlimit="10" stroke-linecap="round"/>
<path d="M120.602 120.345C120.602 120.345 128.685 119.401 132.602 121.245" stroke="#7D331F" stroke-width="4.18451" stroke-miterlimit="10" stroke-linecap="round"/>
<path d="M107.664 118.607L121.752 104.613C125.925 100.467 125.926 93.7458 121.752 89.6003L111.138 79.0566C106.965 74.9111 100.199 74.9111 96.026 79.0566L81.9381 93.0512C77.7649 97.1968 77.7649 103.918 81.9381 108.064L92.552 118.607C96.7252 122.753 103.491 122.753 107.664 118.607Z" fill="#A64429"/>
<path d="M116.278 89.4214C116.278 89.4214 111.682 99.452 114.059 106.064" stroke="#7D331F" stroke-width="4.18451" stroke-miterlimit="10" stroke-linecap="round"/>
<path d="M111.524 85.7556C111.524 85.7556 107.675 92.75 106.769 100.082C105.479 110.405 105.411 114.655 105.411 114.655" stroke="#7D331F" stroke-width="4.18451" stroke-miterlimit="10" stroke-linecap="round"/>
<path d="M98.3018 116.612C98.5282 116.387 101.97 110.989 100.521 104.062" stroke="#7D331F" stroke-width="4.18451" stroke-miterlimit="10" stroke-linecap="round"/>
<path d="M100.792 99.8797C100.792 99.8797 100.588 89.1744 107.471 80.6731" stroke="#7D331F" stroke-width="4.18451" stroke-miterlimit="10" stroke-linecap="round"/>
<path d="M119.923 93.02C119.923 93.02 117.818 98.5301 118.746 102.938" stroke="#7D331F" stroke-width="4.18451" stroke-miterlimit="10" stroke-linecap="round"/>
<path d="M92.936 114.588C92.936 114.588 95.3132 110.854 94.385 103.702C93.4568 96.5505 95.0416 92.0974 95.0416 92.0974" stroke="#7D331F" stroke-width="4.18451" stroke-miterlimit="10" stroke-linecap="round"/>
<path d="M96.3774 88.4996C96.3774 88.4996 97.917 83.3268 102.354 79.2336" stroke="#7D331F" stroke-width="4.18451" stroke-miterlimit="10" stroke-linecap="round"/>
<path d="M91.7137 85.9805C91.7137 85.9805 87.6837 93.5147 89.3817 99.7444" stroke="#7D331F" stroke-width="4.18451" stroke-miterlimit="10" stroke-linecap="round"/>
<path d="M89.1099 103.32C89.1099 103.32 89.0646 108.223 88.2269 110.967" stroke="#7D331F" stroke-width="4.18451" stroke-miterlimit="10" stroke-linecap="round"/>
<path d="M84.016 106.243C84.016 106.243 83.0651 98.2145 84.9216 94.3237" stroke="#7D331F" stroke-width="4.18451" stroke-miterlimit="10" stroke-linecap="round"/>
<path d="M146.118 115.825H166.041C171.943 115.825 176.727 111.072 176.727 105.21V90.2987C176.727 84.436 171.943 79.6833 166.041 79.6833H146.118C140.216 79.6833 135.432 84.436 135.432 90.2987V105.21C135.432 111.072 140.216 115.825 146.118 115.825Z" fill="#A64429"/>
<path d="M173.014 101.207C173.014 101.207 162.622 105.075 159.589 111.417" stroke="#7D331F" stroke-width="4.18451" stroke-miterlimit="10" stroke-linecap="round"/>
<path d="M172.267 95.291C172.267 95.291 164.569 97.54 158.706 102.083C150.442 108.47 147.386 111.416 147.386 111.416" stroke="#7D331F" stroke-width="4.18451" stroke-miterlimit="10" stroke-linecap="round"/>
<path d="M140.956 107.819C141.273 107.819 147.567 106.424 151.461 100.509" stroke="#7D331F" stroke-width="4.18451" stroke-miterlimit="10" stroke-linecap="round"/>
<path d="M154.608 97.7427C154.608 97.7427 162.079 90.0286 173.014 88.8591" stroke="#7D331F" stroke-width="4.18451" stroke-miterlimit="10" stroke-linecap="round"/>
<path d="M173.014 106.334C173.014 106.334 167.603 108.763 165.113 112.519" stroke="#7D331F" stroke-width="4.18451" stroke-miterlimit="10" stroke-linecap="round"/>
<path d="M138.579 102.623C138.579 102.623 142.903 101.656 147.34 95.9658C151.778 90.2758 156.08 88.2292 156.08 88.2292" stroke="#7D331F" stroke-width="4.18451" stroke-miterlimit="10" stroke-linecap="round"/>
<path d="M159.589 86.5877C159.589 86.5877 164.343 84.0014 170.411 84.2263" stroke="#7D331F" stroke-width="4.18451" stroke-miterlimit="10" stroke-linecap="round"/>
<path d="M158.072 81.5278C158.072 81.5278 149.853 84.0242 146.638 89.6243" stroke="#7D331F" stroke-width="4.18451" stroke-miterlimit="10" stroke-linecap="round"/>
<path d="M143.899 91.9626C143.899 91.9626 140.39 95.4036 137.831 96.753" stroke="#7D331F" stroke-width="4.18451" stroke-miterlimit="10" stroke-linecap="round"/>
<path d="M138.216 90.4562C138.216 90.4562 143.265 84.114 147.34 82.6521" stroke="#7D331F" stroke-width="4.18451" stroke-miterlimit="10" stroke-linecap="round"/>
<path d="M152.703 178.335C165.209 176.987 174.247 165.824 172.891 153.402C171.534 140.979 160.297 132.001 147.792 133.348C135.286 134.696 126.248 145.858 127.604 158.281C128.961 170.704 140.198 179.682 152.703 178.335Z" fill="#E84C3D"/>
<path d="M169.414 164.381C169.414 164.381 169.414 164.381 169.437 164.381C170.343 164.763 171.384 164.268 171.724 163.346C172.992 159.793 173.309 155.992 172.743 152.349C172.584 151.292 171.475 150.639 170.456 150.999C170.456 150.999 170.456 150.999 170.433 150.999C169.663 151.269 169.211 152.079 169.324 152.888C169.799 155.992 169.528 159.208 168.464 162.222C168.169 163.077 168.599 163.999 169.437 164.358L169.414 164.381Z" fill="#BD483C"/>
<path d="M165.43 143.982C165.792 144.432 166.109 144.904 166.426 145.377C166.901 146.096 167.829 146.344 168.577 145.916C168.645 145.871 168.712 145.849 168.78 145.804C169.595 145.354 169.89 144.32 169.369 143.555C168.984 142.97 168.577 142.385 168.124 141.823C167.58 141.126 166.539 141.013 165.86 141.576C165.769 141.643 165.701 141.711 165.611 141.778C164.954 142.34 164.886 143.307 165.43 143.982Z" fill="#BD483C"/>
<path d="M129.07 153.518C129.07 153.518 129.047 153.518 129.025 153.518C128.187 153.608 127.508 154.305 127.485 155.16C127.327 160.85 129.296 166.54 133.303 170.948C133.892 171.6 134.911 171.69 135.613 171.15C135.613 171.15 135.613 171.15 135.635 171.15C136.428 170.543 136.564 169.396 135.884 168.676C132.488 164.943 130.813 160.108 130.949 155.272C130.972 154.238 130.089 153.406 129.047 153.518H129.07Z" fill="#ED7064"/>
<path d="M135.975 144.455C131.537 149.965 131.447 157.544 135.25 163.077C136.609 165.034 139.484 165.123 140.978 163.279L155.558 145.197C157.053 143.353 156.328 140.564 154.11 139.687C147.838 137.191 140.412 138.922 135.952 144.433L135.975 144.455Z" fill="#ED7064"/>
<path d="M164.524 167.192C160.086 172.702 152.638 174.434 146.367 171.937C144.148 171.06 143.423 168.294 144.918 166.427L159.498 148.345C160.992 146.501 163.867 146.591 165.226 148.548C169.052 154.08 168.961 161.659 164.501 167.169L164.524 167.192Z" fill="#ED7064"/>
<path d="M161.988 162.087C161.671 161.907 161.309 161.817 160.947 161.795L158.841 161.187C157.732 160.872 156.781 162.042 157.347 163.031L158.411 164.921C158.502 165.258 158.683 165.573 158.932 165.865C159.023 165.955 159.113 166.068 159.226 166.158C160.29 167.012 161.853 166.832 162.69 165.775C163.528 164.718 163.369 163.166 162.305 162.334C162.192 162.244 162.079 162.177 161.966 162.109L161.988 162.087Z" fill="#FFD800"/>
<path d="M161.309 150.549C160.992 150.729 160.721 150.999 160.539 151.291L158.955 152.798C158.117 153.585 158.66 154.98 159.815 155.002L162.011 155.047C162.351 155.137 162.713 155.137 163.098 155.047C163.234 155.025 163.369 154.98 163.505 154.935C164.773 154.44 165.407 153.023 164.909 151.764C164.411 150.504 162.985 149.874 161.717 150.369C161.581 150.414 161.468 150.482 161.355 150.549H161.309Z" fill="#FFD800"/>
<path d="M148.223 143.217C148.223 143.577 148.314 143.937 148.472 144.252L148.993 146.366C149.265 147.468 150.759 147.715 151.348 146.726L152.48 144.859C152.729 144.612 152.91 144.297 153.046 143.937C153.091 143.802 153.114 143.667 153.136 143.532C153.34 142.183 152.412 140.946 151.076 140.743C149.718 140.541 148.472 141.463 148.269 142.79C148.269 142.925 148.246 143.06 148.246 143.195L148.223 143.217Z" fill="#FFD800"/>
<path d="M138.511 149.56C138.828 149.74 139.19 149.829 139.552 149.852L141.658 150.459C142.767 150.774 143.718 149.605 143.152 148.615L142.088 146.726C141.997 146.389 141.816 146.074 141.567 145.781C141.477 145.691 141.386 145.579 141.273 145.489C140.209 144.634 138.647 144.814 137.809 145.871C136.949 146.928 137.13 148.48 138.194 149.312C138.307 149.402 138.42 149.47 138.533 149.537L138.511 149.56Z" fill="#FFD800"/>
<path d="M139.19 161.098C139.507 160.918 139.779 160.648 139.96 160.356L141.544 158.849C142.382 158.062 141.839 156.667 140.684 156.645L138.511 156.6C138.171 156.51 137.809 156.51 137.424 156.6C137.288 156.622 137.152 156.667 137.039 156.712C135.771 157.207 135.137 158.624 135.635 159.883C136.134 161.143 137.56 161.772 138.828 161.278C138.964 161.233 139.077 161.165 139.19 161.098Z" fill="#FFD800"/>
<path d="M152.276 168.429C152.276 168.047 152.185 167.709 152.027 167.372L151.506 165.258C151.235 164.156 149.74 163.908 149.152 164.898L148.02 166.765C147.771 167.012 147.589 167.327 147.476 167.687C147.431 167.822 147.408 167.957 147.386 168.092C147.182 169.441 148.11 170.678 149.446 170.88C150.804 171.083 152.05 170.161 152.253 168.834C152.253 168.699 152.276 168.564 152.276 168.429Z" fill="#FFD800"/>
<path d="M181.436 112.091V131.882C181.436 137.745 186.221 142.498 192.122 142.498H207.133C213.034 142.498 217.819 137.745 217.819 131.882V112.091C217.819 106.228 213.034 101.476 207.133 101.476H192.122C186.221 101.476 181.436 106.228 181.436 112.091Z" fill="#A64429"/>
<path d="M196.107 138.81C196.107 138.81 192.213 128.487 185.828 125.473" stroke="#7D331F" stroke-width="4.18451" stroke-miterlimit="10" stroke-linecap="round"/>
<path d="M202.061 138.045C202.061 138.045 199.797 130.398 195.224 124.573C188.794 116.365 185.828 113.328 185.828 113.328" stroke="#7D331F" stroke-width="4.18451" stroke-miterlimit="10" stroke-linecap="round"/>
<path d="M189.473 106.941C189.473 107.256 190.877 113.508 196.831 117.376" stroke="#7D331F" stroke-width="4.18451" stroke-miterlimit="10" stroke-linecap="round"/>
<path d="M199.616 120.525C199.616 120.525 207.382 127.947 208.559 138.809" stroke="#7D331F" stroke-width="4.18451" stroke-miterlimit="10" stroke-linecap="round"/>
<path d="M190.968 138.81C190.968 138.81 188.523 133.435 184.742 130.961" stroke="#7D331F" stroke-width="4.18451" stroke-miterlimit="10" stroke-linecap="round"/>
<path d="M194.703 104.602C194.703 104.602 195.677 108.897 201.405 113.305C207.133 117.714 209.193 121.987 209.193 121.987" stroke="#7D331F" stroke-width="4.18451" stroke-miterlimit="10" stroke-linecap="round"/>
<path d="M210.846 125.473C210.846 125.473 213.449 130.196 213.223 136.223" stroke="#7D331F" stroke-width="4.18451" stroke-miterlimit="10" stroke-linecap="round"/>
<path d="M215.917 123.966C215.917 123.966 213.404 115.802 207.767 112.608" stroke="#7D331F" stroke-width="4.18451" stroke-miterlimit="10" stroke-linecap="round"/>
<path d="M205.435 109.865C205.435 109.865 201.971 106.379 200.612 103.837" stroke="#7D331F" stroke-width="4.18451" stroke-miterlimit="10" stroke-linecap="round"/>
<path d="M206.929 104.219C206.929 104.219 213.313 109.235 214.785 113.283" stroke="#7D331F" stroke-width="4.18451" stroke-miterlimit="10" stroke-linecap="round"/>
<path d="M148.11 186.376C152.887 186.376 156.758 190.222 156.758 194.967C156.758 199.713 152.887 203.558 148.11 203.558C143.333 203.558 139.461 199.713 139.461 194.967C139.461 190.222 143.333 186.376 148.11 186.376Z" fill="#532215"/>
<path d="M85.5781 69.8552C89.1326 69.8552 92.0306 72.734 92.0306 76.2649C92.0306 79.7959 89.1326 82.6746 85.5781 82.6746C82.0237 82.6746 79.1257 79.7959 79.1257 76.2649C79.1257 72.734 82.0237 69.8552 85.5781 69.8552Z" fill="#532215"/>
<path d="M102.762 177.335C106.226 177.335 109.033 180.124 109.033 183.565C109.033 187.006 106.226 189.795 102.762 189.795C99.2982 189.795 96.4908 187.006 96.4908 183.565C96.4908 180.124 99.2982 177.335 102.762 177.335Z" fill="#532215"/>
<path d="M149.853 40.5728C153.317 40.5728 156.125 43.3615 156.125 46.8025C156.125 50.2435 153.317 53.0323 149.853 53.0323C146.389 53.0323 143.582 50.2435 143.582 46.8025C143.582 43.3615 146.389 40.5728 149.853 40.5728Z" fill="#532215"/>
<path d="M164.003 36.457C166.29 36.457 168.169 38.3012 168.169 40.5952C168.169 42.8892 166.313 44.7334 164.003 44.7334C161.694 44.7334 159.838 42.8892 159.838 40.5952C159.838 38.3012 161.694 36.457 164.003 36.457Z" fill="#532215"/>
<path d="M74.3488 124.641C76.6495 124.641 78.5146 122.788 78.5146 120.503C78.5146 118.217 76.6495 116.365 74.3488 116.365C72.0481 116.365 70.183 118.217 70.183 120.503C70.183 122.788 72.0481 124.641 74.3488 124.641Z" fill="#532215"/>
<path d="M168.464 195.193C170.75 195.193 172.629 197.037 172.629 199.331C172.629 201.625 170.773 203.469 168.464 203.469C166.154 203.469 164.298 201.625 164.298 199.331C164.298 197.037 166.154 195.193 168.464 195.193Z" fill="#532215"/>
<path d="M132.511 196.25C133.915 196.25 135.069 197.397 135.069 198.791C135.069 200.185 133.915 201.332 132.511 201.332C131.107 201.332 129.953 200.185 129.953 198.791C129.953 197.397 131.107 196.25 132.511 196.25Z" fill="#532215"/>
<path d="M107.154 55.4836C108.558 55.4836 109.713 56.6306 109.713 58.025C109.713 59.4194 108.558 60.5664 107.154 60.5664C105.751 60.5664 104.596 59.4194 104.596 58.025C104.596 56.6306 105.751 55.4836 107.154 55.4836Z" fill="#A64429"/>
<path d="M118.723 193.708C120.127 193.708 121.281 194.855 121.281 196.249C121.281 197.644 120.127 198.791 118.723 198.791C117.319 198.791 116.165 197.644 116.165 196.249C116.165 194.855 117.319 193.708 118.723 193.708Z" fill="#A64429"/>
<path d="M228.211 81.7295C229.614 81.7295 230.769 82.8765 230.769 84.2709C230.769 85.6653 229.614 86.8123 228.211 86.8123C226.807 86.8123 225.652 85.6653 225.652 84.2709C225.652 82.8765 226.807 81.7295 228.211 81.7295Z" fill="#A64429"/>
<path d="M228.211 162.942C229.614 162.942 230.769 164.089 230.769 165.483C230.769 166.878 229.614 168.025 228.211 168.025C226.807 168.025 225.652 166.878 225.652 165.483C225.652 164.089 226.807 162.942 228.211 162.942Z" fill="#A64429"/>
<path d="M89.4043 173.58C90.808 173.58 91.9627 174.727 91.9627 176.121C91.9627 177.515 90.808 178.662 89.4043 178.662C88.0007 178.662 86.846 177.515 86.846 176.121C86.846 174.727 88.0007 173.58 89.4043 173.58Z" fill="#A64429"/>
<path d="M193.232 55.4836C194.635 55.4836 195.79 56.6306 195.79 58.025C195.79 59.4194 194.635 60.5664 193.232 60.5664C191.828 60.5664 190.673 59.4194 190.673 58.025C190.673 56.6306 191.828 55.4836 193.232 55.4836Z" fill="#A64429"/>
<path d="M192.801 193.708C194.205 193.708 195.36 194.855 195.36 196.249C195.36 197.644 194.205 198.791 192.801 198.791C191.398 198.791 190.243 197.644 190.243 196.249C190.243 194.855 191.398 193.708 192.801 193.708Z" fill="#A64429"/>
<path d="M195.36 176.121C196.763 176.121 197.918 177.268 197.918 178.662C197.918 180.057 196.763 181.204 195.36 181.204C193.956 181.204 192.801 180.057 192.801 178.662C192.801 177.268 193.956 176.121 195.36 176.121Z" fill="#A64429"/>
<path d="M107.448 165.483C108.852 165.483 110.007 166.63 110.007 168.025C110.007 169.419 108.852 170.566 107.448 170.566C106.045 170.566 104.89 169.419 104.89 168.025C104.89 166.63 106.045 165.483 107.448 165.483Z" fill="#532215"/>
<path d="M96.0153 62.9731C97.419 62.9731 98.5736 64.1201 98.5736 65.5145C98.5736 66.9089 97.419 68.0559 96.0153 68.0559C94.6116 68.0559 93.457 66.9089 93.457 65.5145C93.457 64.1201 94.6116 62.9731 96.0153 62.9731Z" fill="#532215"/>
<path d="M176.976 44.261C178.38 44.261 179.535 45.408 179.535 46.8024C179.535 48.1968 178.38 49.3438 176.976 49.3438C175.573 49.3438 174.418 48.1968 174.418 46.8024C174.418 45.408 175.573 44.261 176.976 44.261Z" fill="#532215"/>
<path d="M236.678 141.688C238.082 141.688 239.236 142.835 239.236 144.23C239.236 145.624 238.082 146.771 236.678 146.771C235.274 146.771 234.12 145.624 234.12 144.23C234.12 142.835 235.274 141.688 236.678 141.688Z" fill="#532215"/>
<path d="M211.049 55.4836C212.453 55.4836 213.608 56.6306 213.608 58.025C213.608 59.4194 212.453 60.5664 211.049 60.5664C209.645 60.5664 208.491 59.4194 208.491 58.025C208.491 56.6306 209.645 55.4836 211.049 55.4836Z" fill="#532215"/>
<path d="M208.514 178.662C209.917 178.662 211.072 179.809 211.072 181.203C211.072 182.598 209.917 183.745 208.514 183.745C207.11 183.745 205.955 182.598 205.955 181.203C205.955 179.809 207.11 178.662 208.514 178.662Z" fill="#532215"/>
<path d="M236.678 128.622C238.979 128.622 240.844 126.769 240.844 124.484C240.844 122.198 238.979 120.345 236.678 120.345C234.377 120.345 232.512 122.198 232.512 124.484C232.512 126.769 234.377 128.622 236.678 128.622Z" fill="#532215"/>
<path d="M230.429 105.929C233.893 105.929 236.701 108.718 236.701 112.159C236.701 115.6 233.893 118.389 230.429 118.389C226.965 118.389 224.158 115.6 224.158 112.159C224.158 108.718 226.965 105.929 230.429 105.929Z" fill="#532215"/>
<path d="M120.24 88.9936V91.58C120.24 92.4495 120.95 93.1543 121.825 93.1543H131.583C132.458 93.1543 133.168 92.4495 133.168 91.58V88.9936C133.168 88.1242 132.458 87.4193 131.583 87.4193H121.825C120.95 87.4193 120.24 88.1242 120.24 88.9936Z" fill="#00814C"/>
<path d="M117.093 175.783V178.37C117.093 179.239 117.803 179.944 118.678 179.944H128.436C129.311 179.944 130.021 179.239 130.021 178.37V175.783C130.021 174.914 129.311 174.209 128.436 174.209H118.678C117.803 174.209 117.093 174.914 117.093 175.783Z" fill="#00814C"/>
<path d="M80.6908 136.075L78.8498 137.904C78.2309 138.518 78.2309 139.515 78.8498 140.13L85.7497 146.984C86.3686 147.599 87.372 147.599 87.9909 146.984L89.8319 145.155C90.4508 144.541 90.4508 143.544 89.8319 142.929L82.9321 136.075C82.3132 135.46 81.3097 135.46 80.6908 136.075Z" fill="#00814C"/>
<path d="M169.482 73.8809H172.086C172.961 73.8809 173.671 73.176 173.671 72.3066V62.6133C173.671 61.7438 172.961 61.039 172.086 61.039H169.482C168.607 61.039 167.897 61.7438 167.897 62.6133V72.3066C167.897 73.176 168.607 73.8809 169.482 73.8809Z" fill="#00814C"/>
<path d="M93.9757 118.771L95.8167 116.942C96.4356 116.328 96.4356 115.331 95.8167 114.716L88.9168 107.862C88.2979 107.247 87.2945 107.247 86.6756 107.862L84.8346 109.691C84.2157 110.305 84.2157 111.302 84.8346 111.917L91.7344 118.771C92.3533 119.386 93.3568 119.386 93.9757 118.771Z" fill="#00814C"/>
<path d="M213.836 132.055L215.677 133.884C216.296 134.498 217.299 134.498 217.918 133.884L224.818 127.029C225.437 126.415 225.437 125.418 224.818 124.803L222.977 122.974C222.358 122.359 221.355 122.359 220.736 122.974L213.836 129.828C213.217 130.443 213.217 131.44 213.836 132.055Z" fill="#00814C"/>
<path d="M115.302 73.721L117.143 75.5499C117.762 76.1647 118.765 76.1647 119.384 75.5499L126.284 68.6957C126.903 68.0809 126.903 67.0841 126.284 66.4693L124.443 64.6405C123.824 64.0257 122.821 64.0257 122.202 64.6405L115.302 71.4946C114.683 72.1094 114.683 73.1062 115.302 73.721Z" fill="#00814C"/>
<path d="M191.524 168.162L193.366 166.334C193.984 165.719 193.984 164.722 193.366 164.107L186.466 157.253C185.847 156.638 184.843 156.638 184.224 157.253L182.383 159.082C181.764 159.697 181.764 160.694 182.383 161.308L189.283 168.162C189.902 168.777 190.906 168.777 191.524 168.162Z" fill="#00814C"/>
<path d="M117.614 129.184C121.615 129.184 124.859 125.962 124.859 121.987C124.859 118.012 121.615 114.79 117.614 114.79C113.613 114.79 110.369 118.012 110.369 121.987C110.369 125.962 113.613 129.184 117.614 129.184Z" fill="#00814C"/>
<path d="M122.934 121.357C123.999 121.357 124.723 120.3 124.338 119.311C123.546 117.354 121.916 115.825 119.878 115.15C118.905 114.835 117.886 115.555 117.886 116.567C117.886 117.219 118.316 117.782 118.927 117.984C120.127 118.366 121.078 119.266 121.531 120.435C121.757 120.998 122.301 121.357 122.912 121.357H122.934Z" fill="#00AC65"/>
<path d="M117.614 126.193C116.097 126.193 114.761 125.406 114.014 124.214C113.471 123.359 112.294 123.224 111.637 123.966C111.637 123.966 111.637 123.966 111.637 123.989C111.207 124.484 111.139 125.203 111.479 125.766C112.746 127.812 115.033 129.184 117.637 129.184C118.791 129.184 119.878 128.914 120.852 128.442C121.599 128.082 121.87 127.137 121.463 126.418C121.463 126.418 121.463 126.418 121.463 126.395C121.078 125.721 120.24 125.451 119.538 125.788C118.972 126.058 118.339 126.215 117.682 126.215L117.614 126.193Z" fill="#007343"/>
<path d="M116.437 116.927C116.437 116.927 116.437 116.814 116.437 116.747C116.391 115.757 115.327 115.105 114.444 115.532C113.833 115.825 113.267 116.23 112.746 116.679C112.135 117.242 112.067 118.164 112.588 118.816C112.588 118.816 112.588 118.816 112.588 118.839C113.109 119.513 114.082 119.536 114.716 118.928C115.01 118.636 115.373 118.389 115.735 118.209C116.21 117.961 116.482 117.444 116.437 116.904V116.927Z" fill="#00AC65"/>
<path d="M226.558 98.845C226.558 102.826 223.32 106.042 219.313 106.042C215.306 106.042 212.068 102.826 212.068 98.845C212.068 94.8643 215.306 91.6482 219.313 91.6482C223.32 91.6482 226.558 94.8643 226.558 98.845Z" fill="#00814C"/>
<path d="M224.633 98.1924C225.698 98.1924 226.422 97.1354 226.037 96.1458C225.245 94.1892 223.615 92.6598 221.577 91.9851C220.604 91.6703 219.585 92.39 219.585 93.402C219.585 94.0542 220.015 94.6165 220.626 94.8189C221.826 95.2012 222.777 96.1008 223.23 97.2703C223.456 97.8326 224 98.1924 224.611 98.1924H224.633Z" fill="#00AC65"/>
<path d="M219.313 103.051C217.796 103.051 216.46 102.264 215.713 101.072C215.17 100.217 213.992 100.082 213.336 100.824C213.336 100.824 213.336 100.824 213.336 100.847C212.906 101.342 212.838 102.061 213.177 102.623C214.445 104.67 216.732 106.042 219.336 106.042C220.49 106.042 221.577 105.772 222.55 105.3C223.298 104.94 223.569 103.995 223.162 103.276C223.162 103.276 223.162 103.276 223.162 103.253C222.777 102.578 221.939 102.309 221.237 102.646C220.671 102.916 220.037 103.073 219.381 103.073L219.313 103.051Z" fill="#007343"/>
<path d="M218.136 93.7845C218.136 93.7845 218.136 93.6721 218.136 93.6046C218.09 92.615 217.026 91.9628 216.143 92.3901C215.532 92.6825 214.966 93.0873 214.445 93.5371C213.834 94.0994 213.766 95.0215 214.287 95.6737C214.287 95.6737 214.287 95.6737 214.287 95.6962C214.807 96.3709 215.781 96.3934 216.415 95.7861C216.709 95.4938 217.071 95.2464 217.434 95.0665C217.909 94.8191 218.181 94.3018 218.136 93.762V93.7845Z" fill="#00AC65"/>
</svg>
