<svg width="271" height="271" viewBox="0 0 271 271" fill="none" xmlns="http://www.w3.org/2000/svg">
<circle cx="122.553" cy="148.325" r="112.298" fill="black"/>
<path d="M25.365 108.881C40.0402 48.0816 101.224 10.69 162.024 25.365C222.823 40.0402 260.214 101.225 245.539 162.025C230.864 222.824 169.679 260.214 108.88 245.539C48.0809 230.864 10.6901 169.68 25.365 108.881Z" fill="#EBEEEE" stroke="black" stroke-width="2"/>
<path d="M135.436 238.715C192.473 238.715 238.71 192.477 238.71 135.441C238.71 78.4043 192.473 32.167 135.436 32.167C78.3998 32.167 32.1625 78.4043 32.1625 135.441C32.1625 192.477 78.3998 238.715 135.436 238.715Z" fill="#EB9F3C"/>
<path d="M135.436 225.319C185.075 225.319 225.315 185.079 225.315 135.441C225.315 85.8021 185.075 45.562 135.436 45.562C85.7978 45.562 45.5577 85.8021 45.5577 135.441C45.5577 185.079 85.7978 225.319 135.436 225.319Z" fill="#EBAF3C"/>
<path d="M189.683 92.261L202.891 112.156C204.083 113.951 203.604 116.402 201.79 117.606L181.359 131.171C179.564 132.363 177.112 131.884 175.908 130.07L162.7 110.175L189.665 92.2733L189.683 92.261Z" fill="#F0C419"/>
<path d="M192.002 95.7975L182.393 81.3251C181.192 79.5159 178.752 79.023 176.943 80.2241L156.53 93.7763C154.721 94.9774 154.228 97.4176 155.429 99.2268L165.037 113.699C166.238 115.508 168.678 116.001 170.487 114.8L190.901 101.248C192.71 100.047 193.203 97.6067 192.002 95.7975Z" fill="#FFD800"/>
<path d="M174.267 160.387C166.559 170.006 152.475 171.561 142.856 163.853C133.237 156.144 131.682 142.06 139.391 132.442C147.099 122.823 161.183 121.268 170.802 128.976C180.42 136.685 181.975 150.768 174.267 160.387Z" fill="#E84C3D"/>
<path d="M138.036 137.973C138.036 137.973 138.036 137.973 138.013 137.973C137.125 137.596 136.103 138.084 135.77 138.995C134.526 142.505 134.215 146.259 134.77 149.858C134.926 150.902 136.014 151.546 137.014 151.191C137.014 151.191 137.014 151.191 137.036 151.191C137.791 150.924 138.236 150.124 138.124 149.325C137.658 146.259 137.925 143.082 138.969 140.106C139.257 139.262 138.835 138.351 138.013 137.995L138.036 137.973Z" fill="#BD483C"/>
<path d="M141.923 158.121C141.568 157.677 141.257 157.21 140.946 156.744C140.479 156.033 139.568 155.789 138.835 156.211C138.769 156.255 138.702 156.277 138.635 156.322C137.836 156.766 137.547 157.788 138.058 158.543C138.435 159.121 138.835 159.698 139.28 160.254C139.813 160.942 140.835 161.053 141.501 160.498C141.59 160.431 141.656 160.365 141.745 160.298C142.39 159.743 142.456 158.788 141.923 158.121Z" fill="#BD483C"/>
<path d="M177.599 148.702C177.599 148.702 177.621 148.702 177.643 148.702C178.465 148.613 179.132 147.925 179.154 147.081C179.31 141.461 177.377 135.84 173.445 131.486C172.867 130.842 171.868 130.753 171.179 131.286C171.179 131.286 171.179 131.286 171.157 131.286C170.379 131.886 170.246 133.019 170.913 133.73C174.245 137.418 175.889 142.194 175.755 146.97C175.733 147.991 176.599 148.813 177.621 148.702H177.599Z" fill="#ED7064"/>
<path d="M170.846 157.655C175.2 152.212 175.289 144.726 171.557 139.262C170.224 137.329 167.403 137.24 165.937 139.062L151.631 156.922C150.164 158.743 150.875 161.498 153.052 162.364C159.206 164.83 166.492 163.12 170.868 157.677L170.846 157.655Z" fill="#ED7064"/>
<path d="M142.812 135.197C147.166 129.754 154.474 128.044 160.627 130.509C162.804 131.376 163.515 134.108 162.049 135.952L147.743 153.812C146.277 155.634 143.456 155.545 142.123 153.612C138.369 148.147 138.458 140.661 142.834 135.219L142.812 135.197Z" fill="#ED7064"/>
<path d="M145.299 140.239C145.61 140.417 145.966 140.506 146.321 140.528L148.387 141.128C149.476 141.439 150.409 140.284 149.853 139.306L148.809 137.44C148.72 137.107 148.543 136.796 148.298 136.507C148.21 136.418 148.121 136.307 148.01 136.218C146.966 135.374 145.433 135.552 144.611 136.596C143.767 137.64 143.944 139.173 144.988 139.995C145.1 140.084 145.211 140.15 145.322 140.217L145.299 140.239Z" fill="#FFD800"/>
<path d="M145.966 151.635C146.277 151.457 146.544 151.191 146.721 150.902L148.276 149.414C149.098 148.636 148.565 147.259 147.432 147.237L145.277 147.192C144.944 147.103 144.589 147.103 144.211 147.192C144.078 147.214 143.945 147.259 143.811 147.303C142.567 147.792 141.945 149.191 142.434 150.435C142.923 151.679 144.322 152.301 145.566 151.813C145.7 151.768 145.811 151.702 145.922 151.635H145.966Z" fill="#FFD800"/>
<path d="M158.828 158.876C158.828 158.521 158.739 158.166 158.584 157.855L158.073 155.766C157.806 154.678 156.34 154.434 155.762 155.411L154.652 157.255C154.407 157.499 154.23 157.81 154.096 158.166C154.052 158.299 154.03 158.432 154.007 158.565C153.808 159.898 154.718 161.12 156.029 161.32C157.362 161.52 158.584 160.609 158.784 159.299C158.784 159.165 158.806 159.032 158.806 158.899L158.828 158.876Z" fill="#FFD800"/>
<path d="M168.358 152.59C168.047 152.412 167.692 152.323 167.336 152.301L165.27 151.701C164.182 151.39 163.249 152.545 163.804 153.523L164.848 155.389C164.937 155.722 165.115 156.033 165.359 156.322C165.448 156.411 165.537 156.522 165.648 156.611C166.692 157.455 168.225 157.277 169.047 156.233C169.891 155.189 169.713 153.656 168.669 152.834C168.558 152.745 168.447 152.679 168.336 152.612L168.358 152.59Z" fill="#FFD800"/>
<path d="M167.669 141.194C167.358 141.372 167.092 141.638 166.914 141.927L165.359 143.415C164.537 144.193 165.07 145.57 166.203 145.592L168.358 145.637C168.691 145.726 169.047 145.726 169.424 145.637C169.558 145.615 169.691 145.57 169.802 145.526C171.046 145.037 171.668 143.638 171.179 142.394C170.69 141.15 169.291 140.528 168.047 141.016C167.914 141.061 167.803 141.127 167.692 141.194H167.669Z" fill="#FFD800"/>
<path d="M154.83 133.975C154.83 134.352 154.918 134.685 155.074 135.019L155.585 137.107C155.851 138.195 157.318 138.44 157.895 137.462L159.006 135.618C159.25 135.374 159.428 135.063 159.561 134.708C159.606 134.574 159.628 134.441 159.65 134.308C159.85 132.975 158.939 131.753 157.629 131.553C156.296 131.353 155.074 132.264 154.874 133.575C154.874 133.708 154.852 133.841 154.852 133.975H154.83Z" fill="#FFD800"/>
<path d="M167.514 45.3622C167.514 45.3622 167.514 45.4511 167.492 45.4955C166.736 48.5833 168.336 51.7377 171.246 53.0261C174.2 54.3145 177.066 55.7584 179.843 57.3579C182.953 59.135 186.907 58.1354 188.773 55.0698C188.795 55.0254 188.817 54.981 188.839 54.9587C190.772 51.7821 189.75 47.5836 186.507 45.7398C183.286 43.8961 179.976 42.23 176.555 40.7416C172.779 39.0978 168.513 41.3858 167.536 45.3844L167.514 45.3622Z" fill="#E9662C"/>
<path d="M222.938 97.9212C222.938 97.9212 222.872 97.9657 222.827 97.9879C220.317 99.6539 219.228 102.808 220.228 105.674C222.072 110.917 223.449 116.381 224.293 122.024C224.782 125.267 227.559 127.644 230.824 127.644H230.935C234.978 127.644 238.133 124.067 237.533 120.069C236.556 113.538 234.956 107.207 232.824 101.142C231.402 97.1215 226.492 95.5665 222.938 97.9212Z" fill="#E9662C"/>
<path d="M232.29 141.839C232.29 141.839 232.202 141.839 232.157 141.816C228.447 141.194 225.004 143.771 224.515 147.503C221.939 166.807 213.208 184.179 200.391 197.574C198.392 199.662 198.103 202.839 199.502 205.371C199.502 205.416 199.547 205.46 199.569 205.482C201.701 209.281 206.988 209.992 210.01 206.837C224.76 191.443 234.778 171.494 237.755 149.28C238.222 145.726 235.8 142.416 232.29 141.839Z" fill="#E9662C"/>
<path d="M171.268 217.877C163.649 221.209 155.474 223.497 146.921 224.586C143.589 225.008 141.079 227.851 141.146 231.206C141.146 231.25 141.146 231.317 141.146 231.361C141.212 235.293 144.655 238.381 148.565 237.892C158.45 236.626 167.914 233.982 176.711 230.117C179.732 228.784 181.353 225.43 180.465 222.253C180.465 222.209 180.443 222.165 180.42 222.12C179.332 218.188 175 216.256 171.268 217.877Z" fill="#E9662C"/>
<path d="M69.8157 205.149C69.8157 205.149 69.7491 205.216 69.7046 205.238C66.7279 207.948 66.839 212.702 69.949 215.256C82.5445 225.608 97.6501 233.05 114.2 236.493C117.776 237.249 121.286 234.96 122.064 231.384C122.064 231.34 122.064 231.295 122.086 231.251C122.863 227.63 120.553 224.12 116.91 223.365C102.537 220.344 89.4309 213.901 78.4793 204.905C75.9246 202.816 72.2593 202.928 69.8157 205.127V205.149Z" fill="#E9662C"/>
<path d="M40.293 156.788C40.4929 156.788 40.6706 156.766 40.8706 156.744C44.647 156.522 47.2683 152.99 46.6685 149.258C46.4241 147.636 46.202 145.97 46.0465 144.326C45.6911 140.772 42.5589 138.173 39.0046 138.55C38.8047 138.55 38.6047 138.595 38.427 138.617C34.9172 138.972 32.3625 142.127 32.718 145.637C32.9179 147.569 33.1622 149.502 33.451 151.39C33.962 154.722 36.9387 157.033 40.293 156.81V156.788Z" fill="#E9662C"/>
<path d="M39.9376 119.424C39.9376 119.424 40.1597 119.469 40.2708 119.491C43.7806 120.269 47.2238 118.003 48.0458 114.515C49.6008 107.984 51.8888 101.742 54.7767 95.8551C56.3317 92.7007 55.1765 88.8577 52.111 87.125C52.0665 87.125 52.0221 87.0805 51.9999 87.0583C48.69 85.1923 44.4471 86.4808 42.781 89.9017C39.4489 96.6771 36.8276 103.874 35.0505 111.383C34.2063 114.959 36.3833 118.603 39.9598 119.402L39.9376 119.424Z" fill="#E9662C"/>
<path d="M57.3979 78.5053C57.3979 78.5053 57.4867 78.572 57.509 78.5942C60.308 80.8156 64.3732 80.3935 66.6834 77.639C74.836 67.9536 84.9879 60.0009 96.5171 54.4251C99.9603 52.7591 101.315 48.5828 99.4716 45.2507C99.4716 45.2062 99.4272 45.1618 99.405 45.1396C97.7167 42.074 93.8958 40.8522 90.7414 42.3628C77.5018 48.7383 65.8171 57.8461 56.4427 68.9754C54.0435 71.8411 54.4434 76.1506 57.3757 78.4831L57.3979 78.5053Z" fill="#E9662C"/>
<path d="M55.7541 190.332C55.7541 190.332 55.8207 190.288 55.8651 190.266C58.9973 188.378 59.9525 184.335 58.0866 181.158C56.3983 178.315 54.8877 175.36 53.5104 172.317C52.0665 169.096 48.3789 167.563 45.0912 168.807C45.0468 168.807 45.0024 168.829 44.958 168.851C41.4037 170.206 39.7154 174.294 41.2704 177.759C42.8698 181.313 44.647 184.757 46.6018 188.067C48.4678 191.221 52.5996 192.221 55.7318 190.31L55.7541 190.332Z" fill="#E9662C"/>
<path d="M92.9406 135.085C104.78 135.085 114.377 125.488 114.377 113.649C114.377 101.809 104.78 92.2119 92.9406 92.2119C81.1015 92.2119 71.5039 101.809 71.5039 113.649C71.5039 125.488 81.1015 135.085 92.9406 135.085Z" fill="#E9662C"/>
<path d="M92.9407 124.445C98.9032 124.445 103.737 119.611 103.737 113.648C103.737 107.686 98.9032 102.852 92.9407 102.852C86.9782 102.852 82.1446 107.686 82.1446 113.648C82.1446 119.611 86.9782 124.445 92.9407 124.445Z" fill="#EBAF3C"/>
<path d="M92.9407 121.956C97.5291 121.956 101.249 118.237 101.249 113.648C101.249 109.06 97.5291 105.34 92.9407 105.34C88.3522 105.34 84.6326 109.06 84.6326 113.648C84.6326 118.237 88.3522 121.956 92.9407 121.956Z" fill="#EFBF63"/>
<path d="M92.9407 101.142C92.2521 101.142 91.7189 100.586 91.7189 99.92V95.4549C91.7189 94.7663 92.2743 94.2332 92.9407 94.2332C93.6294 94.2332 94.1625 94.7885 94.1625 95.4549V99.92C94.1625 100.609 93.6071 101.142 92.9407 101.142Z" fill="#C75726"/>
<path d="M84.0772 104.808C83.5885 105.296 82.811 105.296 82.3445 104.808L79.1901 101.653C78.7014 101.164 78.7014 100.387 79.1901 99.9205C79.6788 99.4318 80.4563 99.4318 80.9228 99.9205L84.0772 103.075C84.5659 103.564 84.5659 104.341 84.0772 104.808Z" fill="#C75726"/>
<path d="M80.4119 113.649C80.4119 114.337 79.8565 114.871 79.1901 114.871H74.725C74.0364 114.871 73.5032 114.315 73.5032 113.649C73.5032 112.96 74.0586 112.427 74.725 112.427H79.1901C79.8787 112.427 80.4119 112.982 80.4119 113.649Z" fill="#C75726"/>
<path d="M84.0772 122.512C84.5659 123.001 84.5659 123.779 84.0772 124.245L80.9228 127.399C80.4341 127.888 79.6566 127.888 79.1901 127.399C78.7014 126.911 78.7014 126.133 79.1901 125.667L82.3445 122.512C82.8332 122.024 83.6107 122.024 84.0772 122.512Z" fill="#C75726"/>
<path d="M92.9407 126.178C93.6294 126.178 94.1625 126.733 94.1625 127.4V131.865C94.1625 132.553 93.6071 133.086 92.9407 133.086C92.2521 133.086 91.7189 132.531 91.7189 131.865V127.4C91.7189 126.711 92.2743 126.178 92.9407 126.178Z" fill="#C75726"/>
<path d="M101.782 122.512C102.271 122.024 103.048 122.024 103.515 122.512L106.669 125.667C107.158 126.155 107.158 126.933 106.669 127.399C106.18 127.888 105.403 127.888 104.936 127.399L101.782 124.245C101.293 123.756 101.293 122.979 101.782 122.512Z" fill="#C75726"/>
<path d="M105.447 113.649C105.447 112.96 106.003 112.427 106.669 112.427H111.134C111.823 112.427 112.356 112.982 112.356 113.649C112.356 114.337 111.8 114.871 111.134 114.871H106.669C105.98 114.871 105.447 114.315 105.447 113.649Z" fill="#C75726"/>
<path d="M101.782 104.808C101.293 104.319 101.293 103.541 101.782 103.075L104.936 99.9205C105.425 99.4318 106.203 99.4318 106.669 99.9205C107.158 100.409 107.158 101.187 106.669 101.653L103.515 104.808C103.026 105.296 102.248 105.296 101.782 104.808Z" fill="#C75726"/>
<path d="M165.381 201.683C177.22 201.683 186.818 192.086 186.818 180.247C186.818 168.408 177.22 158.81 165.381 158.81C153.542 158.81 143.944 168.408 143.944 180.247C143.944 192.086 153.542 201.683 165.381 201.683Z" fill="#E9662C"/>
<path d="M176.155 180.247C176.155 186.2 171.335 191.043 165.359 191.043C159.383 191.043 154.563 186.222 154.563 180.247C154.563 174.271 159.383 169.451 165.359 169.451C171.335 169.451 176.155 174.271 176.155 180.247Z" fill="#EBAF3C"/>
<path d="M173.667 180.247C173.667 184.823 169.957 188.555 165.359 188.555C160.761 188.555 157.051 184.845 157.051 180.247C157.051 175.648 160.761 171.938 165.359 171.938C169.957 171.938 173.667 175.648 173.667 180.247Z" fill="#EFBF63"/>
<path d="M165.381 167.74C164.693 167.74 164.159 167.185 164.159 166.518V162.053C164.159 161.365 164.715 160.832 165.381 160.832C166.07 160.832 166.603 161.387 166.603 162.053V166.518C166.603 167.207 166.048 167.74 165.381 167.74Z" fill="#C75726"/>
<path d="M156.518 171.406C156.029 171.894 155.251 171.894 154.785 171.406L151.631 168.251C151.142 167.762 151.142 166.985 151.631 166.518C152.119 166.03 152.897 166.03 153.363 166.518L156.518 169.673C157.006 170.162 157.006 170.939 156.518 171.406Z" fill="#C75726"/>
<path d="M152.852 180.247C152.852 180.936 152.297 181.469 151.631 181.469H147.166C146.477 181.469 145.944 180.913 145.944 180.247C145.944 179.558 146.499 179.025 147.166 179.025H151.631C152.319 179.025 152.852 179.58 152.852 180.247Z" fill="#C75726"/>
<path d="M156.518 189.111C157.006 189.599 157.006 190.377 156.518 190.843L153.363 193.998C152.875 194.487 152.097 194.487 151.631 193.998C151.142 193.509 151.142 192.732 151.631 192.265L154.785 189.111C155.274 188.622 156.051 188.622 156.518 189.111Z" fill="#C75726"/>
<path d="M165.381 192.776C166.07 192.776 166.603 193.331 166.603 193.998V198.463C166.603 199.152 166.048 199.685 165.381 199.685C164.693 199.685 164.159 199.129 164.159 198.463V193.998C164.159 193.309 164.715 192.776 165.381 192.776Z" fill="#C75726"/>
<path d="M174.223 189.111C174.711 188.622 175.489 188.622 175.955 189.111L179.11 192.265C179.598 192.754 179.598 193.531 179.11 193.998C178.621 194.487 177.843 194.487 177.377 193.998L174.223 190.843C173.734 190.355 173.734 189.577 174.223 189.111Z" fill="#C75726"/>
<path d="M177.888 180.247C177.888 179.558 178.443 179.025 179.109 179.025H183.574C184.263 179.025 184.796 179.58 184.796 180.247C184.796 180.936 184.241 181.469 183.574 181.469H179.109C178.421 181.469 177.888 180.913 177.888 180.247Z" fill="#C75726"/>
<path d="M174.223 171.406C173.734 170.917 173.734 170.139 174.223 169.673L177.377 166.518C177.866 166.03 178.643 166.03 179.11 166.518C179.598 167.007 179.598 167.785 179.11 168.251L175.955 171.406C175.467 171.894 174.689 171.894 174.223 171.406Z" fill="#C75726"/>
<path d="M132.282 73.8405C132.282 81.2822 126.24 87.3245 118.798 87.3245C111.356 87.3245 105.314 81.2822 105.314 73.8405C105.314 66.3987 111.356 60.3564 118.798 60.3564C126.24 60.3564 132.282 66.3987 132.282 73.8405Z" fill="#E9662C"/>
<path d="M125.596 73.8405C125.596 77.5947 122.552 80.6159 118.82 80.6159C115.088 80.6159 112.045 77.5725 112.045 73.8405C112.045 70.1085 115.088 67.0652 118.82 67.0652C122.552 67.0652 125.596 70.1085 125.596 73.8405Z" fill="#EBAF3C"/>
<path d="M124.018 73.8405C124.018 76.7283 121.686 79.0608 118.798 79.0608C115.91 79.0608 113.578 76.7283 113.578 73.8405C113.578 70.9526 115.91 68.6201 118.798 68.6201C121.686 68.6201 124.018 70.9526 124.018 73.8405Z" fill="#EFBF63"/>
<path d="M118.798 65.9546C118.376 65.9546 118.021 65.5991 118.021 65.1771V62.3781C118.021 61.956 118.376 61.6006 118.798 61.6006C119.22 61.6006 119.576 61.956 119.576 62.3781V65.1771C119.576 65.5991 119.22 65.9546 118.798 65.9546Z" fill="#C75726"/>
<path d="M113.244 68.2649C112.933 68.5759 112.445 68.5759 112.156 68.2649L110.179 66.2878C109.868 65.9768 109.868 65.4881 110.179 65.1993C110.49 64.8883 110.979 64.8883 111.267 65.1993L113.244 67.1764C113.555 67.4874 113.555 67.9761 113.244 68.2649Z" fill="#C75726"/>
<path d="M110.934 73.8407C110.934 74.2628 110.579 74.6182 110.157 74.6182H107.358C106.936 74.6182 106.58 74.2628 106.58 73.8407C106.58 73.4187 106.936 73.0632 107.358 73.0632H110.157C110.579 73.0632 110.934 73.4187 110.934 73.8407Z" fill="#C75726"/>
<path d="M113.244 79.3946C113.555 79.7056 113.555 80.1943 113.244 80.4831L111.267 82.4602C110.956 82.7712 110.468 82.7712 110.179 82.4602C109.868 82.1492 109.868 81.6605 110.179 81.3717L112.156 79.3946C112.467 79.0836 112.956 79.0836 113.244 79.3946Z" fill="#C75726"/>
<path d="M118.798 81.7046C119.22 81.7046 119.576 82.06 119.576 82.4821V85.2811C119.576 85.7031 119.22 86.0586 118.798 86.0586C118.376 86.0586 118.021 85.7031 118.021 85.2811V82.4821C118.021 82.06 118.376 81.7046 118.798 81.7046Z" fill="#C75726"/>
<path d="M124.374 79.3946C124.685 79.0836 125.174 79.0836 125.462 79.3946L127.439 81.3717C127.75 81.6827 127.75 82.1714 127.439 82.4602C127.128 82.7712 126.64 82.7712 126.351 82.4602L124.374 80.4831C124.063 80.1721 124.063 79.6834 124.374 79.3946Z" fill="#C75726"/>
<path d="M126.662 73.8407C126.662 73.4187 127.017 73.0632 127.439 73.0632H130.238C130.66 73.0632 131.016 73.4187 131.016 73.8407C131.016 74.2628 130.66 74.6182 130.238 74.6182H127.439C127.017 74.6182 126.662 74.2628 126.662 73.8407Z" fill="#C75726"/>
<path d="M124.374 68.2649C124.063 67.9539 124.063 67.4652 124.374 67.1764L126.351 65.1993C126.662 64.8883 127.151 64.8883 127.439 65.1993C127.75 65.5103 127.75 65.999 127.439 66.2878L125.462 68.2649C125.151 68.5759 124.663 68.5759 124.374 68.2649Z" fill="#C75726"/>
<path d="M114.933 196.241C114.933 203.683 108.89 209.725 101.449 209.725C94.0069 209.725 87.9647 203.683 87.9647 196.241C87.9647 188.799 94.0069 182.757 101.449 182.757C108.89 182.757 114.933 188.799 114.933 196.241Z" fill="#E9662C"/>
<path d="M108.224 196.241C108.224 199.995 105.181 203.016 101.449 203.016C97.7166 203.016 94.6732 199.973 94.6732 196.241C94.6732 192.509 97.7166 189.466 101.449 189.466C105.181 189.466 108.224 192.509 108.224 196.241Z" fill="#EBAF3C"/>
<path d="M106.669 196.241C106.669 199.129 104.337 201.461 101.449 201.461C98.5608 201.461 96.2283 199.129 96.2283 196.241C96.2283 193.353 98.5608 191.021 101.449 191.021C104.337 191.021 106.669 193.353 106.669 196.241Z" fill="#EFBF63"/>
<path d="M101.449 188.377C101.027 188.377 100.671 188.022 100.671 187.6V184.801C100.671 184.379 101.027 184.023 101.449 184.023C101.871 184.023 102.226 184.379 102.226 184.801V187.6C102.226 188.022 101.871 188.377 101.449 188.377Z" fill="#C75726"/>
<path d="M95.8951 190.665C95.5841 190.976 95.0954 190.976 94.8066 190.665L92.8296 188.688C92.5186 188.377 92.5186 187.888 92.8296 187.6C93.1406 187.289 93.6293 187.289 93.9181 187.6L95.8951 189.577C96.2061 189.888 96.2061 190.376 95.8951 190.665Z" fill="#C75726"/>
<path d="M93.5848 196.241C93.5848 196.663 93.2294 197.019 92.8073 197.019H90.0083C89.5863 197.019 89.2308 196.663 89.2308 196.241C89.2308 195.819 89.5863 195.464 90.0083 195.464H92.8073C93.2294 195.464 93.5848 195.819 93.5848 196.241Z" fill="#C75726"/>
<path d="M95.8951 201.795C96.2061 202.106 96.2061 202.594 95.8951 202.883L93.9181 204.86C93.6071 205.171 93.1183 205.171 92.8296 204.86C92.5186 204.549 92.5186 204.061 92.8296 203.772L94.8066 201.795C95.1176 201.484 95.6063 201.484 95.8951 201.795Z" fill="#C75726"/>
<path d="M101.449 204.105C101.871 204.105 102.226 204.461 102.226 204.883V207.682C102.226 208.104 101.871 208.459 101.449 208.459C101.027 208.459 100.671 208.104 100.671 207.682V204.883C100.671 204.461 101.027 204.105 101.449 204.105Z" fill="#C75726"/>
<path d="M107.024 201.795C107.335 201.484 107.824 201.484 108.113 201.795L110.09 203.772C110.401 204.083 110.401 204.572 110.09 204.86C109.779 205.171 109.29 205.171 109.002 204.86L107.024 202.883C106.713 202.572 106.713 202.084 107.024 201.795Z" fill="#C75726"/>
<path d="M109.312 196.241C109.312 195.819 109.668 195.464 110.09 195.464H112.889C113.311 195.464 113.666 195.819 113.666 196.241C113.666 196.663 113.311 197.019 112.889 197.019H110.09C109.668 197.019 109.312 196.663 109.312 196.241Z" fill="#C75726"/>
<path d="M107.024 190.665C106.713 190.354 106.713 189.866 107.024 189.577L109.002 187.6C109.313 187.289 109.801 187.289 110.09 187.6C110.401 187.911 110.401 188.399 110.09 188.688L108.113 190.665C107.802 190.976 107.313 190.976 107.024 190.665Z" fill="#C75726"/>
<path d="M151.253 138.418C163.092 138.418 172.69 128.82 172.69 116.981C172.69 105.142 163.092 95.5442 151.253 95.5442C139.414 95.5442 129.816 105.142 129.816 116.981C129.816 128.82 139.414 138.418 151.253 138.418Z" fill="#E9662C"/>
<path d="M162.049 116.981C162.049 122.934 157.229 127.777 151.253 127.777C145.277 127.777 140.457 122.957 140.457 116.981C140.457 111.005 145.277 106.185 151.253 106.185C157.229 106.185 162.049 111.005 162.049 116.981Z" fill="#EBAF3C"/>
<path d="M159.561 116.981C159.561 121.557 155.851 125.289 151.253 125.289C146.655 125.289 142.945 121.579 142.945 116.981C142.945 112.383 146.655 108.673 151.253 108.673C155.851 108.673 159.561 112.383 159.561 116.981Z" fill="#EFBF63"/>
<path d="M151.253 104.474C150.564 104.474 150.031 103.919 150.031 103.253V98.7875C150.031 98.0988 150.587 97.5657 151.253 97.5657C151.942 97.5657 152.475 98.121 152.475 98.7875V103.253C152.475 103.941 151.919 104.474 151.253 104.474Z" fill="#C75726"/>
<path d="M142.412 108.139C141.923 108.628 141.146 108.628 140.679 108.139L137.525 104.985C137.036 104.496 137.036 103.719 137.525 103.252C138.014 102.764 138.791 102.764 139.258 103.252L142.412 106.407C142.901 106.895 142.901 107.673 142.412 108.139Z" fill="#C75726"/>
<path d="M138.747 116.981C138.747 117.669 138.191 118.203 137.525 118.203H133.06C132.371 118.203 131.838 117.647 131.838 116.981C131.838 116.292 132.393 115.759 133.06 115.759H137.525C138.213 115.759 138.747 116.314 138.747 116.981Z" fill="#C75726"/>
<path d="M142.412 125.844C142.901 126.333 142.901 127.111 142.412 127.577L139.258 130.731C138.769 131.22 137.991 131.22 137.525 130.731C137.036 130.243 137.036 129.465 137.525 128.999L140.679 125.844C141.168 125.356 141.945 125.356 142.412 125.844Z" fill="#C75726"/>
<path d="M151.253 129.51C151.942 129.51 152.475 130.065 152.475 130.732V135.197C152.475 135.885 151.919 136.419 151.253 136.419C150.564 136.419 150.031 135.863 150.031 135.197V130.732C150.031 130.043 150.587 129.51 151.253 129.51Z" fill="#C75726"/>
<path d="M160.116 125.844C160.605 125.356 161.383 125.356 161.849 125.844L165.004 128.999C165.492 129.487 165.492 130.265 165.004 130.731C164.515 131.22 163.737 131.22 163.271 130.731L160.116 127.577C159.628 127.088 159.628 126.311 160.116 125.844Z" fill="#C75726"/>
<path d="M163.782 116.981C163.782 116.292 164.337 115.759 165.004 115.759H169.469C170.157 115.759 170.691 116.314 170.691 116.981C170.691 117.669 170.135 118.203 169.469 118.203H165.004C164.315 118.203 163.782 117.647 163.782 116.981Z" fill="#C75726"/>
<path d="M160.116 108.139C159.628 107.651 159.628 106.873 160.116 106.407L163.271 103.252C163.76 102.764 164.537 102.764 165.004 103.252C165.492 103.741 165.492 104.518 165.004 104.985L161.849 108.139C161.36 108.628 160.583 108.628 160.116 108.139Z" fill="#C75726"/>
<path d="M122.793 170.318L139.679 187.204C141.203 188.727 141.218 191.225 139.679 192.764L122.338 210.106C120.814 211.629 118.316 211.645 116.777 210.106L99.8912 193.22L122.778 170.333L122.793 170.318Z" fill="#F0C419"/>
<path d="M125.773 173.29L113.489 161.007C111.954 159.471 109.464 159.471 107.929 161.007L90.603 178.333C89.0675 179.868 89.0675 182.358 90.603 183.893L102.887 196.177C104.422 197.712 106.912 197.712 108.447 196.177L125.773 178.851C127.308 177.315 127.308 174.826 125.773 173.29Z" fill="#FFD800"/>
<path d="M141.262 141.322L124.376 158.208C122.852 159.731 120.355 159.747 118.815 158.208L101.474 140.866C99.9502 139.343 99.9345 136.845 101.474 135.306L118.36 118.42L141.246 141.306L141.262 141.322Z" fill="#F0C419"/>
<path d="M138.26 144.308L150.544 132.024C152.079 130.489 152.079 127.999 150.544 126.464L133.218 109.138C131.682 107.603 129.193 107.603 127.657 109.138L115.374 121.422C113.838 122.957 113.838 125.447 115.374 126.982L132.699 144.308C134.235 145.843 136.725 145.843 138.26 144.308Z" fill="#FFD800"/>
<path d="M128.167 151.475L114.344 165.298C110.25 169.392 110.25 176.031 114.344 180.126L124.759 190.54C128.853 194.635 135.492 194.635 139.587 190.54L153.41 176.717C157.504 172.622 157.504 165.984 153.41 161.889L142.995 151.475C138.901 147.38 132.262 147.38 128.167 151.475Z" fill="#A64429"/>
<path d="M119.687 180.313C119.687 180.313 124.196 170.405 121.864 163.874" stroke="#7D331F" stroke-width="4.19369" stroke-miterlimit="10" stroke-linecap="round"/>
<path d="M124.352 183.934C124.352 183.934 128.128 177.026 129.017 169.784C130.283 159.587 130.349 155.389 130.349 155.389" stroke="#7D331F" stroke-width="4.19369" stroke-miterlimit="10" stroke-linecap="round"/>
<path d="M137.325 153.456C137.103 153.678 133.726 159.01 135.148 165.852" stroke="#7D331F" stroke-width="4.19369" stroke-miterlimit="10" stroke-linecap="round"/>
<path d="M134.881 169.983C134.881 169.983 135.081 180.557 128.328 188.954" stroke="#7D331F" stroke-width="4.19369" stroke-miterlimit="10" stroke-linecap="round"/>
<path d="M116.132 176.759C116.132 176.759 118.198 171.316 117.288 166.962" stroke="#7D331F" stroke-width="4.19369" stroke-miterlimit="10" stroke-linecap="round"/>
<path d="M142.612 155.456C142.612 155.456 140.279 159.143 141.19 166.207C142.101 173.272 140.546 177.67 140.546 177.67" stroke="#7D331F" stroke-width="4.19369" stroke-miterlimit="10" stroke-linecap="round"/>
<path d="M139.213 181.224C139.213 181.224 137.702 186.333 133.348 190.398" stroke="#7D331F" stroke-width="4.19369" stroke-miterlimit="10" stroke-linecap="round"/>
<path d="M143.811 183.689C143.811 183.689 147.765 176.248 146.099 170.094" stroke="#7D331F" stroke-width="4.19369" stroke-miterlimit="10" stroke-linecap="round"/>
<path d="M146.366 166.562C146.366 166.562 146.41 161.72 147.232 159.01" stroke="#7D331F" stroke-width="4.19369" stroke-miterlimit="10" stroke-linecap="round"/>
<path d="M151.342 163.675C151.342 163.675 152.275 171.605 150.453 175.448" stroke="#7D331F" stroke-width="4.19369" stroke-miterlimit="10" stroke-linecap="round"/>
<path d="M166.621 79.3365L152.798 93.1594C148.703 97.2541 148.703 103.893 152.798 107.988L163.212 118.402C167.307 122.497 173.946 122.497 178.04 118.402L191.863 104.579C195.958 100.484 195.958 93.8455 191.863 89.7508L181.449 79.3365C177.354 75.2418 170.715 75.2418 166.621 79.3365Z" fill="#A64429"/>
<path d="M158.162 108.184C158.162 108.184 162.671 98.2761 160.339 91.7451" stroke="#7D331F" stroke-width="4.19369" stroke-miterlimit="10" stroke-linecap="round"/>
<path d="M162.827 111.782C162.827 111.782 166.603 104.874 167.492 97.6319C168.758 87.4355 168.825 83.2371 168.825 83.2371" stroke="#7D331F" stroke-width="4.19369" stroke-miterlimit="10" stroke-linecap="round"/>
<path d="M175.8 81.3042C175.578 81.5263 172.201 86.8578 173.623 93.6997" stroke="#7D331F" stroke-width="4.19369" stroke-miterlimit="10" stroke-linecap="round"/>
<path d="M173.356 97.8325C173.356 97.8325 173.556 108.406 166.803 116.803" stroke="#7D331F" stroke-width="4.19369" stroke-miterlimit="10" stroke-linecap="round"/>
<path d="M154.585 104.608C154.585 104.608 156.651 99.165 155.74 94.811" stroke="#7D331F" stroke-width="4.19369" stroke-miterlimit="10" stroke-linecap="round"/>
<path d="M181.065 83.3037C181.065 83.3037 178.732 86.9913 179.643 94.0554C180.554 101.12 178.999 105.518 178.999 105.518" stroke="#7D331F" stroke-width="4.19369" stroke-miterlimit="10" stroke-linecap="round"/>
<path d="M177.688 109.072C177.688 109.072 176.177 114.181 171.823 118.224" stroke="#7D331F" stroke-width="4.19369" stroke-miterlimit="10" stroke-linecap="round"/>
<path d="M182.264 111.56C182.264 111.56 186.218 104.118 184.552 97.9648" stroke="#7D331F" stroke-width="4.19369" stroke-miterlimit="10" stroke-linecap="round"/>
<path d="M184.819 94.433C184.819 94.433 184.863 89.5903 185.685 86.8801" stroke="#7D331F" stroke-width="4.19369" stroke-miterlimit="10" stroke-linecap="round"/>
<path d="M189.817 91.5452C189.817 91.5452 190.75 99.4756 188.928 103.319" stroke="#7D331F" stroke-width="4.19369" stroke-miterlimit="10" stroke-linecap="round"/>
<path d="M96.5927 97.4134L110.416 111.236C114.51 115.331 121.149 115.331 125.244 111.236L135.658 100.822C139.753 96.7273 139.753 90.0885 135.658 85.9938L121.835 72.1709C117.741 68.0763 111.102 68.0763 107.007 72.1709L96.5927 82.5852C92.498 86.6799 92.498 93.3187 96.5927 97.4134Z" fill="#A64429"/>
<path d="M125.44 105.895C125.44 105.895 115.533 101.386 109.002 103.719" stroke="#7D331F" stroke-width="4.19369" stroke-miterlimit="10" stroke-linecap="round"/>
<path d="M129.039 101.231C129.039 101.231 122.13 97.4541 114.888 96.5655C104.692 95.2993 100.494 95.2327 100.494 95.2327" stroke="#7D331F" stroke-width="4.19369" stroke-miterlimit="10" stroke-linecap="round"/>
<path d="M98.5831 88.2576C98.8052 88.4797 104.137 91.8563 110.979 90.4346" stroke="#7D331F" stroke-width="4.19369" stroke-miterlimit="10" stroke-linecap="round"/>
<path d="M115.088 90.7013C115.088 90.7013 125.662 90.5014 134.059 97.2545" stroke="#7D331F" stroke-width="4.19369" stroke-miterlimit="10" stroke-linecap="round"/>
<path d="M121.864 109.472C121.864 109.472 116.421 107.406 112.067 108.317" stroke="#7D331F" stroke-width="4.19369" stroke-miterlimit="10" stroke-linecap="round"/>
<path d="M100.582 82.9927C100.582 82.9927 104.27 85.3252 111.334 84.4144C118.398 83.5036 122.797 85.0586 122.797 85.0586" stroke="#7D331F" stroke-width="4.19369" stroke-miterlimit="10" stroke-linecap="round"/>
<path d="M126.329 86.3699C126.329 86.3699 131.438 87.8804 135.503 92.2344" stroke="#7D331F" stroke-width="4.19369" stroke-miterlimit="10" stroke-linecap="round"/>
<path d="M128.817 81.7932C128.817 81.7932 121.375 77.839 115.222 79.5051" stroke="#7D331F" stroke-width="4.19369" stroke-miterlimit="10" stroke-linecap="round"/>
<path d="M111.689 79.2392C111.689 79.2392 106.847 79.1947 104.137 78.3728" stroke="#7D331F" stroke-width="4.19369" stroke-miterlimit="10" stroke-linecap="round"/>
<path d="M108.802 74.2399C108.802 74.2399 116.732 73.3069 120.575 75.1284" stroke="#7D331F" stroke-width="4.19369" stroke-miterlimit="10" stroke-linecap="round"/>
<path d="M162.182 135.93V155.478C162.182 161.269 166.877 165.963 172.667 165.963H187.396C193.186 165.963 197.881 161.269 197.881 155.478V135.93C197.881 130.139 193.186 125.444 187.396 125.444H172.667C166.877 125.444 162.182 130.139 162.182 135.93Z" fill="#A64429"/>
<path d="M176.599 162.32C176.599 162.32 172.778 152.123 166.514 149.147" stroke="#7D331F" stroke-width="4.19369" stroke-miterlimit="10" stroke-linecap="round"/>
<path d="M182.442 161.565C182.442 161.565 180.22 154.012 175.733 148.258C169.424 140.15 166.514 137.151 166.514 137.151" stroke="#7D331F" stroke-width="4.19369" stroke-miterlimit="10" stroke-linecap="round"/>
<path d="M170.068 130.842C170.068 131.153 171.446 137.329 177.288 141.15" stroke="#7D331F" stroke-width="4.19369" stroke-miterlimit="10" stroke-linecap="round"/>
<path d="M180.02 144.26C180.02 144.26 187.64 151.59 188.795 162.32" stroke="#7D331F" stroke-width="4.19369" stroke-miterlimit="10" stroke-linecap="round"/>
<path d="M171.557 162.32C171.557 162.32 169.158 157.011 165.448 154.567" stroke="#7D331F" stroke-width="4.19369" stroke-miterlimit="10" stroke-linecap="round"/>
<path d="M175.222 128.532C175.222 128.532 176.177 132.775 181.797 137.129C187.418 141.483 189.439 145.704 189.439 145.704" stroke="#7D331F" stroke-width="4.19369" stroke-miterlimit="10" stroke-linecap="round"/>
<path d="M191.039 149.147C191.039 149.147 193.593 153.812 193.371 159.765" stroke="#7D331F" stroke-width="4.19369" stroke-miterlimit="10" stroke-linecap="round"/>
<path d="M196.037 147.658C196.037 147.658 193.571 139.595 188.04 136.44" stroke="#7D331F" stroke-width="4.19369" stroke-miterlimit="10" stroke-linecap="round"/>
<path d="M185.729 133.73C185.729 133.73 182.331 130.287 180.998 127.777" stroke="#7D331F" stroke-width="4.19369" stroke-miterlimit="10" stroke-linecap="round"/>
<path d="M187.218 128.155C187.218 128.155 193.482 133.108 194.926 137.107" stroke="#7D331F" stroke-width="4.19369" stroke-miterlimit="10" stroke-linecap="round"/>
<path d="M103.426 142.771C113.044 150.48 114.599 164.564 106.891 174.182C99.1828 183.801 85.099 185.356 75.4802 177.648C65.8615 169.939 64.3065 155.856 72.0148 146.237C79.7232 136.618 93.807 135.063 103.426 142.771Z" fill="#E84C3D"/>
<path d="M80.9894 179.003C80.9894 179.003 80.9894 179.003 80.9894 179.025C80.6118 179.914 81.1005 180.935 82.0113 181.269C85.5211 182.513 89.2753 182.824 92.874 182.268C93.9181 182.113 94.5623 181.024 94.2069 180.025C94.2069 180.025 94.2069 180.025 94.2069 180.002C93.9403 179.247 93.1406 178.803 92.3409 178.914C89.2753 179.38 86.0987 179.114 83.122 178.07C82.2778 177.781 81.367 178.203 81.0116 179.025L80.9894 179.003Z" fill="#BD483C"/>
<path d="M101.138 175.116C100.693 175.471 100.227 175.782 99.7605 176.093C99.0496 176.56 98.8053 177.47 99.2274 178.203C99.2718 178.27 99.294 178.337 99.3384 178.403C99.7827 179.203 100.805 179.492 101.56 178.981C102.137 178.603 102.715 178.203 103.27 177.759C103.959 177.226 104.07 176.204 103.515 175.538C103.448 175.449 103.381 175.382 103.315 175.293C102.759 174.649 101.804 174.583 101.138 175.116Z" fill="#BD483C"/>
<path d="M91.7189 139.417C91.7189 139.417 91.7189 139.395 91.7189 139.373C91.63 138.551 90.9414 137.884 90.0973 137.862C84.4771 137.706 78.8569 139.639 74.5029 143.571C73.8587 144.149 73.7698 145.148 74.3029 145.837C74.3029 145.837 74.3029 145.837 74.3029 145.859C74.9027 146.637 76.0357 146.77 76.7465 146.103C80.4341 142.771 85.2101 141.127 89.9862 141.261C91.008 141.283 91.83 140.417 91.7189 139.395V139.417Z" fill="#ED7064"/>
<path d="M100.671 146.192C95.2287 141.838 87.7425 141.75 82.2778 145.482C80.3452 146.814 80.2563 149.636 82.0779 151.102L99.9381 165.408C101.76 166.874 104.514 166.163 105.381 163.986C107.846 157.833 106.136 150.546 100.693 146.17L100.671 146.192Z" fill="#ED7064"/>
<path d="M78.2126 174.227C72.7701 169.873 71.0596 162.564 73.5254 156.411C74.3918 154.234 77.1241 153.523 78.9679 154.989L96.8281 169.295C98.6497 170.762 98.5608 173.583 96.6282 174.916C91.1635 178.67 83.6773 178.581 78.2348 174.205L78.2126 174.227Z" fill="#ED7064"/>
<path d="M83.2552 171.739C83.4329 171.428 83.5218 171.072 83.544 170.717L84.1438 168.651C84.4548 167.562 83.2997 166.629 82.3222 167.185L80.4562 168.229C80.123 168.318 79.812 168.495 79.5232 168.74C79.4344 168.829 79.3233 168.917 79.2345 169.028C78.3903 170.073 78.568 171.605 79.6121 172.427C80.6562 173.271 82.189 173.094 83.0109 172.05C83.0997 171.939 83.1664 171.827 83.233 171.716L83.2552 171.739Z" fill="#FFD800"/>
<path d="M94.6511 171.05C94.4734 170.739 94.2069 170.472 93.9181 170.295L92.4297 168.74C91.6522 167.918 90.2749 168.451 90.2527 169.584L90.2083 171.739C90.1194 172.072 90.1194 172.427 90.2083 172.805C90.2305 172.938 90.2749 173.072 90.3194 173.205C90.8081 174.449 92.2076 175.071 93.4516 174.582C94.6956 174.093 95.3176 172.694 94.8289 171.45C94.7844 171.317 94.7178 171.206 94.6511 171.094V171.05Z" fill="#FFD800"/>
<path d="M101.893 158.21C101.538 158.21 101.182 158.299 100.871 158.455L98.7831 158.965C97.6946 159.232 97.4502 160.698 98.4276 161.276L100.271 162.386C100.516 162.631 100.827 162.809 101.182 162.942C101.315 162.986 101.449 163.008 101.582 163.031C102.915 163.231 104.137 162.32 104.337 161.009C104.537 159.676 103.626 158.455 102.315 158.255C102.182 158.255 102.049 158.232 101.915 158.232L101.893 158.21Z" fill="#FFD800"/>
<path d="M95.6063 148.68C95.4286 148.991 95.3397 149.347 95.3175 149.702L94.7177 151.768C94.4067 152.856 95.5619 153.789 96.5393 153.234L98.4053 152.19C98.7385 152.101 99.0495 151.923 99.3383 151.679C99.4271 151.59 99.5382 151.501 99.6271 151.39C100.471 150.346 100.293 148.813 99.2494 147.992C98.2053 147.147 96.6726 147.325 95.8506 148.369C95.7618 148.48 95.6951 148.591 95.6285 148.702L95.6063 148.68Z" fill="#FFD800"/>
<path d="M84.2327 149.347C84.4105 149.658 84.677 149.924 84.9658 150.102L86.4542 151.657C87.2317 152.479 88.6089 151.946 88.6312 150.813L88.6756 148.658C88.7644 148.325 88.7644 147.97 88.6756 147.592C88.6534 147.459 88.6089 147.325 88.5645 147.192C88.0758 145.948 86.6763 145.326 85.4323 145.815C84.1883 146.304 83.5663 147.703 84.055 148.947C84.0994 149.08 84.1661 149.191 84.2327 149.302V149.347Z" fill="#FFD800"/>
<path d="M76.9909 162.209C77.3463 162.209 77.7017 162.12 78.0127 161.965L80.1009 161.454C81.1894 161.187 81.4337 159.721 80.4563 159.143L78.6125 158.033C78.3682 157.788 78.0572 157.611 77.7017 157.477C77.5684 157.433 77.4352 157.411 77.3019 157.388C75.969 157.188 74.7472 158.099 74.5473 159.41C74.3474 160.743 75.2582 161.965 76.5688 162.164C76.7021 162.164 76.8354 162.187 76.9687 162.187L76.9909 162.209Z" fill="#FFD800"/>
<path d="M159.472 66.1985C169.091 73.9068 170.646 87.9906 162.938 97.6094C155.229 107.228 141.146 108.783 131.527 101.075C121.908 93.3665 120.353 79.2826 128.061 69.6639C135.77 60.0451 149.853 58.4901 159.472 66.1985Z" fill="#E84C3D"/>
<path d="M137.036 102.43C137.036 102.43 137.036 102.43 137.036 102.452C136.658 103.341 137.147 104.363 138.058 104.696C141.568 105.94 145.322 106.251 148.921 105.696C149.965 105.54 150.609 104.452 150.253 103.452C150.253 103.452 150.253 103.452 150.253 103.43C149.987 102.674 149.187 102.23 148.387 102.341C145.322 102.808 142.145 102.541 139.168 101.497C138.324 101.208 137.414 101.63 137.058 102.452L137.036 102.43Z" fill="#BD483C"/>
<path d="M157.206 98.52C156.762 98.8754 156.296 99.1864 155.829 99.4974C155.118 99.9639 154.874 100.875 155.296 101.608C155.34 101.674 155.363 101.741 155.407 101.808C155.851 102.607 156.873 102.896 157.629 102.385C158.206 102.008 158.784 101.608 159.339 101.163C160.028 100.63 160.139 99.6085 159.583 98.9421C159.517 98.8532 159.45 98.7866 159.383 98.6977C158.828 98.0535 157.873 97.9869 157.206 98.52Z" fill="#BD483C"/>
<path d="M147.787 62.844C147.787 62.844 147.787 62.8217 147.787 62.7995C147.699 61.9776 147.01 61.3112 146.188 61.289C140.568 61.1335 134.948 63.0661 130.594 66.998C129.949 67.5756 129.861 68.5752 130.394 69.2639C130.394 69.2639 130.394 69.2639 130.394 69.2861C130.994 70.0636 132.126 70.1969 132.837 69.5304C136.525 66.1983 141.301 64.5545 146.077 64.6877C147.099 64.71 147.921 63.8436 147.81 62.8217L147.787 62.844Z" fill="#ED7064"/>
<path d="M156.74 69.6195C151.297 65.2655 143.811 65.1766 138.346 68.9086C136.414 70.2415 136.325 73.0627 138.147 74.5288L156.007 88.8347C157.828 90.3009 160.583 89.59 161.449 87.413C163.915 81.2597 162.205 73.9734 156.762 69.5972L156.74 69.6195Z" fill="#ED7064"/>
<path d="M134.259 97.6315C128.817 93.2775 127.106 85.969 129.572 79.8157C130.438 77.6387 133.171 76.9279 135.014 78.394L152.875 92.6999C154.696 94.1661 154.607 96.9873 152.675 98.3201C147.21 102.074 139.724 101.985 134.281 97.6093L134.259 97.6315Z" fill="#ED7064"/>
<path d="M139.324 95.1439C139.502 94.8329 139.591 94.4774 139.613 94.122L140.213 92.0561C140.524 90.9676 139.369 90.0346 138.391 90.5899L136.525 91.634C136.192 91.7229 135.881 91.9006 135.592 92.1449C135.503 92.2338 135.392 92.3227 135.303 92.4337C134.459 93.4778 134.637 95.0106 135.681 95.8325C136.725 96.6544 138.258 96.4989 139.08 95.4549C139.169 95.3438 139.235 95.2327 139.302 95.1216L139.324 95.1439Z" fill="#FFD800"/>
<path d="M150.72 94.4773C150.542 94.1663 150.276 93.8997 149.987 93.722L148.498 92.167C147.721 91.3451 146.344 91.8782 146.321 93.0112L146.277 95.1659C146.188 95.4991 146.188 95.8546 146.277 96.2322C146.299 96.3655 146.344 96.4988 146.388 96.6321C146.877 97.8761 148.276 98.4981 149.52 98.0094C150.764 97.5206 151.386 96.1211 150.898 94.8771C150.853 94.7439 150.787 94.6328 150.72 94.5217V94.4773Z" fill="#FFD800"/>
<path d="M157.962 81.6372C157.606 81.6372 157.251 81.7261 156.94 81.8816L154.852 82.3925C153.763 82.6591 153.519 84.1252 154.496 84.7028L156.34 85.8135C156.584 86.0578 156.895 86.2356 157.251 86.3688C157.384 86.4133 157.517 86.4355 157.651 86.4577C158.984 86.6576 160.205 85.7468 160.405 84.4362C160.605 83.1033 159.694 81.8816 158.384 81.6816C158.251 81.6816 158.117 81.6594 157.984 81.6594L157.962 81.6372Z" fill="#FFD800"/>
<path d="M151.675 72.1074C151.497 72.4184 151.409 72.7739 151.386 73.1293L150.787 75.1952C150.476 76.2837 151.631 77.2167 152.608 76.6613L154.474 75.6173C154.807 75.5284 155.118 75.3507 155.407 75.1063C155.496 75.0175 155.607 74.9286 155.696 74.8176C156.54 73.7735 156.362 72.2407 155.318 71.4188C154.274 70.5746 152.741 70.7524 151.919 71.7964C151.831 71.9075 151.764 72.0186 151.697 72.1296L151.675 72.1074Z" fill="#FFD800"/>
<path d="M140.279 72.7742C140.457 73.0852 140.723 73.3517 141.012 73.5294L142.501 75.0844C143.278 75.9064 144.655 75.3732 144.678 74.2403L144.722 72.0855C144.811 71.7523 144.811 71.3969 144.722 71.0192C144.7 70.8859 144.655 70.7527 144.611 70.6194C144.122 69.3754 142.723 68.7534 141.479 69.2421C140.235 69.7308 139.613 71.1303 140.101 72.3743C140.146 72.5076 140.212 72.6187 140.279 72.7297V72.7742Z" fill="#FFD800"/>
<path d="M133.06 85.6139C133.415 85.6139 133.77 85.525 134.081 85.3695L136.17 84.8586C137.258 84.592 137.502 83.1259 136.525 82.5483L134.681 81.4376C134.437 81.1933 134.126 81.0155 133.77 80.9045C133.637 80.86 133.504 80.8378 133.371 80.8156C132.038 80.6157 130.816 81.5265 130.616 82.8371C130.416 84.17 131.327 85.3917 132.637 85.5917C132.771 85.5917 132.904 85.6139 133.037 85.6139H133.06Z" fill="#FFD800"/>
<path d="M104.648 121.379H85.0991C79.3083 121.379 74.614 126.073 74.614 131.864V146.592C74.614 152.383 79.3083 157.077 85.0991 157.077H104.648C110.438 157.077 115.133 152.383 115.133 146.592V131.864C115.133 126.073 110.438 121.379 104.648 121.379Z" fill="#A64429"/>
<path d="M78.2793 135.796C78.2793 135.796 88.4756 131.975 91.4523 125.71" stroke="#7D331F" stroke-width="4.19369" stroke-miterlimit="10" stroke-linecap="round"/>
<path d="M79.0124 141.638C79.0124 141.638 86.5652 139.417 92.3187 134.929C100.427 128.621 103.426 125.71 103.426 125.71" stroke="#7D331F" stroke-width="4.19369" stroke-miterlimit="10" stroke-linecap="round"/>
<path d="M109.735 129.265C109.424 129.265 103.248 130.642 99.4272 136.485" stroke="#7D331F" stroke-width="4.19369" stroke-miterlimit="10" stroke-linecap="round"/>
<path d="M96.3395 139.24C96.3395 139.24 89.0088 146.859 78.2793 148.014" stroke="#7D331F" stroke-width="4.19369" stroke-miterlimit="10" stroke-linecap="round"/>
<path d="M78.2793 130.753C78.2793 130.753 83.5885 128.354 86.0321 124.645" stroke="#7D331F" stroke-width="4.19369" stroke-miterlimit="10" stroke-linecap="round"/>
<path d="M112.045 134.419C112.045 134.419 107.802 135.374 103.448 140.994C99.094 146.615 94.8733 148.636 94.8733 148.636" stroke="#7D331F" stroke-width="4.19369" stroke-miterlimit="10" stroke-linecap="round"/>
<path d="M91.4523 150.235C91.4523 150.235 86.7873 152.79 80.8339 152.568" stroke="#7D331F" stroke-width="4.19369" stroke-miterlimit="10" stroke-linecap="round"/>
<path d="M92.9407 155.233C92.9407 155.233 101.004 152.767 104.159 147.236" stroke="#7D331F" stroke-width="4.19369" stroke-miterlimit="10" stroke-linecap="round"/>
<path d="M106.847 144.926C106.847 144.926 110.29 141.527 112.8 140.194" stroke="#7D331F" stroke-width="4.19369" stroke-miterlimit="10" stroke-linecap="round"/>
<path d="M112.423 146.414C112.423 146.414 107.469 152.679 103.47 154.123" stroke="#7D331F" stroke-width="4.19369" stroke-miterlimit="10" stroke-linecap="round"/>
<path d="M134.259 138.44C134.259 145.881 128.217 151.924 120.775 151.924C113.333 151.924 107.291 145.881 107.291 138.44C107.291 130.998 113.333 124.956 120.775 124.956C128.217 124.956 134.259 130.998 134.259 138.44Z" fill="#E9662C"/>
<path d="M120.797 145.215C124.539 145.215 127.573 142.182 127.573 138.44C127.573 134.698 124.539 131.665 120.797 131.665C117.055 131.665 114.022 134.698 114.022 138.44C114.022 142.182 117.055 145.215 120.797 145.215Z" fill="#EBAF3C"/>
<path d="M120.797 143.66C123.68 143.66 126.018 141.323 126.018 138.44C126.018 135.556 123.68 133.219 120.797 133.219C117.914 133.219 115.577 135.556 115.577 138.44C115.577 141.323 117.914 143.66 120.797 143.66Z" fill="#EFBF63"/>
<path d="M120.797 130.576C120.375 130.576 120.02 130.221 120.02 129.799V127C120.02 126.578 120.375 126.222 120.797 126.222C121.219 126.222 121.575 126.578 121.575 127V129.799C121.575 130.221 121.219 130.576 120.797 130.576Z" fill="#C75726"/>
<path d="M115.222 132.864C114.911 133.175 114.422 133.175 114.133 132.864L112.156 130.887C111.845 130.576 111.845 130.087 112.156 129.798C112.467 129.487 112.956 129.487 113.245 129.798L115.222 131.775C115.533 132.086 115.533 132.575 115.222 132.864Z" fill="#C75726"/>
<path d="M112.934 138.44C112.934 138.862 112.578 139.217 112.156 139.217H109.357C108.935 139.217 108.58 138.862 108.58 138.44C108.58 138.018 108.935 137.662 109.357 137.662H112.156C112.578 137.662 112.934 138.018 112.934 138.44Z" fill="#C75726"/>
<path d="M115.222 143.994C115.533 144.305 115.533 144.793 115.222 145.082L113.245 147.059C112.934 147.37 112.445 147.37 112.156 147.059C111.845 146.748 111.845 146.259 112.156 145.971L114.133 143.994C114.444 143.683 114.933 143.683 115.222 143.994Z" fill="#C75726"/>
<path d="M120.797 146.304C121.219 146.304 121.575 146.659 121.575 147.081V149.88C121.575 150.302 121.219 150.658 120.797 150.658C120.375 150.658 120.02 150.302 120.02 149.88V147.081C120.02 146.659 120.375 146.304 120.797 146.304Z" fill="#C75726"/>
<path d="M126.351 143.994C126.662 143.683 127.151 143.683 127.439 143.994L129.416 145.971C129.727 146.282 129.727 146.77 129.416 147.059C129.105 147.37 128.617 147.37 128.328 147.059L126.351 145.082C126.04 144.771 126.04 144.282 126.351 143.994Z" fill="#C75726"/>
<path d="M128.661 138.44C128.661 138.018 129.017 137.662 129.439 137.662H132.238C132.66 137.662 133.015 138.018 133.015 138.44C133.015 138.862 132.66 139.217 132.238 139.217H129.439C129.017 139.217 128.661 138.862 128.661 138.44Z" fill="#C75726"/>
<path d="M126.351 132.864C126.04 132.553 126.04 132.064 126.351 131.775L128.328 129.798C128.639 129.487 129.128 129.487 129.416 129.798C129.727 130.109 129.727 130.598 129.416 130.887L127.439 132.864C127.128 133.175 126.64 133.175 126.351 132.864Z" fill="#C75726"/>
<path d="M149.72 111.649H130.172C124.381 111.649 119.687 116.344 119.687 122.135V136.863C119.687 142.653 124.381 147.348 130.172 147.348H149.72C155.511 147.348 160.205 142.653 160.205 136.863V122.135C160.205 116.344 155.511 111.649 149.72 111.649Z" fill="#A64429"/>
<path d="M123.33 126.066C123.33 126.066 133.526 122.245 136.503 115.981" stroke="#7D331F" stroke-width="4.19369" stroke-miterlimit="10" stroke-linecap="round"/>
<path d="M124.085 131.909C124.085 131.909 131.638 129.687 137.391 125.2C145.5 118.891 148.499 115.981 148.499 115.981" stroke="#7D331F" stroke-width="4.19369" stroke-miterlimit="10" stroke-linecap="round"/>
<path d="M154.807 119.535C154.496 119.535 148.321 120.913 144.5 126.755" stroke="#7D331F" stroke-width="4.19369" stroke-miterlimit="10" stroke-linecap="round"/>
<path d="M141.39 129.51C141.39 129.51 134.059 137.129 123.33 138.284" stroke="#7D331F" stroke-width="4.19369" stroke-miterlimit="10" stroke-linecap="round"/>
<path d="M123.33 121.024C123.33 121.024 128.639 118.625 131.082 114.915" stroke="#7D331F" stroke-width="4.19369" stroke-miterlimit="10" stroke-linecap="round"/>
<path d="M157.117 124.689C157.117 124.689 152.874 125.644 148.52 131.264C144.167 136.885 139.946 138.906 139.946 138.906" stroke="#7D331F" stroke-width="4.19369" stroke-miterlimit="10" stroke-linecap="round"/>
<path d="M136.503 140.506C136.503 140.506 131.838 143.06 125.884 142.838" stroke="#7D331F" stroke-width="4.19369" stroke-miterlimit="10" stroke-linecap="round"/>
<path d="M137.991 145.503C137.991 145.503 146.055 143.037 149.209 137.506" stroke="#7D331F" stroke-width="4.19369" stroke-miterlimit="10" stroke-linecap="round"/>
<path d="M151.919 135.196C151.919 135.196 155.363 131.797 157.873 130.464" stroke="#7D331F" stroke-width="4.19369" stroke-miterlimit="10" stroke-linecap="round"/>
<path d="M157.495 136.685C157.495 136.685 152.541 142.949 148.543 144.393" stroke="#7D331F" stroke-width="4.19369" stroke-miterlimit="10" stroke-linecap="round"/>
<path d="M71.8371 127.687C71.8371 132.375 68.0385 136.173 63.3513 136.173C58.6641 136.173 54.8655 132.375 54.8655 127.687C54.8655 123 58.6641 119.202 63.3513 119.202C68.0385 119.202 71.8371 123 71.8371 127.687Z" fill="#EB9F3C"/>
<path d="M172.334 72.2856C177.021 72.2856 180.82 68.4864 180.82 63.7998C180.82 59.1132 177.021 55.314 172.334 55.314C167.648 55.314 163.848 59.1132 163.848 63.7998C163.848 68.4864 167.648 72.2856 172.334 72.2856Z" fill="#EB9F3C"/>
<path d="M80.7673 83.1926C80.7673 86.5914 78.0127 89.346 74.614 89.346C71.2152 89.346 68.4606 86.5914 68.4606 83.1926C68.4606 79.7939 71.2152 77.0393 74.614 77.0393C78.0127 77.0393 80.7673 79.7939 80.7673 83.1926Z" fill="#EB9F3C"/>
<path d="M215.852 129.398C215.852 132.797 213.097 135.552 209.699 135.552C206.3 135.552 203.545 132.797 203.545 129.398C203.545 126 206.3 123.245 209.699 123.245C213.097 123.245 215.852 126 215.852 129.398Z" fill="#EB9F3C"/>
<path d="M219.939 143.282C219.939 145.548 218.118 147.37 215.852 147.37C213.586 147.37 211.765 145.548 211.765 143.282C211.765 141.016 213.586 139.195 215.852 139.195C218.118 139.195 219.939 141.016 219.939 143.282Z" fill="#EB9F3C"/>
<path d="M140.99 55.3142C140.99 57.5579 139.168 59.4016 136.903 59.4016C134.637 59.4016 132.815 57.5801 132.815 55.3142C132.815 53.0484 134.637 51.2268 136.903 51.2268C139.168 51.2268 140.99 53.0484 140.99 55.3142Z" fill="#EB9F3C"/>
<path d="M59.064 151.746C61.3214 151.746 63.1514 149.916 63.1514 147.658C63.1514 145.401 61.3214 143.571 59.064 143.571C56.8066 143.571 54.9766 145.401 54.9766 147.658C54.9766 149.916 56.8066 151.746 59.064 151.746Z" fill="#EB9F3C"/>
<path d="M62.1073 112.382C62.1073 113.759 60.9744 114.892 59.5971 114.892C58.2198 114.892 57.0869 113.759 57.0869 112.382C57.0869 111.005 58.2198 109.872 59.5971 109.872C60.9744 109.872 62.1073 111.005 62.1073 112.382Z" fill="#EB9F3C"/>
<path d="M201.124 87.5026C201.124 88.8799 199.991 90.0128 198.614 90.0128C197.236 90.0128 196.104 88.8799 196.104 87.5026C196.104 86.1254 197.236 84.9924 198.614 84.9924C199.991 84.9924 201.124 86.1254 201.124 87.5026Z" fill="#F3C58A"/>
<path d="M64.5953 98.8537C64.5953 100.231 63.4623 101.364 62.0851 101.364C60.7078 101.364 59.5749 100.231 59.5749 98.8537C59.5749 97.4764 60.7078 96.3435 62.0851 96.3435C63.4623 96.3435 64.5953 97.4764 64.5953 98.8537Z" fill="#F3C58A"/>
<path d="M175.222 206.282C175.222 207.659 174.089 208.792 172.712 208.792C171.335 208.792 170.202 207.659 170.202 206.282C170.202 204.904 171.335 203.771 172.712 203.771C174.089 203.771 175.222 204.904 175.222 206.282Z" fill="#F3C58A"/>
<path d="M113.267 58.2236C113.267 59.6009 112.134 60.7338 110.756 60.7338C109.379 60.7338 108.246 59.6009 108.246 58.2236C108.246 56.8463 109.379 55.7134 110.756 55.7134C112.134 55.7134 113.267 56.8463 113.267 58.2236Z" fill="#F3C58A"/>
<path d="M201.124 171.961C201.124 173.338 199.991 174.471 198.614 174.471C197.236 174.471 196.104 173.338 196.104 171.961C196.104 170.584 197.236 169.451 198.614 169.451C199.991 169.451 201.124 170.584 201.124 171.961Z" fill="#F3C58A"/>
<path d="M64.5953 171.539C64.5953 172.916 63.4623 174.049 62.0851 174.049C60.7078 174.049 59.5749 172.916 59.5749 171.539C59.5749 170.161 60.7078 169.028 62.0851 169.028C63.4623 169.028 64.5953 170.161 64.5953 171.539Z" fill="#F3C58A"/>
<path d="M97.5169 70.864C97.5169 72.2412 96.3839 73.3742 95.0067 73.3742C93.6294 73.3742 92.4965 72.2412 92.4965 70.864C92.4965 69.4867 93.6294 68.3538 95.0067 68.3538C96.3839 68.3538 97.5169 69.4867 97.5169 70.864Z" fill="#EB9F3C"/>
<path d="M187.773 74.5512C187.773 75.9285 186.64 77.0614 185.263 77.0614C183.886 77.0614 182.753 75.9285 182.753 74.5512C182.753 73.1739 183.886 72.041 185.263 72.041C186.64 72.041 187.773 73.1739 187.773 74.5512Z" fill="#EB9F3C"/>
<path d="M212.209 156.011C212.209 157.388 211.076 158.521 209.699 158.521C208.321 158.521 207.188 157.388 207.188 156.011C207.188 154.633 208.321 153.5 209.699 153.5C211.076 153.5 212.209 154.633 212.209 156.011Z" fill="#EB9F3C"/>
<path d="M115.977 214.59C115.977 215.967 114.844 217.1 113.467 217.1C112.089 217.1 110.956 215.967 110.956 214.59C110.956 213.213 112.089 212.08 113.467 212.08C114.844 212.08 115.977 213.213 115.977 214.59Z" fill="#EB9F3C"/>
<path d="M201.124 189.444C201.124 190.821 199.991 191.954 198.614 191.954C197.236 191.954 196.104 190.821 196.104 189.444C196.104 188.066 197.236 186.933 198.614 186.933C199.991 186.933 201.124 188.066 201.124 189.444Z" fill="#EB9F3C"/>
<path d="M79.4566 186.933C79.4566 188.311 78.3237 189.443 76.9464 189.443C75.5691 189.443 74.4362 188.311 74.4362 186.933C74.4362 185.556 75.5691 184.423 76.9464 184.423C78.3237 184.423 79.4566 185.556 79.4566 186.933Z" fill="#EB9F3C"/>
<path d="M137.058 214.59C137.058 216.856 135.237 218.677 132.971 218.677C130.705 218.677 128.883 216.856 128.883 214.59C128.883 212.324 130.705 210.502 132.971 210.502C135.237 210.502 137.058 212.324 137.058 214.59Z" fill="#EB9F3C"/>
<path d="M145.144 214.612C148.542 214.612 151.297 211.857 151.297 208.459C151.297 205.06 148.542 202.305 145.144 202.305C141.746 202.305 138.991 205.06 138.991 208.459C138.991 211.857 141.746 214.612 145.144 214.612Z" fill="#EB9F3C"/>
<path d="M79.9675 134.263H77.4128C76.554 134.263 75.8578 134.959 75.8578 135.818V145.393C75.8578 146.251 76.554 146.947 77.4128 146.947H79.9675C80.8263 146.947 81.5225 146.251 81.5225 145.393V135.818C81.5225 134.959 80.8263 134.263 79.9675 134.263Z" fill="#00814C"/>
<path d="M186.529 102.741H183.975C183.116 102.741 182.42 103.438 182.42 104.296V113.871C182.42 114.73 183.116 115.426 183.975 115.426H186.529C187.388 115.426 188.084 114.73 188.084 113.871V104.296C188.084 103.438 187.388 102.741 186.529 102.741Z" fill="#00814C"/>
<path d="M155.031 55.7971L153.224 53.9907C152.617 53.3834 151.632 53.3834 151.025 53.9907L144.255 60.7607C143.648 61.368 143.648 62.3526 144.255 62.9598L146.061 64.7662C146.669 65.3735 147.653 65.3735 148.261 64.7662L155.031 57.9962C155.638 57.3889 155.638 56.4043 155.031 55.7971Z" fill="#00814C"/>
<path d="M166.381 140.772V143.327C166.381 144.186 167.077 144.882 167.936 144.882H177.51C178.369 144.882 179.065 144.186 179.065 143.327V140.772C179.065 139.913 178.369 139.217 177.51 139.217H167.936C167.077 139.217 166.381 139.913 166.381 140.772Z" fill="#00814C"/>
<path d="M163.092 203.784L164.899 205.59C165.506 206.198 166.49 206.198 167.098 205.59L173.868 198.82C174.475 198.213 174.475 197.228 173.868 196.621L172.061 194.815C171.454 194.208 170.469 194.208 169.862 194.815L163.092 201.585C162.485 202.192 162.485 203.177 163.092 203.784Z" fill="#00814C"/>
<path d="M96.3149 74.1719L94.5085 75.9783C93.9013 76.5856 93.9013 77.5702 94.5085 78.1774L101.279 84.9475C101.886 85.5548 102.87 85.5548 103.478 84.9475L105.284 83.1411C105.891 82.5338 105.891 81.5493 105.284 80.942L98.514 74.1719C97.9068 73.5647 96.9222 73.5647 96.3149 74.1719Z" fill="#00814C"/>
<path d="M112.536 188.985L110.73 190.791C110.123 191.398 110.123 192.383 110.73 192.99L117.5 199.76C118.107 200.368 119.092 200.368 119.699 199.76L121.505 197.954C122.113 197.347 122.113 196.362 121.505 195.755L114.735 188.985C114.128 188.377 113.144 188.377 112.536 188.985Z" fill="#00814C"/>
<path d="M124.625 144.794L126.431 146.6C127.038 147.208 128.023 147.208 128.63 146.6L135.4 139.83C136.008 139.223 136.008 138.239 135.4 137.631L133.594 135.825C132.987 135.218 132.002 135.218 131.395 135.825L124.625 142.595C124.017 143.202 124.017 144.187 124.625 144.794Z" fill="#00814C"/>
<path opacity="0.1" d="M135.436 32.167C102.893 32.167 73.9031 47.2282 54.9766 70.7531C72.6813 56.4916 95.1621 47.9613 119.664 47.9613C176.688 47.9613 222.938 94.1891 222.938 151.235C222.938 175.737 214.386 198.218 200.146 215.923C223.671 196.996 238.733 167.985 238.733 135.463C238.733 78.4392 192.505 32.1892 135.459 32.1892L135.436 32.167Z" fill="black"/>
</svg>
