<svg width="269" height="269" viewBox="0 0 269 269" fill="none" xmlns="http://www.w3.org/2000/svg">
<circle cx="120.84" cy="152.474" r="112.298" fill="black"/>
<path d="M26.0098 109.271C39.7128 49.5847 99.207 12.3068 158.894 26.0096C218.58 39.7126 255.858 99.2076 242.155 158.894C228.452 218.581 168.957 255.858 109.271 242.155C49.5841 228.452 12.307 168.958 26.0098 109.271Z" fill="#EBEEEE" stroke="black" stroke-width="2"/>
<path d="M134.089 215.124C178.841 215.124 215.121 178.845 215.121 134.092C215.121 89.3393 178.841 53.0601 134.089 53.0601C89.3361 53.0601 53.0569 89.3393 53.0569 134.092C53.0569 178.845 89.3361 215.124 134.089 215.124Z" fill="#E5E8E8"/>
<path d="M146.609 54.5333C142.389 56.0262 132.456 56.9617 126.206 54.5333C119.956 52.1049 103.595 51.5078 94.4983 62.4156C85.4018 73.3233 86.0189 78.4786 76.3253 84.5296C66.6318 90.5806 52.6587 99.0401 53.5743 114.207C54.4899 129.375 61.775 129.673 62.3722 144.224C62.9693 158.774 58.431 162.098 63.8849 173.902C69.3388 185.725 81.1423 183.595 93.5628 190.263C105.983 196.931 104.769 202.923 111.736 209.013C118.702 215.104 130.446 217.732 143.245 211.78C156.024 205.809 158.392 197.847 170.216 193.309C182.039 188.77 189.603 189.985 198.082 180.888C206.562 171.792 204.034 157.221 207.656 146.911C211.279 136.6 216.892 126.429 214.464 110.903C212.632 99.1994 211.398 94.5417 196.251 84.251C181.103 73.9603 183.83 67.133 178.675 60.7635C173.52 54.394 156.86 50.9306 146.569 54.5731L146.609 54.5333Z" fill="#EBAF3C"/>
<path d="M89.0843 80.5486C89.0843 80.5486 84.2275 83.5741 83.2323 86.5996" stroke="#FFD800" stroke-width="7.53061" stroke-miterlimit="10" stroke-linecap="round"/>
<path d="M88.0094 90.6401C88.0094 90.6401 83.3119 95.4969 78.913 96.3926" stroke="#FFD800" stroke-width="7.53061" stroke-miterlimit="10" stroke-linecap="round"/>
<path d="M67.2687 99.438C67.2687 99.438 64.5418 106.106 64.8403 110.943" stroke="#FFD800" stroke-width="7.53061" stroke-miterlimit="10" stroke-linecap="round"/>
<path d="M74.8325 109.43V120.636" stroke="#FFD800" stroke-width="7.53061" stroke-miterlimit="10" stroke-linecap="round"/>
<path d="M59.1875 122.149L55.5449 132.261" stroke="#FFD800" stroke-width="7.53061" stroke-miterlimit="10" stroke-linecap="round"/>
<path d="M66.0546 124.976C66.0546 124.976 66.8707 131.465 68.2839 134.072" stroke="#FFD800" stroke-width="7.53061" stroke-miterlimit="10" stroke-linecap="round"/>
<path d="M66.6716 141.337L66.0546 148.065" stroke="#FFD800" stroke-width="7.53061" stroke-miterlimit="10" stroke-linecap="round"/>
<path d="M64.8405 158.913L66.6717 167.791" stroke="#FFD800" stroke-width="7.53061" stroke-miterlimit="10" stroke-linecap="round"/>
<path d="M74.8325 145.995L73.1207 157.102" stroke="#FFD800" stroke-width="7.53061" stroke-miterlimit="10" stroke-linecap="round"/>
<path d="M96.9465 68.8447C96.9465 68.8447 100.888 65.2021 104.51 64.3064" stroke="#FFD800" stroke-width="7.53061" stroke-miterlimit="10" stroke-linecap="round"/>
<path d="M101.604 74.2983L96.9465 83.5739" stroke="#FFD800" stroke-width="7.53061" stroke-miterlimit="10" stroke-linecap="round"/>
<path d="M86.1582 102.165C86.1582 102.165 82.8341 107.818 82.4161 110.943" stroke="#FFD800" stroke-width="7.53061" stroke-miterlimit="10" stroke-linecap="round"/>
<path d="M74.8325 173.961C74.8325 173.961 78.4751 180.629 82.3963 182.142" stroke="#FFD800" stroke-width="7.53061" stroke-miterlimit="10" stroke-linecap="round"/>
<path d="M82.4162 157.102C82.4162 157.102 80.9035 165.183 82.4162 169.124" stroke="#FFD800" stroke-width="7.53061" stroke-miterlimit="10" stroke-linecap="round"/>
<path d="M83.2322 124.976C83.2322 124.976 80.9034 131.843 76.9623 135.784" stroke="#FFD800" stroke-width="7.53061" stroke-miterlimit="10" stroke-linecap="round"/>
<path d="M90.2984 135.784C90.2984 135.784 89.7012 143.965 91.5126 148.045" stroke="#FFD800" stroke-width="7.53061" stroke-miterlimit="10" stroke-linecap="round"/>
<path d="M104.53 91.5559C104.53 91.5559 100.45 96.2534 96.9664 97.3084" stroke="#FFD800" stroke-width="7.53061" stroke-miterlimit="10" stroke-linecap="round"/>
<path d="M99.992 105.19L94.5381 112.058" stroke="#FFD800" stroke-width="7.53061" stroke-miterlimit="10" stroke-linecap="round"/>
<path d="M102.818 120.636C102.818 120.636 99.5939 125.792 94.5381 127.205" stroke="#FFD800" stroke-width="7.53061" stroke-miterlimit="10" stroke-linecap="round"/>
<path d="M119.777 61.1614C119.777 61.1614 114.921 65.003 113.308 68.8446" stroke="#FFD800" stroke-width="7.53061" stroke-miterlimit="10" stroke-linecap="round"/>
<path d="M112.313 80.5485C112.313 80.5485 119.379 76.906 121.608 74.2786" stroke="#FFD800" stroke-width="7.53061" stroke-miterlimit="10" stroke-linecap="round"/>
<path d="M119.777 87.9333C119.777 87.9333 116.453 93.6858 112.313 96.4127" stroke="#FFD800" stroke-width="7.53061" stroke-miterlimit="10" stroke-linecap="round"/>
<path d="M109.069 56.424C109.069 56.424 113.527 52.1246 118.046 51.2488" stroke="#FFD800" stroke-width="7.53061" stroke-miterlimit="10" stroke-linecap="round"/>
<path d="M90.8557 72.925C90.8557 72.925 87.7307 74.2786 82.4161 74.2786" stroke="#FFD800" stroke-width="7.53061" stroke-miterlimit="10" stroke-linecap="round"/>
<path d="M110.9 112.057L118.046 103.976" stroke="#FFD800" stroke-width="7.53061" stroke-miterlimit="10" stroke-linecap="round"/>
<path d="M101.405 146.99C101.405 146.99 100.39 154.872 97.265 158.097" stroke="#FFD800" stroke-width="7.53061" stroke-miterlimit="10" stroke-linecap="round"/>
<path d="M91.5126 170.617L97.265 182.142" stroke="#FFD800" stroke-width="7.53061" stroke-miterlimit="10" stroke-linecap="round"/>
<path d="M105.645 135.784L110.9 128.021" stroke="#FFD800" stroke-width="7.53061" stroke-miterlimit="10" stroke-linecap="round"/>
<path d="M118.046 119.124C118.046 119.124 119.678 125.692 123.32 128.001" stroke="#FFD800" stroke-width="7.53061" stroke-miterlimit="10" stroke-linecap="round"/>
<path d="M114.463 141.915C114.463 141.915 112.094 146.592 116.035 152.544" stroke="#FFD800" stroke-width="7.53061" stroke-miterlimit="10" stroke-linecap="round"/>
<path d="M87.5316 81.6433C86.7952 82.2006 85.8995 82.9371 85.1033 83.7731" stroke="#FFE866" stroke-width="7.53061" stroke-miterlimit="10" stroke-linecap="round"/>
<path d="M84.4862 93.6658C83.6303 94.2828 82.6749 94.8999 81.6797 95.3975" stroke="#FFE866" stroke-width="7.53061" stroke-miterlimit="10" stroke-linecap="round"/>
<path d="M66.5522 101.428C66.174 102.583 65.6963 104.115 65.3579 105.767" stroke="#FFE866" stroke-width="7.53061" stroke-miterlimit="10" stroke-linecap="round"/>
<path d="M74.8325 111.401V114.784" stroke="#FFE866" stroke-width="7.53061" stroke-miterlimit="10" stroke-linecap="round"/>
<path d="M58.3316 124.518L56.8785 128.578" stroke="#FFE866" stroke-width="7.53061" stroke-miterlimit="10" stroke-linecap="round"/>
<path d="M66.7313 129.096C66.9105 130.012 67.1493 130.967 67.4081 131.823" stroke="#FFE866" stroke-width="7.53061" stroke-miterlimit="10" stroke-linecap="round"/>
<path d="M66.6716 141.337L66.4128 144.144" stroke="#FFE866" stroke-width="7.53061" stroke-miterlimit="10" stroke-linecap="round"/>
<path d="M65.4375 161.779L66.0545 164.805" stroke="#FFE866" stroke-width="7.53061" stroke-miterlimit="10" stroke-linecap="round"/>
<path d="M74.4543 148.443L73.5586 154.275" stroke="#FFE866" stroke-width="7.53061" stroke-miterlimit="10" stroke-linecap="round"/>
<path d="M98.3798 67.6503C99.3551 66.8939 100.729 65.9186 102.201 65.1821" stroke="#FFE866" stroke-width="7.53061" stroke-miterlimit="10" stroke-linecap="round"/>
<path d="M100.748 76.01L99.6736 78.1199" stroke="#FFE866" stroke-width="7.53061" stroke-miterlimit="10" stroke-linecap="round"/>
<path d="M84.765 104.713C84.347 105.549 83.8693 106.504 83.4712 107.479" stroke="#FFE866" stroke-width="7.53061" stroke-miterlimit="10" stroke-linecap="round"/>
<path d="M77.7784 178.28C78.4353 179.076 79.1718 179.893 79.9481 180.569" stroke="#FFE866" stroke-width="7.53061" stroke-miterlimit="10" stroke-linecap="round"/>
<path d="M82.0381 159.65C81.8987 160.744 81.7793 162.098 81.7395 163.491" stroke="#FFE866" stroke-width="7.53061" stroke-miterlimit="10" stroke-linecap="round"/>
<path d="M82.3564 127.185C81.819 128.419 81.0427 130.052 80.0674 131.684" stroke="#FFE866" stroke-width="7.53061" stroke-miterlimit="10" stroke-linecap="round"/>
<path d="M90.2386 140.78C90.2984 142.373 90.4576 144.124 90.7761 145.697" stroke="#FFE866" stroke-width="7.53061" stroke-miterlimit="10" stroke-linecap="round"/>
<path d="M103.774 92.3718C103.296 92.8694 102.599 93.5462 101.803 94.2429" stroke="#FFE866" stroke-width="7.53061" stroke-miterlimit="10" stroke-linecap="round"/>
<path d="M97.0063 108.952L95.4139 110.943" stroke="#FFE866" stroke-width="7.53061" stroke-miterlimit="10" stroke-linecap="round"/>
<path d="M100.748 123.204C100.052 123.941 99.1759 124.717 98.1807 125.434" stroke="#FFE866" stroke-width="7.53061" stroke-miterlimit="10" stroke-linecap="round"/>
<path d="M118.225 62.5349C117.568 63.152 116.752 63.9481 115.975 64.8439" stroke="#FFE866" stroke-width="7.53061" stroke-miterlimit="10" stroke-linecap="round"/>
<path d="M115.538 78.7573C116.772 78.0208 118.165 77.145 119.379 76.2493" stroke="#FFE866" stroke-width="7.53061" stroke-miterlimit="10" stroke-linecap="round"/>
<path d="M118.046 90.5405C117.488 91.3168 116.811 92.1727 116.055 93.0485" stroke="#FFE866" stroke-width="7.53061" stroke-miterlimit="10" stroke-linecap="round"/>
<path d="M113.587 53.0601C114.94 52.2639 116.493 51.5473 118.046 51.2488" stroke="#FFE866" stroke-width="7.53061" stroke-miterlimit="10" stroke-linecap="round"/>
<path d="M90.8557 72.925C90.8557 72.925 89.7411 73.4028 87.7307 73.8009" stroke="#FFE866" stroke-width="7.53061" stroke-miterlimit="10" stroke-linecap="round"/>
<path d="M114.303 108.196L116.732 105.469" stroke="#FFE866" stroke-width="7.53061" stroke-miterlimit="10" stroke-linecap="round"/>
<path d="M101.087 148.782C100.848 149.976 100.47 151.628 99.8925 153.28" stroke="#FFE866" stroke-width="7.53061" stroke-miterlimit="10" stroke-linecap="round"/>
<path d="M92.4879 172.587L94.3789 176.389" stroke="#FFE866" stroke-width="7.53061" stroke-miterlimit="10" stroke-linecap="round"/>
<path d="M107.317 133.296L109.367 130.29" stroke="#FFE866" stroke-width="7.53061" stroke-miterlimit="10" stroke-linecap="round"/>
<path d="M118.722 121.234C119.041 122.09 119.479 123.125 120.036 124.14" stroke="#FFE866" stroke-width="7.53061" stroke-miterlimit="10" stroke-linecap="round"/>
<path d="M113.866 144.044C113.746 144.9 113.686 145.995 113.885 147.249" stroke="#FFE866" stroke-width="7.53061" stroke-miterlimit="10" stroke-linecap="round"/>
<path d="M158.89 192.89C158.89 192.89 164.503 191.855 166.553 189.387" stroke="#FFD800" stroke-width="7.53061" stroke-miterlimit="10" stroke-linecap="round"/>
<path d="M163.568 183.874C163.568 183.874 169.718 181.087 174.137 181.843" stroke="#FFD800" stroke-width="7.53061" stroke-miterlimit="10" stroke-linecap="round"/>
<path d="M186.1 183.296C186.1 183.296 191.076 178.101 192.569 173.463" stroke="#FFD800" stroke-width="7.53061" stroke-miterlimit="10" stroke-linecap="round"/>
<path d="M182.716 171.234L186.816 160.804" stroke="#FFD800" stroke-width="7.53061" stroke-miterlimit="10" stroke-linecap="round"/>
<path d="M201.944 165.123L209.01 157.042" stroke="#FFD800" stroke-width="7.53061" stroke-miterlimit="10" stroke-linecap="round"/>
<path d="M196.589 159.968C196.589 159.968 198.202 153.619 197.843 150.673" stroke="#FFD800" stroke-width="7.53061" stroke-miterlimit="10" stroke-linecap="round"/>
<path d="M202.003 144.522L205.049 138.51" stroke="#FFD800" stroke-width="7.53061" stroke-miterlimit="10" stroke-linecap="round"/>
<path d="M210.125 128.837L211.697 119.9" stroke="#FFD800" stroke-width="7.53061" stroke-miterlimit="10" stroke-linecap="round"/>
<path d="M196.092 137.217L201.765 127.503" stroke="#FFD800" stroke-width="7.53061" stroke-miterlimit="10" stroke-linecap="round"/>
<path d="M147.266 200.912C147.266 200.912 142.27 202.863 138.547 202.365" stroke="#FFD800" stroke-width="7.53061" stroke-miterlimit="10" stroke-linecap="round"/>
<path d="M142.19 190.661L149.913 183.714" stroke="#FFD800" stroke-width="7.53061" stroke-miterlimit="10" stroke-linecap="round"/>
<path d="M169.519 173.842C169.519 173.842 174.694 169.801 176.207 167.034" stroke="#FFD800" stroke-width="7.53061" stroke-miterlimit="10" stroke-linecap="round"/>
<path d="M206.343 111.182C206.343 111.182 205.407 103.658 202.282 100.792" stroke="#FFD800" stroke-width="7.53061" stroke-miterlimit="10" stroke-linecap="round"/>
<path d="M193.106 124.1C193.106 124.1 197.465 117.133 197.505 112.914" stroke="#FFD800" stroke-width="7.53061" stroke-miterlimit="10" stroke-linecap="round"/>
<path d="M180.606 153.678C180.606 153.678 185.283 148.145 190.379 145.916" stroke="#FFD800" stroke-width="7.53061" stroke-miterlimit="10" stroke-linecap="round"/>
<path d="M177.979 141.039C177.979 141.039 181.541 133.654 181.342 129.176" stroke="#FFD800" stroke-width="7.53061" stroke-miterlimit="10" stroke-linecap="round"/>
<path d="M148.54 176.987C148.54 176.987 154.073 174.12 157.696 174.399" stroke="#FFD800" stroke-width="7.53061" stroke-miterlimit="10" stroke-linecap="round"/>
<path d="M157.755 165.96L165.359 161.581" stroke="#FFD800" stroke-width="7.53061" stroke-miterlimit="10" stroke-linecap="round"/>
<path d="M160.781 150.553C160.781 150.553 165.677 146.95 170.892 147.468" stroke="#FFD800" stroke-width="7.53061" stroke-miterlimit="10" stroke-linecap="round"/>
<path d="M123.221 199.698C123.221 199.698 129.133 197.906 132.039 194.921" stroke="#FFD800" stroke-width="7.53061" stroke-miterlimit="10" stroke-linecap="round"/>
<path d="M133.113 158.774C133.113 158.774 125.211 159.57 122.186 161.202" stroke="#FFD800" stroke-width="7.53061" stroke-miterlimit="10" stroke-linecap="round"/>
<path d="M133.014 174.797C133.014 174.797 138.229 170.657 143.066 169.642" stroke="#FFD800" stroke-width="7.53061" stroke-miterlimit="10" stroke-linecap="round"/>
<path d="M131.441 208.018C131.441 208.018 125.729 210.387 121.21 209.551" stroke="#FFD800" stroke-width="7.53061" stroke-miterlimit="10" stroke-linecap="round"/>
<path d="M154.451 199.34C154.451 199.34 157.875 199.22 162.791 201.151" stroke="#FFD800" stroke-width="7.53061" stroke-miterlimit="10" stroke-linecap="round"/>
<path d="M150.132 155.589L140.518 160.486" stroke="#FFD800" stroke-width="7.53061" stroke-miterlimit="10" stroke-linecap="round"/>
<path d="M171.748 126.548C171.748 126.548 175.57 119.582 179.67 117.73" stroke="#FFD800" stroke-width="7.53061" stroke-miterlimit="10" stroke-linecap="round"/>
<path d="M189.603 108.176L188.468 95.3574" stroke="#FFD800" stroke-width="7.53061" stroke-miterlimit="10" stroke-linecap="round"/>
<path d="M163.707 135.426L155.964 140.74" stroke="#FFD800" stroke-width="7.53061" stroke-miterlimit="10" stroke-linecap="round"/>
<path d="M146.071 146.393C146.071 146.393 146.947 139.685 144.419 136.202" stroke="#FFD800" stroke-width="7.53061" stroke-miterlimit="10" stroke-linecap="round"/>
<path d="M157.735 126.488C157.735 126.488 161.637 123.005 160.164 116.019" stroke="#FFD800" stroke-width="7.53061" stroke-miterlimit="10" stroke-linecap="round"/>
<path d="M160.721 192.453C161.617 192.194 162.712 191.836 163.747 191.358" stroke="#FFE866" stroke-width="7.53061" stroke-miterlimit="10" stroke-linecap="round"/>
<path d="M167.967 182.36C168.982 182.102 170.096 181.883 171.211 181.783" stroke="#FFE866" stroke-width="7.53061" stroke-miterlimit="10" stroke-linecap="round"/>
<path d="M187.513 181.704C188.289 180.769 189.284 179.515 190.22 178.101" stroke="#FFE866" stroke-width="7.53061" stroke-miterlimit="10" stroke-linecap="round"/>
<path d="M183.432 169.403L184.666 166.238" stroke="#FFE866" stroke-width="7.53061" stroke-miterlimit="10" stroke-linecap="round"/>
<path d="M203.596 163.232L206.442 159.988" stroke="#FFE866" stroke-width="7.53061" stroke-miterlimit="10" stroke-linecap="round"/>
<path d="M197.445 155.908C197.604 154.992 197.744 154.017 197.823 153.121" stroke="#FFE866" stroke-width="7.53061" stroke-miterlimit="10" stroke-linecap="round"/>
<path d="M202.003 144.522L203.277 142.014" stroke="#FFE866" stroke-width="7.53061" stroke-miterlimit="10" stroke-linecap="round"/>
<path d="M210.642 125.951L211.159 122.906" stroke="#FFE866" stroke-width="7.53061" stroke-miterlimit="10" stroke-linecap="round"/>
<path d="M197.346 135.048L200.312 129.972" stroke="#FFE866" stroke-width="7.53061" stroke-miterlimit="10" stroke-linecap="round"/>
<path d="M145.514 201.489C144.34 201.828 142.687 202.246 141.055 202.385" stroke="#FFE866" stroke-width="7.53061" stroke-miterlimit="10" stroke-linecap="round"/>
<path d="M143.623 189.367L145.375 187.795" stroke="#FFE866" stroke-width="7.53061" stroke-miterlimit="10" stroke-linecap="round"/>
<path d="M171.748 171.97C172.445 171.353 173.241 170.617 173.958 169.861" stroke="#FFE866" stroke-width="7.53061" stroke-miterlimit="10" stroke-linecap="round"/>
<path d="M205.188 106.086C204.87 105.091 204.472 104.076 203.994 103.16" stroke="#FFE866" stroke-width="7.53061" stroke-miterlimit="10" stroke-linecap="round"/>
<path d="M194.4 121.871C194.917 120.895 195.534 119.681 196.072 118.407" stroke="#FFE866" stroke-width="7.53061" stroke-miterlimit="10" stroke-linecap="round"/>
<path d="M182.218 151.966C183.174 151.011 184.487 149.777 186 148.622" stroke="#FFE866" stroke-width="7.53061" stroke-miterlimit="10" stroke-linecap="round"/>
<path d="M179.869 136.421C180.387 134.908 180.904 133.236 181.163 131.644" stroke="#FFE866" stroke-width="7.53061" stroke-miterlimit="10" stroke-linecap="round"/>
<path d="M172.445 109.908C172.445 109.908 176.008 102.523 175.809 98.0447" stroke="#FFD800" stroke-width="7.53061" stroke-miterlimit="10" stroke-linecap="round"/>
<path d="M174.336 105.27C174.853 103.757 175.371 102.085 175.63 100.493" stroke="#FFE866" stroke-width="7.53061" stroke-miterlimit="10" stroke-linecap="round"/>
<path d="M198.64 93.6456C198.64 93.6456 202.202 86.261 202.003 81.7825" stroke="#FFD800" stroke-width="7.53061" stroke-miterlimit="10" stroke-linecap="round"/>
<path d="M200.531 89.0081C201.048 87.4953 201.566 85.8233 201.824 84.231" stroke="#FFE866" stroke-width="7.53061" stroke-miterlimit="10" stroke-linecap="round"/>
<path d="M149.535 176.509C150.172 176.21 151.047 175.832 152.043 175.474" stroke="#FFE866" stroke-width="7.53061" stroke-miterlimit="10" stroke-linecap="round"/>
<path d="M161.915 163.571L164.125 162.277" stroke="#FFE866" stroke-width="7.53061" stroke-miterlimit="10" stroke-linecap="round"/>
<path d="M163.647 148.921C164.563 148.503 165.657 148.085 166.852 147.786" stroke="#FFE866" stroke-width="7.53061" stroke-miterlimit="10" stroke-linecap="round"/>
<path d="M149.535 108.395C149.535 108.395 154.431 104.792 159.646 105.31" stroke="#FFD800" stroke-width="7.53061" stroke-miterlimit="10" stroke-linecap="round"/>
<path d="M152.401 106.763C153.317 106.345 154.411 105.927 155.606 105.629" stroke="#FFE866" stroke-width="7.53061" stroke-miterlimit="10" stroke-linecap="round"/>
<path d="M125.171 199.001C126.007 198.663 127.062 198.225 128.097 197.668" stroke="#FFE866" stroke-width="7.53061" stroke-miterlimit="10" stroke-linecap="round"/>
<path d="M129.431 159.251C128.018 159.47 126.386 159.789 124.953 160.167" stroke="#FFE866" stroke-width="7.53061" stroke-miterlimit="10" stroke-linecap="round"/>
<path d="M135.601 172.986C136.398 172.468 137.353 171.911 138.368 171.393" stroke="#FFE866" stroke-width="7.53061" stroke-miterlimit="10" stroke-linecap="round"/>
<path d="M126.027 209.511C124.475 209.75 122.763 209.849 121.21 209.571" stroke="#FFE866" stroke-width="7.53061" stroke-miterlimit="10" stroke-linecap="round"/>
<path d="M154.451 199.34C154.451 199.34 155.665 199.3 157.676 199.678" stroke="#FFE866" stroke-width="7.53061" stroke-miterlimit="10" stroke-linecap="round"/>
<path d="M145.534 157.918L142.289 159.59" stroke="#FFE866" stroke-width="7.53061" stroke-miterlimit="10" stroke-linecap="round"/>
<path d="M107.397 181.326C107.397 181.326 107.695 187.536 105.924 190.721" stroke="#FFD800" stroke-width="7.53061" stroke-miterlimit="10" stroke-linecap="round"/>
<path d="M113.547 194.303L114.363 203.042" stroke="#FFD800" stroke-width="7.53061" stroke-miterlimit="10" stroke-linecap="round"/>
<path d="M115.876 168.149C115.876 168.149 117.448 174.618 116.354 179.435" stroke="#FFD800" stroke-width="7.53061" stroke-miterlimit="10" stroke-linecap="round"/>
<path d="M126.167 191.716L125.749 180.948" stroke="#FFD800" stroke-width="7.53061" stroke-miterlimit="10" stroke-linecap="round"/>
<path d="M107.416 182.441C107.416 183.137 107.397 184.093 107.297 185.148" stroke="#FFE866" stroke-width="7.53061" stroke-miterlimit="10" stroke-linecap="round"/>
<path d="M114.005 199.081L114.244 201.629" stroke="#FFE866" stroke-width="7.53061" stroke-miterlimit="10" stroke-linecap="round"/>
<path d="M116.433 171.234C116.553 172.17 116.672 173.264 116.712 174.419" stroke="#FFE866" stroke-width="7.53061" stroke-miterlimit="10" stroke-linecap="round"/>
<path d="M110.9 165.92C110.9 165.92 105.426 169.702 100.51 170.378" stroke="#FFD800" stroke-width="7.53061" stroke-miterlimit="10" stroke-linecap="round"/>
<path d="M108.213 167.532C107.377 167.99 106.401 168.487 105.326 168.945" stroke="#FFE866" stroke-width="7.53061" stroke-miterlimit="10" stroke-linecap="round"/>
<path d="M125.968 186.561L125.828 182.918" stroke="#FFE866" stroke-width="7.53061" stroke-miterlimit="10" stroke-linecap="round"/>
<path d="M163.289 98.1043C163.289 98.1043 168.464 94.0636 169.977 91.2969" stroke="#FFD800" stroke-width="7.53061" stroke-miterlimit="10" stroke-linecap="round"/>
<path d="M151.525 90.2222L159.109 85.8232" stroke="#FFD800" stroke-width="7.53061" stroke-miterlimit="10" stroke-linecap="round"/>
<path d="M126.784 99.0398C126.784 99.0398 131.999 94.8997 136.836 93.8845" stroke="#FFD800" stroke-width="7.53061" stroke-miterlimit="10" stroke-linecap="round"/>
<path d="M143.882 79.832L134.288 84.7286" stroke="#FFD800" stroke-width="7.53061" stroke-miterlimit="10" stroke-linecap="round"/>
<path d="M165.518 96.2334C166.215 95.6164 167.011 94.8799 167.728 94.1235" stroke="#FFE866" stroke-width="7.53061" stroke-miterlimit="10" stroke-linecap="round"/>
<path d="M132.258 112.356C132.258 112.356 137.433 108.315 138.946 105.549" stroke="#FFD800" stroke-width="7.53061" stroke-miterlimit="10" stroke-linecap="round"/>
<path d="M134.467 110.485C135.164 109.868 135.96 109.132 136.676 108.375" stroke="#FFE866" stroke-width="7.53061" stroke-miterlimit="10" stroke-linecap="round"/>
<path d="M155.685 87.8137L157.895 86.5398" stroke="#FFE866" stroke-width="7.53061" stroke-miterlimit="10" stroke-linecap="round"/>
<path d="M129.351 97.2486C130.148 96.7311 131.103 96.1738 132.118 95.6562" stroke="#FFE866" stroke-width="7.53061" stroke-miterlimit="10" stroke-linecap="round"/>
<path d="M139.304 82.1807L136.039 83.8328" stroke="#FFE866" stroke-width="7.53061" stroke-miterlimit="10" stroke-linecap="round"/>
<path d="M172.684 124.995C173.341 123.96 174.296 122.567 175.431 121.253" stroke="#FFE866" stroke-width="7.53061" stroke-miterlimit="10" stroke-linecap="round"/>
<path d="M142.09 126.548C142.09 126.548 145.912 119.582 150.012 117.73" stroke="#FFD800" stroke-width="7.53061" stroke-miterlimit="10" stroke-linecap="round"/>
<path d="M143.026 124.995C143.683 123.96 144.638 122.567 145.773 121.253" stroke="#FFE866" stroke-width="7.53061" stroke-miterlimit="10" stroke-linecap="round"/>
<path d="M189.424 105.987L189.046 101.767" stroke="#FFE866" stroke-width="7.53061" stroke-miterlimit="10" stroke-linecap="round"/>
<path d="M193.604 80.3893C193.604 80.3893 192.668 72.8653 189.543 69.999" stroke="#FFD800" stroke-width="7.53061" stroke-miterlimit="10" stroke-linecap="round"/>
<path d="M180.387 93.3075C180.387 93.3075 184.746 86.3409 184.786 82.1211" stroke="#FFD800" stroke-width="7.53061" stroke-miterlimit="10" stroke-linecap="round"/>
<path d="M176.884 77.3838L175.729 64.5652" stroke="#FFD800" stroke-width="7.53061" stroke-miterlimit="10" stroke-linecap="round"/>
<path d="M192.449 75.2937C192.131 74.2984 191.733 73.2833 191.255 72.3677" stroke="#FFE866" stroke-width="7.53061" stroke-miterlimit="10" stroke-linecap="round"/>
<path d="M181.661 91.0782C182.178 90.1028 182.795 88.8886 183.333 87.6147" stroke="#FFE866" stroke-width="7.53061" stroke-miterlimit="10" stroke-linecap="round"/>
<path d="M176.685 75.1944L176.306 70.9746" stroke="#FFE866" stroke-width="7.53061" stroke-miterlimit="10" stroke-linecap="round"/>
<path d="M166.016 60.3052L158.552 55.1499" stroke="#FFD800" stroke-width="7.53061" stroke-miterlimit="10" stroke-linecap="round"/>
<path d="M167.747 76.5476L161.298 67.3318" stroke="#FFD800" stroke-width="7.53061" stroke-miterlimit="10" stroke-linecap="round"/>
<path d="M148.38 56.3643C148.38 56.3643 141.135 54.0753 137.254 55.7074" stroke="#FFD800" stroke-width="7.53061" stroke-miterlimit="10" stroke-linecap="round"/>
<path d="M154.591 73.7807C154.591 73.7807 150.092 66.8937 146.27 65.1023" stroke="#FFD800" stroke-width="7.53061" stroke-miterlimit="10" stroke-linecap="round"/>
<path d="M138.667 70.2976L126.545 65.9783" stroke="#FFD800" stroke-width="7.53061" stroke-miterlimit="10" stroke-linecap="round"/>
<path d="M163.607 58.6337L161.06 56.8821" stroke="#FFE866" stroke-width="7.53061" stroke-miterlimit="10" stroke-linecap="round"/>
<path d="M166.314 74.4973L162.931 69.6804" stroke="#FFE866" stroke-width="7.53061" stroke-miterlimit="10" stroke-linecap="round"/>
<path d="M143.265 55.2695C142.23 55.1501 141.155 55.0705 140.1 55.1302" stroke="#FFE866" stroke-width="7.53061" stroke-miterlimit="10" stroke-linecap="round"/>
<path d="M153.098 71.6709C152.421 70.7951 151.585 69.7202 150.649 68.7051" stroke="#FFE866" stroke-width="7.53061" stroke-miterlimit="10" stroke-linecap="round"/>
<path d="M136.597 69.5609L132.616 68.1477" stroke="#FFE866" stroke-width="7.53061" stroke-miterlimit="10" stroke-linecap="round"/>
<path d="M161.219 137.137L158.233 139.188" stroke="#FFE866" stroke-width="7.53061" stroke-miterlimit="10" stroke-linecap="round"/>
<path d="M128.097 148.344C128.097 148.344 132.994 144.741 138.209 145.259" stroke="#FFD800" stroke-width="7.53061" stroke-miterlimit="10" stroke-linecap="round"/>
<path d="M131.023 133.216L123.281 138.531" stroke="#FFD800" stroke-width="7.53061" stroke-miterlimit="10" stroke-linecap="round"/>
<path d="M130.964 146.712C131.879 146.294 132.974 145.876 134.168 145.577" stroke="#FFE866" stroke-width="7.53061" stroke-miterlimit="10" stroke-linecap="round"/>
<path d="M128.535 134.928L125.55 136.978" stroke="#FFE866" stroke-width="7.53061" stroke-miterlimit="10" stroke-linecap="round"/>
<path d="M146.211 144.184C146.211 143.268 146.211 142.153 146.051 140.999" stroke="#FFE866" stroke-width="7.53061" stroke-miterlimit="10" stroke-linecap="round"/>
<path d="M159.069 124.737C159.507 123.981 159.945 122.986 160.224 121.751" stroke="#FFE866" stroke-width="7.53061" stroke-miterlimit="10" stroke-linecap="round"/>
<path d="M86.9147 114.267H77.7984C67.5276 114.267 59.1875 105.907 59.1875 95.6563C59.1875 85.4054 67.5475 77.0454 77.7984 77.0454H86.9147C97.1855 77.0454 105.526 85.4054 105.526 95.6563C105.526 105.907 97.1656 114.267 86.9147 114.267ZM77.7984 89.1474C74.2155 89.1474 71.3094 92.0535 71.3094 95.6563C71.3094 99.259 74.2155 102.165 77.7984 102.165H86.9147C90.4975 102.165 93.4036 99.259 93.4036 95.6563C93.4036 92.0535 90.4975 89.1474 86.9147 89.1474H77.7984Z" fill="#F56462"/>
<path d="M86.9146 111.839H77.7982C68.861 111.839 61.5958 104.573 61.5958 95.6362C61.5958 86.699 68.861 79.4338 77.7982 79.4338H86.9146C95.8517 79.4338 103.117 86.699 103.117 95.6362C103.117 104.573 95.8517 111.839 86.9146 111.839ZM77.7982 86.7189C72.8818 86.7189 68.8809 90.7198 68.8809 95.6362C68.8809 100.553 72.8818 104.554 77.7982 104.554H86.9146C91.831 104.554 95.8318 100.553 95.8318 95.6362C95.8318 90.7198 91.831 86.7189 86.9146 86.7189H77.7982Z" fill="#FDE0E0"/>
<path d="M190.061 186.422H180.944C170.673 186.422 162.333 178.062 162.333 167.811C162.333 157.56 170.693 149.2 180.944 149.2H190.061C200.331 149.2 208.671 157.56 208.671 167.811C208.671 178.062 200.311 186.422 190.061 186.422ZM180.944 161.302C177.361 161.302 174.455 164.209 174.455 167.811C174.455 171.414 177.361 174.3 180.944 174.3H190.061C193.643 174.3 196.569 171.394 196.569 167.811C196.569 164.228 193.663 161.302 190.061 161.302H180.944Z" fill="#F56462"/>
<path d="M190.061 183.994H180.944C172.007 183.994 164.742 176.728 164.742 167.791C164.742 158.854 172.007 151.589 180.944 151.589H190.061C198.998 151.589 206.263 158.854 206.263 167.791C206.263 176.728 198.998 183.994 190.061 183.994ZM180.944 158.874C176.028 158.874 172.027 162.875 172.027 167.791C172.027 172.708 176.028 176.709 180.944 176.709H190.061C194.977 176.709 198.978 172.708 198.978 167.791C198.978 162.875 194.977 158.874 190.061 158.874H180.944Z" fill="#FDE0E0"/>
<path d="M100.967 181.506L94.5182 175.056C87.253 167.791 87.253 155.988 94.5182 148.723C101.783 141.457 113.587 141.457 120.852 148.723L127.301 155.172C134.566 162.437 134.566 174.24 127.301 181.506C120.036 188.771 108.233 188.771 100.967 181.506ZM112.273 157.301C109.745 154.774 105.625 154.774 103.077 157.301C100.549 159.829 100.549 163.95 103.077 166.497L109.526 172.947C112.054 175.474 116.175 175.474 118.722 172.947C121.25 170.419 121.25 166.298 118.722 163.751L112.273 157.301Z" fill="#F56462"/>
<path d="M102.679 179.794L96.23 173.345C89.9202 167.035 89.9202 156.764 96.23 150.454C102.54 144.144 112.811 144.144 119.12 150.454L125.569 156.903C131.879 163.213 131.879 173.484 125.569 179.814C119.26 186.143 108.989 186.123 102.679 179.814V179.794ZM113.985 155.59C110.502 152.106 104.849 152.106 101.365 155.59C97.8821 159.073 97.8821 164.726 101.365 168.209L107.815 174.658C111.298 178.142 116.951 178.142 120.434 174.658C123.917 171.175 123.917 165.522 120.434 162.039L113.985 155.59Z" fill="#FDE0E0"/>
<path d="M197.545 101.011L191.096 107.46C183.83 114.725 172.027 114.725 164.762 107.46C157.496 100.195 157.496 88.3912 164.762 81.126L171.211 74.6769C178.476 67.4117 190.279 67.4117 197.545 74.6769C204.81 81.9421 204.81 93.7456 197.545 101.011ZM173.341 89.7049C170.813 92.2328 170.813 96.3531 173.341 98.9009C175.868 101.429 179.989 101.429 182.537 98.9009L188.986 92.4518C191.514 89.9239 191.514 85.8036 188.986 83.2558C186.458 80.7279 182.337 80.7279 179.79 83.2558L173.341 89.7049Z" fill="#F56462"/>
<path d="M195.833 99.299L189.384 105.748C183.074 112.058 172.803 112.058 166.493 105.748C160.184 99.4383 160.184 89.1675 166.493 82.8577L172.943 76.4086C179.252 70.0988 189.523 70.0988 195.833 76.4086C202.143 82.7184 202.143 92.9892 195.833 99.299ZM171.629 87.9931C168.146 91.4764 168.146 97.1294 171.629 100.613C175.112 104.096 180.765 104.096 184.248 100.613L190.698 94.1636C194.181 90.6803 194.181 85.0273 190.698 81.544C187.214 78.0607 181.561 78.0607 178.078 81.544L171.629 87.9931Z" fill="#FDE0E0"/>
<path d="M128.456 82.3599C128.456 82.3599 111.099 81.5438 108.69 89.8241C106.262 98.1045 118.583 105.171 118.583 105.171C118.583 105.171 113.01 94.4619 118.424 91.8345C123.838 89.2071 123.181 91.098 127.878 89.7644C136.358 87.336 135.98 82.3201 135.98 82.3201H128.456V82.3599Z" fill="#ED7064"/>
<path d="M135.96 82.3401H128.436C128.436 82.3401 124.773 82.2008 120.593 82.8179C120.693 85.1467 121.429 88.0727 123.858 90.3816C125.669 90.3219 125.231 90.521 127.839 89.7845C136.318 87.3561 135.94 82.3401 135.94 82.3401H135.96Z" fill="#E84C3D"/>
<path d="M108.671 89.8243C108.432 90.6802 108.372 91.4963 108.392 92.3124C110.561 94.7407 114.264 96.2933 116.055 96.9302C115.936 94.7805 116.453 92.7901 118.404 91.8346C118.563 91.755 118.702 91.7152 118.862 91.6356C115.757 89.9835 114.423 86.6196 113.886 84.6292C111.417 85.7438 109.387 87.376 108.69 89.8044L108.671 89.8243Z" fill="#E84C3D"/>
<path d="M118.563 105.191C118.563 105.191 117.409 102.961 116.652 100.274C114.761 100.234 112.99 99.8561 111.616 99.4182C114.602 102.902 118.563 105.171 118.563 105.171V105.191Z" fill="#E84C3D"/>
<path d="M129.252 83.0765C129.252 83.6139 128.814 84.0319 128.296 84.0319C127.779 84.0319 127.341 83.594 127.341 83.0765C127.341 82.559 127.779 82.1211 128.296 82.1211C128.814 82.1211 129.252 82.559 129.252 83.0765Z" fill="#AE392E"/>
<path d="M145.375 196.195C145.375 196.195 133.034 183.974 125.689 188.492C118.344 193.01 122.743 206.506 122.743 206.506C122.743 206.506 125.769 194.822 131.561 196.494C137.333 198.166 135.582 199.141 139.961 201.291C147.883 205.172 150.968 201.191 150.968 201.191L145.375 196.175V196.195Z" fill="#ED7064"/>
<path d="M150.968 201.211L145.375 196.195C145.375 196.195 142.767 193.627 139.244 191.278C137.751 193.09 136.358 195.737 136.597 199.081C137.99 200.255 137.532 200.116 139.961 201.29C147.883 205.172 150.968 201.191 150.968 201.191V201.211Z" fill="#E84C3D"/>
<path d="M125.689 188.492C124.933 188.949 124.335 189.527 123.818 190.164C123.818 193.408 125.51 197.051 126.425 198.723C127.779 197.031 129.491 195.916 131.581 196.513C131.76 196.573 131.879 196.613 132.038 196.672C130.824 193.368 132.098 189.985 133.034 188.133C130.446 187.297 127.859 187.158 125.709 188.492H125.689Z" fill="#E84C3D"/>
<path d="M122.763 206.505C122.763 206.505 123.4 204.077 124.634 201.589C123.261 200.295 122.206 198.842 121.449 197.588C121.33 202.166 122.743 206.525 122.743 206.525L122.763 206.505Z" fill="#E84C3D"/>
<path d="M145.494 197.249C145.136 197.648 144.539 197.667 144.141 197.309C143.742 196.951 143.723 196.354 144.081 195.956C144.439 195.558 145.036 195.538 145.434 195.876C145.832 196.234 145.852 196.831 145.514 197.23L145.494 197.249Z" fill="#AE392E"/>
<path d="M69.9161 143.01C69.9161 143.01 81.5802 155.888 89.144 151.768C96.7277 147.647 93.0652 133.933 93.0652 133.933C93.0652 133.933 89.4028 145.438 83.7299 143.448C78.0571 141.457 79.8485 140.581 75.5889 138.193C67.8858 133.893 64.6016 137.695 64.6016 137.695L69.9161 143.01Z" fill="#ED7064"/>
<path d="M64.6016 137.695L69.9161 143.01C69.9161 143.01 72.3843 145.717 75.7681 148.245C77.3405 146.513 78.8931 143.945 78.8334 140.581C77.5197 139.347 77.9576 139.507 75.6088 138.173C67.9057 133.874 64.6215 137.675 64.6215 137.675L64.6016 137.695Z" fill="#E84C3D"/>
<path d="M89.1639 151.767C89.9402 151.349 90.5771 150.812 91.1345 150.215C91.3335 146.97 89.8208 143.248 89.0047 141.517C87.5516 143.129 85.7801 144.164 83.7498 143.447C83.5707 143.388 83.4513 143.328 83.292 143.268C84.3072 146.632 82.874 149.956 81.8191 151.748C84.347 152.723 86.9346 153.002 89.1639 151.787V151.767Z" fill="#E84C3D"/>
<path d="M93.0851 133.933C93.0851 133.933 92.3088 136.322 90.9354 138.75C92.2491 140.123 93.2245 141.636 93.8813 142.93C94.2396 138.352 93.0652 133.933 93.0652 133.933H93.0851Z" fill="#E84C3D"/>
<path d="M69.8563 141.935C70.2345 141.557 70.8316 141.557 71.2098 141.935C71.588 142.313 71.588 142.91 71.2098 143.288C70.8316 143.666 70.2345 143.666 69.8563 143.288C69.4781 142.91 69.4781 142.313 69.8563 141.935Z" fill="#AE392E"/>
<path d="M194.201 143.487C194.201 143.487 211.538 144.423 214.026 136.162C216.514 127.902 204.253 120.736 204.253 120.736C204.253 120.736 209.746 131.485 204.312 134.072C198.878 136.66 199.555 134.769 194.838 136.063C186.339 138.412 186.677 143.448 186.677 143.448L194.201 143.487Z" fill="#ED7064"/>
<path d="M186.677 143.448L194.201 143.488C194.201 143.488 197.863 143.667 202.043 143.089C201.944 140.761 201.247 137.835 198.839 135.486C197.027 135.526 197.465 135.327 194.858 136.063C186.358 138.412 186.697 143.448 186.697 143.448H186.677Z" fill="#E84C3D"/>
<path d="M214.026 136.162C214.285 135.326 214.344 134.49 214.324 133.674C212.175 131.226 208.472 129.653 206.701 128.997C206.8 131.146 206.283 133.137 204.312 134.072C204.153 134.152 204.014 134.192 203.854 134.251C206.96 135.923 208.253 139.287 208.771 141.298C211.259 140.203 213.289 138.591 214.006 136.162H214.026Z" fill="#E84C3D"/>
<path d="M204.272 120.736C204.272 120.736 205.407 122.986 206.144 125.673C208.034 125.712 209.786 126.111 211.179 126.568C208.214 123.065 204.272 120.756 204.272 120.756V120.736Z" fill="#E84C3D"/>
<path d="M193.405 142.771C193.405 142.233 193.842 141.815 194.38 141.815C194.917 141.815 195.335 142.253 195.335 142.791C195.335 143.328 194.897 143.746 194.36 143.746C193.823 143.746 193.405 143.308 193.405 142.771Z" fill="#AE392E"/>
<path d="M110.82 118.984C110.82 118.984 110.74 118.865 110.701 118.805C107.874 114.765 103.595 111.958 98.7579 110.943C98.6982 110.943 98.6384 110.923 98.5588 110.903C92.7666 109.709 86.7952 108.594 85.163 111.082C80.983 117.432 88.1487 126.17 88.1487 126.17L94.5182 130.37L100.888 134.57C100.888 134.57 111.736 137.715 115.916 131.345C117.727 128.598 114.184 123.821 110.8 118.964L110.82 118.984Z" fill="#656565"/>
<path d="M108.929 120.298C108.929 120.298 108.85 120.199 108.83 120.139C106.322 116.556 102.56 114.088 98.2803 113.192C98.2206 113.192 98.1608 113.172 98.121 113.152C92.9856 112.097 87.7308 111.122 86.2778 113.312C82.5755 118.925 88.9251 126.648 88.9251 126.648L94.5581 130.35L100.191 134.052C100.191 134.052 109.785 136.819 113.487 131.206C115.08 128.778 111.955 124.558 108.949 120.258L108.929 120.298Z" fill="#D1D1D1"/>
<path opacity="0.1" d="M109.188 132.002C105.585 132.5 101.923 131.485 98.8774 129.474L96.2699 127.742L93.6425 126.011C90.617 124.02 88.2284 121.074 87.273 117.571C86.8351 115.959 86.6759 114.207 87.1536 112.555C86.7953 112.754 86.4768 112.993 86.2778 113.312C82.5755 118.925 88.9251 126.648 88.9251 126.648L94.5581 130.35L100.191 134.052C100.191 134.052 109.785 136.819 113.487 131.206C113.706 130.867 113.826 130.469 113.866 130.051C112.532 131.166 110.86 131.723 109.208 131.962L109.188 132.002Z" fill="black"/>
<path d="M78.2561 141.795C78.2561 141.795 78.3358 141.914 78.3756 141.974C81.202 146.015 85.4815 148.821 90.3184 149.837C90.3781 149.837 90.4378 149.856 90.5174 149.876C96.3097 151.071 102.281 152.185 103.913 149.697C108.093 143.348 100.928 134.609 100.928 134.609L94.5581 130.41L88.1886 126.21C88.1886 126.21 77.3405 123.065 73.1605 129.434C71.3492 132.181 74.8922 136.958 78.276 141.815L78.2561 141.795Z" fill="#656565"/>
<path d="M80.1271 140.462C80.1271 140.462 80.2068 140.561 80.2267 140.621C82.7347 144.204 86.4966 146.672 90.7761 147.568C90.8359 147.568 90.8956 147.587 90.9354 147.607C96.0708 148.662 101.326 149.638 102.779 147.448C106.481 141.835 100.131 134.112 100.131 134.112L94.4983 130.41L88.8653 126.707C88.8653 126.707 79.2712 123.941 75.569 129.554C73.9766 131.982 77.1016 136.202 80.1072 140.501L80.1271 140.462Z" fill="#C2C2C2"/>
<path opacity="0.1" d="M79.8883 128.758C83.491 128.26 87.1535 129.275 90.1989 131.286L92.8064 133.017L95.4338 134.749C98.4593 136.739 100.848 139.685 101.803 143.189C102.241 144.801 102.4 146.552 101.923 148.205C102.281 148.005 102.6 147.767 102.799 147.448C106.501 141.835 100.151 134.112 100.151 134.112L94.5182 130.41L88.8852 126.707C88.8852 126.707 79.2911 123.941 75.5889 129.554C75.3699 129.892 75.2505 130.29 75.2107 130.708C76.5443 129.594 78.2163 129.036 79.8684 128.797L79.8883 128.758Z" fill="black"/>
<path d="M100.251 140.143C98.1409 143.368 92.6273 143.467 87.9298 140.382C83.2323 137.297 81.1622 132.201 83.292 128.977C85.4019 125.752 90.9155 125.652 95.613 128.738C100.311 131.823 102.381 136.919 100.251 140.143Z" fill="#FFD800"/>
<path opacity="0.1" d="M89.3629 138.252C85.2227 135.525 83.1327 131.206 84.1678 128.021C83.8493 128.3 83.5507 128.618 83.3119 128.997C81.202 132.221 83.272 137.317 87.9496 140.402C92.6272 143.487 98.1408 143.368 100.271 140.163C100.509 139.785 100.689 139.387 100.828 138.989C98.32 141.218 93.5229 140.999 89.3828 138.272L89.3629 138.252Z" fill="black"/>
<path d="M156.243 115.083C156.243 115.083 156.123 115.163 156.063 115.203C151.943 117.929 149.017 122.109 147.883 126.906C147.883 126.966 147.863 127.026 147.843 127.106C146.489 132.878 145.215 138.79 147.644 140.501C153.874 144.86 162.811 137.954 162.811 137.954L167.19 131.704L171.569 125.453C171.569 125.453 175.013 114.685 168.783 110.326C166.095 108.435 161.199 111.839 156.263 115.103L156.243 115.083Z" fill="#656565"/>
<path d="M157.517 116.994C157.517 116.994 157.417 117.053 157.357 117.093C153.715 119.502 151.127 123.204 150.112 127.444C150.112 127.503 150.092 127.563 150.072 127.603C148.858 132.699 147.743 137.933 149.893 139.446C155.407 143.308 163.289 137.177 163.289 137.177L167.15 131.644L171.012 126.11C171.012 126.11 174.057 116.596 168.544 112.734C166.175 111.062 161.856 114.068 157.477 116.954L157.517 116.994Z" fill="#D1D1D1"/>
<path opacity="0.1" d="M169.22 117.073C169.619 120.696 168.504 124.319 166.414 127.304L164.623 129.872L162.831 132.44C160.741 135.406 157.736 137.715 154.212 138.57C152.58 138.969 150.848 139.088 149.196 138.551C149.376 138.909 149.614 139.227 149.913 139.446C155.427 143.308 163.309 137.177 163.309 137.177L167.17 131.644L171.032 126.11C171.032 126.11 174.077 116.596 168.564 112.734C168.225 112.495 167.847 112.376 167.429 112.316C168.504 113.67 169.021 115.362 169.201 117.034L169.22 117.073Z" fill="black"/>
<path d="M178.118 148.284C178.118 148.284 178.237 148.204 178.297 148.164C182.417 145.438 185.343 141.258 186.478 136.461C186.478 136.401 186.498 136.341 186.518 136.261C187.871 130.489 189.145 124.577 186.717 122.866C180.487 118.507 171.549 125.413 171.549 125.413L167.17 131.663L162.791 137.914C162.791 137.914 159.348 148.682 165.578 153.041C168.265 154.932 173.162 151.528 178.098 148.264L178.118 148.284Z" fill="#656565"/>
<path d="M176.844 146.353C176.844 146.353 176.943 146.293 177.003 146.253C180.646 143.845 183.233 140.163 184.248 135.903C184.248 135.843 184.268 135.784 184.288 135.744C185.502 130.648 186.617 125.413 184.467 123.901C178.954 120.039 171.072 126.17 171.072 126.17L167.21 131.703L163.349 137.237C163.349 137.237 160.303 146.751 165.817 150.613C168.185 152.285 172.505 149.279 176.884 146.393L176.844 146.353Z" fill="#C2C2C2"/>
<path opacity="0.1" d="M165.14 146.273C164.742 142.651 165.856 139.028 167.946 136.042L169.738 133.475L171.529 130.907C173.619 127.941 176.625 125.632 180.148 124.776C181.78 124.378 183.512 124.259 185.164 124.796C184.985 124.438 184.746 124.12 184.447 123.901C178.934 120.039 171.052 126.17 171.052 126.17L167.19 131.703L163.329 137.237C163.329 137.237 160.283 146.751 165.797 150.613C166.135 150.851 166.513 150.971 166.931 151.031C165.856 149.677 165.339 147.985 165.16 146.313L165.14 146.273Z" fill="black"/>
<path d="M177.103 126.229C180.267 128.439 180.208 133.952 177.003 138.55C173.798 143.148 168.623 145.079 165.458 142.87C162.294 140.66 162.353 135.147 165.558 130.549C168.763 125.951 173.938 124.02 177.103 126.229Z" fill="#FFD800"/>
<path opacity="0.1" d="M174.893 137.078C172.047 141.138 167.668 143.109 164.523 141.974C164.802 142.313 165.1 142.611 165.478 142.87C168.643 145.08 173.799 143.149 177.023 138.551C180.248 133.953 180.287 128.439 177.123 126.23C176.764 125.971 176.366 125.792 175.968 125.653C178.118 128.22 177.76 133.017 174.913 137.078H174.893Z" fill="black"/>
<path d="M172.266 201.211C172.266 201.211 172.385 201.151 172.445 201.111C176.725 198.643 179.889 194.642 181.323 189.905C181.323 189.845 181.362 189.786 181.382 189.726C183.094 184.053 184.706 178.221 182.377 176.37C176.426 171.652 167.091 178.022 167.091 178.022L162.353 183.993L157.616 189.965C157.616 189.965 153.536 200.494 159.507 205.232C162.075 207.262 167.15 204.177 172.286 201.211H172.266Z" fill="#656565"/>
<path d="M171.111 199.22C171.111 199.22 171.211 199.161 171.271 199.121C175.053 196.931 177.859 193.408 179.113 189.228C179.113 189.168 179.153 189.109 179.153 189.069C180.666 184.053 182.099 178.898 180.029 177.265C174.754 173.085 166.513 178.718 166.513 178.718L162.314 184.013L158.114 189.308C158.114 189.308 154.511 198.623 159.786 202.803C162.055 204.614 166.553 201.868 171.091 199.26L171.111 199.22Z" fill="#D1D1D1"/>
<path opacity="0.1" d="M159.427 198.444C159.248 194.801 160.582 191.238 162.851 188.392L164.802 185.944L166.752 183.496C169.001 180.649 172.146 178.539 175.709 177.882C177.361 177.584 179.113 177.584 180.725 178.201C180.566 177.823 180.347 177.504 180.049 177.265C174.774 173.085 166.533 178.718 166.533 178.718L162.333 184.013L158.134 189.308C158.134 189.308 154.531 198.623 159.806 202.803C160.124 203.062 160.502 203.201 160.92 203.281C159.925 201.848 159.507 200.156 159.427 198.464V198.444Z" fill="black"/>
<path d="M152.401 166.756C152.401 166.756 152.282 166.816 152.222 166.855C147.942 169.324 144.778 173.324 143.344 178.062C143.344 178.122 143.305 178.181 143.285 178.241C141.573 183.914 139.961 189.746 142.289 191.597C148.241 196.314 157.576 189.945 157.576 189.945L162.314 183.973L167.051 178.002C167.051 178.002 171.131 167.472 165.16 162.735C162.592 160.705 157.516 163.79 152.381 166.756H152.401Z" fill="#656565"/>
<path d="M153.555 168.766C153.555 168.766 153.456 168.826 153.396 168.866C149.614 171.055 146.808 174.578 145.554 178.758C145.554 178.818 145.514 178.878 145.514 178.918C144.001 183.934 142.568 189.089 144.638 190.721C149.913 194.901 158.153 189.268 158.153 189.268L162.353 183.973L166.553 178.679C166.553 178.679 170.156 169.363 164.881 165.183C162.612 163.372 158.114 166.119 153.575 168.727L153.555 168.766Z" fill="#C2C2C2"/>
<path opacity="0.1" d="M165.24 169.542C165.419 173.185 164.085 176.748 161.816 179.594L159.865 182.043L157.915 184.491C155.665 187.337 152.52 189.447 148.957 190.104C147.305 190.402 145.554 190.402 143.942 189.785C144.101 190.164 144.32 190.482 144.618 190.721C149.893 194.901 158.134 189.268 158.134 189.268L162.333 183.973L166.533 178.679C166.533 178.679 170.136 169.363 164.861 165.183C164.543 164.925 164.165 164.785 163.747 164.706C164.742 166.139 165.16 167.831 165.24 169.523V169.542Z" fill="black"/>
<path d="M152.102 188.83C149.077 186.441 149.455 180.928 152.938 176.549C156.422 172.17 161.697 170.538 164.702 172.926C167.728 175.315 167.349 180.828 163.866 185.207C160.383 189.606 155.108 191.219 152.102 188.83Z" fill="#FFD800"/>
<path opacity="0.1" d="M154.949 178.141C158.034 174.26 162.513 172.548 165.598 173.882C165.339 173.524 165.06 173.205 164.702 172.926C161.677 170.538 156.402 172.15 152.938 176.549C149.475 180.948 149.077 186.442 152.102 188.83C152.441 189.109 152.839 189.308 153.237 189.487C151.246 186.78 151.883 182.043 154.969 178.141H154.949Z" fill="black"/>
<path d="M127.799 54.5929C127.799 54.5929 127.779 54.7323 127.759 54.792C126.764 59.6288 127.64 64.6647 130.227 68.8646C130.267 68.9243 130.287 68.984 130.327 69.0238C133.432 74.0597 136.716 79.1553 139.642 78.6577C147.126 77.3439 148.579 66.1376 148.579 66.1376L147.266 58.6137L145.952 51.0897C145.952 51.0897 140.797 41.0378 133.292 42.3516C130.068 42.9089 128.993 48.7609 127.799 54.573V54.5929Z" fill="#656565"/>
<path d="M130.068 55.051C130.068 55.051 130.048 55.1704 130.028 55.2301C129.132 59.5096 129.929 63.9483 132.218 67.6705C132.238 67.7103 132.277 67.77 132.317 67.8099C135.064 72.2685 137.97 76.767 140.558 76.329C147.186 75.1746 148.46 65.2621 148.46 65.2621L147.305 58.6139L146.151 51.9657C146.151 51.9657 141.593 43.0883 134.964 44.2427C132.098 44.7404 131.163 49.9156 130.108 55.051H130.068Z" fill="#D1D1D1"/>
<path opacity="0.1" d="M138.408 46.8502C141.254 49.1393 143.026 52.5032 143.643 56.086L144.18 59.1712L144.718 62.2565C145.335 65.8393 144.837 69.5814 142.946 72.6865C142.07 74.1196 140.916 75.4333 139.383 76.2096C139.761 76.329 140.16 76.4087 140.538 76.329C147.166 75.1746 148.44 65.2621 148.44 65.2621L147.285 58.6139L146.131 51.9657C146.131 51.9657 141.573 43.0883 134.944 44.2427C134.546 44.3224 134.188 44.5015 133.85 44.7404C135.581 44.9394 137.134 45.7754 138.428 46.8303L138.408 46.8502Z" fill="black"/>
<path d="M166.732 62.6741C166.732 62.6741 166.752 62.5348 166.772 62.4751C167.767 57.6383 166.892 52.6024 164.304 48.4025C164.264 48.3428 164.244 48.2831 164.204 48.2433C161.099 43.2074 157.815 38.1118 154.889 38.6094C147.405 39.9231 145.952 51.1294 145.952 51.1294L147.266 58.6534L148.579 66.1774C148.579 66.1774 153.735 76.2292 161.239 74.9155C164.463 74.3582 165.538 68.5062 166.732 62.694V62.6741Z" fill="#656565"/>
<path d="M164.483 62.1966C164.483 62.1966 164.503 62.0772 164.523 62.0174C165.419 57.7379 164.622 53.2992 162.333 49.577C162.313 49.5372 162.274 49.4775 162.234 49.4377C159.487 44.9791 156.581 40.4806 153.993 40.9185C147.365 42.073 146.091 51.9855 146.091 51.9855L147.246 58.6336L148.4 65.2818C148.4 65.2818 152.958 74.1593 159.587 73.0048C162.453 72.5072 163.388 67.332 164.443 62.1966H164.483Z" fill="#C2C2C2"/>
<path opacity="0.1" d="M156.123 70.4173C153.277 68.1283 151.505 64.7644 150.888 61.1816L150.351 58.0964L149.813 55.0111C149.196 51.4283 149.694 47.6862 151.585 44.5811C152.461 43.148 153.615 41.8343 155.148 41.058C154.77 40.9385 154.372 40.8589 153.993 40.9385C147.365 42.093 146.091 52.0055 146.091 52.0055L147.246 58.6537L148.4 65.3018C148.4 65.3018 152.958 74.1793 159.587 73.0249C159.985 72.9452 160.343 72.7661 160.681 72.5272C158.95 72.3282 157.397 71.4922 156.103 70.4373L156.123 70.4173Z" fill="black"/>
<path d="M150.45 47.7654C154.252 47.1086 158.113 51.0298 159.069 56.5633C160.024 62.0769 157.735 67.0928 153.934 67.7696C150.132 68.4265 146.27 64.5052 145.315 58.9717C144.359 53.4582 146.648 48.4422 150.45 47.7654Z" fill="#FFD800"/>
<path opacity="0.1" d="M156.541 57.0015C157.397 61.898 155.685 66.3766 152.66 67.7898C153.098 67.8296 153.535 67.8296 153.953 67.75C157.755 67.0932 160.044 62.0772 159.089 56.5437C158.133 51.0301 154.272 47.089 150.47 47.7458C150.032 47.8255 149.634 47.9648 149.236 48.1439C152.58 48.4624 155.705 52.0851 156.561 56.9816L156.541 57.0015Z" fill="black"/>
<path d="M117.269 67.1129C117.269 70.636 114.423 73.4824 110.9 73.4824C107.377 73.4824 104.53 70.636 104.53 67.1129C104.53 63.5898 107.377 60.7434 110.9 60.7434C114.423 60.7434 117.269 63.5898 117.269 67.1129Z" fill="#00814C"/>
<path d="M115.558 66.5357C116.493 66.5357 117.13 65.6001 116.792 64.7243C116.095 62.9926 114.662 61.6391 112.87 61.042C112.014 60.7633 111.119 61.4002 111.119 62.296C111.119 62.8732 111.497 63.3708 112.034 63.55C113.089 63.8883 113.925 64.6845 114.323 65.7196C114.522 66.2172 115 66.5357 115.538 66.5357H115.558Z" fill="#00AC65"/>
<path d="M110.9 70.8351C109.566 70.8351 108.392 70.1385 107.735 69.0835C107.257 68.3271 106.222 68.2077 105.645 68.8646C105.645 68.8646 105.645 68.8646 105.645 68.8845C105.267 69.3224 105.207 69.9593 105.506 70.4569C106.62 72.2683 108.631 73.4825 110.92 73.4825C111.935 73.4825 112.89 73.2436 113.746 72.8256C114.403 72.5071 114.642 71.6711 114.284 71.0342C114.284 71.0342 114.284 71.0342 114.284 71.0143C113.945 70.4171 113.209 70.1783 112.592 70.4769C112.094 70.7157 111.537 70.855 110.96 70.855L110.9 70.8351Z" fill="#007343"/>
<path d="M109.845 62.6145C109.845 62.6145 109.845 62.515 109.845 62.4553C109.805 61.5795 108.869 61.0022 108.093 61.3804C107.556 61.6591 107.058 61.9975 106.6 62.3956C106.063 62.8932 106.003 63.7093 106.461 64.2865C106.461 64.2865 106.461 64.2865 106.461 64.3064C106.919 64.9035 107.775 64.9235 108.332 64.386C108.591 64.1273 108.909 63.9083 109.228 63.7491C109.646 63.5301 109.885 63.0723 109.845 62.5946V62.6145Z" fill="#00AC65"/>
<path d="M207.537 110.485C207.537 114.008 204.69 116.855 201.167 116.855C197.644 116.855 194.798 114.008 194.798 110.485C194.798 106.962 197.644 104.116 201.167 104.116C204.69 104.116 207.537 106.962 207.537 110.485Z" fill="#00814C"/>
<path d="M205.825 109.908C206.76 109.908 207.397 108.972 207.059 108.097C206.362 106.365 204.929 105.011 203.138 104.414C202.282 104.136 201.386 104.773 201.386 105.668C201.386 106.246 201.764 106.743 202.302 106.922C203.357 107.261 204.193 108.057 204.591 109.092C204.79 109.589 205.268 109.908 205.805 109.908H205.825Z" fill="#00AC65"/>
<path d="M201.167 114.208C199.834 114.208 198.659 113.511 198.003 112.456C197.525 111.7 196.49 111.58 195.913 112.237C195.534 112.695 195.475 113.332 195.773 113.83C196.888 115.641 198.898 116.855 201.187 116.855C202.202 116.855 203.158 116.616 204.014 116.198C204.671 115.88 204.909 115.044 204.551 114.407C204.551 114.407 204.551 114.407 204.551 114.387C204.213 113.79 203.476 113.551 202.859 113.849C202.362 114.088 201.804 114.228 201.227 114.228L201.167 114.208Z" fill="#007343"/>
<path d="M200.112 106.007C200.112 106.007 200.112 105.907 200.112 105.848C200.073 104.972 199.137 104.395 198.361 104.773C197.823 105.051 197.326 105.39 196.868 105.788C196.331 106.286 196.271 107.102 196.729 107.679C196.729 107.679 196.729 107.679 196.729 107.699C197.186 108.296 198.042 108.316 198.6 107.778C198.858 107.52 199.177 107.301 199.495 107.141C199.913 106.922 200.152 106.465 200.112 105.987V106.007Z" fill="#00AC65"/>
<path d="M149.196 107.48C149.196 111.003 146.35 113.849 142.827 113.849C139.304 113.849 136.457 111.003 136.457 107.48C136.457 103.956 139.304 101.11 142.827 101.11C146.35 101.11 149.196 103.956 149.196 107.48Z" fill="#00814C"/>
<path d="M147.485 106.922C148.42 106.922 149.057 105.987 148.719 105.111C148.022 103.379 146.589 102.026 144.797 101.429C143.941 101.15 143.046 101.787 143.046 102.683C143.046 103.26 143.424 103.758 143.961 103.937C145.016 104.275 145.852 105.071 146.25 106.106C146.449 106.604 146.927 106.922 147.465 106.922H147.485Z" fill="#00AC65"/>
<path d="M142.827 111.222C141.493 111.222 140.319 110.525 139.662 109.47C139.184 108.714 138.149 108.594 137.572 109.251C137.194 109.709 137.134 110.346 137.433 110.843C138.547 112.655 140.558 113.869 142.847 113.869C143.862 113.869 144.817 113.63 145.673 113.212C146.33 112.894 146.569 112.058 146.211 111.421C146.211 111.421 146.211 111.421 146.211 111.401C145.872 110.804 145.136 110.565 144.519 110.863C144.021 111.102 143.464 111.242 142.887 111.242L142.827 111.222Z" fill="#007343"/>
<path d="M141.772 103.001C141.772 103.001 141.772 102.902 141.772 102.842C141.732 101.966 140.797 101.389 140.02 101.767C139.483 102.026 138.985 102.384 138.527 102.782C137.99 103.28 137.93 104.096 138.388 104.673C138.388 104.673 138.388 104.673 138.388 104.693C138.846 105.29 139.702 105.31 140.259 104.773C140.518 104.514 140.836 104.295 141.155 104.136C141.573 103.917 141.812 103.459 141.772 102.981V103.001Z" fill="#00AC65"/>
<path d="M144.578 157.043C144.578 160.566 141.732 163.412 138.209 163.412C134.686 163.412 131.839 160.566 131.839 157.043C131.839 153.52 134.686 150.673 138.209 150.673C141.732 150.673 144.578 153.52 144.578 157.043Z" fill="#00814C"/>
<path d="M142.867 156.485C143.802 156.485 144.439 155.55 144.101 154.674C143.404 152.942 141.971 151.589 140.179 150.992C139.324 150.713 138.428 151.35 138.428 152.246C138.428 152.823 138.806 153.321 139.343 153.5C140.398 153.838 141.234 154.634 141.633 155.669C141.832 156.167 142.309 156.485 142.847 156.485H142.867Z" fill="#00AC65"/>
<path d="M138.209 160.785C136.875 160.785 135.701 160.088 135.044 159.033C134.566 158.277 133.531 158.157 132.954 158.814C132.954 158.814 132.954 158.814 132.954 158.834C132.576 159.272 132.516 159.909 132.815 160.407C133.929 162.218 135.94 163.432 138.229 163.432C139.244 163.432 140.199 163.193 141.055 162.775C141.712 162.457 141.951 161.621 141.593 160.984C141.593 160.984 141.593 160.984 141.593 160.964C141.254 160.367 140.518 160.128 139.901 160.427C139.403 160.665 138.846 160.805 138.269 160.805L138.209 160.785Z" fill="#007343"/>
<path d="M137.174 152.564C137.174 152.564 137.174 152.465 137.174 152.405C137.134 151.529 136.199 150.952 135.422 151.33C134.885 151.589 134.387 151.947 133.929 152.345C133.392 152.843 133.332 153.659 133.79 154.236C133.79 154.236 133.79 154.236 133.79 154.256C134.248 154.853 135.104 154.873 135.661 154.336C135.92 154.077 136.238 153.858 136.557 153.699C136.975 153.48 137.214 153.022 137.174 152.544V152.564Z" fill="#00AC65"/>
<path d="M109.168 195.658C109.168 199.181 106.322 202.027 102.799 202.027C99.2754 202.027 96.4291 199.181 96.4291 195.658C96.4291 192.134 99.2754 189.288 102.799 189.288C106.322 189.288 109.168 192.134 109.168 195.658Z" fill="#00814C"/>
<path d="M107.456 195.081C108.392 195.081 109.029 194.145 108.69 193.269C107.994 191.538 106.561 190.184 104.769 189.587C103.913 189.308 103.018 189.945 103.018 190.841C103.018 191.418 103.396 191.916 103.933 192.095C104.988 192.433 105.824 193.229 106.222 194.264C106.421 194.762 106.899 195.081 107.436 195.081H107.456Z" fill="#00AC65"/>
<path d="M102.799 199.38C101.465 199.38 100.291 198.683 99.6338 197.628C99.156 196.872 98.121 196.732 97.5438 197.409C97.1656 197.867 97.1059 198.504 97.4044 199.002C98.5191 200.813 100.529 202.027 102.819 202.027C103.834 202.027 104.789 201.788 105.645 201.37C106.302 201.052 106.541 200.216 106.182 199.579C106.182 199.579 106.182 199.579 106.182 199.559C105.844 198.962 105.108 198.723 104.49 199.021C103.993 199.26 103.436 199.4 102.858 199.4L102.799 199.38Z" fill="#007343"/>
<path d="M101.744 191.159C101.744 191.159 101.744 191.06 101.744 191C101.704 190.124 100.768 189.547 99.9919 189.925C99.4545 190.204 98.9569 190.542 98.4991 190.94C97.9617 191.438 97.902 192.254 98.3598 192.831C98.3598 192.831 98.3598 192.831 98.3598 192.851C98.8176 193.448 99.6735 193.468 100.231 192.931C100.49 192.672 100.808 192.453 101.127 192.294C101.545 192.075 101.783 191.617 101.744 191.139V191.159Z" fill="#00AC65"/>
<path d="M85.3023 174.797C85.3023 178.321 82.456 181.167 78.9328 181.167C75.4097 181.167 72.5634 178.321 72.5634 174.797C72.5634 171.274 75.4097 168.428 78.9328 168.428C82.456 168.428 85.3023 171.274 85.3023 174.797Z" fill="#00814C"/>
<path d="M83.5906 174.22C84.5261 174.22 85.1631 173.285 84.8247 172.409C84.128 170.677 82.6949 169.324 80.9035 168.727C80.0476 168.448 79.1519 169.085 79.1519 169.981C79.1519 170.558 79.53 171.056 80.0675 171.235C81.1224 171.573 81.9584 172.369 82.3565 173.404C82.5556 173.902 83.0333 174.22 83.5707 174.22H83.5906Z" fill="#00AC65"/>
<path d="M78.9329 178.52C77.5993 178.52 76.4249 177.823 75.768 176.768C75.2903 176.012 74.2553 175.892 73.678 176.549C73.678 176.549 73.678 176.549 73.678 176.569C73.2999 177.007 73.2401 177.644 73.5387 178.142C74.6534 179.953 76.6637 181.167 78.9528 181.167C79.9679 181.167 80.9233 180.928 81.7792 180.51C82.4361 180.192 82.675 179.356 82.3167 178.719C82.3167 178.719 82.3167 178.719 82.3167 178.699C81.9783 178.102 81.2418 177.863 80.6248 178.161C80.1272 178.4 79.5698 178.54 78.9926 178.54L78.9329 178.52Z" fill="#007343"/>
<path d="M77.8778 170.299C77.8778 170.299 77.8778 170.2 77.8778 170.14C77.838 169.264 76.9025 168.687 76.1262 169.065C75.5888 169.324 75.0912 169.682 74.6334 170.08C74.0959 170.578 74.0362 171.394 74.494 171.971C74.494 171.971 74.494 171.971 74.494 171.991C74.9518 172.588 75.8077 172.608 76.3651 172.071C76.6238 171.812 76.9423 171.593 77.2608 171.434C77.6788 171.215 77.9176 170.757 77.8778 170.279V170.299Z" fill="#00AC65"/>
<path d="M67.9853 124.439C67.9853 127.962 65.139 130.808 61.6158 130.808C58.0927 130.808 55.2463 127.962 55.2463 124.439C55.2463 120.915 58.0927 118.069 61.6158 118.069C65.139 118.069 67.9853 120.915 67.9853 124.439Z" fill="#00814C"/>
<path d="M66.2735 123.862C67.209 123.862 67.8459 122.926 67.5075 122.05C66.8109 120.319 65.3777 118.965 63.5863 118.368C62.7304 118.089 61.8347 118.726 61.8347 119.622C61.8347 120.199 62.2129 120.697 62.7503 120.876C63.8053 121.214 64.6413 122.01 65.0394 123.045C65.2384 123.543 65.7161 123.862 66.2536 123.862H66.2735Z" fill="#00AC65"/>
<path d="M61.6157 128.161C60.2821 128.161 59.1078 127.464 58.4509 126.409C57.9732 125.653 56.9381 125.513 56.3609 126.19C56.3609 126.19 56.3609 126.19 56.3609 126.21C55.9827 126.648 55.923 127.285 56.2216 127.783C57.3362 129.594 59.3466 130.808 61.6356 130.808C62.6508 130.808 63.6062 130.569 64.4621 130.151C65.119 129.833 65.3578 128.997 64.9995 128.36C64.9995 128.36 64.9995 128.36 64.9995 128.34C64.6611 127.743 63.9247 127.504 63.3076 127.802C62.81 128.041 62.2527 128.181 61.6755 128.181L61.6157 128.161Z" fill="#007343"/>
<path d="M60.5608 119.96C60.5608 119.96 60.5608 119.861 60.5608 119.801C60.521 118.925 59.5855 118.348 58.8092 118.726C58.2718 118.985 57.7742 119.343 57.3164 119.741C56.7789 120.239 56.7192 121.055 57.177 121.632C57.177 121.632 57.177 121.632 57.177 121.652C57.6348 122.249 58.4907 122.269 59.0481 121.732C59.3068 121.473 59.6253 121.254 59.9438 121.095C60.3618 120.876 60.6006 120.418 60.5608 119.94V119.96Z" fill="#00AC65"/>
<path d="M101.373 57.5113L97.9384 54.0771C97.3321 53.4708 96.3491 53.4708 95.7427 54.0771L82.1888 67.631C81.5825 68.2373 81.5825 69.2204 82.1888 69.8267L85.623 73.2609C86.2293 73.8672 87.2124 73.8672 87.8187 73.2609L101.373 59.707C101.979 59.1007 101.979 58.1176 101.373 57.5113Z" fill="#E84C3D"/>
<path d="M137.134 141.23L140.569 137.796C141.175 137.19 141.175 136.206 140.569 135.6L127.015 122.046C126.408 121.44 125.425 121.44 124.819 122.046L121.385 125.48C120.779 126.087 120.779 127.07 121.385 127.676L134.939 141.23C135.545 141.836 136.528 141.836 137.134 141.23Z" fill="#E84C3D"/>
<path d="M72.9813 164.507V159.65C72.9813 158.793 72.2862 158.098 71.4288 158.098H52.2606C51.4031 158.098 50.708 158.793 50.708 159.65V164.507C50.708 165.364 51.4031 166.06 52.2606 166.06H71.4288C72.2862 166.06 72.9813 165.364 72.9813 164.507Z" fill="#E84C3D"/>
<path d="M170.992 88.2516V83.3948C170.992 82.5374 170.297 81.8423 169.439 81.8423H150.271C149.414 81.8423 148.719 82.5374 148.719 83.3948V88.2516C148.719 89.109 149.414 89.8041 150.271 89.8041H169.439C170.297 89.8041 170.992 89.109 170.992 88.2516Z" fill="#E84C3D"/>
<path d="M220.256 151.211V146.354C220.256 145.496 219.561 144.801 218.704 144.801H199.535C198.678 144.801 197.983 145.496 197.983 146.354V151.211C197.983 152.068 198.678 152.763 199.535 152.763H218.704C219.561 152.763 220.256 152.068 220.256 151.211Z" fill="#E84C3D"/>
<path d="M121.72 219.208L125.154 215.774C125.76 215.167 125.76 214.184 125.154 213.578L111.6 200.024C110.994 199.418 110.011 199.418 109.404 200.024L105.97 203.458C105.364 204.065 105.364 205.048 105.97 205.654L119.524 219.208C120.13 219.814 121.113 219.814 121.72 219.208Z" fill="#E84C3D"/>
</svg>
