<svg width="260" height="239" viewBox="0 0 260 239" fill="none" xmlns="http://www.w3.org/2000/svg">
<circle cx="112.298" cy="126.318" r="112.298" fill="black"/>
<path d="M126.783 3.6521C186.691 3.65218 235.256 52.236 235.256 112.168C235.256 172.099 186.691 220.682 126.783 220.682C66.876 220.682 18.3108 172.099 18.3107 112.168C18.3107 52.236 66.876 3.6521 126.783 3.6521Z" fill="#EBEEEE" stroke="black" stroke-width="2"/>
<path d="M182.85 168.256C213.813 137.281 213.813 87.0602 182.85 56.0853C151.887 25.1103 101.686 25.1103 70.7234 56.0853C39.7605 87.0602 39.7605 137.281 70.7234 168.256C101.686 199.23 151.887 199.23 182.85 168.256Z" fill="#E5E8E8"/>
<path opacity="0.1" d="M236.256 112.167C236.256 102.406 234.97 92.957 232.575 83.9557L204.452 77.1171C206.945 74.7012 208.815 71.6618 209.847 68.2327C210.879 65.7779 211.444 63.0892 211.444 60.2641C211.444 55.6271 209.905 51.3602 207.315 47.8922C207.315 47.8727 207.296 47.8338 207.276 47.7948C207.198 47.6974 207.12 47.6195 207.042 47.522C206.809 47.2103 206.555 46.9181 206.283 46.6258C206.108 46.431 205.932 46.2362 205.757 46.0413C205.484 45.7686 205.212 45.4958 204.939 45.223C204.744 45.0282 204.53 44.8528 204.335 44.6775C204.043 44.4242 203.77 44.1904 203.459 43.9566C203.245 43.7813 203.011 43.6059 202.777 43.4501C202.485 43.2357 202.173 43.0214 201.862 42.8266C201.609 42.6707 201.355 42.5149 201.102 42.359C200.791 42.1836 200.479 42.0083 200.167 41.8524C199.895 41.716 199.603 41.5797 199.33 41.4433C199.018 41.3069 198.687 41.151 198.376 41.0341C198.084 40.9172 197.772 40.8003 197.46 40.7029C197.129 40.586 196.818 40.4886 196.487 40.3912C196.175 40.2938 195.844 40.2158 195.513 40.1379C195.182 40.06 194.851 39.982 194.52 39.9236C194.383 39.9041 194.247 39.8651 194.13 39.8456C194.091 39.8456 194.033 39.8456 193.994 39.8456C193.351 39.7482 192.689 39.6703 192.027 39.6313C192.027 39.2806 192.027 38.9299 192.007 38.5987C192.007 38.326 191.988 38.0727 191.949 37.7999C191.91 37.4102 191.871 37.0401 191.812 36.6504C191.773 36.3776 191.735 36.1049 191.676 35.8321C191.618 35.4619 191.54 35.0917 191.442 34.7215C191.384 34.4488 191.306 34.176 191.228 33.9033C191.131 33.5526 191.014 33.2019 190.897 32.8512C190.8 32.5784 190.702 32.2861 190.585 32.0134C190.449 31.6822 190.313 31.351 190.176 31.0197C190.06 30.747 189.923 30.4547 189.767 30.182C189.612 29.8702 189.456 29.5585 189.281 29.2468C189.125 28.974 188.95 28.7012 188.774 28.4285C188.599 28.1362 188.404 27.844 188.209 27.5712C188.015 27.2984 187.82 27.0257 187.606 26.7724C187.391 26.4996 187.177 26.2269 186.963 25.9736C186.866 25.8762 186.807 25.7593 186.71 25.6618C186.671 25.6229 186.632 25.6034 186.593 25.5839C185.872 24.8046 185.113 24.0447 184.256 23.3433C177.654 18.0439 168.792 17.4789 161.742 21.1417C160.301 19.6415 158.665 18.3946 156.873 17.4204C156.854 17.4204 156.834 17.3815 156.795 17.362C156.698 17.3035 156.581 17.2646 156.464 17.2061C156.114 17.0308 155.763 16.8554 155.412 16.6995C155.179 16.5826 154.926 16.4852 154.692 16.3878C154.341 16.2514 153.971 16.115 153.621 15.9787C153.368 15.8812 153.095 15.8033 152.842 15.7254C152.491 15.6085 152.121 15.5111 151.751 15.4331C151.478 15.3747 151.206 15.2967 150.914 15.2578C150.563 15.1798 150.193 15.1214 149.842 15.0629C149.55 15.024 149.258 14.985 148.947 14.946C148.596 14.9071 148.245 14.8876 147.875 14.8681C147.564 14.8681 147.252 14.8486 146.941 14.8486C146.59 14.8486 146.239 14.8486 145.889 14.8681C145.558 14.8681 145.246 14.9071 144.915 14.946C144.584 14.985 144.233 15.024 143.902 15.0629C143.571 15.1019 143.24 15.1798 142.909 15.2383C142.578 15.2967 142.247 15.3747 141.896 15.4526C141.76 15.4916 141.624 15.5111 141.507 15.5305C141.468 15.5305 141.429 15.5695 141.39 15.589C140.358 15.8812 139.345 16.2125 138.332 16.6606C134.554 18.3556 131.574 21.0638 129.49 24.298C119.597 19.9143 109.508 22.8368 109.508 22.8368C87.3257 10.0363 69.856 35.2671 66.1557 49.4899C62.4553 63.7126 53.886 56.5818 45.7647 63.6737C37.6433 70.7851 21.1864 92.1582 28.8793 108.134C32.5602 115.772 40.0973 121.403 48.7834 124.403C48.6276 124.578 48.4913 124.715 48.3355 124.91C47.8875 125.494 47.4785 126.176 47.089 126.936C43.2913 126.117 38.2666 125.903 34.2156 128.767C27.6134 133.424 27.4771 145.64 31.9759 153.842C31.8591 155.849 32.9108 157.817 34.8194 158.771C34.9947 158.849 35.3647 159.005 35.8321 159.181C36.5138 160.135 37.0785 161.031 37.5265 161.908C36.1242 163.038 35.3257 164.87 35.6568 166.779C35.7542 167.325 36.1827 169.37 37.7797 171.572C38.6171 172.702 39.7467 173.89 41.3242 174.904C42.2201 175.488 43.2134 175.741 44.1872 175.741C44.5767 176.384 45.0246 177.066 45.4725 177.748C44.9272 178.683 44.6546 179.794 44.8104 180.963C45.1609 183.788 47.7512 185.795 50.5752 185.444C50.6531 185.444 50.7894 185.405 50.9452 185.386C51.7437 186.399 52.5422 187.334 53.3602 188.211C52.4448 189.399 52.0748 190.958 52.3864 192.438C53.886 193.841 55.4246 195.205 57.0021 196.51C57.9954 196.588 59.0081 196.394 59.9429 195.868C60.2545 195.692 61.131 195.127 62.1047 194.173C65.9804 195.361 70.6156 195.166 76.7309 193.218C77.5684 194.211 78.7759 194.913 80.1781 195.049C82.2036 195.264 84.0732 194.25 85.0665 192.614C88.9811 193.393 92.253 195.4 95.4665 196.296C97.5504 202.355 100.277 208.473 103.841 214.299V214.318C104.25 215 104.698 215.663 105.126 216.325C105.555 216.968 105.983 217.611 106.431 218.254C106.821 218.819 107.21 219.364 107.619 219.91C113.832 221.001 120.22 221.605 126.744 221.605C136.95 221.605 146.824 220.183 156.211 217.552C156.211 212.993 154.77 208.493 151.965 204.752C154.809 207.674 158.275 209.662 162.015 210.597C162.852 210.811 163.69 210.948 164.527 211.064C164.8 211.103 165.072 211.103 165.345 211.123C165.929 211.181 166.494 211.22 167.078 211.22C167.409 211.22 167.721 211.201 168.052 211.181C168.578 211.162 169.104 211.142 169.63 211.064C169.98 211.026 170.311 210.967 170.662 210.909C171.168 210.831 171.675 210.733 172.181 210.616C172.317 210.577 172.473 210.577 172.609 210.538C172.726 210.499 172.824 210.46 172.921 210.422C175.667 209.642 178.316 208.337 180.672 206.408C189.768 198.946 191.092 185.522 183.633 176.423C181.51 173.832 179.952 170.812 178.822 167.558L207.782 185.736C216.254 176.404 223.11 165.61 227.998 153.784L226.576 129.644L235.769 121.675C236.042 118.519 236.217 115.343 236.217 112.109L236.256 112.167ZM63.5265 128.436C62.1826 128.28 60.7609 128.222 59.3002 128.241C59.5145 127.754 59.6898 127.248 59.7482 126.721C61.0725 126.819 62.3969 126.877 63.7212 126.858C63.5849 127.364 63.5265 127.91 63.5265 128.455V128.436ZM114.708 88.2615C113.968 88.7096 111.962 89.3526 106.723 89.9176C103.335 90.2878 100.219 90.9892 97.3361 92.0413C97.3361 92.0413 97.2972 92.0413 97.2777 92.0413C97.2582 92.0413 97.2193 92.0608 97.1998 92.0803C96.8687 92.1972 96.5376 92.3335 96.226 92.4699C96.9661 90.9112 97.8036 89.5669 98.8747 88.5733C101.991 85.7092 108.632 86.2742 116.15 86.0599C115.604 87.2289 115.078 88.0667 114.708 88.281V88.2615ZM147.681 200.505C132.762 189.38 131.068 161.382 131.691 151.524C131.905 148.27 131.36 145.153 130.25 142.308C130.25 142.308 130.25 142.308 130.25 142.289C130.523 141.626 130.756 140.964 130.99 140.262C131.01 140.204 131.048 140.145 131.068 140.067V140.029C132.081 137.067 132.86 133.891 133.249 130.501C133.717 126.527 134.048 126.118 136.112 125.28C133.561 138.489 131.516 159.278 137.826 179.326C137.826 179.326 137.826 179.346 137.826 179.365C138.079 180.164 138.352 180.943 138.624 181.723C138.858 182.405 139.131 183.106 139.384 183.788C139.657 184.489 139.91 185.171 140.202 185.853C140.397 186.34 140.63 186.827 140.845 187.314C141.137 187.957 141.41 188.6 141.721 189.243C141.955 189.73 142.189 190.217 142.442 190.685C142.753 191.328 143.084 191.951 143.435 192.594C143.688 193.062 143.941 193.53 144.214 193.997C144.584 194.64 144.974 195.303 145.383 195.945C145.655 196.374 145.908 196.803 146.181 197.231C146.648 197.933 147.116 198.634 147.603 199.336C147.856 199.686 148.09 200.056 148.343 200.407C148.83 201.089 149.356 201.751 149.881 202.414C149.2 201.732 148.46 201.089 147.661 200.485L147.681 200.505ZM177.245 106.556C177.245 106.556 177.186 106.478 177.167 106.439C174.596 102.757 170.876 99.8346 166.28 98.3344C165.228 97.9837 164.177 97.7694 163.105 97.594C163.475 95.899 163.806 94.126 164.001 92.1971C164.177 90.58 164.624 89.0798 165.189 87.677C165.365 87.2289 165.559 86.8003 165.754 86.3717C166.397 85.0468 167.137 83.8388 167.857 82.8452C169.454 80.6436 169.377 77.6626 167.643 75.5779L163.592 70.6876L161.041 67.6093L154.166 59.2899C153.543 58.5301 152.725 58.043 151.829 57.8287C153.095 57.5364 154.341 57.1078 155.568 56.5623C155.724 56.4843 155.86 56.4064 155.997 56.3285C156.172 56.4843 156.347 56.6597 156.542 56.7961C160.34 59.8355 164.858 61.3162 169.377 61.3357C169.377 61.6669 169.318 61.9786 169.318 62.3098C169.318 68.5055 172.064 74.0582 176.388 77.8575C175.453 79.533 174.985 81.5203 175.18 83.6245L177.381 106.751C177.381 106.751 177.284 106.615 177.245 106.556Z" fill="black"/>
<path opacity="0.75" d="M54.4314 124.072C54.4314 124.072 43.4861 118.733 35.9295 124.072C28.3925 129.41 29.2689 144.627 35.9295 152.401C42.5902 160.174 38.9677 162.395 51.4711 179.132C58.5407 188.6 64.8314 192.984 78.8344 188.425C92.8179 183.866 98.5632 200.797 109.937 185.522C121.311 170.247 115.526 157.68 96.3819 142.016C77.2374 126.351 70.4209 121.714 54.4314 124.072Z" fill="#C45030"/>
<path d="M41.2463 127.228C41.2463 127.228 35.3257 127.189 35.9295 140.633" stroke="#D98F7A" stroke-width="9.14881" stroke-miterlimit="10" stroke-linecap="round"/>
<path d="M60.1768 180.222C60.1768 180.222 69.4473 189.282 85.1057 179.482" stroke="#D98F7A" stroke-width="9.14881" stroke-miterlimit="10" stroke-linecap="round"/>
<path d="M61.501 128.787C61.501 128.787 46.0763 129.45 53.2628 141.88C60.4493 154.31 68.259 158.207 63.9354 164.422" stroke="#D98F7A" stroke-width="9.14881" stroke-miterlimit="10" stroke-linecap="round"/>
<path d="M39.7273 138.061C38.0134 135.957 37.4681 133.93 37.3513 133.385C36.728 130.599 38.4808 127.832 41.2464 127.209C43.9535 126.605 46.6606 128.241 47.3617 130.911C47.4202 131.066 47.7123 131.729 48.5887 132.235C51.0621 133.658 51.8995 136.814 50.4778 139.288C49.0561 141.763 45.9011 142.601 43.4276 141.178C41.8112 140.243 40.6037 139.132 39.7078 138.041L39.7273 138.061Z" fill="#A64429"/>
<path d="M45.6088 133.015C44.4208 131.554 44.2065 130.073 44.1871 129.976C44.1286 129.508 44.4597 129.079 44.9271 129.021C45.3946 128.962 45.823 129.294 45.8815 129.761C45.8815 129.878 46.271 132.236 48.9781 133.502C49.4065 133.697 49.6013 134.223 49.4065 134.652C49.2118 135.08 48.6859 135.275 48.2575 135.08C47.05 134.515 46.1931 133.775 45.5893 133.034L45.6088 133.015Z" fill="#7D331F"/>
<path d="M41.889 131.962C41.8306 133.482 40.9542 134.69 39.9414 134.651C38.9287 134.612 38.1497 133.346 38.2081 131.826C38.2665 130.306 39.1429 129.098 40.1557 129.137C41.1684 129.176 41.9474 130.443 41.889 131.962Z" fill="#B86954"/>
<path d="M50.4972 138.47C50.1466 139.483 49.056 140.029 48.1017 139.697C47.1474 139.366 46.641 138.256 47.011 137.242C47.3616 136.229 48.4522 135.684 49.4065 136.015C50.3608 136.346 50.8672 137.457 50.4972 138.47Z" fill="#B86954"/>
<path d="M41.675 155.187C38.9678 155.187 37.0592 154.33 36.5529 154.076C34.0016 152.81 32.9693 149.712 34.2353 147.16C35.4817 144.666 38.4615 143.614 40.9738 144.763C41.1296 144.822 41.8308 144.997 42.7851 144.646C45.4532 143.633 48.433 144.978 49.4457 147.627C50.4585 150.296 49.1146 153.277 46.466 154.291C44.7132 154.953 43.0967 155.187 41.675 155.187Z" fill="#A64429"/>
<path d="M41.4802 147.433C39.5911 147.433 38.3057 146.653 38.2278 146.614C37.8188 146.361 37.7019 145.835 37.9551 145.426C38.2083 145.017 38.7341 144.9 39.1431 145.153C39.2405 145.212 41.3049 146.419 43.9926 145.114C44.421 144.9 44.9274 145.075 45.1416 145.504C45.3558 145.932 45.1806 146.439 44.7521 146.653C43.5641 147.238 42.454 147.433 41.4997 147.433H41.4802Z" fill="#7D331F"/>
<path d="M38.3252 149.653C39.4743 150.666 39.8443 152.108 39.1627 152.868C38.481 153.628 37.0204 153.433 35.8713 152.42C34.7222 151.407 34.3522 149.965 35.0338 149.205C35.7155 148.445 37.1762 148.64 38.3252 149.653Z" fill="#B86954"/>
<path d="M48.8031 147.082C49.3679 147.997 49.1147 149.186 48.2383 149.712C47.3619 150.238 46.2129 149.926 45.6481 149.01C45.0833 148.095 45.3365 146.906 46.2129 146.38C47.0893 145.854 48.2383 146.166 48.8031 147.082Z" fill="#B86954"/>
<path d="M86.4687 151.66C84.9496 153.9 83.1579 155.011 82.671 155.264C80.1781 156.648 77.0425 155.771 75.6403 153.277C74.277 150.842 75.095 147.783 77.4515 146.341C77.5878 146.244 78.1332 145.776 78.3669 144.782C79.029 142.016 81.8141 140.301 84.5796 140.964C87.3451 141.626 89.059 144.412 88.3968 147.179C87.9684 149.01 87.2478 150.471 86.4493 151.64L86.4687 151.66Z" fill="#A64429"/>
<path d="M79.964 147.471C78.8929 149.03 77.5491 149.653 77.4517 149.692C77.0232 149.887 76.5168 149.692 76.3221 149.264C76.1273 148.835 76.3221 148.329 76.7506 148.134C76.8479 148.095 79.0097 147.043 79.4577 144.101C79.5356 143.633 79.964 143.302 80.4314 143.38C80.8989 143.458 81.2299 143.886 81.152 144.354C80.9573 145.679 80.4899 146.692 79.964 147.491V147.471Z" fill="#7D331F"/>
<path d="M80.0029 151.329C81.483 150.959 82.8852 151.446 83.1384 152.439C83.3916 153.433 82.3984 154.543 80.9182 154.914C79.4381 155.284 78.0358 154.797 77.7826 153.803C77.5294 152.809 78.5227 151.699 80.0029 151.329Z" fill="#B86954"/>
<path d="M83.7813 141.236C84.8524 141.295 85.6899 142.172 85.6315 143.185C85.573 144.198 84.6577 144.997 83.5865 144.938C82.5154 144.88 81.6779 144.003 81.7363 142.99C81.7948 141.977 82.7101 141.178 83.7813 141.236Z" fill="#B86954"/>
<path d="M65.4935 187.568C63.9744 189.809 62.1826 190.919 61.6957 191.172C59.2028 192.556 56.0673 191.679 54.665 189.185C53.3017 186.75 54.1197 183.691 56.4763 182.249C56.6126 182.152 57.1579 181.684 57.3916 180.69C58.0538 177.924 60.8388 176.209 63.6043 176.872C66.3699 177.534 68.0837 180.32 67.4216 183.087C66.9931 184.918 66.2725 186.38 65.474 187.549L65.4935 187.568Z" fill="#A64429"/>
<path d="M58.9887 183.359C57.9176 184.918 56.5737 185.541 56.4764 185.58C56.0479 185.775 55.5415 185.58 55.3468 185.152C55.152 184.723 55.3468 184.216 55.7752 184.022C55.8726 183.983 58.0344 182.931 58.4824 179.989C58.5603 179.521 58.9887 179.19 59.4561 179.268C59.9235 179.346 60.2546 179.774 60.1767 180.242C59.982 181.567 59.5146 182.58 58.9887 183.379V183.359Z" fill="#7D331F"/>
<path d="M59.0275 187.217C60.5077 186.847 61.9099 187.334 62.1631 188.328C62.4163 189.321 61.423 190.432 59.9429 190.802C58.4627 191.172 57.0605 190.685 56.8073 189.692C56.5541 188.698 57.5474 187.587 59.0275 187.217Z" fill="#B86954"/>
<path d="M62.806 177.125C63.8771 177.183 64.7146 178.06 64.6562 179.073C64.5977 180.086 63.6824 180.885 62.6112 180.827C61.5401 180.768 60.7026 179.891 60.761 178.878C60.8195 177.865 61.7348 177.066 62.806 177.125Z" fill="#B86954"/>
<path d="M73.7122 169.604C75.835 171.299 76.7893 173.17 77.023 173.676C78.211 176.268 77.0814 179.327 74.4912 180.534C71.9594 181.703 68.9796 180.651 67.7331 178.177C67.6358 178.041 67.2268 177.456 66.253 177.144C63.5459 176.268 62.0463 173.365 62.9227 170.637C63.7991 167.929 66.7009 166.429 69.4275 167.305C71.2193 167.89 72.6215 168.728 73.7122 169.604Z" fill="#A64429"/>
<path d="M69.0184 175.761C70.4985 176.949 71.0049 178.352 71.0439 178.43C71.1997 178.878 70.966 179.365 70.518 179.521C70.0701 179.677 69.5832 179.443 69.4274 178.995C69.3884 178.898 68.5315 176.657 65.6102 175.995C65.1427 175.897 64.8506 175.43 64.9675 174.962C65.0648 174.495 65.5323 174.202 65.9997 174.319C67.3045 174.611 68.2783 175.157 69.0184 175.761Z" fill="#7D331F"/>
<path d="M72.8551 176.014C72.6019 174.514 73.2057 173.15 74.1989 172.975C75.2117 172.799 76.2244 173.871 76.497 175.391C76.7502 176.891 76.1465 178.255 75.1532 178.43C74.1405 178.606 73.1278 177.534 72.8551 176.014Z" fill="#B86954"/>
<path d="M63.0979 171.456C63.2342 170.384 64.169 169.624 65.1818 169.76C66.1945 169.897 66.8956 170.871 66.7593 171.943C66.623 173.014 65.6881 173.774 64.6754 173.638C63.6627 173.501 62.9616 172.527 63.0979 171.456Z" fill="#B86954"/>
<path d="M57.1969 178.82C54.9377 180.321 52.8733 180.671 52.328 180.749C49.504 181.1 46.9138 179.113 46.5632 176.268C46.2126 173.502 48.1213 170.969 50.8478 170.521C51.0037 170.482 51.6853 170.248 52.289 169.41C53.9445 167.092 57.158 166.546 59.495 168.202C61.8321 169.858 62.3579 173.073 60.7025 175.411C59.6119 176.931 58.3849 178.041 57.2164 178.82H57.1969Z" fill="#A64429"/>
<path d="M52.737 172.488C51.1595 173.54 49.6793 173.599 49.5819 173.618C49.1145 173.618 48.7055 173.267 48.6861 172.78C48.6861 172.313 49.0366 171.904 49.504 171.884C49.6209 171.884 52.0164 171.728 53.516 169.156C53.7497 168.747 54.2756 168.611 54.6846 168.845C55.0935 169.079 55.2299 169.605 54.9962 170.014C54.334 171.163 53.516 171.943 52.7175 172.469L52.737 172.488Z" fill="#7D331F"/>
<path d="M51.3348 176.093C52.8539 176.287 53.964 177.281 53.8277 178.294C53.6914 179.307 52.3475 179.97 50.8479 179.755C49.3288 179.561 48.2187 178.567 48.355 177.554C48.4914 176.541 49.8352 175.878 51.3348 176.093Z" fill="#B86954"/>
<path d="M58.6185 168.143C59.5923 168.591 60.0402 169.721 59.6118 170.637C59.1833 171.553 58.0342 171.942 57.0605 171.494C56.0867 171.046 55.6387 169.916 56.0672 169C56.4957 168.065 57.6447 167.695 58.6185 168.143Z" fill="#B86954"/>
<path d="M69.5445 163.389C67.9475 161.207 67.519 159.142 67.4217 158.596C66.9542 155.791 68.8434 153.122 71.6479 152.634C74.3939 152.167 77.0037 153.959 77.5685 156.667C77.6269 156.823 77.8801 157.505 78.737 158.051C81.1325 159.609 81.7947 162.805 80.2561 165.201C78.698 167.598 75.504 168.26 73.1085 166.721C71.531 165.708 70.4014 164.519 69.564 163.389H69.5445Z" fill="#A64429"/>
<path d="M75.6791 158.674C74.569 157.135 74.4327 155.654 74.4327 155.576C74.3937 155.109 74.7443 154.68 75.2312 154.66C75.6986 154.621 76.1076 154.972 76.1465 155.44C76.1465 155.557 76.3997 157.934 79.0484 159.336C79.4769 159.551 79.6327 160.077 79.399 160.505C79.1847 160.934 78.6589 161.09 78.2304 160.856C77.0619 160.233 76.2439 159.453 75.6791 158.674Z" fill="#7D331F"/>
<path d="M72.0374 157.427C71.901 158.947 70.9662 160.096 69.934 159.999C68.9213 159.902 68.2007 158.596 68.3565 157.077C68.4928 155.557 69.4276 154.407 70.4598 154.505C71.4726 154.602 72.1932 155.908 72.0374 157.427Z" fill="#B86954"/>
<path d="M80.2755 164.383C79.8665 165.376 78.7564 165.863 77.8216 165.474C76.8867 165.084 76.4388 163.954 76.8672 162.96C77.2762 161.967 78.3864 161.48 79.3212 161.869C80.256 162.259 80.7039 163.389 80.2755 164.383Z" fill="#B86954"/>
<path d="M39.513 166.877C37.916 164.695 37.4875 162.629 37.3901 162.084C36.9227 159.278 38.8118 156.609 41.6163 156.122C44.3624 155.654 46.9721 157.447 47.5369 160.155C47.5953 160.311 47.8485 160.993 48.7055 161.538C51.101 163.097 51.7631 166.292 50.2246 168.689C48.6665 171.085 45.4725 171.767 43.077 170.208C41.4995 169.195 40.3699 168.007 39.5324 166.877H39.513Z" fill="#A64429"/>
<path d="M45.6477 162.142C44.5376 160.603 44.4012 159.123 44.4012 159.045C44.3623 158.577 44.7128 158.148 45.1997 158.129C45.6672 158.09 46.0761 158.441 46.1151 158.908C46.1151 159.025 46.3683 161.402 49.017 162.805C49.4454 163.019 49.6012 163.545 49.3675 163.974C49.1533 164.403 48.6274 164.558 48.199 164.325C47.0304 163.701 46.2125 162.922 45.6477 162.142Z" fill="#7D331F"/>
<path d="M42.0059 160.895C41.8696 162.415 40.9348 163.564 39.9026 163.467C38.8898 163.37 38.1692 162.064 38.325 160.545C38.4614 159.025 39.3962 157.875 40.4284 157.973C41.4411 158.07 42.1617 159.376 42.0059 160.895Z" fill="#B86954"/>
<path d="M50.2441 167.851C49.8351 168.845 48.725 169.332 47.7901 168.942C46.8553 168.553 46.4074 167.423 46.8358 166.429C47.2448 165.435 48.3549 164.948 49.2897 165.338C50.2246 165.728 50.6725 166.858 50.2441 167.851Z" fill="#B86954"/>
<path d="M58.3849 151.621C61.0531 152.069 62.8059 153.238 63.2538 153.569C65.5519 155.245 66.0583 158.479 64.3639 160.778C62.728 163.019 59.5924 163.545 57.3137 162.005C57.1774 161.928 56.5152 161.616 55.522 161.811C52.7175 162.356 50.0104 160.544 49.4651 157.739C48.9197 154.933 50.731 152.225 53.5355 151.679C55.3662 151.309 57.0216 151.368 58.4044 151.601L58.3849 151.621Z" fill="#A64429"/>
<path d="M57.2747 159.278C59.1443 159.59 60.2739 160.564 60.3323 160.642C60.6829 160.954 60.7218 161.499 60.4102 161.85C60.0986 162.2 59.5533 162.239 59.2027 161.928C59.1248 161.85 57.2747 160.311 54.4117 161.148C53.9638 161.285 53.4769 161.012 53.3406 160.564C53.2042 160.116 53.4769 159.629 53.9248 159.492C55.2102 159.122 56.3204 159.122 57.2747 159.278Z" fill="#7D331F"/>
<path d="M60.761 157.641C59.8067 156.453 59.6703 154.972 60.4688 154.329C61.2673 153.686 62.6891 154.134 63.6434 155.323C64.5977 156.511 64.734 157.992 63.9355 158.635C63.137 159.278 61.7153 158.83 60.761 157.641Z" fill="#B86954"/>
<path d="M50.0104 158.401C49.6209 157.407 50.0689 156.277 51.0037 155.907C51.958 155.537 53.0486 156.043 53.4381 157.037C53.8276 158.031 53.3797 159.161 52.4449 159.531C51.4906 159.901 50.3999 159.395 50.0104 158.401Z" fill="#B86954"/>
<path d="M78.659 180.008C79.8665 177.592 81.5025 176.248 81.9309 175.917C84.2096 174.202 87.4425 174.67 89.1564 176.949C90.8313 179.17 90.4223 182.327 88.28 184.061C88.1631 184.177 87.6763 184.723 87.5789 185.717C87.2867 188.561 84.7549 190.626 81.9309 190.334C79.0875 190.042 77.0231 187.509 77.3152 184.684C77.51 182.814 78.0163 181.255 78.659 180.008Z" fill="#A64429"/>
<path d="M85.6702 183.301C86.5272 181.606 87.7736 180.807 87.8515 180.768C88.2605 180.515 88.7863 180.651 89.0395 181.06C89.2927 181.469 89.1564 181.995 88.7669 182.249C88.6695 182.307 86.6635 183.632 86.6245 186.613C86.6245 187.081 86.235 187.47 85.7481 187.47C85.2807 187.47 84.8912 187.081 84.8912 186.593C84.8912 185.269 85.2223 184.178 85.6508 183.32L85.6702 183.301Z" fill="#7D331F"/>
<path d="M85.1055 179.482C83.6838 180.047 82.2426 179.755 81.8531 178.8C81.4636 177.846 82.301 176.618 83.7227 176.053C85.1445 175.488 86.5857 175.781 86.9752 176.735C87.3647 177.69 86.5272 178.917 85.1055 179.482Z" fill="#B86954"/>
<path d="M82.7099 190.004C81.6387 190.101 80.7039 189.341 80.6065 188.328C80.5286 187.315 81.3271 186.419 82.3982 186.321C83.4694 186.224 84.4042 186.984 84.5016 187.997C84.5795 189.01 83.781 189.906 82.7099 190.004Z" fill="#B86954"/>
<path d="M84.3848 172.313C82.7878 170.13 82.3594 168.065 82.262 167.52C81.7946 164.714 83.6837 162.045 86.4882 161.558C89.2343 161.09 91.844 162.883 92.4088 165.591C92.4672 165.747 92.7204 166.429 93.5773 166.974C95.9728 168.533 96.635 171.728 95.0964 174.124C93.5384 176.521 90.3444 177.203 87.9489 175.644C86.3714 174.631 85.2418 173.443 84.4043 172.313H84.3848Z" fill="#A64429"/>
<path d="M90.5195 167.578C89.4093 166.039 89.273 164.558 89.273 164.48C89.2341 164.012 89.5846 163.584 90.0715 163.564C90.5389 163.525 90.9479 163.876 90.9869 164.344C90.9869 164.46 91.2401 166.837 93.8887 168.24C94.3172 168.455 94.473 168.981 94.2393 169.409C94.0251 169.838 93.4992 169.994 93.0708 169.76C91.9022 169.136 91.0843 168.357 90.5195 167.578Z" fill="#7D331F"/>
<path d="M86.8777 166.331C86.7414 167.851 85.8066 169 84.7743 168.903C83.7616 168.805 83.041 167.5 83.1968 165.98C83.3331 164.461 84.268 163.311 85.3002 163.409C86.3129 163.506 87.0335 164.811 86.8777 166.331Z" fill="#B86954"/>
<path d="M95.1158 173.287C94.7068 174.281 93.5967 174.768 92.6619 174.378C91.7271 173.988 91.2791 172.858 91.7076 171.865C92.1361 170.871 93.2267 170.384 94.1615 170.774C95.0964 171.163 95.5443 172.293 95.1158 173.287Z" fill="#B86954"/>
<path d="M56.3985 139.561C57.6449 137.145 59.2614 135.84 59.7093 135.509C62.0074 133.814 65.2404 134.32 66.9348 136.619C68.5902 138.86 68.1617 141.997 65.9999 143.711C65.8831 143.828 65.3962 144.354 65.2793 145.367C64.9677 148.192 62.4164 150.238 59.573 149.926C56.749 149.614 54.7041 147.062 55.0157 144.218C55.2299 142.347 55.7558 140.808 56.3985 139.542V139.561Z" fill="#A64429"/>
<path d="M63.3707 142.932C64.2277 141.237 65.4936 140.457 65.5909 140.418C65.9999 140.165 66.5258 140.301 66.779 140.711C67.0321 141.12 66.8958 141.646 66.4868 141.88C66.3895 141.938 64.364 143.243 64.3056 146.224C64.3056 146.692 63.8966 147.082 63.4292 147.062C62.9617 147.062 62.5722 146.653 62.5917 146.185C62.6112 144.861 62.9617 143.769 63.3902 142.932H63.3707Z" fill="#7D331F"/>
<path d="M62.8642 139.113C61.4425 139.678 60.0013 139.346 59.6118 138.392C59.2418 137.437 60.0792 136.21 61.501 135.664C62.9227 135.099 64.3639 135.43 64.7534 136.385C65.1234 137.34 64.286 138.567 62.8642 139.113Z" fill="#B86954"/>
<path d="M60.352 149.595C59.2808 149.673 58.346 148.913 58.2681 147.9C58.1902 146.887 59.0081 145.991 60.0793 145.913C61.1505 145.835 62.0853 146.595 62.1632 147.608C62.2411 148.621 61.4231 149.517 60.352 149.595Z" fill="#B86954"/>
<path d="M50.069 120.214C51.7049 118.052 53.5356 117.019 54.0225 116.785C56.5738 115.499 59.6705 116.532 60.9558 119.084C62.2023 121.578 61.248 124.598 58.833 125.923C58.6967 126.02 58.1319 126.468 57.8397 127.443C57.0412 130.19 54.1978 131.768 51.4517 130.969C48.7057 130.19 47.1281 127.326 47.9266 124.579C48.4525 122.767 49.2315 121.344 50.0884 120.214H50.069Z" fill="#A64429"/>
<path d="M56.3791 124.696C57.5087 123.176 58.8914 122.63 58.9888 122.591C59.4368 122.416 59.9237 122.63 60.0989 123.078C60.2742 123.527 60.06 124.014 59.612 124.189C59.5147 124.228 57.2944 125.163 56.7296 128.086C56.6323 128.553 56.1843 128.865 55.7169 128.768C55.2495 128.67 54.9379 128.222 55.0353 127.754C55.2885 126.449 55.7948 125.436 56.3791 124.676V124.696Z" fill="#7D331F"/>
<path d="M56.4959 120.838C54.9962 121.149 53.6329 120.584 53.4187 119.591C53.2045 118.597 54.2562 117.525 55.7558 117.214C57.2554 116.902 58.6187 117.467 58.8329 118.461C59.0472 119.454 57.9955 120.526 56.4959 120.838Z" fill="#B86954"/>
<path d="M52.2698 130.755C51.1986 130.657 50.4001 129.742 50.4975 128.728C50.5949 127.715 51.5492 126.975 52.6203 127.072C53.6915 127.17 54.49 128.085 54.3926 129.099C54.2952 130.112 53.3409 130.852 52.2698 130.755Z" fill="#B86954"/>
<path d="M191.735 78.2667C203.158 78.2667 212.418 69.0029 212.418 57.5755C212.418 46.1481 203.158 36.8843 191.735 36.8843C180.312 36.8843 171.052 46.1481 171.052 57.5755C171.052 69.0029 180.312 78.2667 191.735 78.2667Z" fill="#AE392E"/>
<path d="M200.432 74.6589C210.974 70.2582 215.954 58.1414 211.555 47.5953C207.156 37.0492 195.044 32.0674 184.502 36.4681C173.96 40.8688 168.98 52.9856 173.379 63.5317C177.778 74.0778 189.89 79.0596 200.432 74.6589Z" fill="#E84C3D"/>
<path d="M173.973 60.3229C173.973 60.3229 173.954 60.3229 173.934 60.3229C173.077 60.5762 172.61 61.5114 172.902 62.3492C174.051 65.6029 175.979 68.5059 178.472 70.7855C179.192 71.4479 180.342 71.292 180.867 70.4348C180.867 70.4348 180.867 70.4348 180.867 70.4153C181.257 69.7723 181.121 68.954 180.575 68.4475C178.452 66.4991 176.816 64.0637 175.843 61.2776C175.57 60.4983 174.733 60.0697 173.934 60.3035L173.973 60.3229Z" fill="#BD483C"/>
<path d="M188.463 72.6362C187.956 72.5193 187.45 72.3829 186.963 72.2076C186.223 71.9543 185.425 72.3245 185.132 73.0453C185.113 73.1038 185.074 73.1817 185.055 73.2402C184.743 74.0195 185.113 74.9157 185.912 75.1885C186.515 75.3833 187.138 75.5782 187.781 75.7145C188.56 75.8899 189.359 75.3833 189.534 74.604C189.534 74.5066 189.573 74.4092 189.592 74.3312C189.729 73.5714 189.222 72.831 188.463 72.6557V72.6362Z" fill="#BD483C"/>
<path d="M208.795 45.1451C208.795 45.1451 208.795 45.1451 208.815 45.1256C209.36 44.5801 209.438 43.7034 208.971 43.0799C205.835 38.93 201.161 35.988 195.805 35.1112C195.006 34.9749 194.247 35.4814 194.052 36.2802V36.3192C193.838 37.196 194.383 38.0922 195.279 38.2286C199.817 38.9689 203.771 41.4628 206.439 44.9893C207.003 45.7491 208.114 45.827 208.776 45.1646L208.795 45.1451Z" fill="#ED7064"/>
<path d="M209.087 55.5493C209.087 49.0809 204.803 43.6256 198.941 41.8331C196.857 41.2096 194.773 42.7683 194.773 44.9504V66.1482C194.773 68.3109 196.876 69.889 198.941 69.2655C204.822 67.4731 209.087 62.0178 209.087 55.5493Z" fill="#ED7064"/>
<path d="M175.823 55.5493C175.823 49.0809 180.108 43.6256 185.97 41.8331C188.054 41.2096 190.138 42.7683 190.138 44.9504V66.1482C190.138 68.3109 188.034 69.889 185.97 69.2655C180.088 67.4731 175.823 62.0178 175.823 55.5493Z" fill="#ED7064"/>
<path d="M180.556 57.7507C180.887 57.6923 181.198 57.5559 181.452 57.3805L183.282 56.6207C184.256 56.231 184.256 54.8477 183.282 54.4581L181.452 53.6982C181.179 53.5034 180.887 53.3865 180.556 53.328C180.439 53.3085 180.302 53.2891 180.186 53.2891C178.939 53.2891 177.946 54.3022 177.946 55.5296C177.946 56.7571 178.959 57.7702 180.186 57.7702C180.322 57.7702 180.439 57.7702 180.556 57.7312V57.7507Z" fill="#FFD800"/>
<path d="M187.625 65.6031C187.742 65.2913 187.781 64.9601 187.762 64.6289L188.034 62.6611C188.171 61.6285 186.983 60.9271 186.165 61.57L184.587 62.778C184.295 62.9144 184.022 63.1092 183.808 63.382C183.73 63.4794 183.652 63.5768 183.594 63.6937C182.971 64.7653 183.341 66.1486 184.412 66.7526C185.483 67.376 186.866 67.0058 187.47 65.9343C187.528 65.8174 187.586 65.7005 187.625 65.6031Z" fill="#FFD800"/>
<path d="M201.102 63.3816C200.888 63.1283 200.616 62.914 200.323 62.7776L198.746 61.5697C197.908 60.9267 196.72 61.6086 196.876 62.6607L197.149 64.6285C197.129 64.9597 197.149 65.291 197.285 65.6027C197.324 65.7196 197.383 65.8365 197.441 65.9339C198.064 67.0055 199.428 67.3757 200.499 66.7522C201.57 66.1287 201.94 64.7649 201.317 63.6933C201.258 63.5764 201.18 63.479 201.102 63.3816Z" fill="#FFD800"/>
<path d="M204.355 53.3281C204.024 53.3865 203.712 53.5229 203.459 53.6983L201.628 54.4581C200.655 54.8478 200.655 56.2311 201.628 56.6207L203.459 57.3806C203.732 57.5754 204.024 57.6923 204.355 57.7508C204.472 57.7703 204.608 57.7897 204.725 57.7897C205.971 57.7897 206.965 56.7766 206.965 55.5492C206.965 54.3217 205.952 53.3086 204.725 53.3086C204.589 53.3086 204.472 53.3086 204.355 53.3476V53.3281Z" fill="#FFD800"/>
<path d="M197.285 45.4768C197.168 45.7885 197.129 46.1197 197.149 46.451L196.876 48.4188C196.74 49.4514 197.928 50.1528 198.746 49.5098L200.323 48.3019C200.616 48.1655 200.888 47.9706 201.102 47.6979C201.18 47.6005 201.258 47.503 201.317 47.3861C201.94 46.3146 201.57 44.9313 200.499 44.3273C199.427 43.7038 198.045 44.074 197.441 45.1456C197.383 45.2625 197.324 45.3794 197.285 45.4768Z" fill="#FFD800"/>
<path d="M183.808 47.6979C184.022 47.9512 184.295 48.1655 184.587 48.3019L186.165 49.5098C187.002 50.1528 188.19 49.4709 188.034 48.4188L187.762 46.451C187.781 46.1197 187.762 45.7885 187.625 45.4768C187.586 45.3599 187.528 45.243 187.47 45.1456C186.846 44.074 185.483 43.7038 184.412 44.3273C183.341 44.9507 182.971 46.3146 183.594 47.3861C183.652 47.503 183.73 47.6005 183.808 47.6979Z" fill="#FFD800"/>
<path d="M167.624 24.415C172.337 34.8385 167.702 47.0935 157.282 51.8084C146.863 56.5234 134.613 51.8864 129.9 41.4628C125.186 31.0393 129.822 18.7843 140.241 14.0694C150.661 9.35442 162.911 13.9914 167.624 24.415Z" fill="#AE392E"/>
<path d="M167.449 22.2712C172.162 32.6947 167.527 44.9497 157.107 49.6646C146.688 54.3796 134.438 49.7426 129.724 39.319C125.011 28.8955 129.647 16.6405 140.066 11.9256C150.485 7.21062 162.736 11.8476 167.449 22.2712Z" fill="#E84C3D"/>
<path d="M133.717 42.7673C133.717 42.7673 133.717 42.7673 133.698 42.7868C133.016 43.3713 132.977 44.4039 133.6 45.0663C135.976 47.5602 138.936 49.3916 142.15 50.4632C143.085 50.7749 144.059 50.1515 144.195 49.1578C144.195 49.1578 144.195 49.1383 144.195 49.1188C144.292 48.3785 143.825 47.6771 143.104 47.4433C140.378 46.5471 137.865 44.9884 135.859 42.8647C135.295 42.2607 134.34 42.2413 133.717 42.7673Z" fill="#BD483C"/>
<path d="M151.985 48.0087C151.479 48.1062 150.953 48.1841 150.446 48.2425C149.667 48.3205 149.083 48.9829 149.122 49.7622C149.122 49.8402 149.122 49.8986 149.122 49.9766C149.161 50.8143 149.862 51.4768 150.7 51.3988C151.342 51.3404 151.985 51.243 152.628 51.1066C153.426 50.9507 153.932 50.1519 153.757 49.3726C153.738 49.2752 153.718 49.1777 153.699 49.0998C153.504 48.34 152.744 47.8918 151.985 48.0282V48.0087Z" fill="#BD483C"/>
<path d="M159.191 14.5949C159.191 14.5949 159.191 14.5754 159.191 14.5559C159.464 13.8351 159.191 12.9973 158.49 12.6271C153.913 10.1332 148.46 9.37339 143.221 10.7762C142.442 10.9905 141.955 11.7698 142.091 12.5686C142.091 12.5686 142.091 12.5881 142.091 12.6076C142.267 13.5038 143.143 14.0689 144 13.8351C148.44 12.6466 153.076 13.27 156.951 15.3937C157.789 15.8418 158.821 15.4717 159.152 14.5949H159.191Z" fill="#ED7064"/>
<path d="M163.748 23.9471C161.08 18.0632 154.945 14.8484 148.85 15.6278C146.688 15.9005 145.441 18.1996 146.337 20.1868L155.062 39.5142C155.958 41.5015 158.509 42.0665 160.145 40.6248C164.761 36.5723 166.417 29.8311 163.748 23.9471Z" fill="#ED7064"/>
<path d="M133.444 37.6438C130.776 31.7599 132.431 25.0187 137.047 20.9662C138.683 19.5439 141.234 20.1089 142.13 22.0767L150.855 41.4041C151.751 43.3914 150.485 45.6709 148.343 45.9632C142.247 46.762 136.112 43.5473 133.444 37.6438Z" fill="#ED7064"/>
<path d="M138.644 37.7217C138.917 37.5268 139.15 37.293 139.306 37.0008L140.67 35.559C141.39 34.7992 140.825 33.5523 139.774 33.5912L137.787 33.6692C137.476 33.6107 137.144 33.6107 136.813 33.7081C136.697 33.7471 136.58 33.7861 136.463 33.825C135.333 34.3316 134.827 35.6759 135.333 36.806C135.84 37.936 137.164 38.4426 138.313 37.936C138.43 37.8775 138.547 37.8191 138.644 37.7606V37.7217Z" fill="#FFD800"/>
<path d="M148.343 41.9492C148.323 41.618 148.226 41.2868 148.07 41.014L147.505 39.1047C147.213 38.0915 145.831 37.9552 145.344 38.8904L144.409 40.6438C144.195 40.8971 144.039 41.1894 143.941 41.5011C143.902 41.618 143.883 41.7349 143.864 41.8713C143.747 43.0987 144.643 44.2093 145.87 44.3262C147.096 44.4431 148.207 43.5469 148.323 42.3194C148.323 42.183 148.323 42.0661 148.323 41.9492H148.343Z" fill="#FFD800"/>
<path d="M159.697 34.3902C159.386 34.2344 159.074 34.1759 158.743 34.1564L156.815 33.6888C155.802 33.455 155.004 34.5656 155.549 35.4423L156.601 37.1179C156.698 37.4296 156.873 37.7024 157.126 37.9557C157.204 38.0336 157.302 38.131 157.419 38.209C158.431 38.9298 159.834 38.696 160.554 37.7024C161.275 36.6893 161.041 35.2865 160.048 34.5656C159.95 34.4877 159.834 34.4292 159.717 34.3708L159.697 34.3902Z" fill="#FFD800"/>
<path d="M158.529 23.8883C158.256 24.0832 158.022 24.317 157.867 24.5897L156.503 26.0315C155.783 26.7913 156.347 28.0383 157.399 27.9993L159.386 27.9214C159.697 27.9798 160.028 27.9798 160.359 27.8824C160.476 27.8434 160.593 27.8045 160.71 27.7655C161.84 27.2589 162.346 25.9341 161.84 24.7846C161.333 23.6545 159.989 23.148 158.86 23.6545C158.743 23.713 158.646 23.7714 158.529 23.8299V23.8883Z" fill="#FFD800"/>
<path d="M148.849 19.6412C148.869 19.9919 148.966 20.3036 149.122 20.5958L149.687 22.5052C149.979 23.5183 151.362 23.6547 151.849 22.7195L152.783 20.966C152.998 20.7127 153.154 20.4205 153.251 20.1088C153.29 19.9919 153.309 19.875 153.329 19.7386C153.446 18.5111 152.55 17.4006 151.323 17.2837C150.096 17.1668 148.986 18.063 148.869 19.2905C148.869 19.4268 148.869 19.5437 148.869 19.6606L148.849 19.6412Z" fill="#FFD800"/>
<path d="M137.476 27.2198C137.787 27.3757 138.099 27.4341 138.43 27.4536L140.358 27.9212C141.371 28.155 142.169 27.0445 141.624 26.1677L140.572 24.4921C140.475 24.1804 140.3 23.9077 140.046 23.6544C139.969 23.557 139.871 23.479 139.754 23.4011C138.742 22.6802 137.339 22.914 136.619 23.9077C135.898 24.9208 136.132 26.3236 137.125 27.0445C137.222 27.1224 137.339 27.1808 137.456 27.2393L137.476 27.2198Z" fill="#FFD800"/>
<path d="M187.353 48.847C180.205 57.7703 167.176 59.1926 158.256 52.0423C149.336 44.8919 147.914 31.8576 155.062 22.9343C162.21 14.011 175.239 12.5887 184.159 19.739C193.078 26.8894 194.5 39.9237 187.353 48.847Z" fill="#AE392E"/>
<path d="M189.183 47.7166C182.036 56.64 169.006 58.0622 160.087 50.9119C151.167 43.7615 149.745 30.7272 156.893 21.8039C164.04 12.8806 177.069 11.4583 185.989 18.6087C194.909 25.759 196.331 38.7933 189.183 47.7166Z" fill="#E84C3D"/>
<path d="M155.627 26.9478H155.607C154.77 26.5971 153.835 27.0453 153.543 27.9025C152.394 31.1562 152.102 34.6242 152.628 37.9754C152.783 38.9495 153.777 39.534 154.711 39.2028C154.711 39.2028 154.731 39.2028 154.75 39.2028C155.452 38.9495 155.861 38.2287 155.763 37.4688C155.335 34.6243 155.568 31.6823 156.562 28.9157C156.834 28.1363 156.445 27.2791 155.685 26.9673L155.627 26.9478Z" fill="#BD483C"/>
<path d="M159.23 45.6124C158.918 45.2033 158.607 44.7746 158.334 44.346C157.905 43.6836 157.068 43.4693 156.386 43.8589C156.328 43.8979 156.27 43.9369 156.192 43.9563C155.452 44.3655 155.198 45.3007 155.646 46.0021C155.997 46.5476 156.367 47.0737 156.776 47.5802C157.282 48.2232 158.217 48.3206 158.84 47.7945C158.918 47.7361 158.996 47.6776 159.055 47.5997C159.639 47.0932 159.717 46.1969 159.23 45.5929V45.6124Z" fill="#BD483C"/>
<path d="M192.28 36.884C192.28 36.884 192.299 36.884 192.319 36.884C193.098 36.8061 193.701 36.1632 193.721 35.3838C193.877 30.1818 192.066 24.9603 188.443 20.9273C187.898 20.3233 186.982 20.2453 186.34 20.7324C186.34 20.7324 186.34 20.7324 186.32 20.7519C185.6 21.2974 185.483 22.3495 186.087 23.012C189.164 26.4215 190.702 30.8442 190.566 35.2669C190.546 36.2216 191.345 36.9815 192.28 36.8646V36.884Z" fill="#ED7064"/>
<path d="M186.009 45.1833C190.04 40.1372 190.137 33.2011 186.671 28.1355C185.444 26.343 182.834 26.2651 181.471 27.9601L168.208 44.5014C166.845 46.1965 167.507 48.7293 169.513 49.5476C175.219 51.8271 181.958 50.249 186.009 45.2028V45.1833Z" fill="#ED7064"/>
<path d="M160.048 24.3756C164.079 19.3294 170.837 17.7512 176.544 20.0308C178.55 20.8296 179.212 23.3819 177.848 25.077L164.586 41.6182C163.222 43.3133 160.613 43.2353 159.386 41.4429C155.919 36.3772 155.997 29.4412 160.048 24.395V24.3756Z" fill="#ED7064"/>
<path d="M162.365 29.052C162.657 29.2078 162.988 29.3052 163.3 29.3247L165.209 29.8897C166.221 30.182 167.078 29.1104 166.572 28.1947L165.618 26.4607C165.52 26.1489 165.365 25.8567 165.15 25.6034C165.072 25.506 164.975 25.4281 164.878 25.3501C163.904 24.5708 162.502 24.7267 161.723 25.7008C160.944 26.675 161.099 28.0778 162.073 28.8571C162.17 28.9351 162.287 29.013 162.385 29.0714L162.365 29.052Z" fill="#FFD800"/>
<path d="M162.989 39.6118C163.281 39.4364 163.514 39.2027 163.69 38.9299L165.131 37.5661C165.89 36.8452 165.384 35.5593 164.352 35.5398L162.365 35.5008C162.054 35.4229 161.723 35.4229 161.392 35.5008C161.275 35.5203 161.158 35.5593 161.041 35.5982C159.892 36.0464 159.308 37.3517 159.756 38.5013C160.204 39.6508 161.508 40.2353 162.658 39.7871C162.774 39.7482 162.891 39.6897 162.989 39.6118Z" fill="#FFD800"/>
<path d="M174.869 46.3136C174.869 45.9824 174.791 45.6511 174.635 45.3589L174.168 43.4301C173.915 42.4169 172.571 42.2026 172.025 43.0988L170.993 44.7939C170.779 45.0277 170.604 45.3199 170.487 45.6317C170.448 45.7486 170.409 45.8655 170.389 46.0018C170.195 47.2293 171.052 48.3788 172.259 48.5541C173.486 48.749 174.635 47.8917 174.81 46.6838C174.81 46.5669 174.83 46.4305 174.83 46.3136H174.869Z" fill="#FFD800"/>
<path d="M183.691 40.4886C183.399 40.3327 183.068 40.2353 182.756 40.2159L180.848 39.6508C179.835 39.3586 178.978 40.4302 179.484 41.3459L180.439 43.0799C180.536 43.3916 180.692 43.6839 180.906 43.9372C180.984 44.0346 181.081 44.1125 181.179 44.1904C182.153 44.9698 183.555 44.8139 184.334 43.8397C185.113 42.8656 184.957 41.4628 183.983 40.6834C183.886 40.6055 183.789 40.5276 183.672 40.4691L183.691 40.4886Z" fill="#FFD800"/>
<path d="M183.087 29.9477C182.795 30.1231 182.562 30.3569 182.386 30.6296L180.945 31.9934C180.186 32.7143 180.692 34.0002 181.724 34.0197L183.711 34.0587C184.022 34.1366 184.353 34.1366 184.684 34.0587C184.801 34.0392 184.918 34.0002 185.035 33.9613C186.184 33.5131 186.768 32.2078 186.32 31.0582C185.872 29.9087 184.568 29.3242 183.418 29.7724C183.302 29.8113 183.185 29.8698 183.087 29.9477Z" fill="#FFD800"/>
<path d="M171.188 23.246C171.188 23.5967 171.266 23.9084 171.422 24.2007L171.889 26.1295C172.142 27.1427 173.486 27.357 174.031 26.4607L175.064 24.7657C175.278 24.5319 175.453 24.2396 175.57 23.9279C175.609 23.811 175.648 23.6941 175.667 23.5577C175.862 22.3303 175.005 21.1808 173.798 21.0054C172.571 20.8106 171.422 21.6679 171.246 22.8758C171.246 22.9927 171.227 23.1291 171.227 23.246H171.188Z" fill="#FFD800"/>
<path d="M111.242 18.1021C111.242 18.1021 125.44 13.9522 136.677 22.8365C147.914 31.7209 157.983 47.1127 145.558 67.8234C133.132 88.5341 107.697 77.2922 100.589 83.7996C93.48 90.3071 96.0703 111.252 79.4965 119.006C62.9227 126.76 38.3055 119.376 30.6127 103.4C22.9198 87.4235 39.3767 66.0309 47.498 58.939C55.6194 51.8276 64.1886 58.9585 67.889 44.7552C71.5894 30.5324 89.059 5.30162 111.242 18.1021Z" fill="white"/>
<path d="M112.157 70.5316C123.774 70.5316 133.191 61.1108 133.191 49.4897C133.191 37.8685 123.774 28.4478 112.157 28.4478C100.541 28.4478 91.1236 37.8685 91.1236 49.4897C91.1236 61.1108 100.541 70.5316 112.157 70.5316Z" fill="#FFD800"/>
<path d="M96.0121 53.7173C96.0121 53.7173 95.9537 53.7173 95.9342 53.7173C93.6166 54.0485 92.2338 56.5619 93.266 58.6661C95.9731 64.2188 101.037 68.4077 107.172 69.9079C109.431 70.4534 111.573 68.6025 111.437 66.2645C111.437 66.2451 111.437 66.2256 111.437 66.1866C111.359 64.6474 110.249 63.3615 108.749 62.9719C104.776 61.9587 101.485 59.2506 99.693 55.6462C99.0113 54.2629 97.5507 53.464 96.0316 53.6978L96.0121 53.7173Z" fill="#F0C419"/>
<path d="M112.157 35.5399C116.598 35.5399 120.551 37.6246 123.103 40.8783C124.388 42.5149 126.745 42.7097 128.264 41.3069C128.283 41.2874 128.303 41.2679 128.322 41.2484C129.646 40.021 129.841 37.9753 128.731 36.553C124.875 31.6237 118.876 28.4285 112.138 28.4285C109.372 28.4285 106.743 28.974 104.328 29.9482C102.458 30.708 101.563 32.8317 102.381 34.6631C102.381 34.6826 102.381 34.7021 102.4 34.7216C103.16 36.4556 105.185 37.2544 106.938 36.5335C108.535 35.8906 110.288 35.5204 112.118 35.5204L112.157 35.5399Z" fill="#FFEF99"/>
<path d="M129.023 51.7302C129.023 51.7302 128.965 51.7302 128.945 51.7302C127.329 51.5938 125.829 52.568 125.303 54.1072C124.817 55.51 124.096 56.8153 123.2 57.9649C122.265 59.1728 122.207 60.8484 123.044 62.1148C123.044 62.1343 123.064 62.1538 123.083 62.1732C124.408 64.1411 127.309 64.2385 128.77 62.3681C130.153 60.5756 131.263 58.5494 132.023 56.3672C132.763 54.2241 131.263 51.9251 129.004 51.7497L129.023 51.7302Z" fill="#FFEF99"/>
<path d="M71.0987 103.77C82.6287 102.353 90.828 91.8546 89.4123 80.3201C87.9966 68.7856 77.502 60.5831 65.972 61.9994C54.442 63.4156 46.2428 73.9143 47.6585 85.4488C49.0742 96.9833 59.5687 105.186 71.0987 103.77Z" fill="#FFD800"/>
<path d="M52.4059 87.1312C52.4059 87.1312 52.3475 87.1312 52.328 87.1312C50.0104 87.4624 48.6277 89.9757 49.6599 92.0799C52.367 97.6326 57.4307 101.822 63.5655 103.322C65.8246 103.867 67.967 102.016 67.8306 99.6784C67.8306 99.6589 67.8306 99.6394 67.8306 99.6004C67.7527 98.0613 66.6426 96.7754 65.143 96.3857C61.17 95.3726 57.8786 92.6644 56.0868 89.06C55.4052 87.6767 53.9445 86.8779 52.4254 87.1117L52.4059 87.1312Z" fill="#F0C419"/>
<path d="M68.5316 68.9532C72.9721 68.9532 76.9256 71.0379 79.4769 74.2916C80.7623 75.9282 83.1189 76.123 84.638 74.7202C84.6574 74.7008 84.6769 74.6813 84.6964 74.6618C86.0207 73.4343 86.2155 71.3886 85.1054 69.9663C81.2492 65.0371 75.2507 61.8418 68.5121 61.8418C65.7466 61.8418 63.1174 62.3873 60.7024 63.3615C58.8328 64.1213 57.9369 66.245 58.7549 68.0764C58.7549 68.0959 58.7549 68.1154 58.7743 68.1349C59.5339 69.8689 61.5593 70.6677 63.3121 69.9468C64.9092 69.3039 66.662 68.9337 68.4927 68.9337L68.5316 68.9532Z" fill="#FFEF99"/>
<path d="M85.3976 85.1245C85.3976 85.1245 85.3392 85.1245 85.3197 85.1245C83.7032 84.9881 82.2036 85.9623 81.6778 87.5015C81.1909 88.9043 80.4703 90.2096 79.5744 91.3591C78.6396 92.5671 78.5811 94.2427 79.4186 95.5091C79.4186 95.5286 79.4381 95.548 79.4575 95.5675C80.7819 97.5353 83.6838 97.6328 85.1444 95.7624C86.5272 93.9699 87.6373 91.9436 88.3969 89.7615C89.1369 87.6184 87.6373 85.3193 85.3781 85.144L85.3976 85.1245Z" fill="#FFEF99"/>
<path d="M136.677 234.172C132.256 234.172 127.796 232.808 123.979 229.944C87.8711 203.038 90.5003 149.848 90.9288 143.867C91.7468 132.118 101.933 123.273 113.676 124.111C125.381 124.929 134.223 135.08 133.444 146.789C132.84 156.648 134.515 184.645 149.434 195.77C158.86 202.804 160.827 216.15 153.796 225.599C149.609 231.21 143.201 234.191 136.697 234.191L136.677 234.172Z" fill="#E84C3D"/>
<path d="M129.023 142.211C129.023 142.211 129.159 142.191 129.237 142.172C131.419 141.84 132.782 139.561 131.944 137.515C130.289 133.346 127.348 129.819 123.589 127.403C121.33 125.962 118.35 127.657 118.35 130.365V130.618C118.35 131.807 118.993 132.898 119.986 133.56C122.362 135.138 124.213 137.398 125.303 140.028C125.926 141.529 127.426 142.464 129.043 142.211H129.023Z" fill="#ED7064"/>
<path d="M104.795 133.248C105.789 132.644 106.86 132.138 108.009 131.787C109.703 131.261 110.677 129.468 110.307 127.734C110.307 127.715 110.307 127.696 110.307 127.657C109.859 125.65 107.814 124.422 105.866 125.026C104.211 125.533 102.653 126.254 101.192 127.13C99.381 128.222 98.8941 130.676 100.218 132.313C100.218 132.333 100.257 132.352 100.277 132.371C101.387 133.755 103.315 134.144 104.834 133.229L104.795 133.248Z" fill="#ED7064"/>
<path d="M147.953 226.592C147.837 226.456 147.72 226.32 147.622 226.164C146.668 224.936 144.974 224.508 143.61 225.268C141.273 226.573 138.586 227.216 135.781 227.04C132.821 226.865 129.997 225.638 127.64 223.826C126.861 223.241 126.121 222.618 125.401 221.994C124.252 221.001 122.557 220.903 121.272 221.722C121.252 221.722 121.233 221.741 121.213 221.761C119.207 223.027 118.974 225.891 120.785 227.411C121.817 228.287 122.869 229.125 123.979 229.944C127.796 232.788 132.256 234.171 136.677 234.171C140.241 234.171 143.786 233.275 146.941 231.541C148.752 230.547 149.258 228.19 147.973 226.592H147.953Z" fill="#B34035"/>
<path d="M114.806 210.636C113.676 209.077 112.605 207.499 111.612 205.882C110.619 204.246 108.457 203.758 106.821 204.752L106.762 204.791C105.126 205.785 104.562 207.928 105.555 209.564C106.646 211.357 107.834 213.13 109.099 214.844C110.58 216.871 113.637 216.773 114.981 214.65C114.981 214.63 115.001 214.611 115.02 214.591C115.78 213.364 115.663 211.805 114.825 210.636H114.806Z" fill="#B34035"/>
<path d="M121.973 154.29H99.7318C97.122 154.29 94.9992 152.167 94.9992 149.556C94.9992 146.945 97.122 144.822 99.7318 144.822H121.973C124.583 144.822 126.705 146.945 126.705 149.556C126.705 152.167 124.583 154.29 121.973 154.29Z" fill="#B34035"/>
<path d="M125.069 175.858L103.023 178.839C100.433 179.19 98.0568 177.378 97.7062 174.787C97.3556 172.196 99.1669 169.819 101.757 169.468L123.804 166.487C126.394 166.136 128.77 167.948 129.12 170.54C129.471 173.131 127.66 175.508 125.069 175.858Z" fill="#B34035"/>
<path d="M133.756 194.913L111.846 198.79C109.275 199.238 106.821 197.524 106.353 194.952C105.905 192.38 107.619 189.925 110.19 189.458L132.1 185.581C134.671 185.133 137.125 186.847 137.592 189.419C138.04 191.991 136.326 194.446 133.756 194.913Z" fill="#B34035"/>
<path d="M147.992 211.103L126.998 218.468C124.524 219.325 121.837 218.039 120.96 215.565C120.103 213.091 121.389 210.402 123.862 209.525L144.857 202.161C147.33 201.303 150.018 202.589 150.894 205.064C151.751 207.538 150.466 210.227 147.992 211.103Z" fill="#B34035"/>
<path d="M153.971 127.579L213.801 102.854C220.13 100.244 227.161 104.647 227.55 111.486L231.348 176.131C231.816 184.217 222.954 189.477 216.099 185.171L152.472 145.25C145.616 140.944 146.473 130.677 153.952 127.579H153.971Z" fill="#FFEFD9"/>
<path d="M217.793 130.15L201.258 119.785C199.311 118.558 198.727 116.006 199.954 114.057C201.181 112.109 203.732 111.524 205.679 112.752L222.214 123.117C224.162 124.344 224.746 126.897 223.519 128.845C222.292 130.793 219.741 131.378 217.793 130.15Z" fill="#D9B34F"/>
<path d="M215.475 151.992L182.581 131.359C180.633 130.132 180.049 127.579 181.276 125.631C182.503 123.683 185.054 123.098 187.002 124.326L219.896 144.958C221.844 146.186 222.428 148.738 221.201 150.686C219.974 152.635 217.423 153.219 215.475 151.992Z" fill="#D9B34F"/>
<path d="M217.189 173.385L162.619 139.152C160.671 137.925 160.087 135.373 161.314 133.424C162.541 131.476 165.092 130.892 167.04 132.119L221.61 166.351C223.558 167.579 224.142 170.131 222.915 172.079C221.688 174.028 219.137 174.612 217.189 173.385Z" fill="#D9B34F"/>
<path d="M183.029 143.36L176.914 78.9095C176.271 72.0904 182.542 66.6545 189.183 68.2716L252.07 83.566C259.938 85.4754 262.373 95.4898 256.238 100.789L199.466 149.965C193.332 155.264 183.789 151.446 183.01 143.36H183.029Z" fill="#FFEFD9"/>
<path d="M204.16 83.0597L189.417 95.8407C187.684 97.3409 185.054 97.1461 183.555 95.4121C182.055 93.6781 182.25 91.0478 183.983 89.5476L198.726 76.7666C200.46 75.2664 203.089 75.4612 204.588 77.1952C206.088 78.9292 205.893 81.5595 204.16 83.0597Z" fill="#D9B34F"/>
<path d="M224.376 91.671L195.026 117.097C193.293 118.597 190.663 118.402 189.164 116.668C187.664 114.934 187.859 112.304 189.592 110.804L218.942 85.3779C220.675 83.8777 223.304 84.0726 224.804 85.8066C226.304 87.5406 226.109 90.1708 224.376 91.671Z" fill="#D9B34F"/>
<path d="M245.312 96.2882L196.604 138.469C194.87 139.97 192.241 139.775 190.741 138.041C189.242 136.307 189.437 133.677 191.17 132.176L239.878 89.9951C241.612 88.4949 244.241 88.6897 245.741 90.4237C247.24 92.1578 247.045 94.788 245.312 96.2882Z" fill="#D9B34F"/>
<path d="M163.787 205.94C159.502 204.868 155.49 202.472 152.472 198.77C123.92 163.954 139.306 112.966 141.156 107.257C144.798 96.0545 156.795 89.9173 167.994 93.5606C179.153 97.1845 185.288 109.167 181.705 120.331C178.725 129.741 173.603 157.329 185.405 171.708C192.864 180.807 191.54 194.231 182.445 201.693C177.03 206.135 170.078 207.46 163.787 205.901V205.94Z" fill="#E84C3D"/>
<path d="M178.53 114.856C178.53 114.856 178.666 114.856 178.744 114.875C180.945 115.09 182.795 113.2 182.503 110.998C181.899 106.556 179.893 102.406 176.816 99.1718C174.966 97.2234 171.675 98.1586 171.012 100.769L170.954 101.003C170.662 102.172 171.032 103.361 171.83 104.237C173.739 106.342 175.005 108.972 175.414 111.797C175.648 113.395 176.894 114.68 178.511 114.817L178.53 114.856Z" fill="#ED7064"/>
<path d="M157.185 100.322C158.295 99.9709 159.464 99.7566 160.652 99.6787C162.424 99.5812 163.807 98.0616 163.846 96.2886C163.846 96.2691 163.846 96.2496 163.846 96.2106C163.904 94.1649 162.21 92.4699 160.165 92.5868C158.431 92.6842 156.756 92.9959 155.12 93.5025C153.095 94.1259 152.043 96.386 152.939 98.2954C152.939 98.3148 152.959 98.3538 152.978 98.3733C153.718 99.9709 155.51 100.828 157.185 100.302V100.322Z" fill="#ED7064"/>
<path d="M176.349 200.816C175.687 199.336 174.031 198.634 172.454 199.043C170.214 199.608 167.838 199.628 165.501 199.043C162.521 198.303 159.911 196.647 157.964 194.27C152.433 187.529 148.732 180.086 146.317 172.488C145.733 170.637 143.766 169.604 141.935 170.189C141.916 170.189 141.896 170.189 141.877 170.208C140.027 170.793 138.995 172.78 139.579 174.631C142.228 183.028 146.337 191.27 152.491 198.771C155.51 202.453 159.502 204.869 163.807 205.94C167.273 206.798 170.915 206.798 174.401 205.863C176.388 205.336 177.44 203.174 176.583 201.303C176.505 201.148 176.427 200.972 176.368 200.816H176.349Z" fill="#B34035"/>
<path d="M168.792 124.89L147.213 119.512C144.682 118.889 143.123 116.317 143.766 113.765C144.389 111.232 146.96 109.673 149.511 110.316L171.09 115.694C173.622 116.317 175.18 118.889 174.538 121.441C173.914 123.974 171.344 125.533 168.792 124.89Z" fill="#B34035"/>
<path d="M166.592 146.555L144.487 144.12C141.896 143.828 140.007 141.49 140.299 138.898C140.592 136.307 142.929 134.417 145.519 134.71L167.624 137.145C170.214 137.437 172.103 139.775 171.811 142.366C171.519 144.958 169.182 146.848 166.592 146.555Z" fill="#B34035"/>
<path d="M170.409 167.129L148.226 165.609C145.616 165.434 143.649 163.174 143.824 160.563C144 157.952 146.259 155.985 148.869 156.16L171.051 157.68C173.661 157.855 175.628 160.115 175.453 162.726C175.278 165.337 173.018 167.304 170.409 167.129Z" fill="#B34035"/>
<path d="M180.341 186.301L158.197 188.386C155.588 188.639 153.29 186.71 153.036 184.119C152.783 181.508 154.711 179.209 157.302 178.956L179.445 176.871C182.055 176.618 184.353 178.547 184.606 181.138C184.86 183.749 182.932 186.048 180.341 186.301Z" fill="#B34035"/>
<path d="M71.0051 143.263L65.474 125.299C64.6561 122.669 65.8246 119.825 68.259 118.519C71.9594 116.512 76.5557 113.103 78.5032 108.407C84.3264 94.3015 94.1227 86.703 108.437 85.1833C113.676 84.6183 115.682 83.9754 116.422 83.5273C116.909 83.235 117.63 81.9686 118.331 80.2151C123.687 66.7327 134.184 58.8615 140.202 55.2765C142.461 53.9322 145.402 54.8674 146.454 57.2833L154.984 76.6107C156.075 79.0851 155.354 81.9881 153.212 83.6636C151.011 85.3977 148.382 88.0669 146.98 91.6128C139.131 111.349 124.641 114.467 111.67 115.85C108.983 116.142 108.632 116.181 106.977 120.156C100.764 135.197 87.9684 143.341 79.9055 147.16C76.3414 148.855 72.1152 147.004 70.9662 143.243L71.0051 143.263Z" fill="#8F3A23"/>
<path d="M149.141 81.7345C149.141 81.7345 149.102 81.7345 149.083 81.7345C148.07 81.4422 146.96 81.7345 146.24 82.5138C145.597 83.2152 144.974 83.9555 144.389 84.7738C143.338 86.2156 143.864 88.2613 145.499 89.0017C145.499 89.0017 145.538 89.0017 145.558 89.0212C146.785 89.5667 148.226 89.1771 149.005 88.086C149.453 87.4625 149.94 86.878 150.427 86.3325C151.829 84.7933 151.128 82.3384 149.141 81.7539V81.7345Z" fill="#B86954"/>
<path d="M142.656 93.9114C142.656 93.9114 142.598 93.8919 142.578 93.8725C141.254 93.3269 139.774 93.8725 139.053 95.0804C135.723 100.828 131.574 104.296 126.959 106.459C125.829 106.985 125.167 108.154 125.323 109.401C125.323 109.401 125.323 109.44 125.323 109.459C125.576 111.349 127.601 112.421 129.315 111.602C134.827 109.03 139.929 104.881 143.961 97.9055C144.818 96.4443 144.195 94.5349 142.637 93.892L142.656 93.9114Z" fill="#B86954"/>
<path d="M85.4367 102.679C85.4367 102.679 85.4756 102.679 85.4951 102.698C86.6637 103.107 87.9685 102.737 88.7086 101.744C91.9805 97.4573 96.012 94.4569 100.939 92.645C102.088 92.2358 102.848 91.1253 102.809 89.9173C102.809 89.8978 102.809 89.8784 102.809 89.8589C102.731 87.93 100.822 86.6441 99.0112 87.3066C93.0127 89.4887 88.0854 93.1515 84.1513 98.3536C83.0217 99.8538 83.6644 102.055 85.4367 102.679Z" fill="#B86954"/>
<path d="M124.622 75.7336C124.622 75.7336 124.68 75.7336 124.7 75.7531C125.849 76.0259 127.037 75.5777 127.699 74.6036C130.055 71.0771 132.762 68.1741 135.372 65.8361C136.424 64.9009 136.58 63.3228 135.781 62.1733C135.781 62.1733 135.762 62.1343 135.742 62.1343C134.788 60.751 132.84 60.5172 131.574 61.6472C128.634 64.2775 125.595 67.5312 122.947 71.5057C121.876 73.1034 122.752 75.305 124.622 75.7531V75.7336Z" fill="#B86954"/>
<path d="M101.485 124.851C101.485 124.851 101.446 124.831 101.426 124.812C100.141 124.013 98.4853 124.383 97.6283 125.63C93.9474 130.949 89.3512 134.924 85.0276 137.827C83.9954 138.528 83.528 139.814 83.9175 141.003C83.9175 141.003 83.9175 141.042 83.9175 141.061C84.4823 142.834 86.5856 143.574 88.1242 142.542C92.9737 139.288 98.1542 134.807 102.322 128.787C103.218 127.481 102.828 125.689 101.485 124.851Z" fill="#B86954"/>
<path d="M69.7588 139.035L67.4022 131.261C67.558 131.222 83.4501 126.176 89.0007 112.733C93.2464 102.426 99.4201 97.5552 109.645 96.4836C120.98 95.2757 125.342 93.3663 128.906 84.4235C134.671 69.928 148.577 63.6349 149.161 63.3816L152.433 70.8047L150.797 67.0834L152.452 70.7852C152.335 70.8437 140.962 76.0652 136.443 87.4044C131.419 100.03 123.453 103.166 110.502 104.55C103.296 105.31 99.6344 108.271 96.5183 115.831C89.4876 132.878 70.5573 138.782 69.7588 139.035Z" fill="#FFD6A0"/>
<path d="M106.587 157.798L96.3819 142.016C94.8822 139.698 95.2523 136.658 97.2193 134.729C100.238 131.788 103.744 127.267 104.328 122.221C106.1 107.063 113.462 97.0878 126.842 91.7299C131.73 89.7621 133.483 88.6126 134.087 87.9697C134.476 87.5605 134.827 86.1382 135.022 84.2679C136.521 69.8502 144.487 59.4072 149.297 54.3221C151.108 52.4127 154.186 52.5296 155.86 54.5559L169.318 70.8439C171.051 72.9286 171.129 75.929 169.532 78.1111C167.877 80.3907 166.085 83.6639 165.696 87.4631C163.495 108.583 150.407 115.538 138.293 120.39C135.781 121.403 135.45 121.52 134.944 125.806C133.054 141.977 122.947 153.297 116.228 159.142C113.248 161.733 108.69 161.11 106.548 157.798H106.587Z" fill="#A64429"/>
<path d="M165.092 77.3513C165.092 77.3513 165.053 77.3513 165.033 77.3513C163.962 77.3513 162.989 77.9163 162.502 78.871C162.073 79.7088 161.684 80.605 161.333 81.5402C160.71 83.2158 161.781 85.0472 163.534 85.3005C163.553 85.3005 163.573 85.3005 163.592 85.3005C164.917 85.4953 166.202 84.7355 166.65 83.4691C166.923 82.7482 167.215 82.0468 167.546 81.4038C168.481 79.5529 167.137 77.3708 165.072 77.3513H165.092Z" fill="#B86954"/>
<path d="M162.132 90.8335C162.132 90.8335 162.073 90.8335 162.054 90.8335C160.652 90.6776 159.347 91.5738 158.996 92.9571C157.341 99.4061 154.302 103.868 150.446 107.199C149.511 108.018 149.18 109.323 149.667 110.473C149.667 110.473 149.667 110.512 149.687 110.531C150.446 112.285 152.667 112.752 154.127 111.505C158.723 107.531 162.521 102.153 164.508 94.3599C164.936 92.7039 163.826 91.0478 162.132 90.853V90.8335Z" fill="#B86954"/>
<path d="M109.45 114.818C109.45 114.818 109.489 114.818 109.508 114.818C110.755 114.896 111.884 114.175 112.352 113.025C114.319 107.999 117.396 104.024 121.661 100.946C122.654 100.225 123.083 98.9583 122.713 97.8088C122.713 97.7893 122.713 97.7698 122.693 97.7503C122.109 95.9189 119.908 95.198 118.35 96.3281C113.17 100.049 109.43 104.92 107.054 110.999C106.373 112.752 107.58 114.701 109.469 114.818H109.45Z" fill="#B86954"/>
<path d="M139.851 78.2281C139.851 78.2281 139.91 78.2281 139.929 78.2281C141.098 78.1892 142.13 77.4293 142.5 76.3188C143.805 72.2857 145.616 68.7593 147.505 65.7978C148.265 64.6093 147.992 63.0507 146.902 62.1544C146.902 62.1544 146.882 62.135 146.863 62.1155C145.558 61.0439 143.63 61.3556 142.714 62.7779C140.591 66.1095 138.566 70.0646 137.086 74.6042C136.482 76.4357 137.923 78.3061 139.851 78.2476V78.2281Z" fill="#B86954"/>
<path d="M130.912 131.787C130.912 131.787 130.854 131.787 130.834 131.768C129.393 131.339 127.874 132.157 127.387 133.58C125.284 139.698 121.934 144.783 118.564 148.738C117.746 149.692 117.669 151.056 118.35 152.108C118.35 152.108 118.37 152.147 118.389 152.147C119.421 153.686 121.642 153.842 122.849 152.44C126.627 147.997 130.406 142.269 132.782 135.333C133.288 133.833 132.431 132.216 130.912 131.768V131.787Z" fill="#B86954"/>
<path d="M104.231 154.057L99.8486 147.218C99.9849 147.14 113.929 137.964 115.604 123.527C116.89 112.46 121.525 106.089 131.049 102.27C141.624 98.023 145.324 95.0031 146.317 85.4368C147.934 69.9086 159.6 60.0891 160.106 59.6799L165.287 65.9341L162.696 62.7973L165.287 65.9146C165.287 65.9146 155.646 74.117 154.4 86.2551C152.998 99.757 146.181 104.94 134.087 109.791C127.348 112.499 124.641 116.318 123.687 124.442C121.544 142.776 104.951 153.589 104.231 154.037V154.057Z" fill="#FFD6A0"/>
</svg>
