<svg width="456" height="290" viewBox="0 0 456 290" fill="none" xmlns="http://www.w3.org/2000/svg">
<path d="M341.867 167.05L455.397 232.277C455.397 232.277 457.479 237.262 453.182 237.154L346.778 190.353C346.778 190.353 341.101 187.774 338.77 192.906C336.439 198.037 341.143 198.022 342.787 198.462C344.431 198.902 447.601 250.115 447.601 250.115C447.601 250.115 450.447 255.447 445.64 255.108L339.568 210.96C339.568 210.96 333.358 207.525 330.779 213.202C330.779 213.202 330.277 217.012 337.373 219.27C344.416 221.548 440.71 266.346 440.71 266.346C440.71 266.346 443.229 270.563 439.276 271.533L330.594 230.327C330.594 230.327 324.908 227.48 322.709 232.32C320.51 237.16 326.061 238.277 328.489 239.599C330.971 240.902 432.415 284.703 432.415 284.703C432.415 284.703 434.549 288.702 430.898 289.589L331.937 258.682C331.937 258.682 282.685 242.147 265.585 222.964C262.932 219.915 255.225 207.502 254.205 204.624C248.151 187.606 235.06 178.059 226.253 174.059C215.954 169.38 -103.503 49.237 -103.503 49.237C-108.251 14.9446 -81.1358 -1.62109e-05 -81.1358 -1.62109e-05C-81.1358 -1.62109e-05 187.105 148.811 232.991 156.618C232.991 156.618 255.083 164.327 282.239 153.835C282.239 153.835 313.322 147.936 341.937 166.994L341.867 167.05Z" fill="#FFDDD5"/>
</svg>
