<svg width="301" height="688" viewBox="0 0 301 688" fill="none" xmlns="http://www.w3.org/2000/svg">
<path d="M151.498 548.826C144.769 550.799 138.833 550.871 133.69 549.042C128.694 547.171 125.338 543.31 123.623 537.458C120.149 525.609 122.241 514.591 129.898 504.404C135.669 496.993 141.456 490.452 147.259 484.779C153.166 478.918 157.843 472.384 161.29 465.178C163.048 461.962 163.688 458.995 163.208 456.276C162.686 453.411 161.26 451.525 158.929 450.62C156.745 449.672 154.422 449.876 151.961 451.233C149.456 452.444 147.325 454.657 145.567 457.873C143.474 461.028 141.892 464.033 140.823 466.889C139.754 469.744 138.697 472.913 137.653 476.396C135.91 481.831 133.247 487.378 129.663 493.035C126.183 498.503 121.444 502.116 115.446 503.874C107.839 506.104 101.241 505.814 95.652 503.005C90.1662 500.006 86.3727 494.923 84.2715 487.755C82.5134 481.757 83.0051 475.576 85.7465 469.213C88.5913 462.66 93.4186 456.638 100.228 451.148C107.184 445.614 115.855 441.324 126.242 438.28C144.235 433.006 158.21 432.721 168.168 437.428C178.229 441.945 184.824 449.542 187.955 460.221C190.356 468.413 190.573 475.657 188.606 481.952C186.596 488.101 182.142 495.126 175.244 503.025C171.817 507.048 169.559 510.728 168.472 514.065C167.489 517.213 167.533 520.615 168.605 524.272C170.32 530.124 169.58 535.186 166.385 539.458C163.189 543.731 158.227 546.854 151.498 548.826ZM135.299 595.989C133.027 588.236 133.669 581.216 137.228 574.931C140.787 568.646 146.808 564.259 155.293 561.772C163.485 559.371 170.702 559.876 176.944 563.289C183.144 566.555 187.38 572.064 189.653 579.818C191.883 587.424 191.343 594.254 188.034 600.308C184.725 606.361 178.829 610.631 170.344 613.118C161.567 615.691 154.1 615.418 147.943 612.298C141.744 609.032 137.529 603.595 135.299 595.989Z" fill="#FFDDD5"/>
<path d="M10.2565 362.517C10.1682 359.537 10.6599 356.763 11.7314 354.195C12.8855 351.544 14.7443 349.429 17.3078 347.852C19.8711 346.191 23.181 345.357 27.2374 345.35C31.3767 345.342 34.6896 346.164 37.1762 347.815C39.7454 349.383 41.5706 351.491 42.6516 354.138C43.8153 356.702 44.3585 359.475 44.2812 362.455C44.2034 365.187 43.7942 367.754 43.0535 370.156C42.3129 372.559 41.4482 375.044 40.4595 377.612C39.4706 380.097 38.5651 382.872 37.7428 385.937C36.9204 388.919 36.3886 392.355 36.1474 396.246C35.905 399.476 34.9987 401.878 33.4287 403.454C31.8585 404.947 29.8316 405.696 27.3481 405.7C24.7817 405.705 22.7107 404.964 21.1351 403.476C19.5594 401.989 18.6858 399.59 18.5141 396.279C18.2587 392.388 17.7143 388.954 16.8809 385.975C16.0475 382.913 15.1318 380.142 14.1338 377.66C13.1356 375.096 12.2618 372.614 11.5124 370.214C10.7629 367.815 10.3443 365.249 10.2565 362.517ZM27.4148 442.084C22.5305 442.093 18.72 440.817 15.9834 438.256C13.2466 435.612 11.8743 432.137 11.8664 427.832C11.8583 423.445 13.2178 419.882 15.9447 417.145C18.7544 414.408 22.56 413.035 27.3615 413.027C31.9975 413.018 35.6839 414.377 38.4209 417.104C41.1576 419.748 42.53 423.264 42.5381 427.652C42.546 431.957 41.2278 435.436 38.5835 438.09C35.9392 440.744 32.2163 442.075 27.4148 442.084Z" fill="#FFDDD5"/>
<path d="M240.707 115.247C236.947 114.431 234.067 112.908 232.068 110.678C230.151 108.465 229.547 105.723 230.256 102.453C231.691 95.8311 235.591 91.07 241.954 88.1696C246.68 86.1125 251.185 84.4785 255.471 83.2675C259.856 81.9925 263.824 80.0709 267.377 77.5027C269.068 76.4142 270.155 75.1519 270.637 73.7158C271.137 72.1979 270.945 70.915 270.059 69.8671C269.255 68.8369 268.082 68.3259 266.54 68.3339C265.015 68.2602 263.407 68.7676 261.716 69.8562C259.879 70.8275 258.328 71.8609 257.064 72.9563C255.799 74.0517 254.458 75.3018 253.041 76.7065C250.775 78.8687 248.036 80.8428 244.824 82.6289C241.712 84.3509 238.48 84.8487 235.128 84.1221C230.877 83.2007 227.773 81.3296 225.817 78.5089C223.96 75.6242 223.466 72.1789 224.334 68.173C225.06 64.8211 226.919 61.9714 229.91 59.624C233.001 57.2125 236.907 55.577 241.63 54.7176C246.435 53.876 251.739 54.0842 257.544 55.3424C267.599 57.522 274.409 61.0523 277.973 65.9333C281.637 70.7504 282.822 76.1428 281.528 82.1108C280.536 86.689 278.74 90.237 276.14 92.7548C273.557 95.1909 269.568 97.4074 264.17 99.4045C261.463 100.444 259.409 101.625 258.01 102.948C256.71 104.207 255.838 105.858 255.395 107.902C254.686 111.172 253.001 113.418 250.34 114.638C247.679 115.859 244.468 116.062 240.707 115.247ZM220.525 133.725C221.464 129.393 223.616 126.178 226.98 124.083C230.344 121.988 234.397 121.454 239.139 122.482C243.717 123.474 247.063 125.612 249.176 128.894C251.307 132.095 251.903 135.862 250.963 140.195C250.042 144.446 247.99 147.596 244.807 149.645C241.623 151.694 237.661 152.205 232.919 151.177C228.014 150.114 224.487 148.023 222.339 144.903C220.208 141.703 219.603 137.977 220.525 133.725Z" fill="#FFDDD5"/>
</svg>
