<svg width="339" height="614" viewBox="0 0 339 614" fill="none" xmlns="http://www.w3.org/2000/svg">
<path d="M87.4569 460.882C80.012 459.184 74.3304 456.101 70.412 451.632C66.6554 447.199 65.5153 441.746 66.9916 435.273C69.9813 422.163 77.8206 412.799 90.5096 407.179C99.9306 403.198 108.906 400.052 117.435 397.741C126.163 395.305 134.079 391.576 141.183 386.556C144.562 384.432 146.746 381.951 147.734 379.111C148.759 376.11 148.404 373.56 146.669 371.462C145.096 369.401 142.779 368.361 139.718 368.344C136.694 368.166 133.493 369.138 130.114 371.262C126.448 373.15 123.349 375.168 120.817 377.314C118.284 379.461 115.596 381.913 112.754 384.67C108.211 388.912 102.734 392.771 96.323 396.246C90.1106 399.597 83.6865 400.516 77.0509 399.002C68.6349 397.083 62.516 393.304 58.6941 387.665C55.071 381.901 54.1637 375.054 55.9722 367.124C57.4855 360.488 61.2348 354.873 67.2201 350.279C73.4041 345.56 81.191 342.398 90.5808 340.794C100.132 339.226 110.654 339.753 122.145 342.373C142.052 346.913 155.489 354.064 162.457 363.825C169.624 373.462 171.86 384.188 169.166 396.002C167.099 405.066 163.459 412.067 158.246 417.008C153.07 421.787 145.105 426.1 134.353 429.948C128.958 431.952 124.858 434.252 122.053 436.847C119.446 439.318 117.682 442.576 116.759 446.622C115.283 453.096 111.891 457.515 106.584 459.881C101.278 462.246 94.9017 462.58 87.4569 460.882ZM47.0136 497.119C48.9697 488.541 53.3082 482.209 60.0289 478.123C66.7496 474.037 74.8034 473.064 84.1904 475.205C93.2538 477.272 99.8469 481.585 103.97 488.144C108.13 494.541 109.231 502.028 107.275 510.606C105.356 519.022 101.216 525.229 94.8561 529.227C88.496 533.225 80.6225 534.153 71.2354 532.013C61.5248 529.798 54.5711 525.573 50.3744 519.338C46.2146 512.941 45.0943 505.535 47.0136 497.119Z" fill="#FFDDD5"/>
<path d="M227.201 105.446C225.606 101.757 224.839 98.037 224.902 94.2861C225.027 90.39 226.302 86.8153 228.727 83.562C231.11 80.2051 234.841 77.5114 239.918 75.4811C245.099 73.4094 249.659 72.7882 253.596 73.6176C257.596 74.3019 260.932 76.0328 263.605 78.81C266.34 81.4423 268.402 84.6443 269.79 88.4162C271.054 91.8772 271.82 95.2966 272.089 98.6746C272.358 102.053 272.513 105.596 272.554 109.306C272.554 112.912 272.802 116.839 273.299 121.087C273.754 125.232 274.8 129.802 276.437 134.796C277.742 138.962 277.804 142.423 276.622 145.179C275.399 147.831 273.233 149.779 270.125 151.022C266.912 152.307 263.949 152.41 261.234 151.332C258.519 150.254 256.23 147.684 254.365 143.622C252.107 138.876 249.714 134.845 247.186 131.529C244.616 128.109 242.088 125.094 239.602 122.482C237.074 119.767 234.743 117.094 232.609 114.461C230.474 111.829 228.672 108.824 227.201 105.446ZM288.335 196.565C282.221 199.009 276.813 199.309 272.109 197.464C267.363 195.516 263.913 191.847 261.758 186.459C259.562 180.967 259.49 175.827 261.543 171.04C263.698 166.212 267.781 162.596 273.792 160.193C279.594 157.873 284.889 157.738 289.676 159.791C294.422 161.739 297.892 165.46 300.089 170.952C302.243 176.34 302.325 181.355 300.335 185.997C298.345 190.639 294.345 194.161 288.335 196.565Z" fill="#FFDDD5"/>
</svg>
