<svg width="119" height="119" viewBox="0 0 119 119" fill="none" xmlns="http://www.w3.org/2000/svg">
<circle cx="59.5" cy="59.5" r="59.5" fill="black"/>
<path d="M28.6807 70.075C27.7473 70.075 26.8057 69.9833 25.8557 69.8C24.9223 69.6 24.0557 69.3167 23.2557 68.95C22.4723 68.5667 21.839 68.1083 21.3557 67.575C20.8723 67.025 20.6307 66.3917 20.6307 65.675C20.6307 64.7583 20.9223 64.025 21.5057 63.475C22.089 62.925 22.7723 62.6667 23.5557 62.7C24.1723 62.7167 24.789 62.85 25.4057 63.1C26.0223 63.3333 26.6473 63.5667 27.2807 63.8C27.9307 64.0333 28.5807 64.15 29.2307 64.15C29.8807 64.15 30.3307 64.0667 30.5807 63.9C30.8307 63.7333 30.9557 63.5083 30.9557 63.225C30.9557 62.8917 30.7807 62.6167 30.4307 62.4C30.0807 62.1833 29.639 62.0167 29.1057 61.9L27.8807 61.6C26.614 61.3 25.4807 60.9667 24.4807 60.6C23.4807 60.2167 22.689 59.7167 22.1057 59.1C21.539 58.4667 21.2557 57.625 21.2557 56.575C21.2557 55.425 21.5723 54.4917 22.2057 53.775C22.839 53.0417 23.6973 52.5083 24.7807 52.175C25.864 51.8417 27.0723 51.675 28.4057 51.675C29.7723 51.675 30.9723 51.8167 32.0057 52.1C33.039 52.3833 33.839 52.7917 34.4057 53.325C34.989 53.8583 35.2807 54.5083 35.2807 55.275C35.2807 56.0917 35.0557 56.7333 34.6057 57.2C34.1723 57.65 33.589 57.875 32.8557 57.875C32.3723 57.875 31.864 57.7917 31.3307 57.625C30.814 57.4583 30.264 57.3 29.6807 57.15C29.114 56.9833 28.5057 56.9 27.8557 56.9C27.2723 56.9 26.8307 56.9917 26.5307 57.175C26.2307 57.3417 26.0807 57.5667 26.0807 57.85C26.0807 58.2 26.2807 58.4583 26.6807 58.625C27.0807 58.7917 27.739 58.9917 28.6557 59.225L30.0557 59.55C31.2057 59.8333 32.214 60.175 33.0807 60.575C33.9473 60.975 34.6223 61.5 35.1057 62.15C35.589 62.8 35.8307 63.65 35.8307 64.7C35.8307 65.9667 35.5307 67 34.9307 67.8C34.3307 68.5833 33.4973 69.1583 32.4307 69.525C31.364 69.8917 30.114 70.075 28.6807 70.075ZM38.5754 57.35C37.7421 57.35 37.0587 57.1083 36.5254 56.625C36.0087 56.1417 35.7504 55.475 35.7504 54.625C35.7504 53.7917 35.9837 53.125 36.4504 52.625C36.9337 52.1083 37.6421 51.85 38.5754 51.85H49.3504C50.2837 51.85 50.9837 52.1083 51.4504 52.625C51.9337 53.125 52.1754 53.7917 52.1754 54.625C52.1754 55.475 51.9087 56.1417 51.3754 56.625C50.8587 57.1083 50.1837 57.35 49.3504 57.35C48.7837 57.35 48.3254 57.2917 47.9754 57.175C47.6421 57.0417 47.3671 56.8917 47.1504 56.725C46.9337 56.5417 46.7254 56.3917 46.5254 56.275C46.3254 56.1417 46.0754 56.075 45.7754 56.075L45.5504 56.525C45.6171 56.675 45.7337 56.8917 45.9004 57.175C46.0671 57.4417 46.2254 57.8333 46.3754 58.35C46.5254 58.85 46.6004 59.5333 46.6004 60.4V67.625C46.6004 68.3083 46.3421 68.875 45.8254 69.325C45.3254 69.775 44.7087 70 43.9754 70C43.2254 70 42.5921 69.775 42.0754 69.325C41.5754 68.875 41.3254 68.3083 41.3254 67.625V60.4C41.3254 59.5333 41.4004 58.85 41.5504 58.35C41.7004 57.8333 41.8587 57.4417 42.0254 57.175C42.2087 56.8917 42.3337 56.675 42.4004 56.525L42.1504 56.075C41.8504 56.075 41.6004 56.1417 41.4004 56.275C41.2004 56.3917 40.9921 56.5417 40.7754 56.725C40.5587 56.8917 40.2837 57.0417 39.9504 57.175C39.6171 57.2917 39.1587 57.35 38.5754 57.35ZM51.1561 70C50.0394 69.8333 49.3144 69.325 48.9811 68.475C48.6477 67.6083 48.7144 66.5167 49.1811 65.2L52.4811 55.825C52.7811 54.9583 53.1227 54.2167 53.5061 53.6C53.9061 52.9833 54.3977 52.5083 54.9811 52.175C55.5811 51.8417 56.3227 51.675 57.2061 51.675C58.5394 51.675 59.5394 52.0417 60.2061 52.775C60.8894 53.5083 61.4561 54.525 61.9061 55.825L65.1811 65.2C65.6477 66.5167 65.7311 67.6083 65.4311 68.475C65.1477 69.325 64.4394 69.8333 63.3061 70C62.3894 70.1167 61.5894 70.0083 60.9061 69.675C60.2394 69.3417 59.8394 68.8 59.7061 68.05C59.6061 67.55 59.5894 67.1333 59.6561 66.8C59.7394 66.4667 59.8144 66.2 59.8811 66C59.9311 65.8333 59.9311 65.675 59.8811 65.525C59.8477 65.3583 59.7227 65.275 59.5061 65.275H54.8561C54.6394 65.275 54.5061 65.3583 54.4561 65.525C54.4227 65.675 54.4394 65.8333 54.5061 66C54.5727 66.2 54.6394 66.4667 54.7061 66.8C54.7727 67.1333 54.7644 67.55 54.6811 68.05C54.5477 68.8 54.1561 69.3417 53.5061 69.675C52.8561 70.0083 52.0727 70.1167 51.1561 70ZM59.0311 61.775L57.7311 57.7C57.6977 57.5333 57.6394 57.4083 57.5561 57.325C57.4894 57.225 57.3727 57.175 57.2061 57.175C57.0394 57.175 56.9144 57.225 56.8311 57.325C56.7644 57.4083 56.7061 57.5333 56.6561 57.7L55.3811 61.775H59.0311ZM78.2865 70C77.4532 70 76.7949 69.75 76.3115 69.25C75.8282 68.7333 75.5699 68.0667 75.5365 67.25C75.4699 65.8333 75.1115 64.8333 74.4615 64.25C73.8282 63.65 72.9782 63.35 71.9115 63.35H71.4115V67.35C71.4115 68.2167 71.1782 68.875 70.7115 69.325C70.2449 69.775 69.6282 70 68.8615 70C68.0449 70 67.4032 69.775 66.9365 69.325C66.4699 68.875 66.2365 68.2167 66.2365 67.35V63.825C66.2365 62.0583 66.4949 60.7167 67.0115 59.8C67.5449 58.8833 68.2199 58.225 69.0365 57.825L68.9115 57.35H68.5115C67.7449 57.35 67.1365 57.1083 66.6865 56.625C66.2532 56.125 66.0199 55.45 65.9865 54.6C65.9699 53.7667 66.1949 53.0917 66.6615 52.575C67.1282 52.0583 67.7449 51.8 68.5115 51.8H74.8865C76.6699 51.8 78.1115 52.2333 79.2115 53.1C80.3115 53.9667 80.8615 55.35 80.8615 57.25C80.8615 58.2333 80.6949 59.0583 80.3615 59.725C80.0282 60.375 79.6032 60.875 79.0865 61.225C78.5699 61.575 78.0282 61.7833 77.4615 61.85V62.175C78.4949 62.425 79.3449 62.975 80.0115 63.825C80.6949 64.675 81.0365 65.8167 81.0365 67.25C81.0365 68.1667 80.7865 68.8583 80.2865 69.325C79.8032 69.775 79.1365 70 78.2865 70ZM71.2865 59.525C71.2865 59.8917 71.3532 60.1333 71.4865 60.25C71.6199 60.3667 71.8699 60.425 72.2365 60.425H74.5865C75.2865 60.425 75.7949 60.2667 76.1115 59.95C76.4282 59.6333 76.5865 59.1917 76.5865 58.625C76.5865 58.0417 76.4282 57.5917 76.1115 57.275C75.7949 56.9583 75.2865 56.8 74.5865 56.8H72.2365C71.8699 56.8 71.6199 56.85 71.4865 56.95C71.3532 57.05 71.2865 57.2917 71.2865 57.675V59.525ZM83.9992 57.35C83.1659 57.35 82.4826 57.1083 81.9492 56.625C81.4326 56.1417 81.1742 55.475 81.1742 54.625C81.1742 53.7917 81.4076 53.125 81.8742 52.625C82.3576 52.1083 83.0659 51.85 83.9992 51.85H94.7742C95.7076 51.85 96.4076 52.1083 96.8742 52.625C97.3576 53.125 97.5992 53.7917 97.5992 54.625C97.5992 55.475 97.3326 56.1417 96.7992 56.625C96.2826 57.1083 95.6076 57.35 94.7742 57.35C94.2076 57.35 93.7492 57.2917 93.3992 57.175C93.0659 57.0417 92.7909 56.8917 92.5742 56.725C92.3576 56.5417 92.1492 56.3917 91.9492 56.275C91.7492 56.1417 91.4992 56.075 91.1992 56.075L90.9742 56.525C91.0409 56.675 91.1576 56.8917 91.3242 57.175C91.4909 57.4417 91.6492 57.8333 91.7992 58.35C91.9492 58.85 92.0242 59.5333 92.0242 60.4V67.625C92.0242 68.3083 91.7659 68.875 91.2492 69.325C90.7492 69.775 90.1326 70 89.3992 70C88.6492 70 88.0159 69.775 87.4992 69.325C86.9992 68.875 86.7492 68.3083 86.7492 67.625V60.4C86.7492 59.5333 86.8242 58.85 86.9742 58.35C87.1242 57.8333 87.2826 57.4417 87.4492 57.175C87.6326 56.8917 87.7576 56.675 87.8242 56.525L87.5742 56.075C87.2742 56.075 87.0242 56.1417 86.8242 56.275C86.6242 56.3917 86.4159 56.5417 86.1992 56.725C85.9826 56.8917 85.7076 57.0417 85.3742 57.175C85.0409 57.2917 84.5826 57.35 83.9992 57.35Z" fill="white"/>
</svg>
